<?xml version="1.0" standalone="no"?>
<!DOCTYPE svg PUBLIC "-//W3C//DTD SVG 1.1//EN" "http://www.w3.org/Graphics/SVG/1.1/DTD/svg11.dtd" >
<svg xmlns="http://www.w3.org/2000/svg" xmlns:xlink="http://www.w3.org/1999/xlink" version="1.1">
<metadata>
Created by FontForge 20170731 at Sun Apr 30 20:17:56 2017
 By Aleksey,,,
Copyright (c) 2010-2012, Anton Koovit (anton@korkork.com), with Reserved Font Name 'Allan'
</metadata>
<defs>
<font id="Allan-Regular" horiz-adv-x="686" >
  <font-face 
    font-family="Allan"
    font-weight="400"
    font-stretch="normal"
    units-per-em="2048"
    panose-1="2 11 6 0 4 2 0 13 2 4"
    ascent="1638"
    descent="-410"
    x-height="1040"
    cap-height="1483"
    bbox="-323.889 -412 1772.2 1927.12"
    underline-thickness="102"
    underline-position="-408"
    unicode-range="U+0020-2212"
  />
<missing-glyph horiz-adv-x="1495" 
d="M1437 1432l-368 -1377q-8 -32 -24.5 -43.5t-49.5 -11.5h-815q-62 0 -41 70l362 1360q15 53 68 53h829q54 0 39 -51zM610 1382l-342 -1280h690l342 1280h-690z" />
    <glyph glyph-name=".notdef" horiz-adv-x="1495" 
d="M1437 1432l-368 -1377q-8 -32 -24.5 -43.5t-49.5 -11.5h-815q-62 0 -41 70l362 1360q15 53 68 53h829q54 0 39 -51zM610 1382l-342 -1280h690l342 1280h-690z" />
    <glyph glyph-name=".null" horiz-adv-x="0" 
 />
    <glyph glyph-name="nonmarkingreturn" horiz-adv-x="0" 
 />
    <glyph glyph-name="space" unicode=" " horiz-adv-x="368" 
 />
    <glyph glyph-name="exclam" unicode="!" horiz-adv-x="370" 
d="M78 365l246 1091q8 45 61 45h121q59 0 45 -47l-369 -1092q-14 -45 -55 -45h-12q-47 0 -37 48zM51 193h23q39 0 70.5 -35t31.5 -83t-32.5 -81t-84.5 -33h-20q-41 0 -70.5 34t-29.5 82t31.5 82t80.5 34z" />
    <glyph glyph-name="quotedbl" unicode="&#x22;" horiz-adv-x="880" 
d="M789 1612q0 -125 -49 -254q-112 -285 -196 -285q-23 0 -22 33t39 122t53.5 165.5t15.5 222.5q0 41 51 41h59q49 8 49 -45zM482 1612q0 -125 -49 -254q-112 -285 -196 -285q-23 0 -22 33t39 122t53.5 165.5t15.5 222.5q0 41 51 41h59q49 8 49 -45z" />
    <glyph glyph-name="numbersign" unicode="#" horiz-adv-x="1652" 
d="M134 608h313l92 355h-280q-60 0 -39 73l6 27q6 27 12.5 34t20.5 7h317l105 405q12 45 61 45h47q58 0 45 -47l-104 -403h399l105 405q12 45 61 45h47q58 0 45 -47l-104 -403h274q62 0 47 -66q-8 -45 -29.5 -60t-43.5 -15h-283l-90 -355h274q62 0 47 -65
q-8 -45 -29.5 -60.5t-43.5 -15.5h-285l-106 -422q-13 -45 -62 -45h-35q-75 0 -59 66l104 401h-395l-106 -422q-13 -45 -62 -45h-35q-75 0 -59 66l104 401h-276q-59 0 -39 74l6 26q6 27 12.5 34t20.5 7zM605 608h395l92 355h-397z" />
    <glyph glyph-name="dollar" unicode="$" horiz-adv-x="827" 
d="M589 983l10 143q0 107 -23.5 134.5t-56.5 25.5q-78 -14 -127 -120.5t-62.5 -196.5t21.5 -118t129 -46q158 -35 140.5 -221.5t-107.5 -337t-232 -185.5l-26 -100q-12 -43 -60 -43h-34q-66 0 -52 64l25 88q-121 59 -109 370q3 52 43 84l41 25q31 14 53.5 4t14.5 -81
t3 -184.5t73 -113.5q61 2 115.5 82t74 172t21.5 141q2 99 -162 129q-139 27 -137 158q6 180 92 340t215 205l31 119q12 43 59 43h45q55 0 43 -45l-29 -109q84 -25 106.5 -118t10.5 -269q-4 -45 -45 -61l-59 -21q-25 -4 -36 4t-9 39z" />
    <glyph glyph-name="percent" unicode="%" horiz-adv-x="1626" 
d="M30 -55l-82 2q-24 0 -30.5 20.5t18.5 46.5l1497 1504q47 47 98 47h80q29 0 35 -20.5t-18 -47.5l-1512 -1515q-37 -37 -86 -37zM512 1567q106 0 160.5 -75t54.5 -177.5t-39 -206.5t-125 -182t-190.5 -78t-167 65.5t-62.5 216t99.5 294t269.5 143.5zM377 971
q98 0 150.5 106.5t54.5 237.5t-92.5 130t-146.5 -104.5t-52 -236.5t86 -133zM1286 703q106 0 160.5 -75t54.5 -177.5t-39 -206.5t-125 -182t-190.5 -78t-167 65.5t-62.5 216t99.5 294t269.5 143.5zM1151 107q98 0 150.5 106.5t54.5 237.5t-92.5 130t-146.5 -104.5
t-52 -236.5t86 -133z" />
    <glyph glyph-name="ampersand" unicode="&#x26;" horiz-adv-x="1245" 
d="M414 602q-88 -45 -150.5 -122t-70 -162t42 -143t158 -55t229.5 105q-146 226 -209 377zM1020 721q-88 -307 -211 -490q98 -137 199 -258q47 -59 -21.5 -79.5t-126.5 16.5q-76 82 -160 199q-174 -160 -397 -129q-147 22 -220 116t-52 240q22 149 116.5 236t217.5 151
q-45 121 -45 222.5t49 205.5t151.5 171t251.5 52q35 -4 29 -41l-10 -49q-13 -29 -56 -29q-86 9 -176 -59q-47 -35 -74.5 -107.5t-15.5 -184t115 -318.5q43 -88 139 -232q115 183 156 367h-82q-35 0 -35 14.5t10 42.5l14 45q5 25 31 25h377q35 0 18 -45l-8 -25
q-14 -57 -43 -57h-141z" />
    <glyph glyph-name="quotesingle" unicode="'" horiz-adv-x="380" 
d="M482 1612q0 -125 -49 -254q-112 -285 -196 -285q-23 0 -22 33t39 122t53.5 165.5t15.5 222.5q0 41 51 41h59q49 8 49 -45z" />
    <glyph glyph-name="parenleft" unicode="(" horiz-adv-x="811" 
d="M201 369q0 362 174 703t436 589q43 41 82 37l61 -6q27 -2 32 -23.5t-11 -34.5q-270 -237 -449.5 -577t-179.5 -668q0 -190 42 -374.5t118 -284.5q10 -13 7 -28t-19 -19l-91 -25q-36 -20 -57 20q-145 267 -145 691z" />
    <glyph glyph-name="parenright" unicode=")" horiz-adv-x="833" 
d="M486 1665q148 -270 148 -662.5t-173.5 -732.5t-433.5 -587q-28 -27 -42.5 -33t-41.5 -4l-67 6q-35 4 -29 35q4 12 15 20q272 238 449 577t177 712.5t-160 617.5q-12 16 -7 29.5t22 17.5l86 25q37 20 57 -21z" />
    <glyph glyph-name="asterisk" unicode="*" horiz-adv-x="780" 
d="M348 1108l-199 33q-23 2 -33 23.5t-2 47.5l10 29q4 21 23.5 34t38.5 5l203 -82l28 229q8 52 76 52h27q26 0 43.5 -17.5t7.5 -50.5l-78 -217l213 72q70 22 70 -39v-31q0 -47 -52 -57l-237 -37l129 -213q27 -47 -19 -74l-30 -16q-51 -29 -74 24l-82 211l-166 -198
q-45 -52 -82 -9l-18 21q-35 41 6 80z" />
    <glyph glyph-name="plus" unicode="+" horiz-adv-x="827" 
d="M755 594h-260l-70 -264q-12 -45 -61 -45h-51q-58 0 -46 47l68 262h-227q-49 0 -37 47l14 59q4 21 15.5 28t31.5 7h240l59 221q13 45 62 45h51q57 0 45 -47l-57 -219h252q18 0 28 -12t6 -35l-10 -51q-10 -43 -53 -43z" />
    <glyph glyph-name="comma" unicode="," horiz-adv-x="464" 
d="M225 213q0 -211 -147 -461q-51 -88 -103 -88q-24 0 -25 26.5t30.5 102.5t47 170t23.5 227q0 35 43 46l82 18q49 8 49 -41z" />
    <glyph glyph-name="hyphen" unicode="-" horiz-adv-x="784" 
d="M154 735h512q18 0 28.5 -13t6.5 -34l-11 -51q-8 -43 -53 -43h-491q-50 0 -37 47l18 72q6 22 27 22z" />
    <glyph glyph-name="period" unicode="." horiz-adv-x="399" 
d="M164 193h22q39 0 71 -35t32 -83t-33 -81t-84 -33h-20q-41 0 -71 34t-30 82t32 82t81 34z" />
    <glyph glyph-name="slash" unicode="/" horiz-adv-x="847" 
d="M878 1556h69q58 0 25 -63l-768 -1448q-27 -45 -61 -45h-70q-25 0 -32 20.5t7 42.5l768 1448q23 45 62 45z" />
    <glyph glyph-name="zero" unicode="0" horiz-adv-x="858" 
d="M86 786q78 310 223.5 471.5t290.5 161.5t214 -94t69 -279.5t-73 -451.5t-206 -435t-271 -169t-220 92t-82 277.5t55 426.5zM248 745q-64 -235 -51.5 -417.5t117 -182.5t187.5 115t152 381q72 293 60.5 459t-115.5 166t-190 -117t-160 -404z" />
    <glyph glyph-name="one" unicode="1" horiz-adv-x="622" 
d="M612 1393q23 2 31 -15.5t2 -40.5l-330 -1292q-12 -45 -55 -45h-60q-24 0 -35.5 18.5t-5.5 44.5l281 1104l-176 -180q-45 -45 -84 -45h-59q-37 0 -46.5 33t25.5 65l272 238q115 115 162 115h78z" />
    <glyph glyph-name="two" unicode="2" horiz-adv-x="823" 
d="M133 139l508 8q31 0 43.5 -10t3.5 -43l-10 -45q-10 -49 -69 -49h-586q-64 0 -80 50t25 95l589 674q90 103 125 212.5t-1 184t-129 74.5t-156.5 -72.5t-63.5 -181.5q0 -14 -12.5 -28.5t-26.5 -18.5l-67 -14q-21 -4 -32 10t-11 39q0 143 105.5 268t283.5 125
q116 0 190 -64.5t88.5 -161.5t-28.5 -219t-144 -233z" />
    <glyph glyph-name="three" unicode="3" horiz-adv-x="782" 
d="M293 649q-29 -2 -42 7.5t-7 37.5l8 43q6 49 84 47q113 0 199 76t95 186.5t-23.5 175t-102.5 64.5t-125 -63.5t-61 -175.5q0 -41 -49 -52l-60 -14q-26 -6 -35.5 10.5t-7.5 42.5q8 150 103.5 263.5t236.5 113.5t208 -90t62 -240q-2 -84 -38 -159q-76 -154 -228 -211
q144 -56 142 -289q0 -170 -113 -310.5t-291 -140.5q-143 0 -192 111q-46 96 -41 215q0 51 32 65l64 29q24 10 38.5 0t11.5 -48t-2 -83t12.5 -77.5t33 -53t66.5 -23.5q75 0 140.5 83t82 199t-32.5 188.5t-168 72.5z" />
    <glyph glyph-name="four" unicode="4" horiz-adv-x="860" 
d="M728 330h-80l-72 -285q-12 -45 -61 -45h-60q-24 0 -35.5 18.5t-5.5 44.5l68 267h-428q-64 0 -78 52t25 103l593 881q21 27 62 27h76q34 0 39.5 -23.5t-15.5 -52.5l-581 -848l342 2l71 285q13 45 62 45h59q25 0 36 -18.5t5 -45.5l-67 -266h75q33 0 44.5 -10t2.5 -35
l-20 -64q-10 -32 -57 -32z" />
    <glyph glyph-name="five" unicode="5" horiz-adv-x="866" 
d="M341 872q86 58 203 58q276 0 186 -414q-51 -231 -192.5 -383.5t-274.5 -155.5q-112 -10 -169.5 57.5t-54.5 165t54 183.5q19 31 56 18l43 -14q49 -16 30 -53q-41 -96 -22.5 -158.5t72 -69t136.5 98t132 243t48 237.5t-52 108q-84 4 -134.5 -35t-105.5 -125
q-22 -33 -59 -21l-68 31q-20 8 -25.5 19.5t0.5 39.5l183 648q12 43 61 43h510q60 0 45 -52l-12 -55q-6 -26 -13.5 -33.5t-27.5 -7.5l-440 8z" />
    <glyph glyph-name="six" unicode="6" horiz-adv-x="837" 
d="M294 764q-127 -371 -82 -557q25 -103 92 -103q84 0 167 156t99 283q33 266 -129 266q-71 0 -147 -45zM353 901q78 39 162 35q238 -12 213 -352q-8 -121 -62.5 -258.5t-155.5 -245t-218 -107.5q-178 0 -236 199q-28 96 -7.5 256t93.5 363q105 286 286 450t312 166l193 -23
q18 -2 28.5 -15t0 -27.5t-61.5 -21.5t-122.5 -33.5t-149.5 -74.5q-168 -102 -275 -311z" />
    <glyph glyph-name="seven" unicode="7" horiz-adv-x="851" 
d="M901 1272l-635 -1229q-23 -47 -68 -41l-53 6q-37 2 -45 25.5t8 50.5l625 1161l-535 -4q-59 0 -43 57l15 54q6 26 13 33.5t27 7.5h642q38 0 58.5 -30t-9.5 -91z" />
    <glyph glyph-name="eight" unicode="8" horiz-adv-x="843" 
d="M319 721q-65 47 -103 119.5t-38 156.5q0 156 112.5 291t287.5 135q127 0 201.5 -81.5t74.5 -215.5q0 -90 -47 -176q-82 -145 -223 -225q65 -57 101 -139t36 -168q0 -162 -117 -303.5t-295 -141.5q-278 0 -278 297q0 234 288 451zM434 657q-135 -75 -211 -223
q-39 -74 -39 -146.5t35 -127t118 -54.5t150.5 92.5t67.5 192.5q0 193 -121 266zM479 799q80 41 144 125q63 86 67 166q12 190 -129 202q-88 6 -155.5 -69.5t-67.5 -168.5t29.5 -145.5t111.5 -109.5z" />
    <glyph glyph-name="nine" unicode="9" horiz-adv-x="884" 
d="M604 649q119 373 86 533q-20 98 -96 98q-66 0 -130.5 -79t-104.5 -200.5t-40 -242.5q0 -178 127 -178q29 0 81.5 18t76.5 51zM551 498q-74 -43 -150 -43q-120 0 -179.5 78.5t-59.5 213t56 290t162.5 263t233.5 107.5q160 0 222 -174q30 -90 9.5 -256t-97.5 -387
q-220 -623 -543 -623q-199 0 -199 307q0 60 41 72l64 19q24 8 38.5 -0.5t14.5 -32t-3 -80.5t11 -102.5t59 -47.5q103 0 211 172q58 88 109 224z" />
    <glyph glyph-name="colon" unicode=":" horiz-adv-x="675" 
d="M369 1073h22q39 0 71 -34.5t32 -83t-33 -81t-84 -32.5h-21q-41 0 -70.5 33.5t-29.5 82t31.5 82t81.5 33.5zM164 193h22q39 0 71 -35t32 -83t-33 -81t-84 -33h-20q-41 0 -71 34t-30 82t32 82t81 34z" />
    <glyph glyph-name="semicolon" unicode=";" horiz-adv-x="471" 
d="M350 1073h23q39 0 70.5 -34.5t31.5 -83t-32.5 -81t-84.5 -32.5h-20q-41 0 -70.5 33.5t-29.5 82t31.5 82t80.5 33.5zM248 213q0 -211 -148 -461q-51 -88 -102 -88q-25 0 -25 26.5t32 116t48.5 194.5t20.5 189q0 35 43 46l82 18q49 8 49 -41z" />
    <glyph glyph-name="less" unicode="&#x3c;" horiz-adv-x="968" 
d="M215 627l536 -207q49 -19 39 -76l-8 -41q-6 -33 -20.5 -39t-43.5 6l-655 277q-49 20 -39 71l6 29q8 45 62 64l784 268q39 12 51.5 -5.5t3.5 -49.5l-8 -33q-14 -51 -53 -62z" />
    <glyph glyph-name="equal" unicode="=" horiz-adv-x="921" 
d="M841 766h-647q-47 0 -37 47l19 72q4 16 12 19t39 3h643q18 0 28.5 -12t6.5 -35l-10 -51q-11 -43 -54 -43zM755 436h-647q-47 0 -37 47l19 72q4 16 12 19.5t39 3.5h643q18 0 28.5 -12.5t6.5 -35.5l-10 -51q-11 -43 -54 -43z" />
    <glyph glyph-name="greater" unicode="&#x3e;" horiz-adv-x="968" 
d="M745 627l-537 207q-49 18 -39 75l8 39q6 33 20.5 39t43.5 -6l655 -276q49 -21 39 -72l-6 -29q-8 -45 -62 -63l-784 -269q-39 -12 -51 5.5t-4 50.5l8 34q14 50 53 62z" />
    <glyph glyph-name="question" unicode="?" horiz-adv-x="653" 
d="M121 193h22q39 0 71 -35t32 -83t-33 -81t-84 -33h-20q-41 0 -71 34t-30 82t32 82t81 34zM242 371q0 -47 -62 -41l-43 4q-47 4 -37 76q37 235 100.5 288.5t133 62.5t99.5 37.5t56.5 84t47 186.5t14.5 187.5t-30.5 76t-45.5 21.5q-33 -8 -145 -121q-27 -25 -66 -4l-35 22
q-36 27 -12 66q43 61 119 120.5t123 69t125 -28.5t104.5 -102.5t22.5 -187.5q-21 -215 -89.5 -370.5t-181.5 -186.5q-30 -8 -79.5 -18.5t-65.5 -14.5q-16 -43 -34.5 -124t-18.5 -103z" />
    <glyph glyph-name="at" unicode="@" horiz-adv-x="1800" 
d="M1122 965l4 14q11 53 52 53l51 2q71 0 55 -65l-166 -623q-16 -84 6.5 -134t89 -50t159.5 110.5t154.5 358.5t-82 455.5t-442.5 209.5q-253 -6 -437.5 -180t-254 -398t-30.5 -435q38 -213 186 -361q168 -158 432 -147q23 2 32 -11.5t-3 -33.5l-17 -31q-16 -31 -63 -33
q-166 -10 -310.5 49.5t-261 213t-151.5 394t54 481t302 421t491.5 184.5t451.5 -117t232.5 -315.5t2.5 -430t-198.5 -384t-281 -148.5t-200.5 113q-35 -45 -87 -76t-108.5 -31t-109.5 32t-80 91q-66 146 -34 316t107.5 312t153.5 202q66 51 136.5 51t164.5 -59zM1094 842
q-33 22 -76 32q-137 44 -246 -219q-78 -188 -74 -305q6 -176 101 -176q61 0 102 66q76 120 193 602z" />
    <glyph glyph-name="A" unicode="A" horiz-adv-x="942" 
d="M322 592h301l49 711zM251 444l-199 -403q-23 -47 -76 -41l-47 4q-35 2 -46 26.5t3 51.5l682 1315q43 82 113 82l82 2q81 0 75 -99l-71 -1337q-4 -43 -62 -45l-69 2q-52 0 -48 55l27 387h-364z" />
    <glyph glyph-name="B" unicode="B" horiz-adv-x="921" 
d="M255 1483h340q154 0 236.5 -81t81.5 -248t-78.5 -267.5t-155.5 -132.5q135 -78 98 -291t-170 -338t-368 -125h-215q-25 0 -36.5 18.5t-4.5 44.5l325 1278h-51q-27 0 -47.5 16.5t-13.5 37.5l12 47q4 16 19.5 28.5t27.5 12.5zM310 692l-141 -553l129 6q104 5 195.5 89.5
t120 226t-36.5 194.5q-25 23 -76 30t-191 7zM474 1341l-127 -503l166 -4q96 -3 150.5 75t72 181.5t-17.5 177t-123 73.5h-121z" />
    <glyph glyph-name="C" unicode="C" horiz-adv-x="866" 
d="M911 1124q2 -14 2 -26q0 -29 -43 -41l-57 -17q-23 -4 -43.5 12.5t-22.5 43.5q-16 157 -69 223q-27 10 -60 10q-100 4 -201.5 -141.5t-176 -413.5t-49 -445t103.5 -196q153 14 254 236q18 41 32.5 49t49.5 -6l65 -27q37 -16 6 -82q-94 -174 -186 -246.5t-227 -72.5
q-72 -4 -158 63.5t-105.5 283.5t50 498.5t231.5 475t344 194.5q25 0 68 -14.5t78.5 -41t70.5 -115.5t43 -204z" />
    <glyph glyph-name="D" unicode="D" horiz-adv-x="858" 
d="M301 1350l-107 -13q-39 0 -32 47l8 58q6 31 35 39q81 18 261.5 15t289 -113.5t116.5 -324.5t-69.5 -471t-218 -425t-365.5 -170q-111 0 -184.5 11t-51.5 99zM469 1354l-312 -1217q19 -2 95 -2q129 0 237.5 148.5t166.5 362.5t61.5 362.5t-55 246t-193.5 99.5z" />
    <glyph glyph-name="E" unicode="E" horiz-adv-x="817" 
d="M517 0h-491q-25 0 -36.5 18.5t-4.5 44.5l325 1278h-82q-30 0 -37.5 9.5t0.5 44.5l13 47q8 26 17 33.5t38 7.5h668q28 0 37.5 -10.5t1.5 -40.5l-15 -52q-10 -39 -51 -39h-424l-119 -467h363q18 0 25.5 -14t3.5 -33l-15 -51q-10 -43 -61 -43h-350l-152 -592h393
q19 0 26 -14t3 -33l-14 -51q-11 -43 -62 -43z" />
    <glyph glyph-name="F" unicode="F" horiz-adv-x="808" 
d="M902 1341h-426l-145 -575h372q19 0 26 -14.5t3 -32.5l-14 -51q-10 -43 -62 -43h-362l-148 -580q-12 -45 -61 -45h-59q-25 0 -36.5 18.5t-4.5 44.5l325 1278h-80q-30 0 -37.5 9.5t1.5 44.5l12 47q8 26 17 33.5t38 7.5h668q28 0 37.5 -10.5t1.5 -40.5l-15 -52
q-10 -39 -51 -39z" />
    <glyph glyph-name="G" unicode="G" horiz-adv-x="880" 
d="M438 696h373q32 0 18 -45q-117 -372 -231.5 -511.5t-254 -151t-226.5 73.5t-95 315.5t64.5 495t212 429t267.5 188t198.5 -25.5t108.5 -162.5t38 -171t-41 -73.5l-72 -21q-20 -4 -33.5 7.5t-16.5 75t-31.5 130t-75.5 78.5q-97 25 -210.5 -123.5t-175 -373t-66.5 -378
t26.5 -237.5t103.5 -79t146.5 95.5t146.5 325.5h-197q-39 0 -24 57l16 58q8 24 31 24z" />
    <glyph glyph-name="H" unicode="H" horiz-adv-x="1091" 
d="M333 1438q12 45 61 45h60q24 0 35.5 -18.5t5.5 -45.5l-142 -551h488l145 570q12 45 62 45h59q25 0 36 -18.5t5 -45.5l-350 -1374q-13 -45 -62 -45h-59q-25 0 -36 18.5t-5 44.5l170 664h-488l-174 -682q-12 -45 -61 -45h-59q-25 0 -36.5 18.5t-4.5 44.5z" />
    <glyph glyph-name="I" unicode="I" horiz-adv-x="454" 
d="M328 1438q12 45 61 45h60q24 0 35.5 -18.5t4.5 -45.5l-350 -1374q-12 -45 -61 -45h-60q-24 0 -35.5 18.5t-5.5 44.5z" />
    <glyph glyph-name="J" unicode="J" horiz-adv-x="468" 
d="M402 1483h61q25 0 36 -18.5t5 -43.5l-342 -1345q-41 -158 -131 -238t-184 -106q-37 -13 -49 12l-25 47q-18 37 21 55q161 74 206 252l343 1340q12 45 59 45z" />
    <glyph glyph-name="K" unicode="K" horiz-adv-x="872" 
d="M328 1438q12 45 61 45h60q24 0 35.5 -18.5t4.5 -45.5l-145 -567l492 598q26 33 67 33h86q27 0 35 -18.5t-8 -39.5l-559 -663l209 -701q18 -61 -35 -61h-76q-29 0 -39 10t-18 41l-193 647l-166 -653q-12 -45 -61 -45h-60q-24 0 -35.5 18.5t-5.5 44.5z" />
    <glyph glyph-name="L" unicode="L" horiz-adv-x="788" 
d="M578 0h-560q-24 0 -35.5 18.5t-5.5 44.5l351 1375q12 45 61 45h60q24 0 35.5 -18.5t4.5 -45.5l-325 -1278h463q18 0 26.5 -14t3.5 -33l-14 -51q-10 -43 -65 -43z" />
    <glyph glyph-name="M" unicode="M" horiz-adv-x="1171" 
d="M328 1438q12 43 59 45h66q43 0 49 -47q37 -385 41 -553t-6 -314l524 875q22 39 61 39h64q26 0 36.5 -19.5t4.5 -44.5l-350 -1374q-13 -45 -62 -45h-59q-25 0 -36 18.5t-5 44.5l235 922q-86 -149 -204.5 -334.5t-155.5 -244.5q-51 -84 -103 -80l-41 2q-57 4 -51 82
q15 223 -10 596l-246 -961q-12 -45 -61 -45h-60q-24 0 -35.5 18.5t-5.5 44.5z" />
    <glyph glyph-name="N" unicode="N" horiz-adv-x="1058" 
d="M328 1438q12 43 59 45h62q22 0 35.5 -15.5t17.5 -48.5l182 -1036l268 1055q13 45 62 45h59q25 0 36 -18.5t5 -45.5l-350 -1374q-12 -45 -62 -45h-73q-15 0 -25 9t-16 54l-180 1033l-269 -1051q-12 -45 -61 -45h-60q-24 0 -35.5 18.5t-5.5 44.5z" />
    <glyph glyph-name="O" unicode="O" horiz-adv-x="913" 
d="M14 444q0 187 55.5 372t134.5 331.5t195.5 249t241.5 102.5q86 0 178 -57q64 -39 88.5 -123t24.5 -248t-72 -436q-65 -252 -192 -438q-68 -97 -161 -151t-180 -56t-167 41q-146 75 -146 413zM242 788q-58 -190 -59 -345.5t36 -234.5t96 -79q109 0 191 107
q100 139 192 438q84 287 62.5 472t-127.5 185q-113 0 -201 -114q-108 -144 -190 -429z" />
    <glyph glyph-name="P" unicode="P" horiz-adv-x="919" 
d="M255 1483h322q165 0 249 -70t86 -206t-50 -279.5t-146 -211t-207 -85t-219 -19.5l-146 -567q-12 -45 -61 -45h-59q-25 0 -36.5 18.5t-4.5 44.5l325 1280h-72.5t-34 17.5t-5.5 40.5l12 41q4 16 18.5 28.5t28.5 12.5zM474 1341l-149 -587l114 6q164 12 215.5 104
t71.5 188.5t20 159.5q0 121 -139 127q-24 2 -133 2z" />
    <glyph glyph-name="Q" unicode="Q" horiz-adv-x="942" 
d="M155 -100l14 47q9 41 68 55q-39 12 -72 29q-131 82 -142 337t53.5 451.5t140 338.5t192.5 241.5t217 99.5t182 -47t105.5 -132t24.5 -249t-65.5 -412.5t-172.5 -420.5q-119 -193 -295 -236q16 -6 31 -12q114 -56 245 0q21 8 32 -9.5t5 -43.5l-12 -52q-6 -35 -41 -49
q-119 -55 -233.5 1.5t-245.5 -1.5q-23 -8 -31 9.5t0 54.5zM247 788q-55 -190 -57 -345.5t36 -237.5t125 -75t173 123t176 412t67.5 481t-133 185t-208 -129t-179.5 -414z" />
    <glyph glyph-name="R" unicode="R" horiz-adv-x="921" 
d="M308 1341h-71.5t-33 17.5t-5.5 40.5l10 43q4 16 19.5 28.5t27.5 12.5h348q141 0 226 -71t85 -208t-51 -258q-88 -207 -284 -270l94 -606q10 -70 -45 -70h-70q-27 0 -39 16.5t-16 55.5l-78 579l-127 -2l-154 -604q-12 -45 -61 -45h-59q-25 0 -36.5 18.5t-4.5 44.5z
M474 1339l-139 -551l127 7q139 6 211.5 117.5t72.5 299.5q0 54 -34.5 87.5t-87 36.5t-150.5 3z" />
    <glyph glyph-name="S" unicode="S" horiz-adv-x="899" 
d="M913 1083q0 -51 -35 -61l-72 -23q-16 -6 -32.5 5.5t-16.5 37.5q0 271 -88 312q-41 20 -90 -2q-64 -33 -123 -137.5t-63 -237.5q-2 -53 18 -83t78 -48l84 -29q119 -41 156.5 -95t35.5 -159q-2 -221 -144 -407.5t-325 -188.5q-241 0 -241 393q-4 82 30 93l76 24q21 8 34 -3
t13 -36q-2 -307 82 -346q31 -6 80 14q84 37 148.5 152t76 224.5t-13.5 144.5t-129 67l-86 27q-57 18 -99 65.5t-42 118.5q0 127 54 263.5t160.5 236.5t234.5 100t183.5 -108.5t55.5 -313.5z" />
    <glyph glyph-name="T" unicode="T" horiz-adv-x="911" 
d="M1003 1335h-313l-330 -1290q-12 -45 -62 -45h-59q-25 0 -36 18.5t-5 44.5l324 1272h-324q-59 0 -45 47l14 60q7 26 19 33.5t43 7.5h799q63 0 49 -58l-11 -47q-8 -43 -63 -43z" />
    <glyph glyph-name="U" unicode="U" horiz-adv-x="1013" 
d="M352 -14q-139 2 -211 73q-143 150 -49 512l221 867q13 45 62 45h59q25 0 36 -18.5t5 -45.5l-231 -913q-98 -387 139 -387q98 0 175 82t126 282l244 955q12 45 61 45h52q24 0 34.5 -18.5t3.5 -45.5l-239 -950q-66 -264 -187 -371q-49 -47 -124.5 -79.5t-176.5 -32.5z" />
    <glyph glyph-name="V" unicode="V" horiz-adv-x="919" 
d="M288 178l621 1262q22 47 78 41l45 -4q67 -7 43 -78l-684 -1317q-37 -78 -123 -82l-64 -2q-41 -2 -63.5 29.5t-18.5 83.5l72 1323q6 45 62 45h69q53 0 47 -56z" />
    <glyph glyph-name="W" unicode="W" horiz-adv-x="1433" 
d="M460 1483q56 -4 17 -80q-86 -158 -156.5 -525.5t-21.5 -617.5q155 170 291.5 470t183.5 532l4 4q18 90 39 164q18 53 71 53h74q49 0 27 -62q-82 -241 -113 -577t33 -606q186 211 312 566t139 630q2 28 8 38.5t32 10.5h82q33 0 42.5 -10.5t7.5 -40.5q-11 -218 -90.5 -491
t-235.5 -541.5t-346 -399.5h-25q-37 0 -51 41q-78 225 -70 625q-73 -177 -200 -360t-238 -306h-51q-37 0 -51 41q-88 276 -44 696t185 717q14 29 55 29h90z" />
    <glyph glyph-name="X" unicode="X" horiz-adv-x="823" 
d="M523 684l135 -618q6 -27 -3 -46.5t-34 -19.5h-76q-51 0 -65 70l-86 512l-266 -535q-21 -47 -74 -47h-76q-74 0 -33 86l387 694l-133 623q-22 82 54 82h49q67 0 78 -70l92 -534l291 569q16 35 67 35h66q86 0 39 -86z" />
    <glyph glyph-name="Y" unicode="Y" horiz-adv-x="819" 
d="M427 768q191 285 269.5 421t140.5 267q14 31 61 27l64 -8q22 -2 31.5 -21.5t-7.5 -52.5q-235 -412 -530 -805l-140 -551q-12 -45 -61 -45h-59q-25 0 -36 18.5t-5 44.5l143 566q0 135 -31.5 384t-64.5 378q-13 36 0.5 62t44.5 28l57 8q29 2 41 -7t19 -42q63 -381 63 -672z
" />
    <glyph glyph-name="Z" unicode="Z" horiz-adv-x="937" 
d="M318 1483h667q48 0 39 -43l-12 -60q-8 -47 -57 -45h-8l-785 -1188h488q59 0 47 -55l-11 -47q-12 -45 -67 -45h-602q-51 0 -65.5 27.5t1.5 66.5l815 1241h-456q-58 0 -45 54l18 65q6 31 33 29z" />
    <glyph glyph-name="bracketleft" unicode="[" horiz-adv-x="518" 
d="M518 1622l-471 -1815h191q61 0 47 -65l-4 -21q-5 -22 -26.5 -39.5t-43.5 -17.5h-268q-84 0 -60 92l504 1946q18 63 84 63h303q62 0 47 -65l-4 -21q-4 -22 -25.5 -39.5t-43.5 -17.5h-230z" />
    <glyph glyph-name="backslash" unicode="\" horiz-adv-x="614" 
d="M309 41l-127 1452q-6 63 51 63h47q49 0 53 -45l125 -1466q2 -20 -11 -32.5t-34 -12.5h-57q-43 0 -47 41z" />
    <glyph glyph-name="bracketright" unicode="]" horiz-adv-x="593" 
d="M43 -193l463 1813h-188q-62 0 -47 66l4 22q4 23 25.5 40t43.5 17h271q84 0 59 -92l-497 -1945q-19 -64 -84 -64h-306q-61 0 -47 66l4 20q4 23 25.5 40t44.5 17h229z" />
    <glyph glyph-name="asciicircum" unicode="^" horiz-adv-x="860" 
d="M639 1303h23q28 0 49.5 -20.5t23.5 -59.5l60 -691q0 -34 -60 -34h-43q-53 0 -53 37l-39 618l-428 -627q-16 -28 -43 -28h-94q-25 0 -31 11t4 26l471 677q60 91 160 91z" />
    <glyph glyph-name="underscore" unicode="_" horiz-adv-x="1087" 
d="M-60 -88h901q43 0 35 -47l-11 -51q-8 -43 -53 -43h-880q-50 0 -37 47l18 71q6 23 27 23z" />
    <glyph glyph-name="grave" unicode="`" horiz-adv-x="493" 
d="M251 1430q41 0 64 -35l116 -189q11 -16 1.5 -27.5t-27.5 -11.5h-33q-31 0 -59 29l-183 190q-14 21 -9 32.5t22 11.5h108z" />
    <glyph glyph-name="a" unicode="a" horiz-adv-x="770" 
d="M604 999q8 48 47 48l47 2q75 -2 55 -74l-246 -819q64 47 127 135q23 33 51 14l50 -33q32 -22 10 -51q-84 -98 -154.5 -152.5t-167.5 -76.5q-28 -4 -37 22l-38 113q-58 -76 -99 -104.5t-63 -28.5h-4q-17 0 -50.5 23.5t-66.5 61.5t-47.5 83t2 163.5t93.5 331.5t158 297
t203 82q68 0 130 -37zM573 885q-109 61 -177.5 2.5t-134 -238.5t-85 -282.5t-16.5 -139.5t36 -54t109.5 67t134 230t133.5 415z" />
    <glyph glyph-name="b" unicode="b" horiz-adv-x="759" 
d="M177 143q98 -59 169.5 -8t139 235.5t87 289t16.5 141.5t-36.5 54t-111.5 -71t-134.5 -233t-123.5 -389zM275 -8q-68 0 -131 39q-17 -31 -55 -31h-35q-72 0 -60 66l375 1443q12 45 62 45h47q57 0 45 -47l-178 -698l30 51q43 72 98.5 123t90.5 51h4q16 0 51 -23.5
t68.5 -65.5t46 -88t-6 -168t-96.5 -335t-157.5 -287.5t-198.5 -74.5z" />
    <glyph glyph-name="c" unicode="c" horiz-adv-x="604" 
d="M657 926q33 -35 8 -64l-34 -39q-35 -39 -62 -10l-22 25q-74 75 -117 65q-74 -14 -156 -157.5t-117.5 -296t-17.5 -254.5q4 -25 38 -45.5t52 -16.5q62 33 137 123q23 31 66 4l31 -20q65 -39 -111 -181q-74 -63 -115 -74.5t-123.5 30.5t-101.5 83q-57 125 -2 355.5
t135 352.5t157 185.5t166 55t189 -120.5z" />
    <glyph glyph-name="d" unicode="d" horiz-adv-x="794" 
d="M572 885q-102 57 -170.5 8t-131 -218t-91 -297t-8 -177t67.5 -21q96 62 172.5 228.5t160.5 476.5zM900 1507l-389 -1351q59 47 123 135q22 33 51 14l49 -33q33 -22 10 -51q-84 -98 -154.5 -152.5t-166.5 -76.5q-29 -6 -37 22l-39 113q-41 -57 -87 -95t-75 -38h-4
q-39 0 -103.5 67.5t-66.5 145.5q-2 160 90.5 416t173 335.5t199.5 77.5q68 0 129 -37l137 510q13 45 62 45h53q59 0 45 -47z" />
    <glyph glyph-name="e" unicode="e" horiz-adv-x="638" 
d="M150 283q-28 -150 56 -166q75 28 186 153q19 17 41 4l39 -24q27 -21 18 -45q-39 -74 -144 -157t-169 -71q-145 37 -170 152q-29 154 51 423t223 406q50 46 124.5 68.5t157.5 -12.5t82 -200t-144.5 -311.5t-350.5 -219.5zM175 416q96 41 164.5 96t113 134t44.5 162t-48 83
q-94 0 -164.5 -153.5t-109.5 -321.5z" />
    <glyph glyph-name="f" unicode="f" horiz-adv-x="587" 
d="M164 0h-53q-25 0 -37.5 13.5t-8.5 33.5l224 850h-115q-41 0 -27 49l15 55q8 39 45 39h121l24 95q53 200 134 300.5t151 120.5q63 19 108 9l125 -33q66 -16 33 -76l-27 -49q-14 -29 -71 -10l-131 45q-105 -86 -164 -307l-25 -95h148q43 0 30 -45l-14 -53q-14 -45 -55 -45
h-148l-223 -852q-12 -45 -59 -45z" />
    <glyph glyph-name="g" unicode="g" horiz-adv-x="739" 
d="M461 1036q68 0 131 -39q12 41 43 41l70 2q51 2 41 -53q-47 -188 -301 -1089q-53 -191 -162 -250q-57 -35 -89 -37t-97 35l-209 118q-49 25 -17 74l31 43q33 37 68 17l227 -140q47 -20 68 56l98 358q-45 -76 -100.5 -127t-90.5 -51h-4q-16 0 -51 23.5t-67.5 63.5t-46 85
t5 168t93 330.5t155.5 289.5t204 82zM559 885q-102 57 -170.5 8t-137 -234.5t-88 -290t-16.5 -141.5t36.5 -54t112.5 73t134.5 233.5t122.5 386.5z" />
    <glyph glyph-name="h" unicode="h" horiz-adv-x="864" 
d="M74 0h-57q-14 0 -21.5 16.5t-0.5 36.5l376 1456q13 45 62 45h47q57 0 45 -47l-203 -796l-76 -246l211 352q68 111 139.5 167t123.5 56h43q32 0 50.5 -11t30 -50t-11.5 -115l-229 -835q-6 -29 -33 -29h-106q-31 0 -17 49l215 703q15 55 15 72.5t-13.5 17.5t-33 -18.5
t-52.5 -67.5q-39 -56 -93 -145t-96 -154.5t-121 -186t-144 -241.5q-17 -29 -50 -29z" />
    <glyph glyph-name="i" unicode="i" horiz-adv-x="391" 
d="M350 1352h19q34 0 63 -31t29 -71t-30 -68.5t-75 -28.5h-16q-35 0 -62.5 29.5t-27.5 69.5t28.5 70t71.5 30zM387 997l-248 -952q-12 -45 -61 -45h-60q-57 0 -45 47l250 952q10 41 57 41h68q27 0 36 -9t3 -34z" />
    <glyph glyph-name="j" unicode="j" horiz-adv-x="411" 
d="M304 1040h63q50 0 39 -43l-250 -952q-49 -182 -165.5 -285.5t-223.5 -134.5q-43 -12 -63 17l-17 24q-14 17 -10 38.5t27 29.5q90 35 178 124t125 226l242 915q10 41 55 41zM372 1352h18q35 0 63.5 -31t28.5 -71t-29.5 -68.5t-74.5 -28.5h-17q-35 0 -62.5 29.5t-27.5 69.5
t28.5 70t72.5 30z" />
    <glyph glyph-name="k" unicode="k" horiz-adv-x="745" 
d="M513 1507l-224 -878l310 389q16 22 55 22h76q32 0 34 -22.5t-22 -48.5l-352 -414l159 -500q19 -55 -43 -55h-55q-31 0 -42 8t-19 37l-133 457l-117 -457q-12 -45 -62 -45h-34q-76 0 -60 66l375 1443q12 45 61 45h47q58 0 46 -47z" />
    <glyph glyph-name="l" unicode="l" horiz-adv-x="378" 
d="M513 1507l-373 -1462q-12 -45 -62 -45h-34q-76 0 -60 66l375 1443q12 45 61 45h47q58 0 46 -47z" />
    <glyph glyph-name="m" unicode="m" horiz-adv-x="1333" 
d="M242 987q10 39 18.5 46t22.5 7h84q51 0 33 -59l-154 -516l213 352q62 103 137.5 163t124.5 60h43q33 0 51.5 -11t30 -50t-11.5 -115l-104 -383l196 338q64 111 137.5 166t124.5 55h43q33 0 51.5 -11t29.5 -50t-11 -115l-229 -835q-7 -29 -33 -29h-107q-30 0 -16 49
l215 703q16 55 16 72.5t-14 17.5t-33.5 -18.5t-52.5 -67.5q-39 -56 -85 -130.5t-121 -191.5t-99 -158q-92 -149 -137 -247q-13 -29 -35 -29h-105q-30 0 -16 49l215 703q16 55 16 72.5t-14 17.5t-33.5 -18.5t-52.5 -67.5q-39 -56 -94 -145t-139 -220q-158 -241 -224 -362
q-16 -29 -49 -29h-57q-12 0 -20.5 16.5t-2.5 36.5z" />
    <glyph glyph-name="n" unicode="n" horiz-adv-x="866" 
d="M246 465l213 352q68 111 139.5 167t122.5 56h43q33 0 51.5 -11t30 -50t-11.5 -115l-229 -835q-6 -29 -33 -29h-107q-30 0 -16 49l215 703q16 55 16 72.5t-14 17.5t-33.5 -18.5t-52.5 -67.5q-39 -56 -94 -145t-139 -220q-158 -241 -224 -362q-16 -29 -49 -29h-57
q-12 0 -20.5 16.5t-2.5 36.5l248 934q10 53 41 53h84q49 0 33 -59z" />
    <glyph glyph-name="o" unicode="o" 
d="M6 297q9 274 137 519t326 241q103 -6 160 -103q43 -67 35 -227q-8 -303 -166 -561q-109 -189 -293 -182q-65 2 -121 57q-84 80 -78 256zM355 215q139 219 147 490q2 120 -12.5 161t-60.5 42t-84 -43t-74 -122q-91 -182 -99 -426q-4 -184 64 -190q59 -2 119 88z" />
    <glyph glyph-name="p" unicode="p" horiz-adv-x="745" 
d="M165 143q100 -57 170.5 -9t138 234.5t87 291t16.5 141.5t-36.5 55t-112.5 -73t-134.5 -234t-122.5 -387zM382 995l-47 -182l28 47q43 72 98.5 123t90.5 51h4q16 0 51 -23.5t66.5 -63.5t45 -82t-2 -170t-97.5 -344t-159.5 -287.5t-196.5 -71.5q-68 0 -129 37l-100 -394
q-13 -45 -62 -45h-37q-33 0 -46 18.5t-7 47.5l344 1341q12 43 55 43h60q53 0 41 -45z" />
    <glyph glyph-name="q" unicode="q" horiz-adv-x="743" 
d="M566 885q-100 57 -171 9t-138.5 -234.5t-87 -291t-16 -141.5t37 -55t112.5 73t134 234.5t123 386.5zM597 999q10 41 55 41h60q51 0 38 -47l-348 -1358q-12 -45 -61 -45h-37q-33 0 -46 18.5t-7 47.5l143 557l-27 -45q-43 -72 -98 -123t-90 -51h-4q-16 0 -51 23.5t-67 63.5
t-45 82t2.5 170t97 344t159.5 287.5t197 71.5q67 0 129 -37z" />
    <glyph glyph-name="r" unicode="r" horiz-adv-x="577" 
d="M343 766q65 106 120.5 176t81 87.5t89.5 17.5h20q60 0 41 -46q-10 -24 -50 -60t-108.5 -123t-68.5 -113q0 -54 51 -101q12 -10 7 -21.5t-21 -15.5l-78 -14q-33 -6 -50.5 7t-60.5 93l-157 -608q-13 -45 -62 -45h-59q-58 0 -45 47l250 952q10 41 57 41h63q27 0 36 -9t3 -34
z" />
    <glyph glyph-name="s" unicode="s" horiz-adv-x="655" 
d="M404 1053h31q70 0 129 -53.5t96 -131.5q21 -43 -14 -65l-62 -35q-43 -31 -61 10q-2 4 -16.5 38t-23.5 48.5t-31.5 32.5t-51.5 23q-51 -11 -96 -68t-45 -162q0 -45 21.5 -62.5t76.5 -29.5l57 -12q125 -27 125 -207q0 -107 -80 -246q-38 -65 -104 -110.5t-143 -45.5h-15
q-78 0 -139 54.5t-86 111t0 84.5l45 37q21 21 45.5 19t33.5 -36t50 -82t76 -50q61 10 106 72.5t45 143.5t-15 103.5t-69 34.5l-45 10q-79 19 -112 66t-33 127q0 133 95 257t210 124z" />
    <glyph glyph-name="t" unicode="t" horiz-adv-x="475" 
d="M508 1356l-80 -316h106q45 0 31 -45l-14 -53q-15 -45 -54 -45h-106l-217 -852q-12 -45 -62 -45h-38q-33 0 -46.5 18.5t-7.5 47.5l213 831h-82q-41 0 -26 49l16 55q12 39 45 39h82l82 318q12 45 61 45h52q57 0 45 -47z" />
    <glyph glyph-name="u" unicode="u" horiz-adv-x="827" 
d="M570 537l-187 -314q-65 -112 -132.5 -167.5t-118.5 -55.5h-13q-63 0 -99 69.5t-5 180.5l209 762q6 28 32 28h107q31 0 16 -49l-207 -710q-14 -64 -4 -82q23 -33 103 88t413 725q17 28 50 28h77q13 0 21 -16t2 -37l-248 -934q-10 -53 -41 -53h-84q-49 0 -33 59z" />
    <glyph glyph-name="v" unicode="v" horiz-adv-x="743" 
d="M298 193q187 309 316 817q10 43 57 39l57 -5q56 -10 43 -51q-161 -549 -372 -876q-78 -119 -134 -117l-57 4q-63 4 -57 100q24 381 -6 861q-4 75 49 75h57q47 0 49 -47q27 -491 -2 -800z" />
    <glyph glyph-name="w" unicode="w" horiz-adv-x="1206" 
d="M290 190q113 181 209 441t103 370q4 39 49 39h65q39 0 45 -47q31 -446 0 -800q187 307 316 817q10 43 57 39l57 -5q23 -2 36 -16t7 -35q-161 -549 -372 -876q-76 -119 -129 -117l-62 4q-63 4 -57 100q12 250 8 469q-76 -200 -231 -456q-72 -119 -125 -117l-64 4
q-63 4 -57 100q26 482 8 891q-4 45 49 45h62q45 0 47 -47q14 -418 -21 -803z" />
    <glyph glyph-name="x" unicode="x" horiz-adv-x="724" 
d="M-92 51q248 301 371 471q-51 215 -119 443q-26 75 33 75h57q45 0 60 -47q55 -190 92 -344q90 131 227 365q14 26 55 26h70q55 0 10 -73q-110 -191 -323 -482q47 -209 84 -442q6 -41 -33 -43l-62 -6q-28 -4 -38.5 8t-20.5 55q-20 140 -53 291q-141 -180 -186.5 -234.5
t-53.5 -64.5t-10 -13t-9 -11.5t-12.5 -10.5t-13.5 -6q-12 -8 -33 -8h-59q-29 0 -38 17.5t5 33.5z" />
    <glyph glyph-name="y" unicode="y" horiz-adv-x="831" 
d="M737 1040h78q13 0 21 -16t2 -37l-301 -1089q-49 -189 -162 -250q-49 -27 -66 -33q-41 -18 -120 31l-209 118q-27 13 -29 36.5t12 37.5l31 43q33 35 68 17l227 -140q45 -24 68 56l198 702l-47 -90l-121 -203q-65 -112 -132.5 -167.5t-119.5 -55.5h-12q-43 0 -72 31
q-71 78 -32 219l209 762q8 28 32 28h107q31 0 16 -49l-207 -710q-16 -64 -4 -80q23 -35 104 86t412 725q17 28 49 28z" />
    <glyph glyph-name="z" unicode="z" horiz-adv-x="749" 
d="M131 131h295l33 131q10 41 63 45l43 4q27 2 39.5 -11t6.5 -38l-58 -217q-12 -45 -61 -45h-486q-61 0 -74.5 46t23.5 83l641 780h-287l-32 -131q-11 -41 -64 -45l-45 -4q-26 -2 -38.5 11.5t-6.5 37.5l59 221q13 41 60 41h461q53 0 77.5 -47t-28.5 -116z" />
    <glyph glyph-name="braceleft" unicode="{" horiz-adv-x="569" 
d="M323 -332l-90 -4q-103 -2 -168.5 60.5t-77.5 160.5q-17 107 70.5 265.5t125.5 242.5q82 187 -75 248l-47 18q-50 21 -35 80l14 60q10 41 72 53l82 16q96 21 134 67t36 124t-13 194q-28 230 40.5 373t306.5 148h143q61 0 47 -66l-8 -39q-4 -22 -24.5 -37.5t-43.5 -15.5
h-141q-123 0 -154.5 -75t-19.5 -277q14 -144 16 -237t-54 -164.5t-224 -123.5q78 -37 110.5 -111.5t19 -144t-47 -142.5t-79.5 -160t-76 -158.5t-10.5 -134t99.5 -62.5h115q61 0 47 -62l-8 -38q-4 -23 -25.5 -40.5t-44.5 -17.5h-12z" />
    <glyph glyph-name="bar" unicode="|" horiz-adv-x="362" 
d="M482 1507l-479 -1872q-12 -45 -62 -45h-26q-33 0 -46.5 18.5t-6.5 47.5l475 1853q12 45 61 45h39q57 0 45 -47z" />
    <glyph glyph-name="braceright" unicode="}" horiz-adv-x="657" 
d="M336 1769l90 5q103 2 168.5 -60.5t80 -174.5t-110.5 -325q-50 -86 -86 -167q-86 -189 73 -250l47 -19q50 -20 35 -80l-14 -59q-10 -41 -72 -53q-176 -29 -215 -79t-37 -128t13 -195q28 -229 -39 -372q-70 -144 -308 -148h-143q-61 0 -47 66l8 39q4 22 24.5 37.5
t43.5 15.5h141q123 0 156 75.5t19.5 248.5t-15.5 227q-4 131 43 190q59 78 184 119q35 10 49 16q-78 37 -111.5 112t-18 144.5t48 142t79.5 159.5t75 158t11.5 134.5t-100.5 63.5h-115q-61 0 -47 61l8 39q4 23 24.5 41.5t57.5 15.5z" />
    <glyph glyph-name="asciitilde" unicode="~" horiz-adv-x="886" 
d="M110 793l13 34q6 29 33 41q55 31 148 35t205.5 -39t285.5 13q26 8 40.5 -10.5t6.5 -49.5l-11 -41q-6 -35 -61 -57q-145 -57 -298 6t-323 -2q-28 -10 -38.5 9.5t-0.5 60.5z" />
    <glyph glyph-name="nonbreakingspace" unicode="&#xa0;" horiz-adv-x="0" 
 />
    <glyph glyph-name="exclamdown" unicode="&#xa1;" horiz-adv-x="540" 
d="M537 1507h23q41 0 73.5 -34.5t32.5 -78.5t-35 -75t-86 -31h-18q-43 0 -75 32t-32 78t33 77.5t84 31.5zM525 1114l-246 -1091q-8 -46 -61 -46h-121q-60 0 -45 48l368 1091q15 45 56 45h12q47 0 37 -47z" />
    <glyph glyph-name="cent" unicode="&#xa2;" horiz-adv-x="675" 
d="M159 -195q-66 0 -52 64l52 184q-86 37 -130.5 153t-10.5 302t147.5 346t244.5 190l60 224q12 43 59 43h45q56 0 43 -45l-59 -226q92 -32 110.5 -154t-36.5 -274q-11 -28 -58 -20l-49 12q-55 10 -37 60q43 145 38 218.5t-52 73.5t-136 -107.5t-141.5 -281.5t-34 -293.5
t73 -119.5t110.5 71.5t95 161.5q15 27 43 19l68 -29q47 -21 24 -70q-106 -227 -270 -260l-53 -199q-13 -43 -60 -43h-34z" />
    <glyph glyph-name="sterling" unicode="&#xa3;" horiz-adv-x="933" 
d="M-154 53l16 51q4 25 18 35q62 41 183.5 179.5t165.5 271.5h-101q-45 0 -33 57l11 43q6 43 30 41h107q-23 250 31.5 411t155 234.5t239.5 66.5t210.5 -123t10.5 -337q-14 -55 -49 -63l-68 -19q-30 -8 -40.5 10.5t-2.5 40.5q123 340 -88 355q-135 0 -200.5 -144.5
t-49.5 -431.5h273q47 0 37 -47l-11 -53q-8 -41 -53 -41h-250q-16 -101 -83.5 -202t-139.5 -179q104 8 250.5 -46t312.5 13q21 6 34 -8t5 -43l-12 -57q-10 -37 -72.5 -56.5t-139.5 -24.5t-213 46t-281.5 3t-171 -50t-33 14t1.5 53z" />
    <glyph glyph-name="currency" unicode="&#xa4;" horiz-adv-x="1048" 
d="M233 399q8 224 138 426l-78 252q-23 70 8 90l70 39q26 19 49.5 2.5t33.5 -55.5l54 -182q94 61 176 60t123 -25l104 159q33 49 70 27l51 -31q35 -20 37 -38.5t-21 -47.5l-143 -182q16 -53 12 -137q-8 -238 -168 -463l70 -215q10 -29 1 -44.5t-44 -33.5l-35 -20
q-82 -43 -102 45l-35 143q-74 -33 -143.5 -32t-112.5 26l-90 -148q-23 -32 -41.5 -32t-28.5 8l-61 41q-31 18 -36 34.5t17 49.5l131 190q-8 41 -6 94zM596 330q145 182 153 407q2 101 -13 134.5t-63.5 34.5t-87 -35.5t-77.5 -100.5q-92 -152 -103 -354q-4 -154 68 -158
q61 -2 123 72z" />
    <glyph glyph-name="yen" unicode="&#xa5;" horiz-adv-x="983" 
d="M70 700h848q47 0 36 -45l-8 -41q-10 -43 -67 -43h-820q-61 0 -45 54l11 34q8 27 16 34t29 7zM14 442h848q47 0 37 -45l-8 -41q-10 -43 -68 -43h-819q-61 0 -45 54l10 34q9 27 17 34t28 7zM504 768q190 285 269 421t140 267q15 31 62 27l63 -8q23 -2 32 -21.5t-7 -52.5
q-236 -412 -530 -805l-140 -551q-12 -45 -61 -45h-60q-24 0 -35.5 18.5t-5.5 44.5l144 566q0 135 -32 384t-64 378q-13 36 0.5 62t44.5 28l57 8q29 2 41 -7t18 -42q64 -381 64 -672z" />
    <glyph glyph-name="brokenbar" unicode="&#xa6;" horiz-adv-x="366" 
d="M208 412l-203 -779q-12 -45 -61 -45h-39q-58 0 -45 47l202 779q13 45 62 45h39q57 0 45 -47zM486 1513l-202 -778q-13 -45 -62 -45h-39q-57 0 -45 47l203 779q12 45 61 45h39q58 0 45 -48z" />
    <glyph glyph-name="section" unicode="&#xa7;" horiz-adv-x="854" 
d="M537 365q6 -25 6 -54q0 -178 -104.5 -330.5t-270.5 -152.5q-199 0 -199 332q0 57 39 76l60 30q26 15 42.5 4.5t18.5 -24t-2 -61.5t0 -94t18.5 -84t62.5 -27.5t104.5 81t65.5 153.5t-11.5 122t-90.5 76q-161 84 -161 198q0 140 70.5 259.5t162.5 166.5q-16 33 -16 70
q0 172 103.5 309t215 137t184 -88t60.5 -266q-4 -37 -39 -51l-72 -21q-22 -4 -33.5 3.5t-9.5 33.5q15 242 -90 248q-57 -14 -104 -103t-49 -140.5t27.5 -80t132 -90t102.5 -191.5t-59.5 -256t-163.5 -185zM475 918q-86 6 -140 -95.5t-54 -153t28.5 -79t78.5 -57t69 -44.5
q55 31 96 99.5t46 166t-124 163.5z" />
    <glyph glyph-name="dieresis" unicode="&#xa8;" horiz-adv-x="1071" 
d="M397 1434h19q35 0 63.5 -31t28.5 -71t-29.5 -68.5t-75.5 -28.5h-16q-35 0 -62.5 29.5t-27.5 69.5t28.5 70t71.5 30zM725 1434h18q35 0 64 -31t29 -71t-30 -68.5t-75 -28.5h-16q-35 0 -62.5 29.5t-27.5 69.5t28.5 70t71.5 30z" />
    <glyph glyph-name="copyright" unicode="&#xa9;" horiz-adv-x="1593" 
d="M141 868q73 267 282 447t459 180q295 0 465 -205q76 -90 113 -215q65 -237 -4 -485q-80 -289 -277 -447.5t-470 -158.5t-456 182q-110 113 -140 308.5t28 393.5zM278 819q-78 -303 47 -513t397 -210q222 0 378.5 158t217.5 401q39 136 22.5 266t-66.5 233t-151.5 166.5
t-234.5 63.5q-219 0 -383 -160.5t-227 -404.5zM698 348q51 10 109.5 92t84.5 160q9 27 33 16l76 -30q31 -15 18 -43q-57 -135 -143 -216t-174 -81t-145.5 47t-87 162.5t16.5 313.5t178 332t296 120q123 -15 153.5 -107t-49.5 -289q-12 -26 -43 -22l-63 12q-41 6 -29 43
q96 248 -2 264q-49 8 -111.5 -39t-109.5 -130t-83 -213t-19.5 -256t94.5 -136z" />
    <glyph glyph-name="ordfeminine" unicode="&#xaa;" horiz-adv-x="604" 
d="M475 932q78 43 117 110q12 23 33 13l30 -15q25 -12 13 -30q-94 -160 -228 -191q-36 -6 -47 12l-22 39q-88 -77 -177 -37.5t-92.5 136t55 174.5t146.5 117.5t176 33.5q39 158 -2 181q-61 -7 -159 -121l-17 -19q-12 -12 -26 -2l-37 35q-19 14 -13 31q25 51 108 113.5
t133 60.5t94 -28.5t54.5 -76t-8.5 -151.5q-43 -219 -131 -385zM455 1190q-94 -2 -150.5 -52.5t-69 -120t30.5 -84.5t82 26.5t66.5 114.5t40.5 116z" />
    <glyph glyph-name="guillemotleft" unicode="&#xab;" horiz-adv-x="821" 
d="M615 549l108 -334q19 -49 -28 -49h-33q-43 0 -60 47l-114 322q-17 49 16 88l275 315q20 25 63 25h33q22 0 28.5 -12.5t-8.5 -32.5zM322 549l108 -334q19 -49 -28 -49h-33q-43 0 -60 47l-114 322q-17 49 16 88l275 315q20 25 63 25h33q22 0 28.5 -12.5t-8.5 -32.5z" />
    <glyph glyph-name="logicalnot" unicode="&#xac;" horiz-adv-x="1720" 
d="M1267 772h-976q-60 0 -39 74l6 20q10 37 25.5 47.5t50.5 10.5h1052q82 0 58 -88l-107 -394q-12 -45 -61 -45h-52q-57 0 -45 47z" />
    <glyph glyph-name="registered" unicode="&#xae;" horiz-adv-x="1593" 
d="M675 1092q-22 -5 -43.5 -9t-33 8.5t-7.5 28.5l17 60q4 18 39 28q116 29 232 10.5t180.5 -79t64.5 -153.5t-45 -169q-66 -112 -170 -147l76 -330q12 -51 -29 -51h-74q-29 0 -39 39l-63 323h-86l-88 -329q-9 -31 -50 -31h-53q-18 0 -27.5 12t-5.5 31zM720 754l64 2
q84 4 119 32q75 60 82 177q4 71 -68 110q-41 23 -105 25zM141 868q73 267 282 447t466 177t402.5 -146.5t183.5 -325.5t-19 -430q-80 -289 -277 -447.5t-470 -158.5t-456 182q-110 113 -140 308.5t28 393.5zM278 819q-78 -303 47 -513t397 -210q222 0 377.5 157t218.5 402
q39 136 22.5 266t-66.5 233t-151.5 166.5t-234.5 63.5q-219 0 -383 -160.5t-227 -404.5z" />
    <glyph glyph-name="macron" unicode="&#xaf;" horiz-adv-x="815" 
d="M151 1718h719q30 0 13 -58t-44 -58h-705q-32 0 -34 14t10 43l10 35q8 24 31 24z" />
    <glyph glyph-name="degree" unicode="&#xb0;" horiz-adv-x="942" 
d="M827 1413q0 -143 -103 -231t-219 -88t-181.5 67.5t-65.5 169.5q0 139 104.5 228.5t220 89.5t180 -66.5t64.5 -169.5zM426 1489q-66 -64 -66 -137.5t43 -117.5t115 -44t139.5 61.5t67.5 139t-41 119.5t-118 42t-140 -63z" />
    <glyph glyph-name="plusminus" unicode="&#xb1;" horiz-adv-x="972" 
d="M777 606h-272l-58 -221q-12 -43 -59 -43h-41q-55 0 -43 45l57 219h-250q-32 0 -26 31l16 65q8 31 45 31h248l51 193q12 43 60 43h41q55 0 43 -45l-50 -191h265q16 0 25 -9t5 -24l-14 -61q-6 -33 -43 -33zM36 184h643q37 0 30 -41l-8 -49q-6 -37 -41 -37h-629
q-34 0 -28 37l12 68q4 22 21 22z" />
    <glyph glyph-name="twosuperior" unicode="&#xb2;" horiz-adv-x="604" 
d="M229 782h328q47 0 34 -43l-12 -47q-4 -14 -20.5 -25.5t-32.5 -11.5h-428q-43 0 -59.5 35t22.5 82l401 422q90 98 87 177t-78.5 84t-124 -43t-48.5 -120q0 -12 -13 -22t-27 -13l-56 -8q-22 -2 -28.5 7.5t-6.5 27.5q0 119 89.5 201t211 82t175 -72t29 -181.5t-125.5 -209.5
z" />
    <glyph glyph-name="threesuperior" unicode="&#xb3;" horiz-adv-x="614" 
d="M516 1122q96 -26 96 -156t-93 -228.5t-224 -100.5q-96 -2 -143.5 71.5t-47.5 172.5q0 41 27 53l59 24q31 11 38.5 2.5t7.5 -34.5q-9 -181 72 -182t119 54.5t46 102.5q31 154 -121 154q-20 0 -30 8q-15 8 -11 27l4 45q7 34 55 33t104 36t71.5 103.5t-10 109.5t-80 43
t-97.5 -44t-45 -100t-34 -63l-56 -6q-22 -2 -28.5 8.5t-6.5 32.5q0 115 84 199t189.5 82t160 -61.5t56.5 -138.5t-41 -147.5t-121 -99.5z" />
    <glyph glyph-name="acute" unicode="&#xb4;" horiz-adv-x="573" 
d="M417 1430q23 0 28 -13.5t-13 -38.5l-179 -186q-22 -25 -57 -25h-43q-16 0 -20 11.5t2 17.5l127 199q22 35 63 35h92z" />
    <glyph glyph-name="mu" unicode="&#xb5;" horiz-adv-x="854" 
d="M284 1040h106q31 0 16 -49l-206 -710q-15 -64 -5 -82q23 -33 102 85.5t236.5 404.5t176 318.5t51.5 32.5h78q12 0 20 -16t2 -37l-248 -934q-10 -53 -41 -53h-84q-49 0 -32 59l141 478q-225 -404 -304 -470.5t-134 -66.5h-41q-2 -35 -21 -104l-74 -261q-12 -45 -61 -45
h-27q-34 0 -47.5 19.5t-5.5 46.5l369 1356q6 28 33 28z" />
    <glyph glyph-name="paragraph" unicode="&#xb6;" horiz-adv-x="1384" 
d="M898 1337l-432 -1702q-12 -45 -61 -45h-50q-32 0 -45.5 18.5t-7.5 47.5l271 1061q-146 6 -240 93t-89 255t158.5 293t399.5 125h668q47 0 34 -49l-12 -56q-8 -41 -57 -41h-152l-432 -1702q-12 -45 -61 -45h-49q-33 0 -46.5 18.5t-7.5 47.5l428 1681h-217z" />
    <glyph glyph-name="periodcentered" unicode="&#xb7;" horiz-adv-x="434" 
d="M295 811h22q39 0 73 -36t34 -82t-35 -79.5t-86 -33.5h-20q-41 0 -73 34.5t-32 81.5t34 81t83 34z" />
    <glyph glyph-name="cedilla" unicode="&#xb8;" horiz-adv-x="604" 
d="M376 -80l60 -16q34 -10 22 -62q-49 -207 -295 -217q-31 0 -37 27l-6 24q-8 39 27 41q82 7 130 53t48 117q0 27 19.5 34t31.5 -1z" />
    <glyph glyph-name="onesuperior" unicode="&#xb9;" horiz-adv-x="389" 
d="M501 1561q37 2 23 -39l-248 -836q-8 -31 -37 -31h-78q-37 0 -24 41l207 688l-91 -86q-28 -28 -55 -28h-61q-25 0 -29 21.5t19 41.5l184 156q39 35 62.5 53.5t45.5 18.5h82z" />
    <glyph glyph-name="ordmasculine" unicode="&#xba;" horiz-adv-x="665" 
d="M512 1567q106 0 160.5 -75t54.5 -177.5t-39 -206.5t-125 -182t-190.5 -78t-167 65.5t-62.5 216t99.5 294t269.5 143.5zM377 971q98 0 150.5 106.5t54.5 237.5t-92.5 130t-146.5 -104.5t-52 -236.5t86 -133z" />
    <glyph glyph-name="guillemotright" unicode="&#xbb;" horiz-adv-x="735" 
d="M642 580l-109 333q-18 50 29 50h33q43 0 59 -48l115 -321q16 -49 -16 -88l-275 -316q-20 -24 -63 -24h-33q-49 0 -21 45zM341 580l-109 333q-18 50 29 50h33q43 0 59 -48l115 -321q16 -49 -16 -88l-275 -316q-20 -24 -63 -24h-33q-49 0 -21 45z" />
    <glyph glyph-name="onequarter" unicode="&#xbc;" horiz-adv-x="1871" 
d="M155 -55l-82 2q-24 0 -30.5 20.5t18.5 46.5l1497 1504q47 47 98 47h80q29 0 35 -20.5t-18 -47.5l-1512 -1515q-37 -37 -86 -37zM638 1526q37 2 23 -39l-248 -836q-8 -31 -37 -31h-78q-37 0 -24 41l207 688l-91 -86q-28 -28 -55 -28h-61q-25 0 -29 21.5t19 41.5l184 156
q39 35 62.5 53.5t45.5 18.5h82zM1515 199h-64l-49 -168q-10 -29 -47 -29h-55q-19 0 -27 12.5t-4 28.5l45 156h-234q-71 0 -89.5 45t22.5 90l424 545q26 29 55 29h53q21 0 30 -18.5t-5 -37.5l-430 -538h209l55 192q10 29 47 29h55q19 0 27 -12.5t4 -28.5l-53 -180h65
q23 2 32 -8.5t3 -30.5l-16 -39q-17 -37 -53 -37z" />
    <glyph glyph-name="onehalf" unicode="&#xbd;" horiz-adv-x="1892" 
d="M155 -55l-82 2q-24 0 -30.5 20.5t18.5 46.5l1497 1504q47 47 98 47h80q29 0 35 -20.5t-18 -47.5l-1512 -1515q-37 -37 -86 -37zM638 1526q37 2 23 -39l-248 -836q-8 -31 -37 -31h-78q-37 0 -24 41l207 688l-91 -86q-28 -28 -55 -28h-61q-25 0 -29 21.5t19 41.5l184 156
q39 35 62.5 53.5t45.5 18.5h82zM1263 129h328q47 0 34 -43l-12 -47q-4 -14 -20.5 -25.5t-32.5 -11.5h-428q-43 0 -59.5 35t22.5 82l401 422q90 98 87 177t-78.5 84t-124 -43t-48.5 -120q0 -12 -13 -22t-27 -13l-56 -8q-22 -2 -28.5 7.5t-6.5 27.5q0 119 89.5 201t211 82
t175 -72t29 -181.5t-125.5 -209.5z" />
    <glyph glyph-name="threequarters" unicode="&#xbe;" horiz-adv-x="1853" 
d="M155 -55l-82 2q-24 0 -30.5 20.5t18.5 46.5l1497 1504q47 47 98 47h80q29 0 35 -20.5t-18 -47.5l-1512 -1515q-37 -37 -86 -37zM547 1087q96 -26 96 -156t-93 -228.5t-224 -100.5q-96 -2 -143.5 71.5t-47.5 172.5q0 41 27 53l59 24q31 11 38.5 2.5t7.5 -34.5
q-9 -181 72 -182t119 54.5t46 102.5q31 154 -121 154q-20 0 -30 8q-15 8 -11 27l4 45q7 34 55 33t104 36t71.5 103.5t-10 109.5t-80 43t-97.5 -44t-45 -100t-34 -63l-56 -6q-22 -2 -28.5 8.5t-6.5 32.5q0 115 84 199t189.5 82t160 -61.5t56.5 -138.5t-41 -147.5t-121 -99.5z
M1530 199h-64l-49 -168q-10 -29 -47 -29h-55q-19 0 -27 12.5t-4 28.5l45 156h-234q-71 0 -89.5 45t22.5 90l424 545q26 29 55 29h53q21 0 30 -18.5t-5 -37.5l-430 -538h209l55 192q10 29 47 29h55q19 0 27 -12.5t4 -28.5l-53 -180h65q23 2 32 -8.5t3 -30.5l-16 -39
q-17 -37 -53 -37z" />
    <glyph glyph-name="questiondown" unicode="&#xbf;" horiz-adv-x="677" 
d="M482 1114q0 47 62 41l47 -6q45 -8 44 -76.5t-42 -167t-91.5 -139.5t-126 -43t-105.5 -27.5t-54.5 -95.5t-44 -195.5t-15 -175t26 -73t53.5 -29.5q21 4 64 47t69.5 72.5t65.5 3.5l39 -25q35 -24 8 -61q-51 -64 -117.5 -120t-112.5 -65.5t-121 25.5t-104.5 100.5
t-18.5 229.5t66.5 303t116 184t234.5 56q24 32 40.5 116t16.5 121zM595 1251h-23q-39 0 -72.5 36t-33.5 82t34.5 80t86.5 34h20q41 0 72.5 -35t31.5 -82t-33.5 -81t-82.5 -34z" />
    <glyph glyph-name="Agrave" unicode="&#xc0;" horiz-adv-x="942" 
d="M322 592h301l49 711zM251 444l-199 -403q-23 -47 -76 -41l-47 4q-35 2 -46 26.5t3 51.5l682 1315q43 82 113 82l82 2q81 0 75 -99l-71 -1337q-4 -43 -62 -45l-69 2q-52 0 -48 55l27 387h-364zM577 1846q41 0 64 -35l116 -189q11 -16 1.5 -27.5t-27.5 -11.5h-33
q-31 0 -59 29l-183 190q-14 21 -9 32.5t22 11.5h108z" />
    <glyph glyph-name="Aacute" unicode="&#xc1;" horiz-adv-x="944" 
d="M322 592h301l49 711zM251 444l-199 -403q-23 -47 -76 -41l-47 4q-35 2 -46 26.5t3 51.5l682 1315q43 82 113 82l82 2q81 0 75 -99l-71 -1337q-4 -43 -62 -45l-69 2q-52 0 -48 55l27 387h-364zM970 1846q23 0 28 -13.5t-13 -38.5l-179 -186q-22 -25 -57 -25h-43
q-16 0 -20 11.5t2 17.5l127 199q22 35 63 35h92z" />
    <glyph glyph-name="Acircumflex" unicode="&#xc2;" horiz-adv-x="935" 
d="M322 592h301l49 711zM251 444l-199 -403q-23 -47 -76 -41l-47 4q-35 2 -46 26.5t3 51.5l682 1315q43 82 113 82l82 2q81 0 75 -99l-71 -1337q-4 -43 -62 -45l-69 2q-52 0 -48 55l27 387h-364zM758 1755l-129 -131q-23 -22 -58 -22h-49q-23 0 -27 15t15 32l207 186
q34 31 51 29l18 -2q21 -2 41 -37l109 -189q10 -14 4 -24t-25 -10h-59q-33 0 -43 22z" />
    <glyph glyph-name="Atilde" unicode="&#xc3;" horiz-adv-x="942" 
d="M322 592h301l49 711zM251 444l-199 -403q-23 -47 -76 -41l-47 4q-35 2 -46 26.5t3 51.5l682 1315q43 82 113 82l82 2q81 0 75 -99l-71 -1337q-4 -43 -62 -45l-69 2q-52 0 -48 55l27 387h-364zM414 1682l12 39q10 43 66 51q133 24 245.5 -19t261.5 0q29 9 43.5 -1.5
t6.5 -39.5l-13 -49q-10 -41 -53 -53q-133 -39 -272.5 8t-253.5 10q-31 -10 -42.5 2.5t-0.5 51.5z" />
    <glyph glyph-name="Adieresis" unicode="&#xc4;" horiz-adv-x="935" 
d="M322 592h301l49 711zM251 444l-199 -403q-23 -47 -76 -41l-47 4q-35 2 -46 26.5t3 51.5l682 1315q43 82 113 82l82 2q81 0 75 -99l-71 -1337q-4 -43 -62 -45l-69 2q-52 0 -48 55l27 387h-364zM565 1864h19q35 0 63.5 -31t28.5 -71t-29.5 -68.5t-75.5 -28.5h-16
q-35 0 -62.5 29.5t-27.5 69.5t28.5 70t71.5 30zM893 1864h18q35 0 64 -31t29 -71t-30 -68.5t-75 -28.5h-16q-35 0 -62.5 29.5t-27.5 69.5t28.5 70t71.5 30z" />
    <glyph glyph-name="Aring" unicode="&#xc5;" horiz-adv-x="948" 
d="M664 1157q-31 2 -57 8l-283 -573h301zM484 1233q-68 78 -51.5 211t100.5 209t204 71.5t188.5 -80t47 -220t-144.5 -228.5l-59 -1151q-2 -45 -62 -45l-69 2q-52 0 -48 55l27 387h-364l-199 -403q-23 -47 -76 -41l-47 4q-33 4 -46 24.5t3 53.5zM646 1587
q-58 -45 -72 -116.5t4.5 -125t77.5 -65.5t106.5 28t68 107.5t-2 124.5t-78 70.5t-104.5 -23.5z" />
    <glyph glyph-name="AE" unicode="&#xc6;" horiz-adv-x="1335" 
d="M335 592h295l116 655zM240 444l-254 -405q-16 -25 -27 -33t-40 -6l-72 4q-28 2 -36.5 26.5t5.5 45.5l871 1321q59 86 121 86h649q29 0 38 -11.5t1 -39.5l-15 -52q-10 -39 -51 -39h-512l-80 -467h412q16 0 25.5 -13t3.5 -34l-15 -51q-12 -43 -61 -43h-389l-101 -592h381
q19 0 26 -14t3 -33l-14 -51q-10 -43 -66 -43h-461q-53 0 -47 55l68 389h-363z" />
    <glyph glyph-name="Ccedilla" unicode="&#xc7;" horiz-adv-x="868" 
d="M913 1124q2 -14 2 -26q0 -29 -43 -41l-57 -17q-23 -4 -43.5 12.5t-22.5 43.5q-16 157 -69 223q-27 10 -60 10q-100 4 -201.5 -141.5t-176 -413.5t-49 -445t103.5 -196q153 14 254 236q18 41 32.5 49t49.5 -6l65 -27q37 -16 6 -82q-94 -174 -186 -246.5t-227 -72.5
q-72 -4 -158 63.5t-105.5 283.5t50 498.5t231.5 475t344 194.5q25 0 68 -14.5t78.5 -41t70.5 -115.5t43 -204zM487 -80l60 -16q34 -10 22 -62q-49 -207 -295 -217q-31 0 -37 27l-6 24q-8 39 27 41q82 7 130 53t48 117q0 27 19.5 34t31.5 -1z" />
    <glyph glyph-name="Egrave" unicode="&#xc8;" horiz-adv-x="927" 
d="M417 1876q41 0 64 -35l116 -189q11 -16 1.5 -27.5t-27.5 -11.5h-33q-31 0 -59 29l-183 190q-14 21 -9 32.5t22 11.5h108z" />
    <glyph glyph-name="Eacute" unicode="&#xc9;" horiz-adv-x="927" 
d="M866 1876q23 0 28 -13.5t-13 -38.5l-179 -186q-22 -25 -57 -25h-43q-16 0 -20 11.5t2 17.5l127 199q22 35 63 35h92z" />
    <glyph glyph-name="Ecircumflex" unicode="&#xca;" horiz-adv-x="927" 
d="M690 1818l-129 -131q-23 -22 -58 -22h-49q-23 0 -27 15t15 32l207 186q34 31 51 29l18 -2q21 -2 41 -37l109 -189q10 -14 4 -24t-25 -10h-59q-33 0 -43 22z" />
    <glyph glyph-name="Edieresis" unicode="&#xcb;" horiz-adv-x="927" 
d="M452 1878h19q35 0 63.5 -31t28.5 -71t-29.5 -68.5t-75.5 -28.5h-16q-35 0 -62.5 29.5t-27.5 69.5t28.5 70t71.5 30zM780 1878h18q35 0 64 -31t29 -71t-30 -68.5t-75 -28.5h-16q-35 0 -62.5 29.5t-27.5 69.5t28.5 70t71.5 30z" />
    <glyph glyph-name="Igrave" unicode="&#xcc;" horiz-adv-x="481" 
d="M354 1438q13 45 62 45h59q25 0 36 -18.5t5 -45.5l-350 -1374q-12 -45 -62 -45h-59q-24 0 -35.5 18.5t-5.5 44.5zM295 1876q41 0 63 -35l117 -188q10 -17 1 -28t-27 -11h-33q-31 0 -60 28l-182 191q-14 20 -9 31.5t21 11.5h109z" />
    <glyph glyph-name="Iacute" unicode="&#xcd;" horiz-adv-x="440" 
d="M328 1438q12 45 61 45h60q24 0 35.5 -18.5t4.5 -45.5l-350 -1374q-12 -45 -61 -45h-60q-24 0 -35.5 18.5t-5.5 44.5zM676 1876q22 0 27.5 -13.5t-13.5 -37.5l-178 -187q-23 -24 -57 -24h-43q-17 0 -21 11t2 17l127 199q23 35 64 35h92z" />
    <glyph glyph-name="Icircumflex" unicode="&#xce;" horiz-adv-x="454" 
d="M328 1438q12 45 61 45h60q24 0 35.5 -18.5t4.5 -45.5l-350 -1374q-12 -45 -61 -45h-60q-24 0 -35.5 18.5t-5.5 44.5zM455 1755l-129 -131q-23 -22 -58 -22h-49q-22 0 -26.5 15t14.5 32l207 186q35 31 51 29l18 -2q21 -2 41 -37l109 -189q10 -14 4 -24t-25 -10h-59
q-33 0 -43 22z" />
    <glyph glyph-name="Idieresis" unicode="&#xcf;" horiz-adv-x="454" 
d="M299 1862h18q35 0 64 -31t29 -71t-30 -68.5t-75 -28.5h-16q-35 0 -62.5 29.5t-27.5 69.5t28.5 70t71.5 30zM571 1862h19q35 0 63.5 -31t28.5 -71t-29.5 -68.5t-74.5 -28.5h-17q-35 0 -62.5 29.5t-27.5 69.5t28.5 70t71.5 30zM328 1438q12 45 61 45h60q24 0 35.5 -18.5
t4.5 -45.5l-350 -1374q-12 -45 -61 -45h-60q-24 0 -35.5 18.5t-5.5 44.5z" />
    <glyph glyph-name="Eth" unicode="&#xd0;" horiz-adv-x="946" 
d="M154 735h655q45 0 35 -47l-10 -51q-11 -43 -54 -43h-634q-50 0 -37 47l18 72q6 22 27 22z" />
    <glyph glyph-name="Ntilde" unicode="&#xd1;" horiz-adv-x="1218" 
d="M522 1682l12 39q10 43 66 51q133 24 245.5 -19t261.5 0q29 9 43.5 -1.5t6.5 -39.5l-13 -49q-10 -41 -53 -53q-133 -39 -272.5 8t-253.5 10q-31 -10 -42.5 2.5t-0.5 51.5z" />
    <glyph glyph-name="Ograve" unicode="&#xd2;" horiz-adv-x="913" 
d="M14 444q0 187 55.5 372t134.5 331.5t195.5 249t241.5 102.5q86 0 178 -57q64 -39 88.5 -123t24.5 -248t-72 -436q-65 -252 -192 -438q-68 -97 -161 -151t-180 -56t-167 41q-146 75 -146 413zM242 788q-58 -190 -59 -345.5t36 -234.5t96 -79q109 0 191 107
q100 139 192 438q84 287 62.5 472t-127.5 185q-113 0 -201 -114q-108 -144 -190 -429zM560 1876q41 0 64 -35l116 -189q11 -16 1.5 -27.5t-27.5 -11.5h-33q-31 0 -59 29l-183 190q-14 21 -9 32.5t22 11.5h108z" />
    <glyph glyph-name="Oacute" unicode="&#xd3;" horiz-adv-x="913" 
d="M14 444q0 187 55.5 372t134.5 331.5t195.5 249t241.5 102.5q86 0 178 -57q64 -39 88.5 -123t24.5 -248t-72 -436q-65 -252 -192 -438q-68 -97 -161 -151t-180 -56t-167 41q-146 75 -146 413zM242 788q-58 -190 -59 -345.5t36 -234.5t96 -79q109 0 191 107
q100 139 192 438q84 287 62.5 472t-127.5 185q-113 0 -201 -114q-108 -144 -190 -429zM958 1876q23 0 28 -13.5t-13 -38.5l-179 -186q-22 -25 -57 -25h-43q-16 0 -20 11.5t2 17.5l127 199q22 35 63 35h92z" />
    <glyph glyph-name="Ocircumflex" unicode="&#xd4;" horiz-adv-x="915" 
d="M14 444q0 187 55.5 372t134.5 331.5t195.5 249t241.5 102.5q86 0 178 -57q64 -39 88.5 -123t24.5 -248t-72 -436q-65 -252 -192 -438q-68 -97 -161 -151t-180 -56t-167 41q-146 75 -146 413zM242 788q-58 -190 -59 -345.5t36 -234.5t96 -79q109 0 191 107
q100 139 192 438q84 287 62.5 472t-127.5 185q-113 0 -201 -114q-108 -144 -190 -429zM723 1755l-129 -131q-23 -22 -58 -22h-49q-23 0 -27 15t15 32l207 186q34 31 51 29l18 -2q21 -2 41 -37l109 -189q10 -14 4 -24t-25 -10h-59q-33 0 -43 22z" />
    <glyph glyph-name="Otilde" unicode="&#xd5;" horiz-adv-x="913" 
d="M14 444q0 187 55.5 372t134.5 331.5t195.5 249t241.5 102.5q86 0 178 -57q64 -39 88.5 -123t24.5 -248t-72 -436q-65 -252 -192 -438q-68 -97 -161 -151t-180 -56t-167 41q-146 75 -146 413zM242 788q-58 -190 -59 -345.5t36 -234.5t96 -79q109 0 191 107
q100 139 192 438q84 287 62.5 472t-127.5 185q-113 0 -201 -114q-108 -144 -190 -429zM362 1682l12 39q10 43 66 51q133 24 245.5 -19t261.5 0q29 9 43.5 -1.5t6.5 -39.5l-13 -49q-10 -41 -53 -53q-133 -39 -272.5 8t-253.5 10q-31 -10 -42.5 2.5t-0.5 51.5z" />
    <glyph glyph-name="Odieresis" unicode="&#xd6;" horiz-adv-x="915" 
d="M14 444q0 187 55.5 372t134.5 331.5t195.5 249t241.5 102.5q86 0 178 -57q64 -39 88.5 -123t24.5 -248t-72 -436q-65 -252 -192 -438q-68 -97 -161 -151t-180 -56t-167 41q-146 75 -146 413zM242 788q-58 -190 -59 -345.5t36 -234.5t96 -79q109 0 191 107
q100 139 192 438q84 287 62.5 472t-127.5 185q-113 0 -201 -114q-108 -144 -190 -429zM506 1864h19q35 0 63.5 -31t28.5 -71t-29.5 -68.5t-75.5 -28.5h-16q-35 0 -62.5 29.5t-27.5 69.5t28.5 70t71.5 30zM834 1864h18q35 0 64 -31t29 -71t-30 -68.5t-75 -28.5h-16
q-35 0 -62.5 29.5t-27.5 69.5t28.5 70t71.5 30z" />
    <glyph glyph-name="multiply" unicode="&#xd7;" horiz-adv-x="874" 
d="M513 618l178 -479q10 -28 0 -43.5t-43 -34.5l-25 -12q-75 -43 -102 45l-121 383l-284 -393q-31 -49 -70 -25l-51 33q-31 19 -36 35t17 49l365 463l-172 479q-27 68 12 90l55 35q58 31 84 -53l142 -422l311 428q33 49 70 27l41 -25q34 -20 36 -39.5t-20 -46.5z" />
    <glyph glyph-name="Oslash" unicode="&#xd8;" horiz-adv-x="921" 
d="M24 444q0 187 55 372t134 331.5t195.5 249t241.5 102.5q86 0 152.5 -42t93.5 -87l80 98q20 23 32.5 27t43.5 -10l30 -21q54 -34 25 -69l-170 -207q4 -51 4 -117q0 -182 -68.5 -435t-195.5 -439q-68 -97 -161 -151t-180 -56t-153.5 34.5t-111.5 116.5l-43 -53
q-45 -53 -70 -33l-41 33q-22 18 -23.5 33.5t25.5 50.5l111 135q-6 62 -6 137zM202 299q22 -170 129 -170q102 0 200 127q84 119 156 340t84 391zM251 788q-45 -149 -57 -278l565 694q-29 127 -117 127q-113 0 -201 -114q-108 -144 -190 -429z" />
    <glyph glyph-name="Ugrave" unicode="&#xd9;" horiz-adv-x="1013" 
d="M352 -14q-139 2 -211 73q-143 150 -49 512l221 867q13 45 62 45h59q25 0 36 -18.5t5 -45.5l-231 -913q-98 -387 139 -387q98 0 175 82t126 282l244 955q12 45 61 45h52q24 0 34.5 -18.5t3.5 -45.5l-239 -950q-66 -264 -187 -371q-49 -47 -124.5 -79.5t-176.5 -32.5z
M552 1876q41 0 64 -35l116 -189q11 -16 1.5 -27.5t-27.5 -11.5h-33q-31 0 -59 29l-183 190q-14 21 -9 32.5t22 11.5h108z" />
    <glyph glyph-name="Uacute" unicode="&#xda;" horiz-adv-x="1013" 
d="M352 -14q-139 2 -211 73q-143 150 -49 512l221 867q13 45 62 45h59q25 0 36 -18.5t5 -45.5l-231 -913q-98 -387 139 -387q98 0 175 82t126 282l244 955q12 45 61 45h52q24 0 34.5 -18.5t3.5 -45.5l-239 -950q-66 -264 -187 -371q-49 -47 -124.5 -79.5t-176.5 -32.5z
M925 1876q23 0 28 -13.5t-13 -38.5l-179 -186q-22 -25 -57 -25h-43q-16 0 -20 11.5t2 17.5l127 199q22 35 63 35h92z" />
    <glyph glyph-name="Ucircumflex" unicode="&#xdb;" horiz-adv-x="1013" 
d="M352 -14q-139 2 -211 73q-143 150 -49 512l221 867q13 45 62 45h59q25 0 36 -18.5t5 -45.5l-231 -913q-98 -387 139 -387q98 0 175 82t126 282l244 955q12 45 61 45h52q24 0 34.5 -18.5t3.5 -45.5l-239 -950q-66 -264 -187 -371q-49 -47 -124.5 -79.5t-176.5 -32.5z
M754 1755l-129 -131q-23 -22 -58 -22h-49q-23 0 -27 15t15 32l207 186q34 31 51 29l18 -2q21 -2 41 -37l109 -189q10 -14 4 -24t-25 -10h-59q-33 0 -43 22z" />
    <glyph glyph-name="Udieresis" unicode="&#xdc;" horiz-adv-x="1013" 
d="M352 -14q-139 2 -211 73q-143 150 -49 512l221 867q13 45 62 45h59q25 0 36 -18.5t5 -45.5l-231 -913q-98 -387 139 -387q98 0 175 82t126 282l244 955q12 45 61 45h52q24 0 34.5 -18.5t3.5 -45.5l-239 -950q-66 -264 -187 -371q-49 -47 -124.5 -79.5t-176.5 -32.5z
M557 1864h19q35 0 63.5 -31t28.5 -71t-29.5 -68.5t-75.5 -28.5h-16q-35 0 -62.5 29.5t-27.5 69.5t28.5 70t71.5 30zM885 1864h18q35 0 64 -31t29 -71t-30 -68.5t-75 -28.5h-16q-35 0 -62.5 29.5t-27.5 69.5t28.5 70t71.5 30z" />
    <glyph glyph-name="Yacute" unicode="&#xdd;" horiz-adv-x="819" 
d="M427 768q191 285 269.5 421t140.5 267q14 31 61 27l64 -8q22 -2 31.5 -21.5t-7.5 -52.5q-235 -412 -530 -805l-140 -551q-12 -45 -61 -45h-59q-25 0 -36 18.5t-5 44.5l143 566q0 135 -31.5 384t-64.5 378q-13 36 0.5 62t44.5 28l57 8q29 2 41 -7t19 -42q63 -381 63 -672z
M823 1876q23 0 28 -13.5t-13 -38.5l-179 -186q-22 -25 -57 -25h-43q-16 0 -20 11.5t2 17.5l127 199q22 35 63 35h92z" />
    <glyph glyph-name="Thorn" unicode="&#xde;" horiz-adv-x="915" 
d="M335 1438q12 45 61 45h60q24 0 35.5 -18.5t5.5 -45.5l-21 -78h111q166 0 254 -72.5t83 -215t-51.5 -267t-117.5 -188.5q-150 -133 -500 -127l-109 -426q-12 -45 -61 -45h-59q-25 0 -36.5 18.5t-4.5 44.5zM450 618q163 9 225 123q31 52 56.5 148t25.5 182q0 121 -140 127
q-61 2 -176 4l-151 -592z" />
    <glyph glyph-name="germandbls" unicode="&#xdf;" horiz-adv-x="931" 
d="M53 0h-51q-25 0 -37 13.5t-8 33.5l287 1079q49 187 154.5 300.5t267.5 113.5q122 0 200 -88t69 -222t-118 -251q-96 -96 -113 -117q-49 -65 -49 -115.5t33 -89.5t73 -71.5t72.5 -94t32.5 -137.5q0 -159 -90 -273t-248 -114q-63 0 -109 29t-67 76q-39 86 -39 158.5
t29 80.5l55 17q62 20 60 -21q-9 -209 98 -209q63 0 109.5 67.5t47.5 144.5t-21.5 118t-55.5 70.5t-66 58.5q-80 66 -76 150q0 106 68 194q64 86 131 154q72 80 84 165t-24.5 137t-106.5 52t-139.5 -78t-106.5 -213l-286 -1073q-13 -45 -60 -45z" />
    <glyph glyph-name="agrave" unicode="&#xe0;" horiz-adv-x="770" 
d="M604 999q8 48 47 48l47 2q75 -2 55 -74l-246 -819q64 47 127 135q23 33 51 14l50 -33q32 -22 10 -51q-84 -98 -154.5 -152.5t-167.5 -76.5q-28 -4 -37 22l-38 113q-58 -76 -99 -104.5t-63 -28.5h-4q-17 0 -50.5 23.5t-66.5 61.5t-47.5 83t2 163.5t93.5 331.5t158 297
t203 82q68 0 130 -37zM573 885q-109 61 -177.5 2.5t-134 -238.5t-85 -282.5t-16.5 -139.5t36 -54t109.5 67t134 230t133.5 415zM476 1420q41 0 64 -35l116 -189q11 -16 1.5 -27.5t-27.5 -11.5h-33q-31 0 -59 29l-183 190q-14 21 -9 32.5t22 11.5h108z" />
    <glyph glyph-name="aacute" unicode="&#xe1;" horiz-adv-x="770" 
d="M604 999q8 48 47 48l47 2q75 -2 55 -74l-246 -819q64 47 127 135q23 33 51 14l50 -33q32 -22 10 -51q-84 -98 -154.5 -152.5t-167.5 -76.5q-28 -4 -37 22l-38 113q-58 -76 -99 -104.5t-63 -28.5h-4q-17 0 -50.5 23.5t-66.5 61.5t-47.5 83t2 163.5t93.5 331.5t158 297
t203 82q68 0 130 -37zM573 885q-109 61 -177.5 2.5t-134 -238.5t-85 -282.5t-16.5 -139.5t36 -54t109.5 67t134 230t133.5 415zM773 1420q23 0 28 -13.5t-13 -38.5l-179 -186q-22 -25 -57 -25h-43q-16 0 -20 11.5t2 17.5l127 199q22 35 63 35h92z" />
    <glyph glyph-name="acircumflex" unicode="&#xe2;" horiz-adv-x="788" 
d="M604 999q8 48 47 48l47 2q75 -2 55 -74l-246 -819q64 47 127 135q23 33 51 14l50 -33q32 -22 10 -51q-84 -98 -154.5 -152.5t-167.5 -76.5q-28 -4 -37 22l-38 113q-58 -76 -99 -104.5t-63 -28.5h-4q-17 0 -50.5 23.5t-66.5 61.5t-47.5 83t2 163.5t93.5 331.5t158 297
t203 82q68 0 130 -37zM573 885q-109 61 -177.5 2.5t-134 -238.5t-85 -282.5t-16.5 -139.5t36 -54t109.5 67t134 230t133.5 415zM549 1288l-129 -131q-23 -22 -58 -22h-49q-23 0 -27 15t15 32l207 186q34 31 51 29l18 -2q21 -2 41 -37l109 -189q10 -14 4 -24t-25 -10h-59
q-33 0 -43 22z" />
    <glyph glyph-name="atilde" unicode="&#xe3;" horiz-adv-x="790" 
d="M604 999q8 48 47 48l47 2q75 -2 55 -74l-246 -819q64 47 127 135q23 33 51 14l50 -33q32 -22 10 -51q-84 -98 -154.5 -152.5t-167.5 -76.5q-28 -4 -37 22l-38 113q-58 -76 -99 -104.5t-63 -28.5h-4q-17 0 -50.5 23.5t-66.5 61.5t-47.5 83t2 163.5t93.5 331.5t158 297
t203 82q68 0 130 -37zM573 885q-109 61 -177.5 2.5t-134 -238.5t-85 -282.5t-16.5 -139.5t36 -54t109.5 67t134 230t133.5 415zM207 1252l12 39q10 43 66 51q133 24 245.5 -19t261.5 0q29 9 43.5 -1.5t6.5 -39.5l-13 -49q-10 -41 -53 -53q-133 -39 -272.5 8t-253.5 10
q-31 -10 -42.5 2.5t-0.5 51.5z" />
    <glyph glyph-name="adieresis" unicode="&#xe4;" horiz-adv-x="770" 
d="M604 999q8 48 47 48l47 2q75 -2 55 -74l-246 -819q64 47 127 135q23 33 51 14l50 -33q32 -22 10 -51q-84 -98 -154.5 -152.5t-167.5 -76.5q-28 -4 -37 22l-38 113q-58 -76 -99 -104.5t-63 -28.5h-4q-17 0 -50.5 23.5t-66.5 61.5t-47.5 83t2 163.5t93.5 331.5t158 297
t203 82q68 0 130 -37zM573 885q-109 61 -177.5 2.5t-134 -238.5t-85 -282.5t-16.5 -139.5t36 -54t109.5 67t134 230t133.5 415zM350 1389h19q35 0 63.5 -31t28.5 -71t-29.5 -68.5t-75.5 -28.5h-16q-35 0 -62.5 29.5t-27.5 69.5t28.5 70t71.5 30zM678 1389h18q35 0 64 -31
t29 -71t-30 -68.5t-75 -28.5h-16q-35 0 -62.5 29.5t-27.5 69.5t28.5 70t71.5 30z" />
    <glyph glyph-name="aring" unicode="&#xe5;" horiz-adv-x="796" 
d="M604 999q8 48 47 48l47 2q75 -2 55 -74l-246 -819q64 47 127 135q23 33 51 14l50 -33q32 -22 10 -51q-84 -98 -154.5 -152.5t-167.5 -76.5q-28 -4 -37 22l-38 113q-58 -76 -99 -104.5t-63 -28.5h-4q-17 0 -50.5 23.5t-66.5 61.5t-47.5 83t2 163.5t93.5 331.5t158 297
t203 82q68 0 130 -37zM573 885q-109 61 -177.5 2.5t-134 -238.5t-85 -282.5t-16.5 -139.5t36 -54t109.5 67t134 230t133.5 415zM522 1552q-62 -55 -72 -128t12.5 -113.5t72.5 -52t98 22.5t69.5 102.5t-1 124.5t-75.5 70.5t-104 -26.5zM837 1425q-20 -143 -107.5 -211.5
t-196 -62.5t-170 87t-44 191.5t96.5 185t188.5 74.5t178 -79.5t54.5 -184.5z" />
    <glyph glyph-name="ae" unicode="&#xe6;" horiz-adv-x="1034" 
d="M442 586q-104 -35 -205.5 -138.5t-106.5 -219t78 -114.5t135 131t99 341zM537 279q-15 -76 5.5 -115t57.5 -47q76 28 186 153q19 19 41 4l39 -24q31 -21 19 -45q-39 -74 -151.5 -165t-207 -50t-120.5 125q-60 -90 -145 -126t-186.5 21.5t-105.5 199.5t147.5 297
t352.5 206q2 8 4 18q27 125 -41 178q-26 -6 -92 -69.5t-90 -100.5q-17 -20 -41 -4l-47 29q-31 20 -19 45q35 70 144.5 159t159 80.5t95.5 -54.5t64 -103q70 100 172.5 129t179 -6t81.5 -160t-41 -214t-155.5 -188.5t-305.5 -172.5zM561 412q98 41 168 96t116 136t46 164
t-49 83t-102.5 -47t-99.5 -161t-79 -271z" />
    <glyph glyph-name="ccedilla" unicode="&#xe7;" horiz-adv-x="622" 
d="M663 926q33 -35 8 -64l-34 -39q-35 -39 -62 -10l-22 25q-74 75 -117 65q-74 -14 -156 -157.5t-117.5 -296t-17.5 -254.5q4 -25 38 -45.5t52 -16.5q62 33 137 123q23 31 66 4l31 -20q65 -39 -111 -181q-74 -63 -115 -74.5t-123.5 30.5t-101.5 83q-57 125 -2 355.5
t135 352.5t157 185.5t166 55t189 -120.5zM202 -62l60 -16q34 -10 22 -62q-49 -207 -295 -217q-31 0 -37 27l-6 24q-8 39 27 41q82 7 130 53t48 117q0 27 19.5 34t31.5 -1z" />
    <glyph glyph-name="egrave" unicode="&#xe8;" horiz-adv-x="638" 
d="M150 283q-28 -150 56 -166q75 28 186 153q19 17 41 4l39 -24q27 -21 18 -45q-39 -74 -144 -157t-169 -71q-145 37 -170 152q-29 154 51 423t223 406q50 46 124.5 68.5t157.5 -12.5t82 -200t-144.5 -311.5t-350.5 -219.5zM175 416q96 41 164.5 96t113 134t44.5 162t-48 83
q-94 0 -164.5 -153.5t-109.5 -321.5zM374 1420q41 0 64 -35l116 -189q11 -16 1.5 -27.5t-27.5 -11.5h-33q-31 0 -59 29l-183 190q-14 21 -9 32.5t22 11.5h108z" />
    <glyph glyph-name="eacute" unicode="&#xe9;" horiz-adv-x="636" 
d="M747 1420q23 0 28 -13.5t-13 -38.5l-179 -186q-22 -25 -57 -25h-43q-16 0 -20 11.5t2 17.5l127 199q22 35 63 35h92zM150 283q-28 -150 56 -166q75 28 186 153q19 17 41 4l39 -24q27 -21 18 -45q-39 -74 -144 -157t-169 -71q-145 37 -170 152q-29 154 51 423t223 406
q50 46 124.5 68.5t157.5 -12.5t82 -200t-144.5 -311.5t-350.5 -219.5zM175 416q96 41 164.5 96t113 134t44.5 162t-48 83q-94 0 -164.5 -153.5t-109.5 -321.5z" />
    <glyph glyph-name="ecircumflex" unicode="&#xea;" horiz-adv-x="636" 
d="M531 1288l-129 -131q-23 -22 -58 -22h-49q-23 0 -27 15t15 32l207 186q34 31 51 29l18 -2q21 -2 41 -37l109 -189q10 -14 4 -24t-25 -10h-59q-33 0 -43 22zM150 283q-28 -150 56 -166q75 28 186 153q19 17 41 4l39 -24q27 -21 18 -45q-39 -74 -144 -157t-169 -71
q-145 37 -170 152q-29 154 51 423t223 406q50 46 124.5 68.5t157.5 -12.5t82 -200t-144.5 -311.5t-350.5 -219.5zM175 416q96 41 164.5 96t113 134t44.5 162t-48 83q-94 0 -164.5 -153.5t-109.5 -321.5z" />
    <glyph glyph-name="edieresis" unicode="&#xeb;" horiz-adv-x="636" 
d="M362 1389h19q35 0 63.5 -31t28.5 -71t-29.5 -68.5t-75.5 -28.5h-16q-35 0 -62.5 29.5t-27.5 69.5t28.5 70t71.5 30zM690 1389h18q35 0 64 -31t29 -71t-30 -68.5t-75 -28.5h-16q-35 0 -62.5 29.5t-27.5 69.5t28.5 70t71.5 30zM150 283q-28 -150 56 -166q75 28 186 153
q19 17 41 4l39 -24q27 -21 18 -45q-39 -74 -144 -157t-169 -71q-145 37 -170 152q-29 154 51 423t223 406q50 46 124.5 68.5t157.5 -12.5t82 -200t-144.5 -311.5t-350.5 -219.5zM175 416q96 41 164.5 96t113 134t44.5 162t-48 83q-94 0 -164.5 -153.5t-109.5 -321.5z" />
    <glyph glyph-name="igrave" unicode="&#xec;" horiz-adv-x="191" 
d="M399 997l-248 -952q-12 -45 -61 -45h-60q-57 0 -45 47l250 952q10 41 57 41h68q27 0 36 -9t3 -34zM261 1420q41 0 64 -35l116 -189q11 -16 1.5 -27.5t-27.5 -11.5h-33q-31 0 -59 29l-183 190q-14 21 -9 32.5t22 11.5h108z" />
    <glyph glyph-name="iacute" unicode="&#xed;" horiz-adv-x="382" 
d="M558 1420q23 0 28 -13.5t-13 -38.5l-179 -186q-22 -25 -57 -25h-43q-16 0 -20 11.5t2 17.5l127 199q22 35 63 35h92zM387 997l-248 -952q-12 -45 -61 -45h-60q-57 0 -45 47l250 952q10 41 57 41h68q27 0 36 -9t3 -34z" />
    <glyph glyph-name="icircumflex" unicode="&#xee;" horiz-adv-x="382" 
d="M361 1288l-129 -131q-23 -22 -58 -22h-49q-23 0 -27 15t15 32l207 186q34 31 51 29l18 -2q21 -2 41 -37l109 -189q10 -14 4 -24t-25 -10h-59q-33 0 -43 22zM387 997l-248 -952q-12 -45 -61 -45h-60q-57 0 -45 47l250 952q10 41 57 41h68q27 0 36 -9t3 -34z" />
    <glyph glyph-name="idieresis" unicode="&#xef;" horiz-adv-x="401" 
d="M257 1386h16q31 0 55.5 -30.5t24.5 -70.5t-25.5 -68.5t-64.5 -28.5h-14q-31 0 -54.5 29.5t-23.5 69.5t24.5 69.5t61.5 29.5zM492 1386h17q31 0 55.5 -30.5t24.5 -70.5t-26 -68.5t-64 -28.5h-15q-31 0 -54.5 29.5t-23.5 69.5t25 69.5t61 29.5zM410 997l-247 -952
q-13 -45 -62 -45h-59q-58 0 -45 47l250 952q10 41 57 41h68q26 0 35.5 -9t2.5 -34z" />
    <glyph glyph-name="eth" unicode="&#xf0;" horiz-adv-x="679" 
d="M508 705q6 102 -10.5 155t-85 47t-150.5 -185t-88 -386t63.5 -211t153.5 151.5t117 428.5zM504 1051q-17 102 -43 190l-178 -37q-37 -8 -47 23l-25 57q-12 31 14 39l195 39q-23 57 -59 145q-9 21 1.5 35t34.5 14h95q43 0 59 -51q2 -6 13.5 -43t21.5 -65l160 33
q28 4 40 -19l27 -51q8 -17 2 -31t-20 -18l-178 -37q20 -80 40.5 -250t4.5 -340q-23 -270 -146 -488.5t-311 -211.5q-66 2 -121 57q-84 84 -72.5 307t96.5 398.5t171 246t190 64.5q18 -2 35 -6z" />
    <glyph glyph-name="ntilde" unicode="&#xf1;" horiz-adv-x="866" 
d="M246 465l213 352q68 111 139.5 167t122.5 56h43q33 0 51.5 -11t30 -50t-11.5 -115l-229 -835q-6 -29 -33 -29h-107q-30 0 -16 49l215 703q16 55 16 72.5t-14 17.5t-33.5 -18.5t-52.5 -67.5q-39 -56 -94 -145t-139 -220q-158 -241 -224 -362q-16 -29 -49 -29h-57
q-12 0 -20.5 16.5t-2.5 36.5l248 934q10 53 41 53h84q49 0 33 -59zM264 1252l12 39q10 43 66 51q133 24 245.5 -19t261.5 0q29 9 43.5 -1.5t6.5 -39.5l-13 -49q-10 -41 -53 -53q-133 -39 -272.5 8t-253.5 10q-31 -10 -42.5 2.5t-0.5 51.5z" />
    <glyph glyph-name="ograve" unicode="&#xf2;" 
d="M331 1420q41 0 64 -35l116 -189q11 -16 1.5 -27.5t-27.5 -11.5h-33q-31 0 -59 29l-183 190q-14 21 -9 32.5t22 11.5h108zM6 297q9 274 137 519t326 241q103 -6 160 -103q43 -67 35 -227q-8 -303 -166 -561q-109 -189 -293 -182q-65 2 -121 57q-84 80 -78 256zM355 215
q139 219 147 490q2 120 -12.5 161t-60.5 42t-84 -43t-74 -122q-91 -182 -99 -426q-4 -184 64 -190q59 -2 119 88z" />
    <glyph glyph-name="oacute" unicode="&#xf3;" 
d="M718 1420q23 0 28 -13.5t-13 -38.5l-179 -186q-22 -25 -57 -25h-43q-16 0 -20 11.5t2 17.5l127 199q22 35 63 35h92zM6 297q9 274 137 519t326 241q103 -6 160 -103q43 -67 35 -227q-8 -303 -166 -561q-109 -189 -293 -182q-65 2 -121 57q-84 80 -78 256zM355 215
q139 219 147 490q2 120 -12.5 161t-60.5 42t-84 -43t-74 -122q-91 -182 -99 -426q-4 -184 64 -190q59 -2 119 88z" />
    <glyph glyph-name="ocircumflex" unicode="&#xf4;" 
d="M510 1278l-129 -131q-23 -22 -58 -22h-49q-23 0 -27 15t15 32l207 186q34 31 51 29l18 -2q21 -2 41 -37l109 -189q10 -14 4 -24t-25 -10h-59q-33 0 -43 22zM6 297q9 274 137 519t326 241q103 -6 160 -103q43 -67 35 -227q-8 -303 -166 -561q-109 -189 -293 -182
q-65 2 -121 57q-84 80 -78 256zM355 215q139 219 147 490q2 120 -12.5 161t-60.5 42t-84 -43t-74 -122q-91 -182 -99 -426q-4 -184 64 -190q59 -2 119 88z" />
    <glyph glyph-name="otilde" unicode="&#xf5;" 
d="M6 297q9 274 137 519t326 241q103 -6 160 -103q43 -67 35 -227q-8 -303 -166 -561q-109 -189 -293 -182q-65 2 -121 57q-84 80 -78 256zM355 215q139 219 147 490q2 120 -12.5 161t-60.5 42t-84 -43t-74 -122q-91 -182 -99 -426q-4 -184 64 -190q59 -2 119 88zM763 1219
q-6 -27 -43 -48.5t-108.5 -21.5t-150.5 32.5t-123 32.5t-83 -20t-50 -13t-7 40l2 43q0 34 43 59t101.5 27t140 -34t141 -36t96.5 20.5t48 11.5t5 -38z" />
    <glyph glyph-name="odieresis" unicode="&#xf6;" 
d="M329 1389h19q35 0 63.5 -31t28.5 -71t-29.5 -68.5t-75.5 -28.5h-16q-35 0 -62.5 29.5t-27.5 69.5t28.5 70t71.5 30zM657 1389h18q35 0 64 -31t29 -71t-30 -68.5t-75 -28.5h-16q-35 0 -62.5 29.5t-27.5 69.5t28.5 70t71.5 30zM6 297q9 274 137 519t326 241
q103 -6 160 -103q43 -67 35 -227q-8 -303 -166 -561q-109 -189 -293 -182q-65 2 -121 57q-84 80 -78 256zM355 215q139 219 147 490q2 120 -12.5 161t-60.5 42t-84 -43t-74 -122q-91 -182 -99 -426q-4 -184 64 -190q59 -2 119 88z" />
    <glyph glyph-name="divide" unicode="&#xf7;" horiz-adv-x="980" 
d="M64 780h901q43 0 35 -47l-11 -51q-10 -43 -53 -43h-880q-50 0 -37 47l18 72q6 22 27 22zM578 1223h22q39 0 71 -35t32 -83t-33 -81t-84 -33h-20q-41 0 -71 34t-30 82t32 82t81 34zM371 334h22q39 0 71 -35t32 -83t-33 -81t-84 -33h-20q-41 0 -71 34t-30 82t32 82t81 34z
" />
    <glyph glyph-name="oslash" unicode="&#xf8;" horiz-adv-x="923" 
d="M1000 938l-226 -207v-4q-8 -303 -166 -561q-108 -189 -293 -182q-65 2 -114 49t-68 112l-92 -84q-51 -45 -74 -22l-28 33q-23 26 -25 40.5t29 51.5l174 160q14 260 135 491q129 246 328 242q127 -6 178 -146l127 117q39 37 74 4l26 -22q47 -43 15 -72zM465 215
q104 164 135 356l-317 -288q2 -152 63 -156q60 -2 119 88zM600 866q-14 41 -60 42t-84 -43t-75 -122q-57 -114 -82 -251l313 286q-4 62 -12 88z" />
    <glyph glyph-name="ugrave" unicode="&#xf9;" horiz-adv-x="827" 
d="M335 1420q41 0 64 -35l116 -189q11 -16 1.5 -27.5t-27.5 -11.5h-33q-31 0 -59 29l-183 190q-14 21 -9 32.5t22 11.5h108zM570 537l-187 -314q-65 -112 -132.5 -167.5t-118.5 -55.5h-13q-63 0 -99 69.5t-5 180.5l209 762q6 28 32 28h107q31 0 16 -49l-207 -710
q-14 -64 -4 -82q23 -33 103 88t413 725q17 28 50 28h77q13 0 21 -16t2 -37l-248 -934q-10 -53 -41 -53h-84q-49 0 -33 59z" />
    <glyph glyph-name="uacute" unicode="&#xfa;" horiz-adv-x="827" 
d="M749 1420q23 0 28 -13.5t-13 -38.5l-179 -186q-22 -25 -57 -25h-43q-16 0 -20 11.5t2 17.5l127 199q22 35 63 35h92zM570 537l-187 -314q-65 -112 -132.5 -167.5t-118.5 -55.5h-13q-63 0 -99 69.5t-5 180.5l209 762q6 28 32 28h107q31 0 16 -49l-207 -710q-14 -64 -4 -82
q23 -33 103 88t413 725q17 28 50 28h77q13 0 21 -16t2 -37l-248 -934q-10 -53 -41 -53h-84q-49 0 -33 59z" />
    <glyph glyph-name="ucircumflex" unicode="&#xfb;" horiz-adv-x="827" 
d="M545 1280l-129 -131q-23 -22 -58 -22h-49q-23 0 -27 15t15 32l207 186q34 31 51 29l18 -2q21 -2 41 -37l109 -189q10 -14 4 -24t-25 -10h-59q-33 0 -43 22zM570 537l-187 -314q-65 -112 -132.5 -167.5t-118.5 -55.5h-13q-63 0 -99 69.5t-5 180.5l209 762q6 28 32 28h107
q31 0 16 -49l-207 -710q-14 -64 -4 -82q23 -33 103 88t413 725q17 28 50 28h77q13 0 21 -16t2 -37l-248 -934q-10 -53 -41 -53h-84q-49 0 -33 59z" />
    <glyph glyph-name="udieresis" unicode="&#xfc;" horiz-adv-x="835" 
d="M389 1389h19q35 0 63.5 -31t28.5 -71t-29.5 -68.5t-75.5 -28.5h-16q-35 0 -62.5 29.5t-27.5 69.5t28.5 70t71.5 30zM717 1389h18q35 0 64 -31t29 -71t-30 -68.5t-75 -28.5h-16q-35 0 -62.5 29.5t-27.5 69.5t28.5 70t71.5 30zM570 537l-187 -314q-65 -112 -132.5 -167.5
t-118.5 -55.5h-13q-63 0 -99 69.5t-5 180.5l209 762q6 28 32 28h107q31 0 16 -49l-207 -710q-14 -64 -4 -82q23 -33 103 88t413 725q17 28 50 28h77q13 0 21 -16t2 -37l-248 -934q-10 -53 -41 -53h-84q-49 0 -33 59z" />
    <glyph glyph-name="yacute" unicode="&#xfd;" horiz-adv-x="841" 
d="M767 1420q23 0 28 -13.5t-13 -38.5l-179 -186q-22 -25 -57 -25h-43q-16 0 -20 11.5t2 17.5l127 199q22 35 63 35h92zM747 1040h78q13 0 21 -16t2 -37l-301 -1089q-49 -189 -162 -250q-49 -27 -66 -33q-41 -18 -120 31l-209 118q-27 13 -29 36.5t12 37.5l31 43
q33 35 68 17l227 -140q45 -24 68 56l198 702l-47 -90l-121 -203q-65 -112 -132.5 -167.5t-119.5 -55.5h-12q-43 0 -72 31q-71 78 -32 219l209 762q8 28 32 28h107q31 0 16 -49l-207 -710q-16 -64 -4 -80q23 -35 104 86t412 725q17 28 49 28z" />
    <glyph glyph-name="thorn" unicode="&#xfe;" horiz-adv-x="749" 
d="M169 143q100 -57 169.5 -9t138.5 234.5t88 291t16 141.5t-35.5 54t-111.5 -70t-135.5 -233t-123.5 -390zM517 1507l-178 -694l28 47q43 72 98.5 123t90.5 51h4q16 0 51 -23.5t67.5 -63.5t46 -83t-4 -170t-99.5 -343t-158.5 -287.5t-195.5 -71.5q-66 0 -129 37l-100 -394
q-13 -45 -62 -45h-41q-33 0 -46 18.5t-7 47.5l475 1853q12 45 62 45h53q57 0 45 -47z" />
    <glyph glyph-name="ydieresis" unicode="&#xff;" horiz-adv-x="831" 
d="M393 1389h19q35 0 63.5 -31t28.5 -71t-29.5 -68.5t-75.5 -28.5h-16q-35 0 -62.5 29.5t-27.5 69.5t28.5 70t71.5 30zM721 1389h18q35 0 64 -31t29 -71t-30 -68.5t-75 -28.5h-16q-35 0 -62.5 29.5t-27.5 69.5t28.5 70t71.5 30zM737 1040h78q13 0 21 -16t2 -37l-301 -1089
q-49 -189 -162 -250q-49 -27 -66 -33q-41 -18 -120 31l-209 118q-27 13 -29 36.5t12 37.5l31 43q33 35 68 17l227 -140q45 -24 68 56l198 702l-47 -90l-121 -203q-65 -112 -132.5 -167.5t-119.5 -55.5h-12q-43 0 -72 31q-71 78 -32 219l209 762q8 28 32 28h107q31 0 16 -49
l-207 -710q-16 -64 -4 -80q23 -35 104 86t412 725q17 28 49 28z" />
    <glyph glyph-name="aogonek" unicode="&#x105;" horiz-adv-x="419" 
d="M603 999q14 45 57 48l47 2q68 0 46 -74l-275 -918q-16 -57 -45 -57h-57q-19 0 -29 16.5t-6 36.5l22 97q-51 -72 -100 -114t-73.5 -42t-51.5 16q-139 103 -119.5 278t100.5 388t160.5 286.5t175 73.5t148.5 -37zM572 885q-100 55 -169.5 8t-137 -234.5t-85 -288
t-6.5 -148.5t44 -48t101.5 83t123 221t129.5 407zM421 65l25 -26q33 -33 -6 -45q-86 -33 -132 -89.5t-29 -108.5t112 -23q26 10 38 -27l9 -29q12 -30 -27 -47q-65 -24 -126.5 -24t-105.5 36.5t-41 118.5t82.5 157t200.5 107z" />
    <glyph glyph-name="Ccaron" unicode="&#x10c;" horiz-adv-x="897" 
d="M911 1124q2 -14 2 -26q0 -29 -43 -41l-57 -17q-23 -4 -43.5 12.5t-22.5 43.5q-16 157 -69 223q-27 10 -60 10q-100 4 -201.5 -141.5t-176 -413.5t-49 -445t103.5 -196q153 14 254 236q18 41 32.5 49t49.5 -6l65 -27q37 -16 6 -82q-94 -174 -186 -246.5t-227 -72.5
q-72 -4 -158 63.5t-105.5 283.5t50 498.5t231.5 475t344 194.5q25 0 68 -14.5t78.5 -41t70.5 -115.5t43 -204zM679 1753l129 131q23 22 58 22h49q22 0 26.5 -15t-14.5 -32l-207 -186q-35 -31 -51 -29l-18 2q-21 2 -41 37l-109 188q-10 15 -4 25t25 10h59q33 0 43 -22z" />
    <glyph glyph-name="ccaron" unicode="&#x10d;" horiz-adv-x="616" 
d="M657 926q33 -35 8 -64l-34 -39q-35 -39 -62 -10l-22 25q-74 75 -117 65q-74 -14 -156 -157.5t-117.5 -296t-17.5 -254.5q4 -25 38 -45.5t52 -16.5q62 33 137 123q23 31 66 4l31 -20q65 -39 -111 -181q-74 -63 -115 -74.5t-123.5 30.5t-101.5 83q-57 125 -2 355.5
t135 352.5t157 185.5t166 55t189 -120.5zM507 1233l129 131q23 22 58 22h49q22 0 26.5 -15t-14.5 -32l-207 -186q-35 -31 -51 -29l-18 2q-21 2 -41 37l-109 188q-10 15 -4 25t25 10h59q33 0 43 -22z" />
    <glyph glyph-name="dotlessi" unicode="&#x131;" horiz-adv-x="391" 
d="M387 997l-248 -952q-12 -45 -61 -45h-60q-57 0 -45 47l250 952q10 41 57 41h68q27 0 36 -9t3 -34z" />
    <glyph glyph-name="Scaron" unicode="&#x160;" horiz-adv-x="835" 
d="M899 1083q0 -51 -35 -61l-72 -23q-16 -6 -32.5 5.5t-16.5 37.5q0 271 -88 312q-41 20 -90 -2q-64 -33 -123 -137.5t-63 -237.5q-2 -53 18 -83t78 -48l84 -29q119 -41 156.5 -95t35.5 -159q-2 -221 -144 -407.5t-325 -188.5q-241 0 -241 393q-4 82 30 93l76 24q21 8 34 -3
t13 -36q-2 -307 82 -346q31 -6 80 14q84 37 148.5 152t76 224.5t-13.5 144.5t-129 67l-86 27q-57 18 -99 65.5t-42 118.5q0 127 54 263.5t160.5 236.5t234.5 100t183.5 -108.5t55.5 -313.5zM691 1753l129 131q23 22 58 22h49q22 0 26.5 -15t-14.5 -32l-207 -186
q-35 -31 -51 -29l-18 2q-21 2 -41 37l-109 188q-10 15 -4 25t25 10h59q33 0 43 -22z" />
    <glyph glyph-name="scaron" unicode="&#x161;" horiz-adv-x="655" 
d="M466 1307l129 131q23 22 58 22h49q22 0 26.5 -15t-14.5 -32l-207 -186q-35 -31 -51 -29l-18 2q-21 2 -41 37l-109 188q-10 15 -4 25t25 10h59q33 0 43 -22zM404 1053h31q70 0 129 -53.5t96 -131.5q21 -43 -14 -65l-62 -35q-43 -31 -61 10q-2 4 -16.5 38t-23.5 48.5
t-31.5 32.5t-51.5 23q-51 -11 -96 -68t-45 -162q0 -45 21.5 -62.5t76.5 -29.5l57 -12q125 -27 125 -207q0 -107 -80 -246q-38 -65 -104 -110.5t-143 -45.5h-15q-78 0 -139 54.5t-86 111t0 84.5l45 37q21 21 45.5 19t33.5 -36t50 -82t76 -50q61 10 106 72.5t45 143.5
t-15 103.5t-69 34.5l-45 10q-79 19 -112 66t-33 127q0 133 95 257t210 124z" />
    <glyph glyph-name="Ydieresis" unicode="&#x178;" horiz-adv-x="819" 
d="M427 768q191 285 269.5 421t140.5 267q14 31 61 27l64 -8q22 -2 31.5 -21.5t-7.5 -52.5q-235 -412 -530 -805l-140 -551q-12 -45 -61 -45h-59q-25 0 -36 18.5t-5 44.5l143 566q0 135 -31.5 384t-64.5 378q-13 36 0.5 62t44.5 28l57 8q29 2 41 -7t19 -42q63 -381 63 -672z
M450 1864h19q35 0 63.5 -31t28.5 -71t-29.5 -68.5t-75.5 -28.5h-16q-35 0 -62.5 29.5t-27.5 69.5t28.5 70t71.5 30zM778 1864h18q35 0 64 -31t29 -71t-30 -68.5t-75 -28.5h-16q-35 0 -62.5 29.5t-27.5 69.5t28.5 70t71.5 30z" />
    <glyph glyph-name="Zcaron" unicode="&#x17d;" horiz-adv-x="923" 
d="M324 1483h667q48 0 39 -43l-12 -60q-8 -47 -57 -45h-8l-785 -1188h488q59 0 47 -55l-11 -47q-12 -45 -67 -45h-602q-51 0 -65.5 27.5t1.5 66.5l815 1241h-456q-58 0 -45 54l18 65q6 31 33 29zM640 1753l129 131q23 22 58 22h49q22 0 26.5 -15t-14.5 -32l-207 -186
q-35 -31 -51 -29l-18 2q-21 2 -41 37l-109 188q-10 15 -4 25t25 10h59q33 0 43 -22z" />
    <glyph glyph-name="zcaron" unicode="&#x17e;" horiz-adv-x="800" 
d="M546 1377l129 131q23 22 58 22h49q22 0 26.5 -15t-14.5 -32l-207 -186q-35 -31 -51 -29l-18 2q-21 2 -41 37l-109 188q-10 15 -4 25t25 10h59q33 0 43 -22zM182 131h295l33 131q10 41 63 45l43 4q27 2 39.5 -11t6.5 -38l-58 -217q-12 -45 -61 -45h-486q-61 0 -74.5 46
t23.5 83l641 780h-287l-32 -131q-11 -41 -64 -45l-45 -4q-26 -2 -38.5 11.5t-6.5 37.5l59 221q13 41 60 41h461q53 0 77.5 -47t-28.5 -116z" />
    <glyph glyph-name="circumflex" unicode="&#x2c6;" horiz-adv-x="747" 
d="M422 1372l-129 -131q-23 -22 -58 -22h-49q-23 0 -27 15t15 32l207 186q34 31 51 29l18 -2q21 -2 41 -37l109 -189q10 -14 4 -24t-25 -10h-59q-33 0 -43 22z" />
    <glyph glyph-name="caron" unicode="&#x2c7;" horiz-adv-x="735" 
d="M347 1307l129 131q23 22 58 22h49q22 0 26.5 -15t-14.5 -32l-207 -186q-35 -31 -51 -29l-18 2q-21 2 -41 37l-109 188q-10 15 -4 25t25 10h59q33 0 43 -22z" />
    <glyph glyph-name="breve" unicode="&#x2d8;" horiz-adv-x="933" 
d="M94 1479h121q8 -88 83 -147.5t175 -59.5t169 57t79 150h119q-17 -138 -118 -221.5t-254 -83.5t-252 82.5t-122 222.5z" />
    <glyph glyph-name="dotaccent" unicode="&#x2d9;" horiz-adv-x="477" 
d="M397 1434h19q35 0 63.5 -31t28.5 -71t-29.5 -68.5t-75.5 -28.5h-16q-35 0 -62.5 29.5t-27.5 69.5t28.5 70t71.5 30z" />
    <glyph glyph-name="ring" unicode="&#x2da;" horiz-adv-x="1249" 
d="M733 1585q-62 -55 -72 -128t12.5 -113.5t72.5 -52t98 22.5t69.5 102.5t-1 124.5t-75.5 70.5t-104 -26.5zM1048 1458q-20 -143 -107.5 -211.5t-196 -62.5t-170 87t-44 191.5t96.5 185t188.5 74.5t178 -79.5t54.5 -184.5z" />
    <glyph glyph-name="ogonek" unicode="&#x2db;" horiz-adv-x="577" 
d="M304 59l25 -26q33 -33 -6 -45q-86 -33 -132 -89.5t-29 -108.5t112 -23q26 10 38 -27l9 -29q12 -30 -27 -47q-65 -24 -126.5 -24t-105.5 36.5t-41 118.5t82.5 157t200.5 107z" />
    <glyph glyph-name="tilde" unicode="&#x2dc;" horiz-adv-x="1140" 
d="M260 1182l12 39q10 43 66 51q133 24 245.5 -19t261.5 0q29 9 43.5 -1.5t6.5 -39.5l-13 -49q-10 -41 -53 -53q-133 -39 -272.5 8t-253.5 10q-31 -10 -42.5 2.5t-0.5 51.5z" />
    <glyph glyph-name="hungarumlaut" unicode="&#x2dd;" horiz-adv-x="899" 
d="M610 1483q22 0 28 -14.5t-14 -36.5l-160 -185q-29 -28 -61 -28h-25q-20 0 -24.5 11t4.5 23l131 195q22 35 63 35h58zM358 1483q49 0 14 -51l-152 -189q-24 -24 -57 -24h-27q-20 0 -24 11t4 23l121 195q22 35 63 35h58z" />
    <glyph glyph-name="tildecomb" unicode="&#x303;" horiz-adv-x="1140" 
d="M894 1219q-6 -27 -43 -48.5t-108.5 -21.5t-150.5 32.5t-123 32.5t-83 -20t-50 -13t-7 40l2 43q0 34 43 59t101.5 27t140 -34t141 -36t96.5 20.5t48 11.5t5 -38z" />
    <glyph glyph-name="endash" unicode="&#x2013;" horiz-adv-x="1241" 
d="M154 735h901q43 0 35 -47l-11 -51q-10 -43 -53 -43h-880q-50 0 -37 47l18 72q6 22 27 22z" />
    <glyph glyph-name="emdash" unicode="&#x2014;" horiz-adv-x="1705" 
d="M154 735h1493q18 0 28.5 -13t6.5 -34l-11 -49q-8 -45 -53 -45h-1472q-50 0 -37 47l18 72q6 22 27 22z" />
    <glyph glyph-name="quoteleft" unicode="&#x2018;" horiz-adv-x="464" 
d="M160 1094q0 211 147 460q49 88 103 88q24 0 24 -29.5t-31.5 -113.5t-49 -191.5t-19.5 -191.5q0 -35 -43 -45l-82 -18q-49 -11 -49 41z" />
    <glyph glyph-name="quoteright" unicode="&#x2019;" horiz-adv-x="421" 
d="M461 1647q0 -211 -147 -461q-51 -88 -103 -88q-24 0 -25 26.5t30.5 102.5t47 170t23.5 227q0 35 43 46l82 18q49 8 49 -41z" />
    <glyph glyph-name="quotesinglbase" unicode="&#x201a;" horiz-adv-x="589" 
d="M225 213q0 -211 -147 -461q-51 -88 -103 -88q-24 0 -25 26.5t30.5 102.5t47 170t23.5 227q0 35 43 46l82 18q49 8 49 -41z" />
    <glyph glyph-name="quotedblleft" unicode="&#x201c;" horiz-adv-x="636" 
d="M455 1094q0 211 147 460q49 88 103 88q24 0 24 -29.5t-31.5 -113.5t-49 -191.5t-19.5 -191.5q0 -35 -43 -45l-82 -18q-49 -11 -49 41zM150 1094q0 211 147 460q49 88 103 88q24 0 24 -29.5t-31.5 -113.5t-49 -191.5t-19.5 -191.5q0 -35 -43 -45l-82 -18q-49 -11 -49 41z
" />
    <glyph glyph-name="quotedblright" unicode="&#x201d;" horiz-adv-x="653" 
d="M719 1647q0 -211 -147 -461q-51 -88 -103 -88q-24 0 -25 26.5t30.5 102.5t47 170t23.5 227q0 35 43 46l82 18q49 8 49 -41zM411 1647q0 -211 -147 -461q-51 -88 -103 -88q-24 0 -25 26.5t30.5 102.5t47 170t23.5 227q0 35 43 46l82 18q49 8 49 -41z" />
    <glyph glyph-name="quotedblbase" unicode="&#x201e;" horiz-adv-x="753" 
d="M532 213q0 -211 -147 -461q-51 -88 -103 -88q-24 0 -25 26.5t30.5 102.5t47 170t23.5 227q0 35 43 46l82 18q49 8 49 -41zM225 213q0 -211 -147 -461q-51 -88 -103 -88q-24 0 -25 26.5t30.5 102.5t47 170t23.5 227q0 35 43 46l82 18q49 8 49 -41z" />
    <glyph glyph-name="bullet" unicode="&#x2022;" horiz-adv-x="966" 
d="M344 549q0 100 71.5 171t172 71t172 -71t71.5 -180.5t-68.5 -172t-172 -62.5t-175 72t-71.5 172z" />
    <glyph glyph-name="ellipsis" unicode="&#x2026;" horiz-adv-x="1294" 
d="M178 193h23q39 0 72.5 -36t33.5 -82t-34.5 -80t-86.5 -34h-20q-41 0 -73 35t-32 82t34 81t83 34zM614 193h23q39 0 72.5 -36t33.5 -82t-34.5 -80t-85.5 -34h-21q-41 0 -72.5 35t-31.5 82t33.5 81t82.5 34zM1051 193h22q39 0 73 -36t34 -82t-35 -80t-86 -34h-21
q-41 0 -72.5 35t-31.5 82t33.5 81t83.5 34z" />
    <glyph glyph-name="guilsinglleft" unicode="&#x2039;" horiz-adv-x="518" 
d="M324 549l108 -334q19 -49 -28 -49h-33q-43 0 -60 47l-114 322q-17 49 16 88l275 315q20 25 63 25h33q22 0 28.5 -12.5t-8.5 -32.5z" />
    <glyph glyph-name="guilsinglright" unicode="&#x203a;" horiz-adv-x="518" 
d="M343 580l-109 333q-18 50 29 50h33q43 0 59 -48l115 -321q16 -49 -16 -88l-275 -316q-20 -24 -63 -24h-33q-49 0 -21 45z" />
    <glyph glyph-name="fraction" unicode="&#x2044;" horiz-adv-x="1359" 
d="M-40 -55l-82 2q-24 0 -30.5 20.5t18.5 46.5l1497 1504q47 47 98 47h80q29 0 35 -20.5t-18 -47.5l-1512 -1515q-37 -37 -86 -37z" />
    <glyph glyph-name="foursuperior" unicode="&#x2074;" horiz-adv-x="641" 
d="M569 852h-64l-49 -168q-10 -29 -47 -29h-55q-19 0 -27 12.5t-4 28.5l45 156h-234q-71 0 -89.5 45t22.5 90l424 545q26 29 55 29h53q21 0 30 -18.5t-5 -37.5l-430 -538h209l55 192q10 29 47 29h55q19 0 27 -12.5t4 -28.5l-53 -180h65q23 2 32 -8.5t3 -30.5l-16 -39
q-17 -37 -53 -37z" />
    <glyph glyph-name="twoinferior" unicode="&#x2082;" horiz-adv-x="604" 
d="M204 129h328q47 0 34 -43l-12 -47q-4 -14 -20.5 -25.5t-32.5 -11.5h-428q-43 0 -59.5 35t22.5 82l401 422q90 98 87 177t-78.5 84t-124 -43t-48.5 -120q0 -12 -13 -22t-27 -13l-56 -8q-22 -2 -28.5 7.5t-6.5 27.5q0 119 89.5 201t211 82t175 -72t29 -181.5t-125.5 -209.5
z" />
    <glyph glyph-name="fourinferior" unicode="&#x2084;" horiz-adv-x="616" 
d="M524 199h-64l-49 -168q-10 -29 -47 -29h-55q-19 0 -27 12.5t-4 28.5l45 156h-234q-71 0 -89.5 45t22.5 90l424 545q26 29 55 29h53q21 0 30 -18.5t-5 -37.5l-430 -538h209l55 192q10 29 47 29h55q19 0 27 -12.5t4 -28.5l-53 -180h65q23 2 32 -8.5t3 -30.5l-16 -39
q-17 -37 -53 -37z" />
    <glyph glyph-name="Euro" unicode="&#x20ac;" horiz-adv-x="921" 
d="M-70 657h112q8 54 21 107h-103q-22 0 -28 8t0 39l6 25q6 26 28 26h123q52 178 142 329.5t215 234.5t229.5 65t162.5 -109.5t71 -267.5q4 -49 -39 -65l-80 -27q-19 -8 -28 1t-7 32q2 272 -120 281.5t-222 -155.5t-145 -319h561q35 0 26 -35l-6 -28q-6 -35 -43 -35h-567
q-14 -51 -25 -107h523q30 0 40.5 -9t2.5 -36l-7 -22q-4 -19 -13 -25t-30 -6h-530q-21 -180 8 -303t109 -123t147.5 67.5t104.5 172.5q10 33 23 38t52 -3l50 -13q32 -4 26 -33q-2 -12 -10 -34q-76 -201 -190.5 -276t-251 -51t-200 174.5t-38.5 383.5h-115q-37 0 -28 33l8 35
q6 30 35 30z" />
    <glyph glyph-name="trademark" unicode="&#x2122;" horiz-adv-x="890" 
d="M95 1556h502q39 0 27 -47l-4 -16q-8 -41 -43 -41h-187l-106 -428q-8 -33 -45 -33h-45q-19 0 -26 13.5t-3 31.5l102 416h-172q-24 0 -31 7t1 36l8 33q6 28 22 28zM822 997l-49 2q-34 0 -37 64q-4 104 -12 213l-65 -250q-9 -33 -45 -33h-41q-19 0 -26 13.5t-3 31.5l127 486
q8 32 43 32h65q33 0 35 -34q4 -70 12.5 -180.5t10.5 -202.5l262 387q18 28 41 28h51q19 0 26 -13t3 -32l-131 -483q-6 -33 -43 -33h-41q-19 0 -26 13.5t-3 31.5l62 234q-29 -47 -81.5 -126t-64.5 -100.5t-27.5 -36t-42.5 -12.5z" />
    <glyph glyph-name="minus" unicode="&#x2212;" horiz-adv-x="866" 
d="M755 594h-647q-49 0 -37 47l14 59q4 21 15.5 28t31.5 7h652q18 0 28 -12t6 -35l-10 -51q-10 -43 -53 -43z" />
    <glyph glyph-name="a.sans" horiz-adv-x="858" 
d="M603 999q14 45 57 48l47 2q68 0 46 -74l-275 -918q-16 -57 -45 -57h-57q-19 0 -29 16.5t-6 36.5l22 97q-51 -72 -100 -114t-73.5 -42t-51.5 16q-139 103 -119.5 278t100.5 388t160.5 286.5t175 73.5t148.5 -37zM572 885q-100 55 -169.5 8t-137 -234.5t-85 -288
t-6.5 -148.5t44 -48t101.5 83t123 221t129.5 407z" />
    </font>
</defs>
</svg>
