<svg width="727" height="644" viewBox="0 0 727 644" fill="none" xmlns="http://www.w3.org/2000/svg">
<path d="M653.418 593.384H710.587V592.954H653.418V593.384Z" fill="#ECECEC"/>
<path d="M490.742 598.068H505.746V597.637H490.742V598.068Z" fill="#ECECEC"/>
<path d="M618.566 577.356H651.692V576.925H618.566V577.356Z" fill="#ECECEC"/>
<path d="M24.6055 580.258H99.1566V579.826H24.6055V580.258Z" fill="#ECECEC"/>
<path d="M114.52 580.258H125.45V579.826H114.52V580.258Z" fill="#ECECEC"/>
<path d="M160.98 587.545H322.665V587.113H160.98V587.545Z" fill="#ECECEC"/>
<path d="M9.85201 0.431946C4.65675 0.431946 0.4315 4.65723 0.4315 9.85248V478.342C0.4315 483.538 4.65675 487.763 9.85201 487.763H343.141C348.333 487.763 352.56 483.538 352.56 478.342V9.85248C352.56 4.65723 348.333 0.431946 343.141 0.431946H9.85201ZM343.141 488.194H9.85201C4.42029 488.194 0 483.776 0 478.342V9.85248C0 4.42075 4.42029 0.000457764 9.85201 0.000457764H343.141C348.571 0.000457764 352.991 4.42075 352.991 9.85248V478.342C352.991 483.776 348.571 488.194 343.141 488.194Z" fill="#ECECEC"/>
<path d="M383.182 0.431946C377.989 0.431946 373.764 4.65723 373.764 9.85248V478.342C373.764 483.538 377.989 487.763 383.182 487.763H716.471C721.665 487.763 725.892 483.538 725.892 478.342V9.85248C725.892 4.65723 721.665 0.431946 716.471 0.431946H383.182ZM716.471 488.194H383.182C377.752 488.194 373.332 483.776 373.332 478.342V9.85248C373.332 4.42075 377.752 0.000457764 383.182 0.000457764H716.471C721.903 0.000457764 726.323 4.42075 726.323 9.85248V478.342C726.323 483.776 721.903 488.194 716.471 488.194Z" fill="#ECECEC"/>
<path d="M515.219 331.477H553.703V315.104H515.219V331.477Z" fill="#FAFAFA"/>
<path d="M468.648 331.477H507.133V315.104H468.648V331.477Z" fill="#FAFAFA"/>
<path d="M460.567 315.104H422.082V331.477H460.567V315.104Z" fill="#FAFAFA"/>
<path d="M576.992 337.898H538.508V354.27H576.992V337.898Z" fill="#FAFAFA"/>
<path d="M530.422 337.898H491.938V354.27H530.422V337.898Z" fill="#FAFAFA"/>
<path d="M483.852 337.898H445.367V354.27H483.852V337.898Z" fill="#FAFAFA"/>
<path d="M437.285 337.898H398.801V354.27H437.285V337.898Z" fill="#FAFAFA"/>
<path d="M613.574 377.065H652.059V360.693H613.574V377.065Z" fill="#FAFAFA"/>
<path d="M605.485 360.693H567V377.065H605.485V360.693Z" fill="#FAFAFA"/>
<path d="M507.133 360.693H468.648V377.065H507.133V360.693Z" fill="#FAFAFA"/>
<path d="M460.567 360.693H422.082V377.065H460.567V360.693Z" fill="#FAFAFA"/>
<path d="M375.508 377.065H413.992V360.693H375.508V377.065Z" fill="#FAFAFA"/>
<path d="M590.289 399.858H628.774V383.487H590.289V399.858Z" fill="#FAFAFA"/>
<path d="M530.422 383.487H491.938V399.858H530.422V383.487Z" fill="#FAFAFA"/>
<path d="M445.367 399.858H483.852V383.487H445.367V399.858Z" fill="#FAFAFA"/>
<path d="M398.789 399.858H437.274V383.487H398.789V399.858Z" fill="#FAFAFA"/>
<path d="M255.627 82.8645H217.141V99.2373H255.627V82.8645Z" fill="#FAFAFA"/>
<path d="M209.057 82.8645H170.57V99.2373H209.057V82.8645Z" fill="#FAFAFA"/>
<path d="M240.43 122.032H278.914V105.659H240.43V122.032Z" fill="#FAFAFA"/>
<path d="M193.855 122.032H232.34V105.659H193.855V122.032Z" fill="#FAFAFA"/>
<path d="M139.203 105.659H100.719V122.032H139.203V105.659Z" fill="#FAFAFA"/>
<path d="M92.633 105.659H54.1484V122.032H92.633V105.659Z" fill="#FAFAFA"/>
<path d="M209.057 128.453H170.57V144.824H209.057V128.453Z" fill="#FAFAFA"/>
<path d="M594.504 232.661H632.989V216.288H594.504V232.661Z" fill="#FAFAFA"/>
<path d="M551.893 216.288H513.406V232.661H551.893V216.288Z" fill="#FAFAFA"/>
<path d="M617.789 255.453H656.274V239.082H617.789V255.453Z" fill="#FAFAFA"/>
<path d="M609.699 239.081H571.215V255.452H609.699V239.081Z" fill="#FAFAFA"/>
<path d="M173.863 209.655H212.35V193.282H173.863V209.655Z" fill="#FAFAFA"/>
<path d="M113.985 193.284H75.5V209.657H113.985V193.284Z" fill="#FAFAFA"/>
<path d="M197.145 232.449H235.629V216.076H197.145V232.449Z" fill="#FAFAFA"/>
<path d="M171.789 216.076H133.305V232.449H171.789V216.076Z" fill="#FAFAFA"/>
<path d="M632.989 261.875H594.504V278.248H632.989V261.875Z" fill="#FAFAFA"/>
<path d="M551.893 261.875H513.406V278.248H551.893V261.875Z" fill="#FAFAFA"/>
<path d="M77.4297 144.827H115.914V128.456H77.4297V144.827Z" fill="#FAFAFA"/>
<path d="M622.707 99.8516H661.192V83.4787H622.707V99.8516Z" fill="#FAFAFA"/>
<path d="M614.625 83.4787H576.141V99.8516H614.625V83.4787Z" fill="#FAFAFA"/>
<path d="M637.91 106.276H599.426V122.648H637.91V106.276Z" fill="#FAFAFA"/>
<path d="M452.58 83.842H414.094V100.215H452.58V83.842Z" fill="#FAFAFA"/>
<path d="M406.004 83.842H367.52V100.215H406.004V83.842Z" fill="#FAFAFA"/>
<path d="M437.375 123.007H475.861V106.634H437.375V123.007Z" fill="#FAFAFA"/>
<path d="M390.805 123.007H429.289V106.634H390.805V123.007Z" fill="#FAFAFA"/>
<path d="M382.719 106.634H344.234V123.007H382.719V106.634Z" fill="#FAFAFA"/>
<path d="M460.664 145.803H499.149V129.43H460.664V145.803Z" fill="#FAFAFA"/>
<path d="M414.094 145.803H452.58V129.43H414.094V145.803Z" fill="#FAFAFA"/>
<path d="M367.52 145.803H406.004V129.43H367.52V145.803Z" fill="#FAFAFA"/>
<path d="M475.861 152.224H437.375V168.597H475.861V152.224Z" fill="#FAFAFA"/>
<path d="M429.289 152.224H390.805V168.597H429.289V152.224Z" fill="#FAFAFA"/>
<path d="M162.844 308.912H124.359V325.283H162.844V308.912Z" fill="#FAFAFA"/>
<path d="M77.7852 325.283H116.27V308.912H77.7852V325.283Z" fill="#FAFAFA"/>
<path d="M296.537 310.991H258.051V327.364H296.537V310.991Z" fill="#FAFAFA"/>
<path d="M147.645 348.078H186.129V331.705H147.645V348.078Z" fill="#FAFAFA"/>
<path d="M101.07 348.078H139.555V331.705H101.07V348.078Z" fill="#FAFAFA"/>
<path d="M281.34 350.158H319.824V333.787H281.34V350.158Z" fill="#FAFAFA"/>
<path d="M273.254 333.787H234.77V350.158H273.254V333.787Z" fill="#FAFAFA"/>
<path d="M358.348 276.464H396.832V260.091H358.348V276.464Z" fill="#FAFAFA"/>
<path d="M116.895 265.614H155.379V249.241H116.895V265.614Z" fill="#FAFAFA"/>
<path d="M305.863 195.625H344.348V179.252H305.863V195.625Z" fill="#FAFAFA"/>
<path d="M373.547 237.296H335.062V253.669H373.547V237.296Z" fill="#FAFAFA"/>
<path d="M420.117 237.296H381.633V253.669H420.117V237.296Z" fill="#FAFAFA"/>
<path d="M556.461 564.862H594.946V548.489H556.461V564.862Z" fill="#FAFAFA"/>
<path d="M579.742 542.067H618.227V525.696H579.742V542.067Z" fill="#FAFAFA"/>
<path d="M124.359 370.872H162.844V354.501H124.359V370.872Z" fill="#FAFAFA"/>
<path d="M116.27 354.501H77.7852V370.872H116.27V354.501Z" fill="#FAFAFA"/>
<path d="M186.129 377.295H147.645V393.666H186.129V377.295Z" fill="#FAFAFA"/>
<path d="M139.555 377.295H101.07V393.666H139.555V377.295Z" fill="#FAFAFA"/>
<path d="M197.441 456.726H235.926V440.353H197.441V456.726Z" fill="#FAFAFA"/>
<path d="M150.875 456.726H189.36V440.353H150.875V456.726Z" fill="#FAFAFA"/>
<path d="M142.785 440.353H104.301V456.726H142.785V440.353Z" fill="#FAFAFA"/>
<path d="M96.219 440.353H57.7344V456.726H96.219V440.353Z" fill="#FAFAFA"/>
<path d="M259.211 463.146H220.727V479.518H259.211V463.146Z" fill="#FAFAFA"/>
<path d="M212.641 463.146H174.156V479.518H212.641V463.146Z" fill="#FAFAFA"/>
<path d="M81.0156 479.518H119.5V463.146H81.0156V479.518Z" fill="#FAFAFA"/>
<path d="M244.012 502.312H282.496V485.94H244.012V502.312Z" fill="#FAFAFA"/>
<path d="M235.926 485.94H197.441V502.312H235.926V485.94Z" fill="#FAFAFA"/>
<path d="M189.36 485.94H150.875V502.312H189.36V485.94Z" fill="#FAFAFA"/>
<path d="M220.727 525.109H259.211V508.737H220.727V525.109Z" fill="#FAFAFA"/>
<path d="M174.156 525.109H212.641V508.737H174.156V525.109Z" fill="#FAFAFA"/>
<path d="M127.586 525.109H166.071V508.737H127.586V525.109Z" fill="#FAFAFA"/>
<path d="M550.985 439.3H512.5V455.671H550.985V439.3Z" fill="#FAFAFA"/>
<path d="M452.629 439.3H414.145V455.671H452.629V439.3Z" fill="#FAFAFA"/>
<path d="M406.063 439.3H367.578V455.671H406.063V439.3Z" fill="#FAFAFA"/>
<path d="M535.781 478.468H574.268V462.095H535.781V478.468Z" fill="#FAFAFA"/>
<path d="M437.43 478.468H475.914V462.095H437.43V478.468Z" fill="#FAFAFA"/>
<path d="M390.863 478.468H429.35V462.095H390.863V478.468Z" fill="#FAFAFA"/>
<path d="M344.293 478.468H382.778V462.095H344.293V478.468Z" fill="#FAFAFA"/>
<path d="M559.07 501.262H597.555V484.891H559.07V501.262Z" fill="#FAFAFA"/>
<path d="M512.5 501.262H550.985V484.891H512.5V501.262Z" fill="#FAFAFA"/>
<path d="M414.145 501.262H452.629V484.891H414.145V501.262Z" fill="#FAFAFA"/>
<path d="M406.063 484.891H367.578V501.262H406.063V484.891Z" fill="#FAFAFA"/>
<path d="M484.004 524.057H522.49V507.684H484.004V524.057Z" fill="#FAFAFA"/>
<path d="M437.43 524.057H475.914V507.684H437.43V524.057Z" fill="#FAFAFA"/>
<path d="M390.863 524.057H429.35V507.684H390.863V524.057Z" fill="#FAFAFA"/>
<path d="M344.293 524.057H382.778V507.684H344.293V524.057Z" fill="#FAFAFA"/>
<path d="M467.445 363.038H633.687V172.878H467.445V363.038Z" fill="#E1E1E1"/>
<path d="M467.75 363.038H627.6V172.878H467.75V363.038Z" fill="#E1E1E1"/>
<path d="M462.266 363.038H628.509V172.878H462.266V363.038Z" fill="#F0F0F0"/>
<path d="M469.805 354.303H621.244V178.943H469.805V354.303Z" fill="white"/>
<path d="M469.805 354.303H474.534V178.943H469.805V354.303Z" fill="#E1E1E1"/>
<path d="M474.031 309.772H621.666V305.043H474.031V309.772Z" fill="#E1E1E1"/>
<path d="M469.805 305.044H623.781V297.106H469.805V305.044Z" fill="#F0F0F0"/>
<path d="M116.848 363.038H283.091V172.878H116.848V363.038Z" fill="#E1E1E1"/>
<path d="M117.156 363.038H277.006V172.878H117.156V363.038Z" fill="#E1E1E1"/>
<path d="M111.668 363.038H277.911V172.878H111.668V363.038Z" fill="#F0F0F0"/>
<path d="M119.207 354.303H270.646V178.943H119.207V354.303Z" fill="white"/>
<path d="M119.207 354.303H123.936V178.943H119.207V354.303Z" fill="#E1E1E1"/>
<path d="M123.434 309.772H271.069V305.043H123.434V309.772Z" fill="#E1E1E1"/>
<path d="M119.207 305.044H273.183V297.106H119.207V305.044Z" fill="#F0F0F0"/>
<path d="M700.203 623.581C700.203 634.375 550.374 643.124 365.551 643.124C180.727 643.124 30.8984 634.375 30.8984 623.581C30.8984 612.786 180.727 604.037 365.551 604.037C550.374 604.037 700.203 612.786 700.203 623.581Z" fill="#F5F5F5"/>
<path d="M88.3374 579.011C88.3374 579.011 85.9417 561.449 74.7106 559.528C63.4812 557.607 66.8677 549.116 63.9421 545.828C61.0165 542.542 53.3755 552.237 59.9205 561.633C66.4672 571.026 61.1166 568.075 63.9421 576.81C66.7675 585.544 89.3643 593.568 88.3374 579.011Z" fill="#2B2B2B"/>
<mask id="mask0_1507_1520" style="mask-type:luminance" maskUnits="userSpaceOnUse" x="57" y="545" width="32" height="43">
<path d="M57.3438 545.175H88.3719V587.041H57.3438V545.175Z" fill="white"/>
</mask>
<g mask="url(#mask0_1507_1520)">
<path d="M88.3374 579.012C88.3374 579.012 85.9417 561.45 74.7106 559.529C63.4812 557.608 66.8677 549.117 63.9421 545.829C61.0165 542.543 53.3755 552.238 59.9205 561.634C66.4672 571.027 61.1166 568.076 63.9421 576.811C66.7675 585.545 89.3643 593.569 88.3374 579.012Z" fill="#0C5B05"/>
</g>
<path d="M87.8674 590.412C87.8674 590.412 79.2599 572.524 83.7785 543.329C88.2972 514.133 105.269 502.802 90.5168 470.678C75.7647 438.553 58.9069 415.646 67.3384 392.851" stroke="#2B2B2B" stroke-width="1.56546" stroke-miterlimit="10" stroke-linecap="round" stroke-linejoin="round"/>
<path d="M81.3865 586.903C81.3865 586.903 74.127 575.963 84.6055 570.338C95.0823 564.717 97.1811 569.244 103.664 565.2C110.147 561.156 115.057 551.356 116.162 557.624C117.268 563.895 109.781 567.471 112.429 570.338C115.076 573.207 94.8062 591.832 81.3865 586.903Z" fill="#4B8C09"/>
<path d="M64.2644 401.985C64.2644 401.985 57.1896 380.49 73.2741 380.039C89.3587 379.589 71.631 399.695 64.2644 401.985Z" fill="#2B2B2B"/>
<path d="M78.2344 418.511C78.2344 418.511 83.0275 398.966 94.445 403.088C105.861 407.211 89.6139 418.872 78.2344 418.511Z" fill="#2B2B2B"/>
<path d="M58.8655 420.205C58.8655 420.205 60.5863 404.607 48.4715 404.298C36.3584 403.988 41.7487 417.687 58.8655 420.205Z" fill="#2B2B2B"/>
<path d="M66.9223 452.023C66.9223 452.023 50.6634 437.53 44.8174 448.315C38.9697 459.101 57.0806 461.348 66.9223 452.023Z" fill="#2B2B2B"/>
<path d="M95.6914 449.451C95.6914 449.451 98.7482 425.381 111.881 432.93C125.014 440.481 107.131 451.857 95.6914 449.451Z" fill="#2B2B2B"/>
<path d="M107.246 483.916C107.246 483.916 97.551 459.593 115.565 462.334C133.579 465.075 119.961 478.013 107.246 483.916Z" fill="#2B2B2B"/>
<path d="M79.6042 492.594C79.6042 492.594 64.3878 474.669 52.7597 480.353C41.1317 486.038 50.6367 503.858 79.6042 492.594Z" fill="#2B2B2B"/>
<path d="M93.4062 532.307C93.4062 532.307 106.369 503.524 117.895 513.224C129.419 522.926 110.542 537.428 93.4062 532.307Z" fill="#2B2B2B"/>
<path d="M74.5705 530.624C74.5705 530.624 77.9948 508.295 65.162 510.092C52.3309 511.888 55.7001 525.546 74.5705 530.624Z" fill="#2B2B2B"/>
<mask id="mask1_1507_1520" style="mask-type:luminance" maskUnits="userSpaceOnUse" x="41" y="380" width="84" height="154">
<path d="M41.9258 380.035H124.254V533.373H41.9258V380.035Z" fill="white"/>
</mask>
<g mask="url(#mask1_1507_1520)">
<path d="M64.2683 401.987C64.2683 401.987 57.1935 380.492 73.2781 380.041C89.3626 379.591 71.6349 399.697 64.2683 401.987Z" fill="#61942E"/>
<path d="M78.2383 418.513C78.2383 418.513 83.0314 398.968 94.4489 403.09C105.865 407.213 89.6178 418.874 78.2383 418.513Z" fill="#61942E"/>
<path d="M58.8694 420.207C58.8694 420.207 60.5902 404.609 48.4754 404.3C36.3623 403.99 41.7526 417.689 58.8694 420.207Z" fill="#61942E"/>
<path d="M66.9262 452.025C66.9262 452.025 50.6673 437.532 44.8213 448.317C38.9736 459.103 57.0845 461.35 66.9262 452.025Z" fill="#61942E"/>
<path d="M95.6953 449.451C95.6953 449.451 98.7521 425.381 111.885 432.93C125.018 440.481 107.135 451.857 95.6953 449.451Z" fill="#61942E"/>
<path d="M107.25 483.916C107.25 483.916 97.5549 459.593 115.569 462.334C133.583 465.075 119.965 478.013 107.25 483.916Z" fill="#61942E"/>
<path d="M79.6081 492.595C79.6081 492.595 64.3917 474.67 52.7636 480.354C41.1356 486.039 50.6406 503.859 79.6081 492.595Z" fill="#61942E"/>
<path d="M93.4102 532.309C93.4102 532.309 106.372 503.526 117.899 513.226C129.423 522.928 110.546 537.43 93.4102 532.309Z" fill="#61942E"/>
<path d="M74.5744 530.624C74.5744 530.624 77.9987 508.295 65.1659 510.092C52.3349 511.888 55.704 525.546 74.5744 530.624Z" fill="#61942E"/>
</g>
<path d="M54.832 415.091C54.832 415.091 61.7516 425.373 71.2187 430.672C71.2187 430.672 77.4806 418.59 82.3652 415.661" stroke="#2B2B2B" stroke-width="1.56546" stroke-miterlimit="10" stroke-linecap="round" stroke-linejoin="round"/>
<path d="M54.4414 450.583C54.4414 450.583 72.0363 450.017 85.9633 460.544C85.9633 460.544 93.6958 447.437 103.843 441.463" stroke="#2B2B2B" stroke-width="1.56546" stroke-miterlimit="10" stroke-linecap="round" stroke-linejoin="round"/>
<path d="M112.549 472.398C112.549 472.398 104.997 492.278 95.3525 500.013C95.3525 500.013 75.3654 488.424 60.6875 488.136" stroke="#2B2B2B" stroke-width="1.56546" stroke-miterlimit="10" stroke-linecap="round" stroke-linejoin="round"/>
<path d="M66.6484 517.333C66.6484 517.333 76.5246 536.613 83.8929 540.824C83.8929 540.824 90.7762 531.114 105.673 526.643" stroke="#2B2B2B" stroke-width="1.56546" stroke-miterlimit="10" stroke-linecap="round" stroke-linejoin="round"/>
<path d="M82.5048 584.294C82.5048 584.294 76.2809 574.387 69.2509 572.975C62.2209 571.565 59.1918 563.468 56.5976 568.339C54.0034 573.208 61.1577 589.353 82.5048 584.294Z" fill="#4B8C09"/>
<path d="M57.1385 623.183H109.051L112.526 581.258H53.6641L57.1385 623.183Z" fill="#FF7643"/>
<path d="M52.4572 589.2H113.742L114.526 580.318H51.6719L52.4572 589.2Z" fill="black"/>
<mask id="mask2_1507_1520" style="mask-type:luminance" maskUnits="userSpaceOnUse" x="51" y="580" width="64" height="10">
<path d="M51.6875 580.318H114.542V589.202H51.6875V580.318Z" fill="white"/>
</mask>
<g mask="url(#mask2_1507_1520)">
<g opacity="0.300003">
<path d="M52.4728 589.201H113.758L114.542 580.319H51.6875L52.4728 589.201Z" fill="white"/>
</g>
</g>
<path d="M698.587 182.658C698.587 188.284 667.812 193.117 623.73 195.24C622.556 195.292 621.383 195.344 620.192 195.413C618.621 195.464 617.033 195.533 615.428 195.603C608.817 195.861 601.948 196.051 594.871 196.207C593.818 196.207 592.766 196.224 591.695 196.258C591.091 196.258 590.487 196.276 589.883 196.276C584.446 196.362 578.888 196.396 573.244 196.396C563.027 196.396 553.102 196.258 543.592 196.017C541.262 195.948 538.949 195.879 536.671 195.792C519.324 195.223 503.583 194.239 490.327 192.962C464.317 190.442 447.902 186.765 447.902 182.658C447.902 176.461 485.184 171.249 536.463 169.523C537.792 169.471 539.139 169.436 540.485 169.385C544.058 169.281 547.682 169.195 551.376 169.126C555.812 169.039 560.334 168.988 564.908 168.953C565.253 168.953 565.581 168.936 565.909 168.936H565.926C568.343 168.919 570.794 168.919 573.244 168.919C586.155 168.919 598.617 169.126 610.336 169.54C612.218 169.592 614.064 169.661 615.894 169.73C618.345 169.833 620.744 169.937 623.126 170.04H623.143C623.764 170.075 624.403 170.11 625.024 170.144C626.647 170.213 628.252 170.299 629.84 170.386C670.625 172.664 698.587 177.29 698.587 182.658Z" fill="#2B2B2B"/>
<mask id="mask3_1507_1520" style="mask-type:luminance" maskUnits="userSpaceOnUse" x="447" y="177" width="252" height="20">
<path d="M447.895 177.48H698.579V196.396H447.895V177.48Z" fill="white"/>
</mask>
<g mask="url(#mask3_1507_1520)">
<g opacity="0.399994">
<path d="M698.579 182.658C698.579 188.284 667.804 193.117 623.722 195.24C622.548 195.292 621.375 195.344 620.184 195.413C618.613 195.464 617.025 195.533 615.42 195.603C608.81 195.861 601.94 196.051 594.863 196.207C593.811 196.207 592.758 196.224 591.688 196.258C591.083 196.258 590.479 196.276 589.875 196.276C584.438 196.362 578.881 196.396 573.237 196.396C563.019 196.396 553.094 196.258 543.584 196.017C541.254 195.948 538.941 195.879 536.663 195.792C519.316 195.223 503.575 194.239 490.32 192.962C464.309 190.442 447.895 186.765 447.895 182.658C447.895 180.828 451.157 179.067 457.077 177.48C464.43 179.464 475.908 181.208 490.32 182.606C503.575 183.883 519.316 184.867 536.663 185.436C538.941 185.523 541.254 185.592 543.584 185.661C553.094 185.902 563.019 186.04 573.237 186.04C578.881 186.04 584.438 186.006 589.875 185.92C590.479 185.92 591.083 185.902 591.688 185.902C592.758 185.868 593.811 185.851 594.863 185.851C601.94 185.695 608.81 185.505 615.42 185.247C617.025 185.177 618.613 185.108 620.184 185.057C621.375 184.988 622.548 184.936 623.722 184.884C653.461 183.451 677.125 180.793 689.396 177.48C695.317 179.085 698.579 180.811 698.579 182.658Z" fill="white"/>
</g>
</g>
<path d="M564.907 168.953C564.787 170.955 564.044 172.923 562.698 174.562C561.266 176.271 560.04 177.6 558.642 179.033C557.813 179.879 556.985 180.724 556.139 181.518C555.587 182.088 555.017 182.623 554.448 183.141C551.565 185.799 548.51 188.301 545.196 190.666C545.007 190.804 544.817 190.925 544.627 191.063C544.126 191.408 543.626 191.736 543.125 192.064C541.106 193.393 538.983 194.67 536.67 195.792C535.842 196.207 534.996 196.604 534.116 196.983C532.096 197.881 529.524 198.657 527.747 199.123C525.813 199.641 523.967 200.09 522.137 200.47C519.565 201.039 517.028 201.557 514.491 202.023C509.779 202.938 505.084 203.715 500.355 204.44C496.333 205.044 492.312 205.613 488.273 206.097C485.028 206.493 481.783 206.839 478.504 207.115C478.141 207.149 477.762 207.132 477.416 207.08C476.553 206.96 475.742 206.614 475.086 206.097C474.068 205.285 473.36 204.077 473.24 202.679C473.222 202.455 473.222 202.23 473.24 202.023C473.326 200.073 474.603 198.347 476.433 197.708L476.45 197.691C476.588 197.639 476.726 197.587 476.864 197.553C481.334 195.948 485.822 194.429 490.327 192.962C492.605 192.219 494.866 191.477 497.145 190.752C504.031 188.509 510.97 186.403 517.667 184.176C519.341 183.624 520.998 183.054 522.534 182.502C524.226 181.915 525.089 181.466 526.331 180.759C527.108 180.31 527.885 179.81 528.679 179.274C530.336 178.17 532.027 176.893 533.701 175.495C535.98 173.613 538.258 171.542 540.484 169.384C544.057 169.281 547.682 169.195 551.376 169.126C555.811 169.039 560.333 168.988 564.907 168.953Z" fill="#FFB670"/>
<path d="M565.12 175.925C564.999 176.288 564.861 176.633 564.723 176.978C564.585 177.324 564.43 177.669 564.257 178.014C564.102 178.359 563.929 178.687 563.739 178.998L563.17 179.982C563.153 180.016 563.135 180.033 563.118 180.068C562.721 180.672 562.307 181.259 561.875 181.828C561.409 182.432 560.926 183.019 560.408 183.572C560.253 183.744 560.08 183.934 559.925 184.107C559.165 184.918 558.372 185.677 557.543 186.385C557.267 186.644 556.973 186.886 556.68 187.11C556.576 187.214 556.456 187.317 556.352 187.386C556.335 187.403 556.318 187.421 556.283 187.438V187.455C553.228 189.923 550.104 191.77 547.998 192.892C547.619 193.082 547.256 193.272 546.945 193.427C546.928 193.427 546.911 193.444 546.894 193.444C546.462 193.669 546.1 193.841 545.858 193.962C545.599 194.066 545.461 194.135 545.461 194.135L544.201 193.03L543.131 192.064L540.715 189.923L528.684 179.274L527.77 178.463C527.77 178.463 531.463 174.338 536.469 169.522C537.798 169.47 539.144 169.436 540.49 169.384C544.063 169.28 547.688 169.194 551.381 169.125C555.817 169.039 560.339 168.987 564.913 168.952C565.258 168.952 565.586 168.935 565.914 168.935C566.139 171.144 565.949 173.492 565.12 175.925Z" fill="black"/>
<mask id="mask4_1507_1520" style="mask-type:luminance" maskUnits="userSpaceOnUse" x="527" y="168" width="40" height="27">
<path d="M527.77 168.936H566.019V194.136H527.77V168.936Z" fill="white"/>
</mask>
<g mask="url(#mask4_1507_1520)">
<g opacity="0.699997">
<path d="M565.137 175.926C565.017 176.289 564.879 176.634 564.723 176.979C564.585 177.325 564.43 177.67 564.257 178.015C564.102 178.36 563.929 178.688 563.739 178.999L563.17 179.983C563.153 180.017 563.135 180.034 563.118 180.069C562.721 180.673 562.307 181.26 561.875 181.829C561.409 182.433 560.926 183.02 560.408 183.573C560.253 183.745 560.08 183.935 559.925 184.108C559.165 184.919 558.372 185.678 557.543 186.386C557.267 186.645 556.973 186.887 556.68 187.111C556.576 187.214 556.456 187.318 556.352 187.387C556.335 187.422 556.3 187.439 556.283 187.456C553.228 189.924 550.104 191.771 547.998 192.893C547.619 193.083 547.256 193.273 546.945 193.428C546.928 193.428 546.911 193.445 546.894 193.445C546.462 193.67 546.1 193.842 545.858 193.963C545.599 194.067 545.461 194.136 545.461 194.136L544.201 193.031L543.131 192.065L540.715 189.924L528.684 179.275L527.77 178.464C527.77 178.464 531.463 174.339 536.469 169.523C537.798 169.471 539.144 169.437 540.49 169.385C544.063 169.281 547.688 169.195 551.381 169.126C555.817 169.04 560.339 168.988 564.913 168.953C565.258 168.953 565.586 168.936 565.914 168.936H565.931C566.156 171.145 565.966 173.51 565.137 175.926Z" fill="white"/>
</g>
</g>
<mask id="mask5_1507_1520" style="mask-type:luminance" maskUnits="userSpaceOnUse" x="540" y="171" width="17" height="24">
<path d="M540.715 171.033H556.335V194.137H540.715V171.033Z" fill="white"/>
</mask>
<g mask="url(#mask5_1507_1520)">
<g opacity="0.100006">
<path d="M556.283 187.454C550.967 191.752 545.461 194.134 545.461 194.134L540.715 189.922C544.191 178.463 553.755 171.03 553.755 171.03C555.86 174.965 556.542 183.329 556.283 187.454Z" fill="black"/>
</g>
</g>
<path d="M478.243 197.762L462.203 195.315L462.331 209.501C462.331 209.501 473.303 212.787 479.113 205.336L478.243 197.762Z" fill="#FDB473"/>
<path d="M451.297 199.137L453.924 209.688L462.324 209.5L462.197 195.316L451.297 199.137Z" fill="#FDB473"/>
<path d="M623.134 170.042C622.996 170.404 622.84 170.767 622.702 171.146C622.288 172.199 621.891 173.269 621.511 174.34C621.27 174.995 621.045 175.651 620.821 176.324C620.579 176.998 620.355 177.671 620.148 178.344C619.509 180.346 618.888 182.365 618.284 184.419C618.266 184.523 618.232 184.644 618.197 184.747C617.554 187.027 616.969 189.354 616.387 191.681C616.364 191.774 616.339 191.869 616.316 191.962C616.023 193.17 615.712 194.378 615.436 195.604C615.298 196.156 615.177 196.691 615.056 197.244C614.59 199.367 614.141 201.507 613.727 203.63C613.727 203.647 613.727 203.647 613.71 203.647C613.554 204.441 613.399 205.235 613.261 206.012C613.088 206.84 612.933 207.669 612.795 208.48C612.761 208.652 612.726 208.825 612.709 208.998C612.622 209.446 612.536 209.895 612.467 210.344C612.243 211.604 612.036 212.847 611.828 214.072C611.794 214.262 611.777 214.434 611.742 214.624C611.673 215.056 611.604 215.487 611.535 215.919C611.121 218.439 610.758 220.907 610.43 223.306C610.396 223.444 610.379 223.582 610.361 223.72C609.999 226.361 609.688 228.916 609.412 231.367C609.291 232.385 609.17 233.386 609.067 234.37C608.912 235.751 608.773 237.08 608.653 238.374C608.549 239.323 608.463 240.255 608.376 241.153C608.29 241.999 608.221 242.827 608.152 243.621C608.083 244.432 608.014 245.209 607.945 245.951C607.772 248.057 607.634 249.956 607.513 251.595C607.462 252.32 607.427 252.976 607.375 253.597C607.237 255.893 607.168 257.498 607.134 258.223C607.117 258.517 607.117 258.672 607.117 258.672L576.515 255.858L576.066 255.824L570.922 255.341L563.138 254.616H563.121L553.766 253.753L551.505 253.546L540.061 252.493C540.01 251.405 539.958 250.353 539.941 249.282V249.248C539.923 248.954 539.906 248.661 539.906 248.368C539.578 238.944 539.751 230.296 540.251 222.409C540.527 218.318 540.89 214.417 541.321 210.724C541.943 205.408 542.719 200.523 543.6 196.018C543.79 195 543.997 193.999 544.204 193.032V193.015C544.342 192.342 544.48 191.703 544.635 191.064C545.964 185.196 547.431 180.104 548.916 175.738V175.72C549.744 173.304 550.573 171.112 551.384 169.127C555.82 169.041 560.342 168.989 564.916 168.954C565.261 168.954 565.589 168.937 565.917 168.937H565.934C568.351 168.92 570.801 168.92 573.252 168.92C586.163 168.92 598.625 169.127 610.344 169.541C612.225 169.593 614.072 169.662 615.902 169.731C618.353 169.835 620.752 169.938 623.134 170.042Z" fill="black"/>
<mask id="mask6_1507_1520" style="mask-type:luminance" maskUnits="userSpaceOnUse" x="539" y="168" width="85" height="91">
<path d="M539.742 168.919H623.137V258.671H539.742V168.919Z" fill="white"/>
</mask>
<g mask="url(#mask6_1507_1520)">
<g opacity="0.699997">
<path d="M623.138 170.041C623 170.403 622.844 170.766 622.706 171.145C622.292 172.198 621.895 173.268 621.515 174.339C621.274 174.994 621.049 175.65 620.825 176.323C620.583 176.997 620.359 177.67 620.152 178.343C620.134 178.377 620.117 178.429 620.1 178.464C619.461 180.431 618.874 182.399 618.288 184.418C618.27 184.522 618.236 184.643 618.201 184.746C617.373 187.681 616.596 190.667 615.871 193.67C615.716 194.308 615.578 194.964 615.44 195.603C615.302 196.155 615.181 196.69 615.06 197.243C614.594 199.366 614.145 201.506 613.731 203.629C613.558 204.423 613.403 205.217 613.265 206.011C613.11 206.822 612.954 207.65 612.816 208.462C612.764 208.634 612.747 208.824 612.713 208.997C612.626 209.445 612.54 209.894 612.471 210.343C612.247 211.603 612.04 212.846 611.832 214.071C611.798 214.261 611.781 214.434 611.746 214.623C611.677 215.055 611.608 215.486 611.539 215.918C611.142 218.438 610.762 220.906 610.434 223.305C610.4 223.443 610.383 223.581 610.365 223.719C610.003 226.36 609.692 228.915 609.416 231.366C609.295 232.384 609.174 233.385 609.071 234.369C608.915 235.75 608.777 237.079 608.657 238.373C608.553 239.322 608.467 240.254 608.38 241.152C608.294 241.998 608.225 242.826 608.156 243.62C608.087 244.431 608.018 245.208 607.949 245.95C607.776 248.056 607.638 249.955 607.517 251.594C607.466 252.319 607.431 252.975 607.379 253.596C607.241 255.892 607.172 257.497 607.138 258.222C607.12 258.516 607.12 258.671 607.12 258.671L576.518 255.858L576.07 255.823L570.926 255.34L563.142 254.615H563.125L553.77 253.752L551.509 253.545L540.065 252.492C540.014 251.404 539.962 250.352 539.944 249.281V249.247C539.927 248.954 539.91 248.66 539.91 248.367C539.582 238.943 539.755 230.295 540.255 222.408C540.531 218.317 540.894 214.416 541.325 210.723C541.947 205.407 542.723 200.522 543.604 196.017C543.793 194.999 544.001 193.998 544.208 193.031V193.014C544.346 192.341 544.484 191.702 544.639 191.063C545.968 185.195 547.435 180.103 548.92 175.737V175.719C549.748 173.303 550.577 171.111 551.388 169.126C555.824 169.04 560.346 168.988 564.92 168.953C565.265 168.953 565.593 168.936 565.921 168.936H565.938C568.354 168.919 570.805 168.919 573.256 168.919C586.167 168.919 598.628 169.126 610.348 169.54C612.229 169.592 614.076 169.661 615.906 169.73C618.357 169.834 620.756 169.937 623.138 170.041Z" fill="white"/>
</g>
</g>
<path d="M457.904 399.138C457.904 399.138 479.51 390.223 480.22 381.272C480.289 380.395 480.952 379.746 481.885 379.803L498.364 380.811C499.133 380.856 499.857 381.367 500.164 382.08L506.761 397.317L502.195 397.942L500.264 395.86L498.593 398.434C473.818 401.824 463.075 403.023 457.96 402.15C456.95 400.056 457.904 399.138 457.904 399.138Z" fill="black"/>
<path d="M559.02 309.493C558.07 309.284 557.549 309.143 557.549 309.143L479.864 299.432L502.959 381.682L479.437 383.922C479.437 383.922 425.792 280.446 447.719 265.517C469.646 250.588 537.6 267.075 537.6 267.075L540.272 246.589L607.859 251.622C618.746 319.164 568.35 311.459 559.02 309.493Z" fill="#2B2B2B"/>
<path d="M536.646 547.111C536.646 547.111 559.913 544.881 563.201 536.527C563.523 535.709 564.345 535.281 565.224 535.607L580.69 541.375C581.413 541.645 581.955 542.344 582.043 543.117L583.911 559.612L579.363 558.879L578.12 556.324L575.771 558.299C551.084 554.319 540.459 552.334 535.821 550.007C535.464 547.712 536.646 547.111 536.646 547.111Z" fill="black"/>
<path d="M608.574 276.103L608.575 276.12C608.481 276.531 605.671 289.486 601.984 308.029C601.782 309.088 601.568 310.183 601.354 311.279C599.626 320.102 597.734 330.014 595.869 340.363C593.578 352.949 591.329 366.171 589.429 378.805C586.688 397.073 584.688 414.112 584.405 426.291C583.498 466.266 581.84 545.183 581.84 545.183L560.304 541.798C560.304 541.798 548.409 457.645 548.552 416.884C548.65 390.982 555.082 337.655 559.455 304.478C561.677 287.453 563.361 275.73 563.361 275.73L587.75 275.939L608.574 276.103Z" fill="#2B2B2B"/>
<path d="M606.863 258.21L608.296 258.32L608.241 253.657L606.969 253.558L606.863 258.21Z" fill="#2B2B2B"/>
<path d="M553.746 254.083L582.575 256.323L582.703 251.684L553.989 249.464L553.746 254.083Z" fill="#2B2B2B"/>
<path d="M551.77 249.29L539.581 248.348L539.145 252.946L551.482 253.905L551.77 249.29Z" fill="#2B2B2B"/>
<path d="M604.748 253.387L584.923 251.854L584.84 256.499L604.599 258.033L604.748 253.387Z" fill="#2B2B2B"/>
<mask id="mask7_1507_1520" style="mask-type:luminance" maskUnits="userSpaceOnUse" x="539" y="248" width="70" height="11">
<path d="M539.148 248.35H608.306V258.321H539.148V248.35Z" fill="white"/>
</mask>
<g mask="url(#mask7_1507_1520)">
<g opacity="0.199997">
<path d="M606.871 258.211L608.304 258.321L608.248 253.658L606.976 253.559L606.871 258.211Z" fill="white"/>
<path d="M553.754 254.084L582.583 256.324L582.711 251.685L553.997 249.465L553.754 254.084Z" fill="white"/>
<path d="M551.774 249.292L539.585 248.35L539.148 252.948L551.486 253.907L551.774 249.292Z" fill="white"/>
<path d="M604.751 253.387L584.927 251.854L584.844 256.499L604.603 258.033L604.751 253.387Z" fill="white"/>
</g>
</g>
<path d="M562.761 251.018L562.649 253.833C562.632 254.282 562.967 254.665 563.412 254.707L570.601 255.378C571.087 255.423 571.51 255.047 571.522 254.558L571.59 251.624C571.602 251.175 571.26 250.799 570.813 250.765L563.667 250.212C563.193 250.174 562.78 250.54 562.761 251.018Z" stroke="white" stroke-width="1.26001" stroke-miterlimit="10"/>
<path d="M568.387 252.797L570.58 253.006" stroke="white" stroke-width="1.26001" stroke-miterlimit="10" stroke-linecap="round" stroke-linejoin="round"/>
<mask id="mask8_1507_1520" style="mask-type:luminance" maskUnits="userSpaceOnUse" x="587" y="181" width="32" height="37">
<path d="M587.746 181.418H618.186V217.561H587.746V181.418Z" fill="white"/>
</mask>
<g mask="url(#mask8_1507_1520)">
<g opacity="0.100006">
<path d="M618.186 184.751C617.357 187.685 616.58 190.671 615.856 193.674C615.579 194.865 615.303 196.056 615.044 197.247C613.75 203.098 612.645 208.967 611.73 214.628L611.523 215.922C599.666 219.737 587.342 217.113 587.756 205.687C588.326 190.378 601.374 183.215 601.374 183.215C607.105 180.073 613.284 181.351 618.186 184.751Z" fill="black"/>
</g>
</g>
<path d="M502.189 623.179H518.154L466.241 212.907H450.277L502.189 623.179Z" fill="#2B2B2B"/>
<mask id="mask9_1507_1520" style="mask-type:luminance" maskUnits="userSpaceOnUse" x="450" y="212" width="69" height="412">
<path d="M450.27 212.906H518.146V623.179H450.27V212.906Z" fill="white"/>
</mask>
<g mask="url(#mask9_1507_1520)">
<g opacity="0.399994">
<path d="M502.181 623.179H518.146L466.233 212.907H450.27L502.181 623.179Z" fill="white"/>
</g>
</g>
<path d="M468.818 273.722H519.568C520.771 273.722 521.884 272.931 522.49 271.649L525.714 264.817H462.672L465.896 271.649C466.502 272.931 467.613 273.722 468.818 273.722Z" fill="#2B2B2B"/>
<mask id="mask10_1507_1520" style="mask-type:luminance" maskUnits="userSpaceOnUse" x="462" y="264" width="64" height="10">
<path d="M462.68 264.812H525.722V273.717H462.68V264.812Z" fill="white"/>
</mask>
<g mask="url(#mask10_1507_1520)">
<g opacity="0.399994">
<path d="M468.826 273.718H519.576C520.779 273.718 521.892 272.927 522.498 271.645L525.722 264.813H462.68L465.904 271.645C466.51 272.927 467.621 273.718 468.826 273.718Z" fill="white"/>
</g>
</g>
<path d="M463.536 268.067H524.863C526.685 268.067 528.163 266.59 528.163 264.766V264.037C528.163 262.215 526.685 260.735 524.863 260.735H463.536C461.712 260.735 460.234 262.215 460.234 264.037V264.766C460.234 266.59 461.712 268.067 463.536 268.067Z" fill="#2B2B2B"/>
<mask id="mask11_1507_1520" style="mask-type:luminance" maskUnits="userSpaceOnUse" x="460" y="260" width="69" height="9">
<path d="M460.242 260.736H528.171V268.066H460.242V260.736Z" fill="white"/>
</mask>
<g mask="url(#mask11_1507_1520)">
<g opacity="0.100006">
<path d="M463.544 268.066H524.871C526.693 268.066 528.171 266.589 528.171 264.765V264.036C528.171 262.214 526.693 260.734 524.871 260.734H463.544C461.72 260.734 460.242 262.214 460.242 264.036V264.765C460.242 266.589 461.72 268.066 463.544 268.066Z" fill="white"/>
</g>
</g>
<path d="M478.08 332.362H528.829C530.034 332.362 531.147 331.574 531.752 330.291L534.976 323.458H471.934L475.158 330.291C475.764 331.574 476.877 332.362 478.08 332.362Z" fill="#2B2B2B"/>
<mask id="mask12_1507_1520" style="mask-type:luminance" maskUnits="userSpaceOnUse" x="471" y="323" width="64" height="10">
<path d="M471.941 323.459H534.984V332.363H471.941V323.459Z" fill="white"/>
</mask>
<g mask="url(#mask12_1507_1520)">
<g opacity="0.399994">
<path d="M478.088 332.361H528.837C530.042 332.361 531.155 331.573 531.759 330.29L534.984 323.457H471.941L475.166 330.29C475.771 331.573 476.885 332.361 478.088 332.361Z" fill="white"/>
</g>
</g>
<path d="M472.79 326.711H534.117C535.939 326.711 537.417 325.233 537.417 323.409V322.681C537.417 320.856 535.939 319.379 534.117 319.379H472.79C470.967 319.379 469.488 320.856 469.488 322.681V323.409C469.488 325.233 470.967 326.711 472.79 326.711Z" fill="#2B2B2B"/>
<mask id="mask13_1507_1520" style="mask-type:luminance" maskUnits="userSpaceOnUse" x="469" y="319" width="69" height="8">
<path d="M469.496 319.381H537.425V326.713H469.496V319.381Z" fill="white"/>
</mask>
<g mask="url(#mask13_1507_1520)">
<g opacity="0.100006">
<path d="M472.798 326.713H534.124C535.947 326.713 537.425 325.235 537.425 323.411V322.683C537.425 320.858 535.947 319.381 534.124 319.381H472.798C470.975 319.381 469.496 320.858 469.496 322.683V323.411C469.496 325.235 470.975 326.713 472.798 326.713Z" fill="white"/>
</g>
</g>
<path d="M487.336 409.997H538.083C539.288 409.997 540.401 409.208 541.007 407.924L544.231 401.093H481.188L484.413 407.924C485.017 409.208 486.131 409.997 487.336 409.997Z" fill="#2B2B2B"/>
<mask id="mask14_1507_1520" style="mask-type:luminance" maskUnits="userSpaceOnUse" x="481" y="401" width="64" height="9">
<path d="M481.195 401.094H544.237V409.998H481.195V401.094Z" fill="white"/>
</mask>
<g mask="url(#mask14_1507_1520)">
<g opacity="0.399994">
<path d="M487.343 409.998H538.091C539.296 409.998 540.409 409.209 541.015 407.925L544.239 401.094H481.195L484.421 407.925C485.025 409.209 486.139 409.998 487.343 409.998Z" fill="white"/>
</g>
</g>
<path d="M482.044 404.344H543.371C545.193 404.344 546.672 402.866 546.672 401.044V400.314C546.672 398.489 545.193 397.013 543.371 397.013H482.044C480.221 397.013 478.742 398.489 478.742 400.314V401.044C478.742 402.866 480.221 404.344 482.044 404.344Z" fill="#2B2B2B"/>
<mask id="mask15_1507_1520" style="mask-type:luminance" maskUnits="userSpaceOnUse" x="478" y="397" width="69" height="8">
<path d="M478.75 397.011H546.68V404.343H478.75V397.011Z" fill="white"/>
</mask>
<g mask="url(#mask15_1507_1520)">
<g opacity="0.100006">
<path d="M482.052 404.343H543.378C545.201 404.343 546.68 402.865 546.68 401.043V400.313C546.68 398.488 545.201 397.012 543.378 397.012H482.052C480.229 397.012 478.75 398.488 478.75 400.313V401.043C478.75 402.865 480.229 404.343 482.052 404.343Z" fill="white"/>
</g>
</g>
<path d="M496.586 487.632H547.335C548.538 487.632 549.651 486.841 550.257 485.559L553.481 478.727H490.438L493.663 485.559C494.267 486.841 495.381 487.632 496.586 487.632Z" fill="#2B2B2B"/>
<mask id="mask16_1507_1520" style="mask-type:luminance" maskUnits="userSpaceOnUse" x="490" y="478" width="64" height="10">
<path d="M490.445 478.724H553.487V487.629H490.445V478.724Z" fill="white"/>
</mask>
<g mask="url(#mask16_1507_1520)">
<g opacity="0.399994">
<path d="M496.593 487.63H547.343C548.546 487.63 549.659 486.839 550.265 485.557L553.489 478.725H490.445L493.671 485.557C494.275 486.839 495.389 487.63 496.593 487.63Z" fill="white"/>
</g>
</g>
<path d="M491.298 481.979H552.624C554.447 481.979 555.925 480.501 555.925 478.677V477.948C555.925 476.124 554.447 474.646 552.624 474.646H491.298C489.474 474.646 487.996 476.124 487.996 477.948V478.677C487.996 480.501 489.474 481.979 491.298 481.979Z" fill="#2B2B2B"/>
<mask id="mask17_1507_1520" style="mask-type:luminance" maskUnits="userSpaceOnUse" x="487" y="474" width="69" height="8">
<path d="M487.996 474.646H555.925V481.979H487.996V474.646Z" fill="white"/>
</mask>
<g mask="url(#mask17_1507_1520)">
<g opacity="0.100006">
<path d="M491.298 481.979H552.624C554.447 481.979 555.925 480.501 555.925 478.677V477.948C555.925 476.124 554.447 474.646 552.624 474.646H491.298C489.474 474.646 487.996 476.124 487.996 477.948V478.677C487.996 480.501 489.474 481.979 491.298 481.979Z" fill="white"/>
</g>
</g>
<path d="M505.842 565.264H556.591C557.794 565.264 558.907 564.475 559.513 563.192L562.737 556.359H499.695L502.919 563.192C503.525 564.475 504.639 565.264 505.842 565.264Z" fill="#2B2B2B"/>
<mask id="mask18_1507_1520" style="mask-type:luminance" maskUnits="userSpaceOnUse" x="499" y="556" width="64" height="10">
<path d="M499.699 556.359H562.741V565.264H499.699V556.359Z" fill="white"/>
</mask>
<g mask="url(#mask18_1507_1520)">
<g opacity="0.399994">
<path d="M505.846 565.264H556.595C557.798 565.264 558.911 564.475 559.517 563.192L562.741 556.359H499.699L502.923 563.192C503.529 564.475 504.642 565.264 505.846 565.264Z" fill="white"/>
</g>
</g>
<path d="M500.552 559.612H561.878C563.701 559.612 565.178 558.135 565.178 556.312V555.582C565.178 553.759 563.701 552.282 561.878 552.282H500.552C498.727 552.282 497.25 553.759 497.25 555.582V556.312C497.25 558.135 498.727 559.612 500.552 559.612Z" fill="#2B2B2B"/>
<mask id="mask19_1507_1520" style="mask-type:luminance" maskUnits="userSpaceOnUse" x="497" y="552" width="69" height="8">
<path d="M497.25 552.282H565.178V559.614H497.25V552.282Z" fill="white"/>
</mask>
<g mask="url(#mask19_1507_1520)">
<g opacity="0.100006">
<path d="M500.552 559.614H561.878C563.701 559.614 565.178 558.137 565.178 556.314V555.584C565.178 553.761 563.701 552.284 561.878 552.284H500.552C498.727 552.284 497.25 553.761 497.25 555.584V556.314C497.25 558.137 498.727 559.614 500.552 559.614Z" fill="white"/>
</g>
</g>
<path d="M563.821 623.179H579.787L527.876 212.907H511.91L563.821 623.179Z" fill="#2B2B2B"/>
<mask id="mask20_1507_1520" style="mask-type:luminance" maskUnits="userSpaceOnUse" x="511" y="212" width="69" height="412">
<path d="M511.906 212.906H579.783V623.179H511.906V212.906Z" fill="white"/>
</mask>
<g mask="url(#mask20_1507_1520)">
<g opacity="0.699997">
<path d="M563.817 623.179H579.783L527.872 212.907H511.906L563.817 623.179Z" fill="white"/>
</g>
</g>
<path d="M396.212 623.179H380.246L432.157 212.907H448.123L396.212 623.179Z" fill="#2B2B2B"/>
<mask id="mask21_1507_1520" style="mask-type:luminance" maskUnits="userSpaceOnUse" x="380" y="212" width="69" height="412">
<path d="M380.246 212.906H448.123V623.179H380.246V212.906Z" fill="white"/>
</mask>
<g mask="url(#mask21_1507_1520)">
<g opacity="0.399994">
<path d="M396.212 623.179H380.246L432.157 212.907H448.123L396.212 623.179Z" fill="white"/>
</g>
</g>
<path d="M491.216 273.722H440.467C439.264 273.722 438.15 272.931 437.544 271.649L434.32 264.817H497.362L494.138 271.649C493.532 272.931 492.419 273.722 491.216 273.722Z" fill="#2B2B2B"/>
<mask id="mask22_1507_1520" style="mask-type:luminance" maskUnits="userSpaceOnUse" x="434" y="264" width="64" height="10">
<path d="M434.312 264.812H497.356V273.717H434.312V264.812Z" fill="white"/>
</mask>
<g mask="url(#mask22_1507_1520)">
<g opacity="0.5">
<path d="M491.208 273.718H440.459C439.256 273.718 438.142 272.927 437.537 271.645L434.312 264.813H497.355L494.13 271.645C493.525 272.927 492.411 273.718 491.208 273.718Z" fill="white"/>
</g>
</g>
<path d="M496.502 268.067H435.175C433.352 268.067 431.875 266.59 431.875 264.766V264.037C431.875 262.215 433.352 260.735 435.175 260.735H496.502C498.326 260.735 499.803 262.215 499.803 264.037V264.766C499.803 266.59 498.326 268.067 496.502 268.067Z" fill="#2B2B2B"/>
<mask id="mask23_1507_1520" style="mask-type:luminance" maskUnits="userSpaceOnUse" x="431" y="260" width="69" height="9">
<path d="M431.879 260.736H499.807V268.066H431.879V260.736Z" fill="white"/>
</mask>
<g mask="url(#mask23_1507_1520)">
<g opacity="0.199997">
<path d="M496.506 268.066H435.179C433.356 268.066 431.879 266.589 431.879 264.765V264.036C431.879 262.214 433.356 260.734 435.179 260.734H496.506C498.33 260.734 499.807 262.214 499.807 264.036V264.765C499.807 266.589 498.33 268.066 496.506 268.066Z" fill="white"/>
</g>
</g>
<path d="M481.958 332.362H431.209C430.004 332.362 428.892 331.574 428.287 330.291L425.062 323.458H488.105L484.88 330.291C484.275 331.574 483.161 332.362 481.958 332.362Z" fill="#2B2B2B"/>
<mask id="mask24_1507_1520" style="mask-type:luminance" maskUnits="userSpaceOnUse" x="425" y="323" width="64" height="10">
<path d="M425.059 323.459H488.101V332.363H425.059V323.459Z" fill="white"/>
</mask>
<g mask="url(#mask24_1507_1520)">
<g opacity="0.5">
<path d="M481.954 332.361H431.205C430 332.361 428.889 331.573 428.283 330.29L425.059 323.457H488.101L484.877 330.29C484.271 331.573 483.157 332.361 481.954 332.361Z" fill="white"/>
</g>
</g>
<path d="M487.248 326.711H425.921C424.099 326.711 422.621 325.233 422.621 323.409V322.681C422.621 320.856 424.099 319.379 425.921 319.379H487.248C489.07 319.379 490.55 320.856 490.55 322.681V323.409C490.55 325.233 489.07 326.711 487.248 326.711Z" fill="#2B2B2B"/>
<mask id="mask25_1507_1520" style="mask-type:luminance" maskUnits="userSpaceOnUse" x="422" y="319" width="69" height="8">
<path d="M422.625 319.381H490.553V326.713H422.625V319.381Z" fill="white"/>
</mask>
<g mask="url(#mask25_1507_1520)">
<g opacity="0.199997">
<path d="M487.252 326.713H425.925C424.102 326.713 422.625 325.235 422.625 323.411V322.683C422.625 320.858 424.102 319.381 425.925 319.381H487.252C489.074 319.381 490.553 320.858 490.553 322.683V323.411C490.553 325.235 489.074 326.713 487.252 326.713Z" fill="white"/>
</g>
</g>
<path d="M472.704 409.997H421.957C420.752 409.997 419.639 409.208 419.033 407.924L415.809 401.093H478.852L475.627 407.924C475.022 409.208 473.909 409.997 472.704 409.997Z" fill="#2B2B2B"/>
<mask id="mask26_1507_1520" style="mask-type:luminance" maskUnits="userSpaceOnUse" x="415" y="401" width="64" height="9">
<path d="M415.797 401.094H478.841V409.998H415.797V401.094Z" fill="white"/>
</mask>
<g mask="url(#mask26_1507_1520)">
<g opacity="0.5">
<path d="M472.693 409.998H421.945C420.74 409.998 419.627 409.209 419.021 407.925L415.797 401.094H478.841L475.615 407.925C475.011 409.209 473.897 409.998 472.693 409.998Z" fill="white"/>
</g>
</g>
<path d="M477.988 404.344H416.661C414.839 404.344 413.359 402.866 413.359 401.044V400.314C413.359 398.489 414.839 397.013 416.661 397.013H477.988C479.81 397.013 481.29 398.489 481.29 400.314V401.044C481.29 402.866 479.81 404.344 477.988 404.344Z" fill="#2B2B2B"/>
<mask id="mask27_1507_1520" style="mask-type:luminance" maskUnits="userSpaceOnUse" x="413" y="397" width="69" height="8">
<path d="M413.359 397.011H481.288V404.343H413.359V397.011Z" fill="white"/>
</mask>
<g mask="url(#mask27_1507_1520)">
<g opacity="0.199997">
<path d="M477.988 404.343H416.661C414.839 404.343 413.359 402.865 413.359 401.043V400.313C413.359 398.488 414.839 397.012 416.661 397.012H477.988C479.81 397.012 481.29 398.488 481.29 400.313V401.043C481.29 402.865 479.81 404.343 477.988 404.343Z" fill="white"/>
</g>
</g>
<path d="M463.443 487.632H412.695C411.49 487.632 410.377 486.841 409.771 485.559L406.547 478.727H469.591L466.365 485.559C465.761 486.841 464.647 487.632 463.443 487.632Z" fill="#2B2B2B"/>
<mask id="mask28_1507_1520" style="mask-type:luminance" maskUnits="userSpaceOnUse" x="406" y="478" width="64" height="10">
<path d="M406.543 478.723H469.585V487.628H406.543V478.723Z" fill="white"/>
</mask>
<g mask="url(#mask28_1507_1520)">
<g opacity="0.5">
<path d="M463.439 487.63H412.691C411.486 487.63 410.373 486.839 409.767 485.557L406.543 478.725H469.587L466.361 485.557C465.757 486.839 464.644 487.63 463.439 487.63Z" fill="white"/>
</g>
</g>
<path d="M468.734 481.979H407.407C405.585 481.979 404.105 480.501 404.105 478.677V477.948C404.105 476.124 405.585 474.646 407.407 474.646H468.734C470.556 474.646 472.036 476.124 472.036 477.948V478.677C472.036 480.501 470.556 481.979 468.734 481.979Z" fill="#2B2B2B"/>
<mask id="mask29_1507_1520" style="mask-type:luminance" maskUnits="userSpaceOnUse" x="404" y="474" width="69" height="8">
<path d="M404.105 474.646H472.034V481.979H404.105V474.646Z" fill="white"/>
</mask>
<g mask="url(#mask29_1507_1520)">
<g opacity="0.199997">
<path d="M468.734 481.979H407.407C405.585 481.979 404.105 480.501 404.105 478.677V477.948C404.105 476.124 405.585 474.646 407.407 474.646H468.734C470.556 474.646 472.036 476.124 472.036 477.948V478.677C472.036 480.501 470.556 481.979 468.734 481.979Z" fill="white"/>
</g>
</g>
<path d="M454.189 565.264H403.439C402.236 565.264 401.123 564.475 400.517 563.192L397.293 556.359H460.335L457.111 563.192C456.505 564.475 455.394 565.264 454.189 565.264Z" fill="#2B2B2B"/>
<mask id="mask30_1507_1520" style="mask-type:luminance" maskUnits="userSpaceOnUse" x="397" y="556" width="64" height="10">
<path d="M397.289 556.359H460.331V565.264H397.289V556.359Z" fill="white"/>
</mask>
<g mask="url(#mask30_1507_1520)">
<g opacity="0.5">
<path d="M454.185 565.264H403.435C402.232 565.264 401.119 564.475 400.513 563.192L397.289 556.359H460.331L457.107 563.192C456.501 564.475 455.39 565.264 454.185 565.264Z" fill="white"/>
</g>
</g>
<path d="M459.478 559.612H398.152C396.329 559.612 394.852 558.135 394.852 556.312V555.582C394.852 553.759 396.329 552.282 398.152 552.282H459.478C461.303 552.282 462.78 553.759 462.78 555.582V556.312C462.78 558.135 461.303 559.612 459.478 559.612Z" fill="#2B2B2B"/>
<mask id="mask31_1507_1520" style="mask-type:luminance" maskUnits="userSpaceOnUse" x="394" y="552" width="69" height="8">
<path d="M394.859 552.282H462.788V559.614H394.859V552.282Z" fill="white"/>
</mask>
<g mask="url(#mask31_1507_1520)">
<g opacity="0.199997">
<path d="M459.486 559.614H398.159C396.337 559.614 394.859 558.137 394.859 556.314V555.584C394.859 553.761 396.337 552.284 398.159 552.284H459.486C461.31 552.284 462.788 553.761 462.788 555.584V556.314C462.788 558.137 461.31 559.614 459.486 559.614Z" fill="white"/>
</g>
</g>
<path d="M457.84 623.179H441.875L493.788 212.907H509.752L457.84 623.179Z" fill="#2B2B2B"/>
<mask id="mask32_1507_1520" style="mask-type:luminance" maskUnits="userSpaceOnUse" x="441" y="212" width="69" height="412">
<path d="M441.867 212.906H509.744V623.179H441.867V212.906Z" fill="white"/>
</mask>
<g mask="url(#mask32_1507_1520)">
<g opacity="0.699997">
<path d="M457.833 623.179H441.867L493.78 212.907H509.744L457.833 623.179Z" fill="white"/>
</g>
</g>
<path d="M530.434 215.001H429.26C428.057 215.001 426.943 214.21 426.337 212.928L423.113 206.097H536.581L533.356 212.928C532.751 214.21 531.637 215.001 530.434 215.001Z" fill="#2B2B2B"/>
<mask id="mask33_1507_1520" style="mask-type:luminance" maskUnits="userSpaceOnUse" x="423" y="206" width="114" height="10">
<path d="M423.105 206.099H536.573V215.003H423.105V206.099Z" fill="white"/>
</mask>
<g mask="url(#mask33_1507_1520)">
<g opacity="0.5">
<path d="M530.426 215.003H429.252C428.049 215.003 426.935 214.212 426.33 212.93L423.105 206.098H536.573L533.349 212.93C532.743 214.212 531.629 215.003 530.426 215.003Z" fill="white"/>
</g>
</g>
<path d="M535.716 209.346H423.964C422.142 209.346 420.664 207.868 420.664 206.044V205.315C420.664 203.493 422.142 202.014 423.964 202.014H535.716C537.538 202.014 539.018 203.493 539.018 205.315V206.044C539.018 207.868 537.538 209.346 535.716 209.346Z" fill="#2B2B2B"/>
<mask id="mask34_1507_1520" style="mask-type:luminance" maskUnits="userSpaceOnUse" x="420" y="202" width="120" height="8">
<path d="M420.656 202.016H539.01V209.348H420.656V202.016Z" fill="white"/>
</mask>
<g mask="url(#mask34_1507_1520)">
<g opacity="0.199997">
<path d="M535.708 209.348H423.956C422.134 209.348 420.656 207.87 420.656 206.046V205.317C420.656 203.495 422.134 202.016 423.956 202.016H535.708C537.531 202.016 539.01 203.495 539.01 205.317V206.046C539.01 207.87 537.531 209.348 535.708 209.348Z" fill="white"/>
</g>
</g>
<path d="M537.505 213.287L524.239 203.943L518.027 216.696C518.027 216.696 526.381 224.532 534.904 220.454L537.505 213.287Z" fill="#FDB473"/>
<path d="M512.778 202.503L510.422 213.118L518.025 216.697L524.237 203.944L512.778 202.503Z" fill="#FDB473"/>
<path d="M628.239 183.779C625.633 187.801 622.975 191.65 620.196 195.413C618.107 198.192 615.967 200.936 613.723 203.628C613.723 203.646 613.723 203.646 613.706 203.646C613.033 204.474 612.343 205.285 611.652 206.097C610.289 207.667 608.908 209.238 607.458 210.791C605.663 212.724 603.782 214.623 601.762 216.487C601.383 216.832 601.003 217.178 600.606 217.523H600.571C599.087 218.886 597.568 220.164 595.825 221.441C593.598 223.011 591.251 224.599 587.799 225.911C586.936 226.256 586.073 226.498 585.193 226.705C584.347 226.912 583.622 227.016 582.845 227.154C581.395 227.344 580.032 227.465 578.72 227.499C576.114 227.585 573.68 227.516 571.281 227.378C566.517 227.119 561.926 226.481 557.387 225.808C551.587 224.893 545.892 223.754 540.248 222.407C538.159 221.924 536.088 221.389 534.017 220.837C532.912 220.543 531.825 220.233 530.72 219.922C528.494 219.301 527.078 217.212 527.216 214.986C527.234 214.64 527.303 214.295 527.389 213.95C527.907 212.051 529.495 210.74 531.324 210.481C531.618 210.429 531.911 210.394 532.204 210.412L532.291 210.429C532.688 210.446 533.102 210.463 533.499 210.463C536.105 210.55 538.711 210.653 541.318 210.722C547.134 210.929 552.934 211.085 558.647 211.171C562.979 211.257 567.311 211.206 571.436 211.033C573.508 210.947 575.527 210.774 577.357 210.515C579.169 210.274 580.878 209.894 581.326 209.531C582.017 209.186 583.38 208.237 584.675 207.098C585.71 206.2 586.798 205.199 587.868 204.112C588.179 203.818 588.472 203.508 588.765 203.197C589.37 202.576 589.956 201.92 590.526 201.264C592.01 199.641 593.443 197.95 594.875 196.207C595.514 195.413 596.17 194.619 596.809 193.808C599.915 189.89 603.005 185.764 605.991 181.605C608.028 178.791 610.03 175.943 611.963 173.147L612.066 172.975C613.068 171.525 614.397 170.42 615.898 169.73C618.349 169.833 620.748 169.937 623.13 170.041H623.147C623.769 170.075 624.407 170.11 625.029 170.144C625.219 170.248 625.408 170.368 625.598 170.507C629.931 173.493 631.07 179.395 628.239 183.779Z" fill="#FFB670"/>
<path d="M623.732 195.24C621.039 199.227 617.449 203.629 612.806 208.461C612.789 208.461 612.789 208.461 612.789 208.479C611.719 209.583 610.58 210.722 609.389 211.879L607.456 210.792L590.524 201.264L588.953 200.384C588.953 200.384 590.058 198.744 591.697 196.259C593.751 193.152 596.668 188.716 599.378 184.539C601.484 181.26 603.452 178.136 604.746 175.926C606.386 173.165 608.319 171.094 610.338 169.54C612.22 169.592 614.066 169.661 615.896 169.73C618.347 169.834 620.746 169.937 623.128 170.041H623.145C623.767 170.075 624.405 170.11 625.027 170.144C626.649 170.213 628.254 170.3 629.842 170.386C632.017 175.547 631.534 183.711 623.732 195.24Z" fill="black"/>
<mask id="mask35_1507_1520" style="mask-type:luminance" maskUnits="userSpaceOnUse" x="588" y="169" width="43" height="43">
<path d="M588.945 169.541H630.953V211.88H588.945V169.541Z" fill="white"/>
</mask>
<g mask="url(#mask35_1507_1520)">
<g opacity="0.699997">
<path d="M623.724 195.241C621.032 199.228 617.442 203.63 612.799 208.462C612.781 208.462 612.781 208.462 612.781 208.48C611.711 209.584 610.572 210.723 609.381 211.88L607.448 210.793L590.516 201.265L588.945 200.385C588.945 200.385 590.05 198.745 591.69 196.26C593.744 193.153 596.661 188.717 599.37 184.54C601.476 181.261 603.444 178.137 604.738 175.927C606.378 173.166 608.311 171.095 610.33 169.541C612.212 169.593 614.059 169.662 615.888 169.731C618.339 169.835 620.738 169.938 623.12 170.042H623.137C623.759 170.076 624.397 170.111 625.019 170.145C626.641 170.214 628.246 170.301 629.834 170.387C632.009 175.548 631.526 183.712 623.724 195.241Z" fill="white"/>
</g>
</g>
<path d="M371.325 622.886C371.325 622.991 371.308 623.076 371.29 623.179C371.29 623.231 371.273 623.267 371.256 623.318C371.239 623.406 371.204 623.492 371.17 623.576C371.118 623.68 371.066 623.801 370.98 623.906C370.911 624.025 370.824 624.13 370.721 624.25C370.168 624.871 369.202 625.494 367.89 626.096C367.631 626.219 367.338 626.338 367.044 626.459C366.216 626.806 365.284 627.132 364.231 627.46C363.575 627.669 362.885 627.857 362.143 628.064C350.043 631.328 326.846 633.95 297.659 635.4C296.52 635.451 295.381 635.52 294.242 635.574C292.378 635.658 290.496 635.727 288.58 635.814C286.665 635.883 284.731 635.952 282.764 636.021C281.435 636.074 280.089 636.107 278.742 636.159C275.549 636.245 272.322 636.332 269.042 636.383C268.645 636.401 268.248 636.42 267.851 636.42C267.109 636.437 266.367 636.452 265.625 636.452C264.9 636.47 264.192 636.487 263.467 636.487C260.447 636.539 257.392 636.575 254.319 636.59C253.974 636.59 253.646 636.608 253.318 636.608H253.301C250.885 636.625 248.434 636.625 245.983 636.625C235.903 636.625 226.082 636.506 216.693 636.245H216.675C215.277 636.212 213.879 636.159 212.498 636.107C211.29 636.09 210.082 636.038 208.891 636.005C207.01 635.952 205.163 635.883 203.333 635.814C200.882 635.712 198.483 635.607 196.101 635.505H196.084C195.463 635.469 194.824 635.436 194.203 635.4C192.58 635.331 190.975 635.244 189.387 635.158C181.465 634.711 174.026 634.193 167.191 633.57C150.828 632.122 137.866 630.241 129.823 628.064C129.581 627.995 129.357 627.945 129.133 627.876C128.874 627.807 128.615 627.738 128.373 627.652C127.079 627.27 125.957 626.875 124.973 626.495C124.61 626.338 124.265 626.2 123.955 626.045C123.385 625.768 122.884 625.511 122.453 625.233C122.28 625.132 122.125 625.026 121.987 624.905C121.849 624.802 121.728 624.717 121.607 624.612C121.469 624.493 121.348 624.37 121.245 624.25C121.141 624.146 121.055 624.025 120.986 623.923C120.848 623.715 120.761 623.525 120.71 623.318C120.692 623.267 120.675 623.198 120.658 623.129C120.641 623.043 120.641 622.974 120.641 622.886C120.641 617.259 151.415 612.426 195.497 610.304C196.671 610.253 197.845 610.2 199.036 610.131C200.606 610.079 202.194 610.01 203.799 609.941C206.198 609.855 208.632 609.768 211.118 609.684C212.412 609.648 213.741 609.598 215.07 609.561C218.125 609.475 221.215 609.406 224.356 609.337H224.857C225.737 609.337 226.634 609.321 227.532 609.285C228.136 609.285 228.74 609.268 229.344 609.268C232.071 609.216 234.816 609.199 237.594 609.183H237.612C237.871 609.183 238.147 609.166 238.406 609.183H238.423C240.926 609.147 243.446 609.147 245.983 609.147C256.201 609.147 266.125 609.285 275.635 609.529C277.966 609.598 280.278 609.667 282.557 609.753C283.54 609.786 284.524 609.822 285.491 609.855H285.525C285.612 609.855 285.698 609.855 285.784 609.872C286.872 609.907 287.925 609.941 288.995 609.993C289.702 610.01 290.393 610.046 291.1 610.079C292.947 610.148 294.759 610.234 296.555 610.322H296.572C298.298 610.409 300.007 610.493 301.698 610.58C311.571 611.116 320.719 611.788 328.9 612.582C354.911 615.102 371.325 618.778 371.325 622.886Z" fill="#2B2B2B"/>
<mask id="mask36_1507_1520" style="mask-type:luminance" maskUnits="userSpaceOnUse" x="120" y="609" width="252" height="20">
<path d="M120.648 609.151H371.334V628.068H120.648V609.151Z" fill="white"/>
</mask>
<g mask="url(#mask36_1507_1520)">
<g opacity="0.399994">
<path d="M120.648 622.89C120.648 617.264 151.423 612.431 195.505 610.308C196.679 610.258 197.852 610.204 199.043 610.135C200.614 610.083 202.202 610.014 203.807 609.945C210.418 609.688 217.287 609.497 224.364 609.341C225.417 609.341 226.469 609.324 227.54 609.289C228.144 609.289 228.748 609.272 229.352 609.272C234.789 609.188 240.347 609.151 245.991 609.151C256.208 609.151 266.133 609.289 275.643 609.531C277.973 609.6 280.286 609.669 282.564 609.756C299.911 610.325 315.652 611.309 328.908 612.586C354.918 615.106 371.333 618.782 371.333 622.89C371.333 624.722 368.071 626.48 362.15 628.068C354.798 626.085 343.32 624.34 328.908 622.942C315.652 621.665 299.911 620.681 282.564 620.111C280.286 620.025 277.973 619.956 275.643 619.887C266.133 619.645 256.208 619.507 245.991 619.507C240.347 619.507 234.789 619.544 229.352 619.628C228.748 619.628 228.144 619.645 227.54 619.645C226.469 619.68 225.417 619.697 224.364 619.697C217.287 619.853 210.418 620.044 203.807 620.301C202.202 620.37 200.614 620.439 199.043 620.491C197.852 620.56 196.679 620.614 195.505 620.664C165.766 622.096 142.103 624.754 129.831 628.068C123.911 626.463 120.648 624.737 120.648 622.89Z" fill="white"/>
</g>
</g>
<path d="M235.441 616.518C234.492 617.657 233.612 618.64 232.732 619.591C232.283 620.057 231.851 620.521 231.385 620.989C230.557 621.834 229.746 622.663 228.9 623.474C228.347 624.026 227.778 624.561 227.208 625.097C224.326 627.755 221.254 630.275 217.94 632.622C217.75 632.741 217.577 632.879 217.387 633.002C216.904 633.347 216.404 633.673 215.886 634.02H215.869C214.781 634.745 213.659 635.453 212.503 636.108C211.295 636.091 210.086 636.039 208.895 636.005C207.014 635.953 205.167 635.884 203.338 635.815C200.887 635.711 198.488 635.608 196.106 635.504H196.089C195.467 635.468 194.829 635.435 194.207 635.399C192.585 635.33 190.98 635.245 189.392 635.159C181.469 634.71 174.03 634.193 167.195 633.571C168.093 633.278 168.99 633.002 169.888 632.708C176.775 630.464 183.73 628.357 190.427 626.149C192.101 625.58 193.758 625.027 195.295 624.458C196.986 623.871 197.849 623.422 199.092 622.715C199.851 622.266 200.645 621.765 201.439 621.229C201.853 620.952 202.285 620.659 202.716 620.333H202.734C203.976 619.452 205.219 618.469 206.445 617.45C208.93 615.412 211.364 613.17 213.78 610.84C214.212 610.408 214.643 609.994 215.075 609.563C215.851 608.82 216.611 608.076 217.353 607.301L220.736 603.798L220.943 603.573C223.135 601.295 226.173 600.309 229.09 600.639C231.126 600.863 233.111 601.742 234.699 603.28C236.391 604.92 237.374 607.008 237.599 609.183H237.616C237.91 611.736 237.185 614.413 235.441 616.518Z" fill="#FFB670"/>
<path d="M231.562 596.707C221.938 596.488 200.512 620.424 200.512 620.424L218.201 636.091C218.201 636.091 234.003 629.263 237.871 617.883C241.741 606.504 231.562 596.707 231.562 596.707Z" fill="black"/>
<mask id="mask37_1507_1520" style="mask-type:luminance" maskUnits="userSpaceOnUse" x="200" y="596" width="39" height="41">
<path d="M200.516 596.703H238.76V636.092H200.516V596.703Z" fill="white"/>
</mask>
<g mask="url(#mask37_1507_1520)">
<g opacity="0.699997">
<path d="M237.884 617.882C236.278 622.543 232.706 626.443 229.029 629.412C223.713 633.71 218.207 636.092 218.207 636.092L213.461 631.88L200.516 620.42C200.516 620.42 221.935 596.482 231.566 596.704C231.566 596.704 241.75 606.508 237.884 617.882Z" fill="white"/>
</g>
</g>
<mask id="mask38_1507_1520" style="mask-type:luminance" maskUnits="userSpaceOnUse" x="213" y="612" width="17" height="25">
<path d="M213.457 612.988H229.079V636.092H213.457V612.988Z" fill="white"/>
</mask>
<g mask="url(#mask38_1507_1520)">
<g opacity="0.100006">
<path d="M229.026 629.411C223.709 633.709 218.204 636.091 218.204 636.091L213.457 631.881C216.933 620.422 226.497 612.987 226.497 612.987C228.601 616.924 229.284 625.286 229.026 629.411Z" fill="black"/>
</g>
</g>
<path d="M298.087 606.801V606.836H298.07V606.852C297.966 607.078 297.863 607.283 297.777 607.509C297.5 608.113 297.242 608.716 296.983 609.339C296.827 609.667 296.689 609.977 296.568 610.322C296.534 610.392 296.499 610.461 296.482 610.53C296.361 610.789 296.24 611.047 296.154 611.324C295.861 612.014 295.585 612.722 295.308 613.447C294.963 614.344 294.635 615.257 294.307 616.174C294.273 616.206 294.273 616.258 294.256 616.294C294.014 616.95 293.79 617.606 293.565 618.278C293.324 618.952 293.099 619.626 292.892 620.297C292.858 620.366 292.84 620.435 292.823 620.504C292.616 621.127 292.409 621.749 292.219 622.37C291.822 623.68 291.425 624.993 291.045 626.338C291.011 626.461 290.976 626.581 290.942 626.701C290.113 629.635 289.336 632.622 288.612 635.624C288.594 635.693 288.577 635.746 288.577 635.816C286.661 635.885 284.728 635.954 282.76 636.023C281.431 636.074 280.085 636.107 278.739 636.161C275.546 636.247 272.318 636.332 269.039 636.385C268.642 636.401 268.245 636.42 267.848 636.42C267.106 636.437 266.363 636.454 265.621 636.454C264.896 636.47 264.189 636.487 263.464 636.487C260.443 636.539 257.388 636.575 254.316 636.592C253.971 636.592 253.643 636.609 253.315 636.609H253.298C250.881 636.625 248.43 636.625 245.979 636.625C235.9 636.625 226.079 636.506 216.689 636.247H216.672C216.758 635.816 216.844 635.384 216.931 634.968V634.953C217 634.675 217.052 634.417 217.121 634.159C217.172 633.898 217.224 633.641 217.293 633.38C217.328 633.242 217.362 633.123 217.38 633.002C218.156 629.602 218.967 626.461 219.796 623.561C220.107 622.56 220.383 621.611 220.676 620.66C220.78 620.366 220.866 620.073 220.97 619.781V619.764C221.194 619.056 221.418 618.383 221.643 617.727C221.643 617.708 221.643 617.708 221.66 617.708V617.693C221.781 617.33 221.902 616.983 222.022 616.638V616.621C222.212 616.087 222.402 615.551 222.592 615.05C222.799 614.448 223.024 613.861 223.231 613.308C223.421 612.806 223.61 612.323 223.8 611.859V611.841C224.163 610.961 224.508 610.133 224.836 609.339C225.63 607.44 226.407 605.783 227.131 604.316C227.27 604.074 227.39 603.815 227.511 603.574C227.77 603.073 228.012 602.625 228.236 602.174C228.547 601.623 228.823 601.104 229.082 600.64C229.134 600.553 229.185 600.484 229.22 600.398C229.513 599.861 229.807 599.378 230.066 598.965C230.325 598.551 230.549 598.206 230.739 597.895C231.205 597.203 231.481 596.808 231.55 596.722V596.703H231.567C231.567 596.703 238.747 595.926 246.98 596.202C248.068 596.221 249.172 596.29 250.294 596.357C251.313 596.426 252.435 596.532 253.608 596.67C256.076 596.946 258.821 597.326 261.669 597.79C263.464 598.083 265.276 598.396 267.088 598.722C268.901 599.052 270.696 599.378 272.422 599.723C272.732 599.777 273.026 599.846 273.336 599.915H273.354C274.717 600.174 276.046 600.448 277.272 600.709C278.117 600.88 278.946 601.071 279.792 601.278C280.223 601.38 280.637 601.468 281.052 601.587C281.466 601.692 281.88 601.796 282.312 601.9C283.882 602.297 285.436 602.728 286.903 603.142C287.386 603.28 287.869 603.436 288.335 603.574C289.267 603.85 290.165 604.124 291.011 604.401C291.856 604.661 292.633 604.92 293.358 605.162C296.033 606.042 297.811 606.696 298.07 606.782C298.07 606.782 298.087 606.782 298.087 606.801Z" fill="black"/>
<mask id="mask39_1507_1520" style="mask-type:luminance" maskUnits="userSpaceOnUse" x="216" y="596" width="83" height="41">
<path d="M216.699 596.145H298.115V636.627H216.699V596.145Z" fill="white"/>
</mask>
<g mask="url(#mask39_1507_1520)">
<g opacity="0.699997">
<path d="M298.115 606.802L298.097 606.837H298.08V606.852C297.977 607.079 297.873 607.284 297.787 607.51C297.511 608.114 297.234 608.717 296.993 609.34C296.837 609.668 296.699 609.996 296.578 610.323H296.561C296.527 610.393 296.509 610.462 296.492 610.531C296.371 610.789 296.251 611.048 296.164 611.325C295.871 612.015 295.595 612.723 295.319 613.448C294.973 614.345 294.628 615.258 294.317 616.175C294.283 616.207 294.283 616.259 294.266 616.295C294.024 616.951 293.8 617.607 293.575 618.279C293.334 618.953 293.109 619.627 292.902 620.298C292.885 620.334 292.868 620.386 292.85 620.421C292.833 620.455 292.833 620.472 292.833 620.505C292.626 621.128 292.419 621.75 292.229 622.371C291.832 623.681 291.435 624.994 291.055 626.339C291.021 626.462 290.986 626.582 290.952 626.701C290.123 629.636 289.347 632.623 288.622 635.625C288.604 635.694 288.587 635.747 288.587 635.816C286.671 635.886 284.738 635.955 282.77 636.024C281.441 636.075 280.095 636.108 278.749 636.162C275.556 636.248 272.328 636.333 269.049 636.386C268.652 636.402 268.255 636.421 267.858 636.421C267.116 636.438 266.373 636.455 265.631 636.455C264.906 636.471 264.199 636.488 263.474 636.488C260.453 636.54 257.398 636.576 254.326 636.593C253.981 636.593 253.653 636.61 253.325 636.61H253.308C250.891 636.626 248.44 636.626 245.989 636.626C235.91 636.626 226.089 636.507 216.699 636.248C216.786 635.816 216.872 635.401 216.958 634.988V634.969C217.079 634.418 217.182 633.899 217.303 633.381C217.338 633.243 217.372 633.124 217.39 633.003C218.166 629.603 218.978 626.462 219.806 623.562C220.117 622.561 220.393 621.612 220.686 620.66C220.79 620.367 220.876 620.074 220.98 619.782V619.765C221.204 619.057 221.428 618.384 221.653 617.728C221.653 617.709 221.653 617.709 221.67 617.709V617.693C221.791 617.331 221.912 616.984 222.033 616.639V616.622C222.222 616.088 222.412 615.552 222.602 615.051C222.809 614.449 223.034 613.862 223.241 613.309C223.431 612.807 223.62 612.324 223.81 611.86V611.842C224.173 610.962 224.518 610.134 224.846 609.34H224.863C225.657 607.441 226.434 605.784 227.142 604.317C227.28 604.075 227.4 603.816 227.521 603.575C227.78 603.074 228.022 602.626 228.246 602.175C228.557 601.624 228.833 601.105 229.092 600.641C229.144 600.554 229.195 600.485 229.23 600.399C229.541 599.862 229.834 599.379 230.076 598.966C230.335 598.552 230.559 598.207 230.749 597.896C231.215 597.204 231.491 596.809 231.56 596.723L231.577 596.704C231.577 596.704 238.757 595.927 246.991 596.203C248.078 596.222 249.183 596.291 250.304 596.358C251.323 596.427 252.445 596.533 253.618 596.671C256.087 596.947 258.831 597.327 261.679 597.791C263.474 598.084 265.286 598.397 267.098 598.723C268.911 599.053 270.706 599.379 272.432 599.724C272.742 599.778 273.036 599.847 273.347 599.916H273.364C274.727 600.175 276.056 600.449 277.282 600.71C278.128 600.881 278.956 601.072 279.802 601.279C280.233 601.381 280.648 601.469 281.062 601.588C281.493 601.674 281.907 601.78 282.322 601.882C283.892 602.28 285.446 602.712 286.913 603.143C287.396 603.281 287.879 603.437 288.345 603.575C289.278 603.851 290.175 604.125 291.021 604.402C291.867 604.662 292.643 604.921 293.368 605.163C296.043 606.043 297.821 606.697 298.08 606.783C298.08 606.783 298.097 606.783 298.097 606.802H298.115Z" fill="white"/>
</g>
</g>
<path d="M266.878 575.622C266.878 575.622 267.422 593.98 269.167 596.705C270.914 599.429 277.207 600.692 277.207 600.692C277.207 600.692 262.066 608.221 254.993 606.814C247.92 605.409 244.508 596.151 244.508 596.151C244.508 596.151 249.456 596.351 250.652 595.666C251.847 594.984 249.713 582.835 249.713 582.835L266.878 575.622Z" fill="#FDB473"/>
<mask id="mask40_1507_1520" style="mask-type:luminance" maskUnits="userSpaceOnUse" x="249" y="575" width="20" height="21">
<path d="M249.715 575.62H268.668V595.486H249.715V575.62Z" fill="white"/>
</mask>
<g mask="url(#mask40_1507_1520)">
<g opacity="0.199997">
<path d="M251.161 587.403C251.161 587.403 250.545 588.307 250.545 588.292C250.164 585.444 249.715 582.836 249.715 582.836L266.873 575.623C266.873 575.623 267.32 590.415 268.668 595.42C261.66 596.145 253.541 591.003 251.161 587.403Z" fill="black"/>
</g>
</g>
<path d="M261.016 544.782C265.709 547.222 272.426 555.165 265.062 557.77C257.697 560.378 252.95 540.584 261.016 544.782Z" fill="#2B2B2B"/>
<path d="M240.14 575.318C244.78 580.536 248.246 584.719 251.879 587.657C255.017 590.191 258.284 591.782 262.561 592.305C276.466 594.026 285.31 579.334 279.745 567.199C279.136 565.877 278.416 564.513 277.574 563.146C271.531 553.163 259.879 542.691 248.346 546.107C235.416 549.93 231.514 565.619 240.14 575.318Z" fill="#FDB473"/>
<path d="M245.828 574.504L246.387 576.532C246.387 576.532 248.077 582.545 251.883 587.658C255.021 590.191 258.288 591.783 262.565 592.304C276.47 594.026 285.314 579.335 279.749 567.199C279.14 565.877 278.42 564.514 277.578 563.147C277.578 563.147 278.622 567.998 277.718 570.266C277.718 570.266 272.531 568.943 269.997 571.064C269.997 571.064 264.497 569.562 259.836 575.372C259.836 575.372 252.839 580.284 245.828 574.504Z" fill="#2B2B2B"/>
<mask id="mask41_1507_1520" style="mask-type:luminance" maskUnits="userSpaceOnUse" x="245" y="563" width="37" height="30">
<path d="M245.828 563.146H281.436V592.445H245.828V563.146Z" fill="white"/>
</mask>
<g mask="url(#mask41_1507_1520)">
<g opacity="0.5">
<path d="M245.828 574.504L246.387 576.532C246.387 576.532 248.077 582.545 251.883 587.658C255.021 590.191 258.288 591.783 262.565 592.304C276.47 594.026 285.314 579.335 279.749 567.199C279.14 565.877 278.42 564.514 277.578 563.147C277.578 563.147 278.622 567.998 277.718 570.266C277.718 570.266 272.531 568.943 269.997 571.064C269.997 571.064 264.497 569.562 259.836 575.372C259.836 575.372 252.839 580.284 245.828 574.504Z" fill="white"/>
</g>
</g>
<path d="M225.693 568.865C219.432 563.613 225.37 556.001 231.925 553.405C232.786 553.065 233.361 552.568 233.724 551.986L241.504 563.942C240.795 564.284 240.093 564.603 239.426 564.862C239.426 564.862 248.51 572.918 247.627 580.921C234.909 584.435 222.655 577.901 225.693 568.865Z" fill="#2B2B2B"/>
<path d="M242.882 586.92C245.753 588.902 249.27 589.364 252.085 588.776C252.412 588.707 252.717 588.622 252.988 588.526L253.004 588.507C255.624 586.044 247.857 577.362 247.46 576.911L247.441 576.896C245.679 576.464 243.899 576.559 242.446 577.586C239.028 579.973 239.598 584.647 242.882 586.92Z" fill="#FDB473"/>
<path d="M257.781 565.865C258.432 566.695 259.399 567.02 259.939 566.588C260.479 566.155 260.389 565.132 259.737 564.3C259.085 563.468 258.118 563.145 257.58 563.576C257.039 564.01 257.129 565.033 257.781 565.865Z" fill="#2B2B2B"/>
<path d="M267.117 558.393C267.768 559.224 268.734 559.548 269.274 559.117C269.815 558.685 269.725 557.66 269.072 556.83C268.42 555.996 267.455 555.673 266.915 556.106C266.375 556.538 266.466 557.563 267.117 558.393Z" fill="#2B2B2B"/>
<path d="M264.469 561.183C264.469 561.183 270.014 564.258 273.858 564.83C273.435 567.282 270.458 568.641 270.458 568.641L264.469 561.183Z" fill="#FD5A1E"/>
<path d="M254.075 559.439C253.885 559.546 253.756 559.748 253.754 559.981C253.727 562.763 251.821 564.029 251.802 564.041C251.514 564.227 251.429 564.614 251.612 564.904C251.795 565.192 252.178 565.275 252.465 565.09C252.567 565.025 254.955 563.438 254.99 559.988C254.993 559.643 254.721 559.363 254.379 559.362C254.269 559.36 254.165 559.389 254.075 559.439Z" fill="#2B2B2B"/>
<path d="M268.644 551.637C268.739 551.566 268.813 551.468 268.856 551.347C268.97 551.024 268.803 550.667 268.482 550.55C265.259 549.391 262.988 551.124 262.877 551.19C262.605 551.399 262.553 551.79 262.758 552.063C262.964 552.336 263.35 552.391 263.621 552.184C263.713 552.108 265.478 550.798 268.066 551.727C268.268 551.799 268.483 551.758 268.644 551.637Z" fill="#2B2B2B"/>
<path d="M270.358 580.001C270.676 579.882 271.002 579.722 271.328 579.559L272.172 572.757C272.172 572.757 271.768 572.743 271.135 572.776C268.984 572.833 264.208 573.253 262.94 575.698C262.829 575.925 262.714 576.225 262.617 576.58C262.37 577.55 262.296 578.89 262.845 579.894C263.622 581.353 265.696 582.105 270.358 580.001Z" fill="#2B2B2B"/>
<path d="M262.621 576.579L270.918 573.576L271.139 572.777C268.987 572.832 264.212 573.251 262.944 575.697C262.833 575.923 262.718 576.224 262.621 576.579Z" fill="white"/>
<path d="M270.365 580.001C268.901 577.594 265.038 578.833 262.852 579.894C263.628 581.353 265.703 582.105 270.365 580.001Z" fill="#FD5A1E"/>
<path d="M225.695 568.864C223.149 566.906 219.409 561.594 224.415 556.081C229.42 550.568 235.351 547.836 232.554 543.828C229.758 539.82 234.705 536.411 238.188 539.035C238.188 539.035 246.393 525.612 252.222 535.918C252.222 535.918 257.94 531.986 261.437 536.208C264.938 540.428 265.68 544.957 261.07 546.579C256.46 548.202 256.019 548.69 256.819 551.359C257.618 554.029 253.61 556.248 253.61 556.248C253.61 556.248 256.087 554.662 254.685 552.748C254.685 552.748 254.354 556.153 249.883 557.557C245.411 558.963 247.479 563.313 247.479 563.313C247.479 563.313 245.09 564.248 244.56 560.834C244.56 560.834 242.696 568.455 237.751 570.348C232.806 572.242 229.546 571.824 225.695 568.864Z" fill="#2B2B2B"/>
<mask id="mask42_1507_1520" style="mask-type:luminance" maskUnits="userSpaceOnUse" x="263" y="623" width="28" height="14">
<path d="M263.473 623.373H290.951V636.488H263.473V623.373Z" fill="white"/>
</mask>
<g mask="url(#mask42_1507_1520)">
<g opacity="0.100006">
<path d="M290.951 626.7C290.122 629.634 289.345 632.622 288.62 635.623C288.603 635.692 288.586 635.744 288.586 635.813C286.67 635.882 284.737 635.951 282.769 636.02C281.44 636.074 280.094 636.107 278.748 636.158C275.555 636.245 272.327 636.331 269.048 636.383C268.651 636.4 268.254 636.419 267.857 636.419C267.115 636.436 266.372 636.452 265.63 636.452C264.905 636.469 264.198 636.486 263.473 636.486C266.096 631.465 269.859 628.169 272.137 626.495C273.345 625.595 274.139 625.164 274.139 625.164C275.658 624.337 277.212 623.817 278.748 623.56C283.045 622.853 287.343 624.199 290.951 626.7Z" fill="black"/>
</g>
</g>
<path d="M302.523 620.988C302.437 622.628 301.937 624.267 300.987 625.734C298.795 629.117 296.569 632.397 294.239 635.573C292.375 635.659 290.493 635.728 288.577 635.814C286.662 635.883 284.728 635.952 282.761 636.021C281.432 636.073 280.085 636.108 278.739 636.159C275.546 636.246 272.318 636.332 269.039 636.384C269.229 636.177 269.384 635.97 269.557 635.762C272.664 631.844 275.753 627.719 278.739 623.56C279.585 622.403 280.413 621.23 281.225 620.056C282.416 618.399 283.555 616.742 284.694 615.102L284.815 614.93C287.386 611.201 292.098 609.838 296.155 611.322C296.914 611.598 297.656 611.978 298.347 612.461C301.229 614.446 302.696 617.726 302.523 620.988Z" fill="#FFB670"/>
<path d="M303.511 621.041C302.958 625.011 301.198 629.774 297.66 635.4C296.52 635.453 295.381 635.522 294.242 635.574C292.378 635.66 290.497 635.729 288.581 635.815C286.665 635.885 284.732 635.954 282.764 636.023C281.435 636.074 280.089 636.107 278.743 636.161C275.55 636.247 272.322 636.332 269.042 636.385C268.646 636.401 268.249 636.42 267.852 636.42C267.109 636.437 266.367 636.454 265.625 636.454C267.541 633.554 269.905 629.928 272.132 626.495C273.651 624.111 275.101 621.835 276.274 619.902C276.723 619.177 277.137 618.486 277.5 617.882C279.778 614.032 282.643 611.512 285.509 609.856H285.526C291.808 606.249 298.074 606.851 298.074 606.851C299.403 607.714 300.697 608.94 301.698 610.58C303.252 613.084 304.132 616.552 303.511 621.041Z" fill="black"/>
<mask id="mask43_1507_1520" style="mask-type:luminance" maskUnits="userSpaceOnUse" x="265" y="606" width="39" height="31">
<path d="M265.625 606.815H303.713V636.454H265.625V606.815Z" fill="white"/>
</mask>
<g mask="url(#mask43_1507_1520)">
<g opacity="0.699997">
<path d="M303.511 621.041C302.958 625.011 301.198 629.774 297.66 635.4C296.52 635.453 295.381 635.522 294.242 635.574C292.378 635.66 290.497 635.729 288.581 635.815C286.665 635.885 284.732 635.954 282.764 636.023C281.435 636.074 280.089 636.107 278.743 636.161C275.55 636.247 272.322 636.332 269.042 636.385C268.646 636.401 268.249 636.42 267.852 636.42C267.109 636.437 266.367 636.454 265.625 636.454C267.541 633.554 269.905 629.928 272.132 626.495C273.651 624.111 275.101 621.835 276.274 619.902C276.723 619.177 277.137 618.486 277.5 617.882C279.778 614.032 282.643 611.512 285.509 609.856H285.526C291.808 606.249 298.074 606.851 298.074 606.851C299.403 607.714 300.697 608.94 301.698 610.58C303.252 613.084 304.132 616.552 303.511 621.041Z" fill="white"/>
</g>
</g>
<path d="M274.259 453.434H348.431C356.911 453.434 363.784 460.307 363.784 468.787V494.813C363.784 503.293 356.911 510.166 348.431 510.166H299.141L276.612 534.286L288.815 510.166H274.259C265.779 510.166 258.906 503.293 258.906 494.813V468.787C258.906 460.307 265.779 453.434 274.259 453.434Z" fill="#FCEAE4"/>
<mask id="mask44_1507_1520" style="mask-type:luminance" maskUnits="userSpaceOnUse" x="258" y="453" width="106" height="82">
<path d="M258.91 453.433H363.787V534.285H258.91V453.433Z" fill="white"/>
</mask>
<g mask="url(#mask44_1507_1520)">
<path d="M274.263 453.433H348.435C356.915 453.433 363.787 460.306 363.787 468.786V494.812C363.787 503.292 356.915 510.165 348.435 510.165H299.145L276.616 534.285L288.819 510.165H274.263C265.783 510.165 258.91 503.292 258.91 494.812V468.786C258.91 460.306 265.783 453.433 274.263 453.433Z" fill="#FD5A1E"/>
</g>
<path d="M293.112 480.373C293.112 476.707 290.37 474.012 286.705 474.012C282.991 474.012 280.248 476.707 280.248 480.373C280.248 484.038 282.991 486.735 286.705 486.735C290.37 486.735 293.112 484.038 293.112 480.373ZM277.883 480.373C277.883 475.525 281.619 471.907 286.705 471.907C291.741 471.907 295.478 475.501 295.478 480.373C295.478 485.246 291.741 488.839 286.705 488.839C281.619 488.839 277.883 485.222 277.883 480.373Z" fill="#FCEAE4"/>
<path d="M308.342 482.382C308.342 479.71 306.545 477.985 304.133 477.985C301.722 477.985 299.9 479.71 299.9 482.382C299.9 485.055 301.722 486.805 304.133 486.805C306.545 486.805 308.342 485.055 308.342 482.382ZM297.605 482.382C297.605 478.648 300.372 475.997 304.133 475.997C307.892 475.997 310.636 478.648 310.636 482.382C310.636 486.119 307.892 488.79 304.133 488.79C300.372 488.79 297.605 486.119 297.605 482.382Z" fill="#FCEAE4"/>
<path d="M324.467 482.381C324.467 479.733 322.644 477.984 320.234 477.984C317.845 477.984 316.025 479.733 316.025 482.381C316.025 485.054 317.845 486.804 320.234 486.804C322.644 486.804 324.467 485.054 324.467 482.381ZM326.759 482.381C326.759 486.238 324.088 488.789 320.423 488.789C318.647 488.789 317.087 488.105 316.046 486.757V493.237H313.777V476.116H315.954V478.102C316.971 476.704 318.576 475.996 320.423 475.996C324.088 475.996 326.759 478.551 326.759 482.381Z" fill="#FCEAE4"/>
<path d="M328.316 487.324L329.262 485.528C330.326 486.283 332.029 486.828 333.66 486.828C335.765 486.828 336.64 486.191 336.64 485.126C336.64 482.31 328.717 484.747 328.717 479.758C328.717 477.512 330.729 475.998 333.943 475.998C335.576 475.998 337.421 476.424 338.508 477.133L337.537 478.93C336.404 478.196 335.151 477.937 333.92 477.937C331.933 477.937 330.963 478.671 330.963 479.664C330.963 482.619 338.91 480.205 338.91 485.079C338.91 487.349 336.829 488.791 333.494 488.791C331.413 488.791 329.358 488.154 328.316 487.324Z" fill="#FCEAE4"/>
<path d="M341.444 472.096H344.115L343.665 483.422H341.869L341.444 472.096ZM341.23 487.277C341.23 486.426 341.893 485.763 342.791 485.763C343.665 485.763 344.304 486.426 344.304 487.277C344.304 488.106 343.665 488.79 342.791 488.79C341.893 488.79 341.23 488.106 341.23 487.277Z" fill="#FCEAE4"/>
</svg>
