<svg width="64" height="64" viewBox="0 0 64 64" fill="none" xmlns="http://www.w3.org/2000/svg">
<g clip-path="url(#clip0_1030_811)">
<path d="M13.333 45.3333C13.333 46.7478 13.8949 48.1044 14.8951 49.1046C15.8953 50.1048 17.2519 50.6667 18.6663 50.6667C20.0808 50.6667 21.4374 50.1048 22.4376 49.1046C23.4378 48.1044 23.9997 46.7478 23.9997 45.3333C23.9997 43.9188 23.4378 42.5623 22.4376 41.5621C21.4374 40.5619 20.0808 40 18.6663 40C17.2519 40 15.8953 40.5619 14.8951 41.5621C13.8949 42.5623 13.333 43.9188 13.333 45.3333Z" stroke="white" stroke-width="1.6" stroke-linecap="round" stroke-linejoin="round"/>
<path d="M40 45.3333C40 46.7478 40.5619 48.1044 41.5621 49.1046C42.5623 50.1048 43.9188 50.6667 45.3333 50.6667C46.7478 50.6667 48.1044 50.1048 49.1046 49.1046C50.1048 48.1044 50.6667 46.7478 50.6667 45.3333C50.6667 43.9188 50.1048 42.5623 49.1046 41.5621C48.1044 40.5619 46.7478 40 45.3333 40C43.9188 40 42.5623 40.5619 41.5621 41.5621C40.5619 42.5623 40 43.9188 40 45.3333Z" stroke="white" stroke-width="1.6" stroke-linecap="round" stroke-linejoin="round"/>
<path d="M13.3333 45.3333H8V29.3333M8 29.3333L13.3333 16H37.3333L48 29.3333M8 29.3333H48M48 29.3333H50.6667C52.0812 29.3333 53.4377 29.8952 54.4379 30.8954C55.4381 31.8956 56 33.2522 56 34.6667V45.3333H50.6667M40 45.3333H24M32 29.3333V16" stroke="white" stroke-width="1.6" stroke-linecap="round" stroke-linejoin="round"/>
</g>
<defs>
<clipPath id="clip0_1030_811">
<rect width="64" height="64" fill="white"/>
</clipPath>
</defs>
</svg>
