<svg width="52" height="51" viewBox="0 0 52 51" fill="none" xmlns="http://www.w3.org/2000/svg">
<g clip-path="url(#clip0_1318_54)">
<path d="M50.1044 44.6488C50.1252 44.5001 50.1356 44.3501 50.1355 44.2C50.1371 43.4491 49.8853 42.7189 49.4196 42.1238C48.9539 41.5287 48.3006 41.1023 47.562 40.9114C46.8235 40.7205 46.0414 40.7759 45.3383 41.0689C44.6352 41.3619 44.0508 41.876 43.6767 42.5306C43.1114 42.4592 42.5369 42.5269 42.0047 42.7274C41.4724 42.928 40.9991 43.2552 40.6271 43.6798V7.701L41.5425 7.65C41.7628 7.6372 41.9698 7.54202 42.121 7.38398C42.2722 7.22594 42.3563 7.01701 42.3559 6.8V4.335L44.127 4.25L44.0406 2.55L39.7627 2.7557V0.85C39.7627 0.624566 39.6716 0.408365 39.5095 0.248959C39.3474 0.0895533 39.1275 0 38.8983 0H12.9661C12.7369 0 12.517 0.0895533 12.3549 0.248959C12.1928 0.408365 12.1017 0.624566 12.1017 0.85V4.08L8.60176 4.25C8.37993 4.2607 8.17079 4.35496 8.01774 4.51322C7.86468 4.67148 7.77945 4.8816 7.77971 5.1V41.9747C7.32012 41.4503 6.7081 41.0771 6.02615 40.9053C5.34419 40.7335 4.62508 40.7715 3.96571 41.014C3.30634 41.2565 2.73841 41.6919 2.33846 42.2615C1.93851 42.8312 1.72576 43.5078 1.72888 44.2C1.72883 44.3501 1.73923 44.5001 1.76 44.6488C1.09431 45.0167 0.571529 45.5914 0.273553 46.2827C-0.0244231 46.9741 -0.0807616 47.7432 0.113363 48.4694C0.307488 49.1956 0.741109 49.838 1.3463 50.296C1.95149 50.7539 2.69406 51.0015 3.45769 51H48.4067C49.1703 51.0015 49.9129 50.7539 50.5181 50.296C51.1233 49.838 51.5569 49.1956 51.751 48.4694C51.9452 47.7432 51.8888 46.9741 51.5909 46.2827C51.2929 45.5914 50.7701 45.0167 50.1044 44.6488ZM36.7857 49.3H32.8474V43.35H34.5762V41.65H17.2882V43.35H19.017V49.3H15.0787C15.3514 48.8494 15.5131 48.3423 15.5508 47.8193C15.5885 47.2963 15.5012 46.7718 15.2959 46.2879C15.0906 45.804 14.773 45.374 14.3684 45.0324C13.9639 44.6908 13.4836 44.4471 12.9661 44.3207V39.95H38.8983V44.3207C38.3808 44.4471 37.9005 44.6908 37.496 45.0324C37.0914 45.374 36.7738 45.804 36.5685 46.2879C36.3632 46.7718 36.2759 47.2963 36.3136 47.8193C36.3513 48.3423 36.513 48.8494 36.7857 49.3ZM25.0678 43.35V45.9H23.339V47.6H25.0678V49.3H20.7458V43.35H25.0678ZM26.7966 47.6H28.5254V45.9H26.7966V43.35H31.1186V49.3H26.7966V47.6ZM25.0678 24.65V30.6H19.8814V24.65H25.0678ZM19.8814 22.95V17H25.0678V22.95H19.8814ZM38.8983 30.6H33.7118V24.65H38.8983V30.6ZM31.983 30.6H26.7966V24.65H31.983V30.6ZM25.0678 32.3V38.25H19.8814V32.3H25.0678ZM26.7966 32.3H31.983V38.25H26.7966V32.3ZM33.7118 32.3H38.8983V38.25H33.7118V32.3ZM38.8983 22.95H33.7118V17H38.8983V22.95ZM31.983 22.95H26.7966V17H31.983V22.95ZM26.7966 15.3V8.5L31.983 8.19995V15.3H26.7966ZM25.0678 15.3H19.8814V8.90205L25.0678 8.602V15.3ZM18.1526 15.3H12.9661V9.30155L18.1526 9.0015V15.3ZM12.9661 17H18.1526V22.95H12.9661V17ZM12.9661 24.65H18.1526V30.6H12.9661V24.65ZM12.9661 32.3H18.1526V38.25H12.9661V32.3ZM38.8983 15.3H33.7118V8.10135L38.8983 7.8013V15.3ZM13.8305 1.7H38.0339V2.839L13.8305 4.0001V1.7ZM40.6271 4.42V5.99845L12.0507 7.65C11.8304 7.6628 11.6235 7.75798 11.4722 7.91602C11.321 8.07406 11.2369 8.28299 11.2373 8.5V43.6789C10.7804 43.1655 10.1787 42.7972 9.50852 42.6207V5.9092L40.6271 4.42ZM3.45769 49.3C3.03934 49.3006 2.63506 49.1515 2.32024 48.8806C2.00542 48.6096 1.80155 48.2354 1.74664 47.8276C1.69173 47.4197 1.78953 47.0062 2.02181 46.6641C2.25408 46.3219 2.60498 46.0745 3.00907 45.968C3.12685 45.9366 3.23653 45.881 3.33089 45.8049C3.42526 45.7288 3.50216 45.6339 3.55654 45.5264C3.61092 45.419 3.64156 45.3014 3.64642 45.1815C3.65128 45.0616 3.63027 44.9421 3.58476 44.8307C3.49556 44.6162 3.45207 44.3859 3.457 44.1542C3.46192 43.9225 3.51515 43.6942 3.61338 43.4835C3.71162 43.2728 3.85278 43.0842 4.02812 42.9293C4.20346 42.7745 4.40926 42.6566 4.63278 42.5831C4.8563 42.5095 5.09279 42.4819 5.32761 42.5018C5.56244 42.5218 5.7906 42.5889 5.99799 42.699C6.20538 42.8091 6.38758 42.9599 6.53333 43.1421C6.67907 43.3242 6.78524 43.5339 6.84529 43.758C6.87713 43.8739 6.93358 43.9818 7.0109 44.0747C7.08823 44.1676 7.18468 44.2433 7.29392 44.2969C7.4028 44.3513 7.52233 44.3819 7.64435 44.3867C7.76637 44.3916 7.88801 44.3705 8.001 44.3249C8.22699 44.2381 8.469 44.199 8.71136 44.2099C8.95372 44.2208 9.19106 44.2817 9.40801 44.3885C9.62497 44.4952 9.81672 44.6456 9.97087 44.8299C10.125 45.0141 10.2381 45.2281 10.3029 45.458C10.3348 45.5739 10.3912 45.6818 10.4685 45.7747C10.5458 45.8676 10.6423 45.9433 10.7515 45.9969C10.8604 46.0513 10.9799 46.0819 11.102 46.0867C11.224 46.0916 11.3456 46.0705 11.4586 46.0249C11.6953 45.9304 11.9503 45.8887 12.2053 45.9026C12.4604 45.9166 12.7091 45.986 12.9336 46.1058C13.1581 46.2256 13.3529 46.3928 13.5038 46.5954C13.6547 46.7981 13.7581 47.0311 13.8066 47.2777C13.855 47.5243 13.8473 47.7784 13.7839 48.0218C13.7205 48.2651 13.6031 48.4916 13.4401 48.685C13.2771 48.8783 13.0725 49.0338 12.8411 49.1401C12.6097 49.2465 12.3572 49.3011 12.1017 49.3H3.45769ZM48.4067 49.3H39.7627C39.5072 49.3011 39.2547 49.2465 39.0233 49.1401C38.7919 49.0338 38.5873 48.8783 38.4243 48.685C38.2613 48.4916 38.1439 48.2651 38.0805 48.0218C38.0172 47.7784 38.0094 47.5243 38.0578 47.2777C38.1063 47.0311 38.2097 46.7981 38.3606 46.5954C38.5115 46.3928 38.7063 46.2256 38.9308 46.1058C39.1553 45.986 39.404 45.9166 39.6591 45.9026C39.9141 45.8887 40.1691 45.9304 40.4058 46.0249C40.5188 46.0705 40.6404 46.0916 40.7624 46.0867C40.8845 46.0819 41.004 46.0513 41.1129 45.9969C41.2221 45.9433 41.3186 45.8676 41.3959 45.7747C41.4732 45.6818 41.5297 45.5739 41.5615 45.458C41.6263 45.2281 41.7394 45.0141 41.8935 44.8299C42.0477 44.6456 42.2394 44.4952 42.4564 44.3885C42.6734 44.2817 42.9107 44.2208 43.153 44.2099C43.3954 44.199 43.6374 44.2381 43.8634 44.3249C43.9764 44.3705 44.098 44.3916 44.2201 44.3867C44.3421 44.3819 44.4616 44.3513 44.5705 44.2969C44.6797 44.2433 44.7762 44.1676 44.8535 44.0747C44.9308 43.9818 44.9873 43.8739 45.0191 43.758C45.0792 43.5339 45.1853 43.3242 45.3311 43.1421C45.4768 42.9599 45.659 42.8091 45.8664 42.699C46.0738 42.5889 46.302 42.5218 46.5368 42.5018C46.7716 42.4819 47.0081 42.5095 47.2316 42.5831C47.4552 42.6566 47.6609 42.7745 47.8363 42.9293C48.0116 43.0842 48.1528 43.2728 48.251 43.4835C48.3493 43.6942 48.4025 43.9225 48.4074 44.1542C48.4123 44.3859 48.3688 44.6162 48.2796 44.8307C48.2341 44.9421 48.2131 45.0616 48.218 45.1815C48.2229 45.3014 48.2535 45.419 48.3079 45.5264C48.3622 45.6339 48.4391 45.7288 48.5335 45.8049C48.6279 45.881 48.7376 45.9366 48.8553 45.968C49.2594 46.0745 49.6103 46.3219 49.8426 46.6641C50.0749 47.0062 50.1727 47.4197 50.1178 47.8276C50.0629 48.2354 49.859 48.6096 49.5442 48.8806C49.2293 49.1515 48.8251 49.3006 48.4067 49.3Z" fill="white"/>
<path d="M6.05302 10.2002H4.32422V28.9002H6.05302V10.2002Z" fill="white"/>
<path d="M44.0843 19.5498H42.3555V38.2498H44.0843V19.5498Z" fill="white"/>
<path d="M44.0843 16.1504H42.3555V17.8504H44.0843V16.1504Z" fill="white"/>
</g>
<defs>
<clipPath id="clip0_1318_54">
<rect width="52" height="51" fill="white"/>
</clipPath>
</defs>
</svg>
