<svg width="48" height="59" viewBox="0 0 48 59" fill="none" xmlns="http://www.w3.org/2000/svg">
<path d="M32.9563 8.15137L24.1055 11.1013L24.5719 12.5006L33.4227 9.5507L32.9563 8.15137Z" fill="white"/>
<path d="M28.7633 29.5H4.42578V30.975H28.7633V29.5Z" fill="white"/>
<path d="M28.7633 32.4502H4.42578V33.9252H28.7633V32.4502Z" fill="white"/>
<path d="M43.3113 30.2189L43.9935 29.7948C44.6849 29.3615 44.8969 28.4489 44.4636 27.7667C44.4544 27.7575 44.4452 27.739 44.436 27.7298L43.9566 27.0015C42.878 25.3883 42.878 23.2956 43.9566 21.6823L44.0949 21.4703C44.5466 20.7881 44.3622 19.8754 43.6893 19.4237C43.4496 19.2578 43.1638 19.1748 42.8688 19.1748H36.1391V12.3714L42.9425 10.2603C43.7169 10.0206 44.1594 9.1909 43.9105 8.41652C43.763 7.95558 43.4035 7.58684 42.9425 7.44855L24.2746 1.64996C23.8321 1.51168 23.3619 1.5209 22.9194 1.6684L18.9461 2.9959L19.4163 4.39715L23.3896 3.06965C23.5371 3.02355 23.6938 3.01433 23.8413 3.06043L42.5 8.8498L23.8228 14.6484C23.6846 14.6945 23.5278 14.6945 23.3896 14.6484L4.74 8.85902L9.80109 7.33793L9.37703 5.92746L4.31593 7.44855C3.53234 7.67902 3.08984 8.50871 3.32953 9.28308C3.46781 9.75324 3.83656 10.122 4.30671 10.2695L4.42656 10.3064V16.022L2.31546 19.5344L3.57843 20.2903L4.41734 18.889V21.3873H5.89234V18.889L6.73125 20.2903L7.99421 19.5344L5.90156 16.022V10.7673L11.0641 12.3714V19.5712C11.0641 19.9215 11.1471 20.2626 11.3038 20.5761L2.49062 26.2272C1.85453 26.6328 1.47656 27.3334 1.47656 28.0894V34.6623C1.47656 35.8792 2.47218 36.8748 3.68906 36.8748H5.16406V43.5123C5.16406 44.7292 6.15968 45.7248 7.37656 45.7248H32.0275C32.4424 45.7248 32.848 45.605 33.1983 45.3929L43.9382 38.6817C44.6296 38.2484 44.8416 37.3358 44.4083 36.6536C44.3807 36.6075 44.3438 36.5614 44.3069 36.5153C42.9425 34.819 42.5369 32.542 43.2283 30.477L43.3113 30.2189ZM24.3391 16.0312L34.6641 12.8231V19.562C34.6641 19.8847 34.4521 20.1704 34.1478 20.2626L24.3391 23.3325V16.0312ZM12.5391 12.8231L22.8641 16.0312V23.3325L13.0553 20.2719C12.7511 20.1797 12.5391 19.8939 12.5391 19.5712V12.8231ZM12.4193 21.6086C12.4838 21.6362 12.5483 21.6639 12.6128 21.6823L22.9378 24.9089C23.3711 25.0472 23.8321 25.0472 24.2561 24.9089L34.5811 21.6823C35.1158 21.5164 35.5768 21.1476 35.8533 20.659H42.076L32.2396 26.559H4.72156L12.4193 21.6086ZM31.1241 44.2498H7.37656C6.97093 44.2498 6.63906 43.9179 6.63906 43.5123V36.8748H31.1241C29.9349 39.1887 29.9349 41.9359 31.1241 44.2498ZM31.1425 35.3998H3.68906C3.28343 35.3998 2.95156 35.0679 2.95156 34.6623V28.0894C2.95156 28.0709 2.95156 28.0433 2.95156 28.0248H31.1333C29.9533 30.3387 29.9533 33.0859 31.1425 35.3998ZM43.1546 37.4279L32.6636 43.9825C31.3361 41.7792 31.4007 39.0136 32.8296 36.8748L32.9771 36.6536C33.0508 36.6167 33.1338 36.5798 33.2075 36.5337L41.5136 31.3436C41.191 33.51 41.781 35.7133 43.1546 37.4279ZM32.6728 35.1325C31.3453 32.9384 31.4099 30.1636 32.8388 28.034L32.9678 27.8404L41.9746 22.4383C41.3938 24.2544 41.6703 26.2364 42.7305 27.822L43.2099 28.5503L32.6728 35.1325Z" fill="white"/>
<path d="M28.7633 38.3496H8.11328V39.8246H28.7633V38.3496Z" fill="white"/>
<path d="M28.7633 41.2998H8.11328V42.7748H28.7633V41.2998Z" fill="white"/>
<path d="M14.0125 9.40352V9.58789H15.4875V9.40352C15.4875 7.87321 16.7228 6.63789 18.2531 6.63789H18.4375V5.16289H18.2531C16.7228 5.16289 15.4875 3.92758 15.4875 2.39727V2.21289H14.0125V2.39727C14.0125 3.92758 12.7772 5.16289 11.2469 5.16289H11.0625V6.63789H11.2469C12.7772 6.63789 14.0125 7.87321 14.0125 9.40352ZM14.75 4.78493C15.045 5.22743 15.4322 5.60539 15.8655 5.90039C15.4322 6.19539 15.045 6.58258 14.75 7.01586C14.455 6.57336 14.0678 6.19539 13.6345 5.90039C14.0678 5.60539 14.455 5.21821 14.75 4.78493Z" fill="white"/>
</svg>
