<svg width="50" height="63" viewBox="0 0 50 63" fill="none" xmlns="http://www.w3.org/2000/svg">
<g clip-path="url(#clip0_1318_63)">
<mask id="mask0_1318_63" style="mask-type:luminance" maskUnits="userSpaceOnUse" x="0" y="0" width="50" height="63">
<path d="M50 0H0V63H50V0Z" fill="white"/>
</mask>
<g mask="url(#mask0_1318_63)">
<path d="M24.1984 11.088H25.7984C26.4984 11.088 27.0484 11.6424 27.0484 12.348H29.0984C29.0984 10.584 27.7484 9.1224 25.9984 9.0216V7.3584H23.9984V9.0216C22.2984 9.1224 20.8984 10.584 20.8984 12.348C20.8984 14.2128 22.3984 15.6744 24.1984 15.6744H25.7984C26.4984 15.6744 27.0484 16.2288 27.0484 16.9344C27.0484 17.64 26.4984 18.1944 25.7984 18.1944H24.1984C23.4984 18.1944 22.9484 17.64 22.9484 16.9344H20.8984C20.8984 18.6984 22.2484 20.1096 23.9984 20.2608V21.924H26.0484V20.2608C27.7484 20.16 29.1484 18.6984 29.1484 16.9344C29.1484 15.0696 27.6484 13.608 25.8484 13.608H24.2484C23.5484 13.608 22.9984 13.0536 22.9984 12.348C22.9484 11.6424 23.4984 11.088 24.1984 11.088Z" fill="white"/>
<path d="M36.5492 14.6668C36.5492 8.26601 31.3492 3.02441 24.9992 3.02441C18.6492 3.02441 13.4492 8.26601 13.4492 14.6668C13.4492 21.0676 18.6492 26.2588 24.9992 26.2588C31.3492 26.2588 36.5492 21.0676 36.5492 14.6668ZM24.9992 23.9908C19.8992 23.9908 15.7492 19.8076 15.7492 14.6668C15.7492 9.52601 19.8992 5.34281 24.9992 5.34281C30.0992 5.34281 34.2492 9.52601 34.2492 14.6668C34.2492 19.8076 30.0992 23.9908 24.9992 23.9908Z" fill="white"/>
<path d="M21.3503 39.0104L20.2003 32.912C19.8503 30.9464 18.9003 29.2328 17.5003 27.872L12.5003 23.1344C12.2503 22.8824 11.9003 22.6808 11.5503 22.5296L10.4003 13.7096C10.2503 12.752 9.80029 11.8952 9.00029 11.3408C8.20029 10.7864 7.25029 10.5344 6.30029 10.736C4.90029 11.0384 3.75029 12.1472 3.50029 13.6088L1.35029 25.352C1.00029 27.368 1.45029 29.4344 2.60029 31.0976L8.25029 39.3128C8.05029 39.5144 7.90029 39.8168 7.90029 40.1192V46.1672C7.90029 46.8224 8.40029 47.3264 9.05029 47.3264H21.2503C21.9003 47.3264 22.4003 46.8224 22.4003 46.1672V40.1192C22.4503 39.5144 21.9503 39.0608 21.3503 39.0104ZM3.60029 25.7552L5.70029 13.9616C5.80029 13.4576 6.20029 13.0544 6.70029 13.004C7.05029 12.9536 7.35029 13.004 7.65029 13.2056C7.90029 13.4072 8.10029 13.7096 8.15029 14.012L9.25029 22.6808C8.95029 22.832 8.65029 23.084 8.40029 23.336C7.50029 24.344 7.40029 25.8056 8.15029 26.864L12.4003 33.2144C12.7503 33.7184 13.4503 33.8696 14.0003 33.5168C14.5003 33.164 14.6503 32.4584 14.3003 31.904L10.0503 25.5536C9.90029 25.352 9.90029 25.0496 10.1003 24.848C10.2503 24.6968 10.4003 24.6464 10.5003 24.6464C10.6003 24.6464 10.7503 24.6464 10.9003 24.7976L15.9003 29.5352C16.9503 30.5432 17.7003 31.8536 17.9503 33.3152L19.0003 39.0104H10.8003L4.50029 29.8376C3.70029 28.628 3.35029 27.1664 3.60029 25.7552ZM20.1503 45.0583H10.2503V41.2784H20.1503V45.0583Z" fill="white"/>
<path d="M48.6 25.3515L46.5 13.6083C46.25 12.1467 45.1 11.0379 43.7 10.7859C42.75 10.6347 41.8 10.8363 41 11.3907C40.2 11.9451 39.7 12.8019 39.6 13.7595L38.45 22.5291C38.1 22.6803 37.8 22.8819 37.5 23.1339L32.5 27.8715C31.1 29.1819 30.15 30.9963 29.75 32.8611L28.6 39.0099C28 39.0603 27.5 39.5139 27.5 40.1691V46.2171C27.5 46.8723 28 47.3763 28.65 47.3763H40.85C41.5 47.3763 42 46.8723 42 46.2171V40.1691C42 39.8667 41.85 39.5643 41.65 39.3627L47.3 31.1475C48.55 29.4339 49 27.3675 48.6 25.3515ZM39.75 45.0579H29.85V41.2779H39.75V45.0579ZM45.5 29.8371L39.2 39.0099H31L32.05 33.3147C32.3 31.9035 33.05 30.5427 34.1 29.5347L39.1 24.7971C39.25 24.6459 39.4 24.6459 39.5 24.6459C39.6 24.6459 39.75 24.6963 39.9 24.8475C40.1 25.0491 40.1 25.3515 39.95 25.5531L35.7 31.9035C35.35 32.4075 35.5 33.1635 36 33.5163C36.5 33.8691 37.25 33.7179 37.6 33.2139L41.85 26.8635C42.6 25.7547 42.5 24.2931 41.6 23.3355C41.35 23.0835 41.05 22.8315 40.75 22.6803L41.9 14.0619C41.95 13.7091 42.1 13.4571 42.4 13.2555C42.65 13.0539 43 13.0035 43.3 13.0539C43.8 13.1547 44.2 13.5579 44.3 14.0115L46.4 25.8051C46.65 27.2163 46.35 28.6275 45.5 29.8371Z" fill="white"/>
</g>
</g>
<defs>
<clipPath id="clip0_1318_63">
<rect width="50" height="63" fill="white"/>
</clipPath>
</defs>
</svg>
