<svg width="52" height="53" viewBox="0 0 52 53" fill="none" xmlns="http://www.w3.org/2000/svg">
<g clip-path="url(#clip0_1318_22)">
<path fill-rule="evenodd" clip-rule="evenodd" d="M36.7794 20.762C39.0326 20.762 39.5309 23.2275 39.6413 24.8532H33.5407C33.7894 22.5313 34.8508 20.762 36.7794 20.762ZM42.7023 25.9729C43.2265 25.9729 43.6523 25.5514 43.6526 25.0652C43.6528 22.8856 40.4961 19.7976 36.5814 19.7976C32.4981 19.7976 29.1882 23.0226 29.1882 27.0011C29.1882 30.9799 32.4981 34.2049 36.5814 34.2049C39.8568 34.2049 42.6325 32.1295 43.6039 29.2551H42.7077C42.0201 30.5356 40.8267 31.8767 38.842 31.8767C35.3928 31.8767 33.465 29.5265 33.4814 25.9734L42.7023 25.9729ZM29.0348 20.0385H24.9986V20.697H25.1595C26.9379 20.697 28.1454 22.5052 27.4636 24.148L25.5826 28.6786L22.6259 21.7306C22.4173 21.2408 22.7769 20.697 23.3094 20.697H23.3211V20.0385H16.0364V20.697H16.1339C16.7332 20.697 17.2742 21.0549 17.509 21.6061L18.5574 24.0699L16.645 28.6786L13.6882 21.7306C13.4796 21.2408 13.8392 20.6971 14.3714 20.6971H14.3834V20.0385H7.09887V20.6971H7.19637C7.79561 20.6971 8.33665 21.0549 8.5714 21.6061L13.5129 33.2175C13.6142 33.4555 13.7834 33.6584 13.9993 33.8008C14.2152 33.9433 14.4683 34.019 14.727 34.0185C14.9868 34.0181 15.2407 33.9408 15.4567 33.7964C15.6727 33.6519 15.8411 33.4468 15.9407 33.2068L19.1527 25.4685L22.4508 33.2175C22.552 33.4555 22.7211 33.6584 22.9369 33.8009C23.1528 33.9433 23.4059 34.019 23.6645 34.0185C23.9244 34.0182 24.1783 33.9409 24.3944 33.7965C24.6104 33.652 24.7788 33.4468 24.8783 33.2068L29.8426 21.2484C30.0815 20.6727 29.6582 20.0385 29.0348 20.0385ZM42.779 43.279C38.297 47.7608 32.3384 50.2292 25.9999 50.2292C19.6619 50.2292 13.703 47.7608 9.22096 43.279C4.73924 38.797 2.27079 32.8382 2.27079 26.5001C2.27079 20.1616 4.73924 14.2027 9.22096 9.72096C13.703 5.23924 19.6618 2.77079 25.9999 2.77079C32.3384 2.77079 38.297 5.23924 42.779 9.72096C47.261 14.2027 49.729 20.1616 49.729 26.5001C49.729 32.8381 47.261 38.797 42.779 43.279ZM49.9564 16.3792C48.6466 13.283 46.7722 10.5026 44.3847 8.11503C41.9974 5.72773 39.217 3.85313 36.1208 2.5436C32.9146 1.18758 29.5096 0.5 25.9999 0.5C22.4906 0.5 19.0854 1.18764 15.8793 2.5436C12.7833 3.8532 10.0026 5.7278 7.61509 8.11509C5.2278 10.5026 3.3532 13.283 2.04366 16.3793C0.687576 19.5854 0 22.9906 0 26.5001C0 30.0094 0.687638 33.4146 2.0436 36.6208C3.3532 39.717 5.2278 42.4974 7.61509 44.8847C10.0026 47.2722 12.7833 49.1468 15.8793 50.4564C19.0854 51.8124 22.4906 52.5 25.9999 52.5C29.5096 52.5 32.9146 51.8124 36.1208 50.4564C39.217 49.1468 41.9974 47.2722 44.3847 44.8847C46.7722 42.4974 48.6466 39.717 49.9564 36.6208C51.3124 33.4146 52 30.0094 52 26.5001C52 22.9906 51.3124 19.5853 49.9564 16.3792Z" fill="white"/>
</g>
<defs>
<clipPath id="clip0_1318_22">
<rect width="52" height="52" fill="white" transform="translate(0 0.5)"/>
</clipPath>
</defs>
</svg>
