<svg width="49" height="49" viewBox="0 0 49 49" fill="none" xmlns="http://www.w3.org/2000/svg">
<g clip-path="url(#clip0_1318_28)">
<path d="M14.5469 26.0312H13.7812C13.3584 26.0312 13.0156 26.3741 13.0156 26.7969C13.0156 27.2197 13.3584 27.5625 13.7812 27.5625H14.5469C14.9697 27.5625 15.3125 27.2197 15.3125 26.7969C15.3125 26.3741 14.9697 26.0312 14.5469 26.0312Z" fill="white"/>
<path d="M16.0781 23.7344C15.6553 23.7344 15.3125 24.0772 15.3125 24.5V25.2657C15.3125 25.6885 15.6553 26.0313 16.0781 26.0313C16.5009 26.0313 16.8437 25.6885 16.8437 25.2657V24.5C16.8437 24.0772 16.5009 23.7344 16.0781 23.7344Z" fill="white"/>
<path d="M17.6094 27.5625H18.375C18.7978 27.5625 19.1406 27.2197 19.1406 26.7969C19.1406 26.3741 18.7978 26.0312 18.375 26.0312H17.6094C17.1866 26.0312 16.8438 26.3741 16.8438 26.7969C16.8438 27.2197 17.1866 27.5625 17.6094 27.5625Z" fill="white"/>
<path d="M15.3125 29.0938C15.3125 29.5166 15.6553 29.8594 16.0781 29.8594C16.5009 29.8594 16.8437 29.5166 16.8437 29.0938V28.3282C16.8437 27.9054 16.5009 27.5625 16.0781 27.5625C15.6553 27.5625 15.3125 27.9054 15.3125 28.3282V29.0938Z" fill="white"/>
<path d="M31.3906 3.0625H30.625C30.2022 3.0625 29.8594 3.40531 29.8594 3.82812C29.8594 4.25093 30.2022 4.59374 30.625 4.59374H31.3906C31.8134 4.59374 32.1562 4.25093 32.1562 3.82812C32.1562 3.40531 31.8134 3.0625 31.3906 3.0625Z" fill="white"/>
<path d="M32.922 0.765625C32.4992 0.765625 32.1562 1.10843 32.1562 1.53124V2.29687C32.1562 2.71968 32.4992 3.06249 32.922 3.06249C33.3448 3.06249 33.6875 2.71968 33.6875 2.29687V1.53124C33.6875 1.10843 33.3448 0.765625 32.922 0.765625Z" fill="white"/>
<path d="M34.4531 4.59374H35.2187C35.6416 4.59374 35.9844 4.25093 35.9844 3.82812C35.9844 3.40531 35.6416 3.0625 35.2187 3.0625H34.4531C34.0303 3.0625 33.6875 3.40531 33.6875 3.82812C33.6875 4.25093 34.0303 4.59374 34.4531 4.59374Z" fill="white"/>
<path d="M32.1562 6.12499C32.1562 6.5478 32.4992 6.89061 32.922 6.89061C33.3448 6.89061 33.6875 6.5478 33.6875 6.12499V5.35937C33.6875 4.93656 33.3448 4.59375 32.922 4.59375C32.4992 4.59375 32.1562 4.93656 32.1562 5.35937V6.12499Z" fill="white"/>
<path d="M40.5781 39.0469H39.8125C39.3897 39.0469 39.0469 39.3897 39.0469 39.8125C39.0469 40.2354 39.3897 40.5782 39.8125 40.5782H40.5781C41.0009 40.5782 41.3437 40.2354 41.3437 39.8125C41.3437 39.3897 41.0009 39.0469 40.5781 39.0469Z" fill="white"/>
<path d="M42.1094 36.75C41.6866 36.75 41.3438 37.0929 41.3438 37.5157V38.2813C41.3438 38.7041 41.6866 39.0469 42.1094 39.0469C42.5322 39.0469 42.875 38.7041 42.875 38.2813V37.5157C42.875 37.0929 42.5322 36.75 42.1094 36.75Z" fill="white"/>
<path d="M43.6406 40.5782H44.4062C44.8291 40.5782 45.1719 40.2354 45.1719 39.8125C45.1719 39.3897 44.8291 39.0469 44.4062 39.0469H43.6406C43.2178 39.0469 42.875 39.3897 42.875 39.8125C42.875 40.2354 43.2178 40.5782 43.6406 40.5782Z" fill="white"/>
<path d="M41.3438 42.1093C41.3438 42.5321 41.6866 42.8749 42.1094 42.8749C42.5322 42.8749 42.875 42.5321 42.875 42.1093V41.3437C42.875 40.9209 42.5322 40.5781 42.1094 40.5781C41.6866 40.5781 41.3438 40.9209 41.3438 41.3437V42.1093Z" fill="white"/>
<path d="M1.53125 17.6094H0.765623C0.342811 17.6094 0 17.9523 0 18.3751C0 18.7979 0.342811 19.1407 0.765623 19.1407H1.53125C1.95406 19.1407 2.29687 18.7979 2.29687 18.3751C2.29687 17.9523 1.95406 17.6094 1.53125 17.6094Z" fill="white"/>
<path d="M3.06249 15.3125C2.63969 15.3125 2.29688 15.6553 2.29688 16.0781V16.8437C2.29688 17.2665 2.63969 17.6093 3.06249 17.6093C3.4853 17.6093 3.82811 17.2665 3.82811 16.8437V16.0781C3.82811 15.6553 3.4853 15.3125 3.06249 15.3125Z" fill="white"/>
<path d="M4.59376 19.1407H5.35938C5.78219 19.1407 6.12499 18.7979 6.12499 18.3751C6.12499 17.9523 5.78219 17.6094 5.35938 17.6094H4.59376C4.17095 17.6094 3.82812 17.9523 3.82812 18.3751C3.82812 18.7979 4.17095 19.1407 4.59376 19.1407Z" fill="white"/>
<path d="M2.29688 20.6718C2.29688 21.0946 2.63969 21.4375 3.06249 21.4375C3.4853 21.4375 3.82811 21.0946 3.82811 20.6718V19.9062C3.82811 19.4834 3.4853 19.1406 3.06249 19.1406C2.63969 19.1406 2.29688 19.4834 2.29688 19.9062V20.6718Z" fill="white"/>
<path d="M0.763887 37.5159H0.765383C0.80529 37.5159 1.20511 37.5115 1.89321 37.4719L10.1009 48.687C10.2459 48.8847 10.4762 49.0002 10.7189 49.0002C10.7428 49.0002 10.7671 48.9991 10.7914 48.9969C11.0602 48.9711 11.2953 48.8062 11.4108 48.5621L17.8872 34.8811L30.1604 44.2495C30.3802 44.4177 30.6744 44.4536 30.929 44.3437C31.1832 44.2338 31.3581 43.9949 31.3866 43.7194L32.9563 28.4645L47.1424 35.1461C47.3891 35.2624 47.6777 35.2385 47.902 35.0848C48.1263 34.9308 48.2519 34.6695 48.2325 34.3981L47.0082 17.5221C47.5973 16.9803 48.1855 16.4316 48.7697 15.8601C48.9884 15.6463 49.0587 15.3229 48.9488 15.0377C48.8389 14.7521 48.5697 14.5595 48.2643 14.548C23.7195 13.5924 1.38483 0.245618 1.16203 0.111036C0.800898 -0.108782 0.329486 0.00823024 0.11079 0.369733C-0.10828 0.731609 0.00761095 1.20227 0.369487 1.42097C0.386684 1.43134 0.548089 1.52723 0.815711 1.68125L1.53362 10.7793C1.55456 11.041 1.70746 11.2739 1.93961 11.3961C2.17214 11.5184 2.45065 11.5135 2.67794 11.383L10.1884 7.07342L11.4938 15.431C11.5316 15.674 11.6837 15.8837 11.9028 15.9951C12.1222 16.1069 12.3813 16.1057 12.6 15.994L21.586 11.3752L23.7572 20.0916C23.8182 20.3372 23.9972 20.5369 24.2346 20.6247C24.472 20.7126 24.7378 20.6774 24.9442 20.5301L33.2401 14.6242L36.0289 22.4603C36.1152 22.7033 36.3182 22.8861 36.5687 22.9474C36.6289 22.962 36.6895 22.9691 36.75 22.9691C36.9418 22.9691 37.1287 22.8969 37.2723 22.7635L44.6805 15.8526C45.2596 15.902 45.8389 15.9507 46.4212 15.9872C25.2477 35.7701 1.05959 35.9846 0.768 35.9846H0.766131C0.344066 35.9846 0.00125565 36.3263 0.000134167 36.7488C-0.00061354 37.1716 0.341075 37.5148 0.763887 37.5159ZM2.42243 2.57482C3.93194 3.39199 6.22568 4.57552 9.13663 5.91157L2.96505 9.45291L2.42243 2.57482ZM11.7376 7.07043C14.2421 8.15349 17.0847 9.28627 20.1873 10.3727L12.843 14.1472L11.7376 7.07043ZM23.1641 11.3753C25.8916 12.2511 28.7878 13.0665 31.7994 13.7702L24.9715 18.631L23.1641 11.3753ZM37.0805 20.8483L34.7936 14.4224C37.3499 14.9375 39.9768 15.3571 42.6497 15.6527L37.0805 20.8483ZM10.5772 46.7445L3.68722 37.3297C6.39699 37.0661 10.8161 36.421 16.2022 34.8617L10.5772 46.7445ZM30.0034 42.2031L19.1712 33.9348C22.957 32.6715 27.1032 30.9597 31.3986 28.6455L30.0034 42.2031ZM46.6104 33.2029L33.924 27.2275C37.7764 24.9607 41.7064 22.1841 45.566 18.8081L46.6104 33.2029Z" fill="white"/>
<path d="M29.8594 23.3515C29.8594 22.2962 29.0007 21.4375 27.9453 21.4375C26.89 21.4375 26.0312 22.2962 26.0312 23.3515C26.0312 24.4069 26.89 25.2656 27.9453 25.2656C29.0007 25.2656 29.8594 24.4069 29.8594 23.3515ZM27.5625 23.3515C27.5625 23.1403 27.7341 22.9687 27.9453 22.9687C28.1565 22.9687 28.3281 23.1403 28.3281 23.3515C28.3281 23.5627 28.1565 23.7343 27.9453 23.7343C27.7341 23.7343 27.5625 23.5627 27.5625 23.3515Z" fill="white"/>
<path d="M22.2031 3.06249C22.2031 1.79592 21.1728 0.765625 19.9062 0.765625C18.6397 0.765625 17.6094 1.79592 17.6094 3.06249C17.6094 4.32906 18.6397 5.35936 19.9062 5.35936C21.1728 5.35936 22.2031 4.32906 22.2031 3.06249ZM19.1406 3.06249C19.1406 2.64043 19.4842 2.29687 19.9062 2.29687C20.3283 2.29687 20.6719 2.64043 20.6719 3.06249C20.6719 3.48455 20.3283 3.82811 19.9062 3.82811C19.4842 3.82811 19.1406 3.48455 19.1406 3.06249Z" fill="white"/>
<path d="M22.9687 42.8749C22.9687 41.6084 21.9384 40.5781 20.6719 40.5781C19.4053 40.5781 18.375 41.6084 18.375 42.8749C18.375 44.1415 19.4053 45.1718 20.6719 45.1718C21.9384 45.1718 22.9687 44.1415 22.9687 42.8749ZM19.9062 42.8749C19.9062 42.4529 20.2498 42.1093 20.6719 42.1093C21.0939 42.1093 21.4375 42.4529 21.4375 42.8749C21.4375 43.297 21.0939 43.6406 20.6719 43.6406C20.2498 43.6406 19.9062 43.297 19.9062 42.8749Z" fill="white"/>
</g>
<defs>
<clipPath id="clip0_1318_28">
<rect width="49" height="49" fill="white"/>
</clipPath>
</defs>
</svg>
