<svg width="36" height="37" viewBox="0 0 36 37" fill="none" xmlns="http://www.w3.org/2000/svg">
<g clip-path="url(#clip0_1311_348)">
<path d="M7.5 6.5H13.5L16.5 14L12.75 16.25C14.3564 19.5073 16.9927 22.1436 20.25 23.75L22.5 20L30 23V29C30 29.7957 29.6839 30.5587 29.1213 31.1213C28.5587 31.6839 27.7957 32 27 32C21.1489 31.6444 15.6302 29.1597 11.4852 25.0148C7.34026 20.8698 4.85557 15.3511 4.5 9.5C4.5 8.70435 4.81607 7.94129 5.37868 7.37868C5.94129 6.81607 6.70435 6.5 7.5 6.5Z" stroke="white" stroke-width="2" stroke-linecap="round" stroke-linejoin="round"/>
</g>
<defs>
<clipPath id="clip0_1311_348">
<rect width="36" height="36" fill="white" transform="translate(0 0.5)"/>
</clipPath>
</defs>
</svg>
