<svg width="74" height="71" viewBox="0 0 74 71" fill="none" xmlns="http://www.w3.org/2000/svg">
<g clip-path="url(#clip0_646_3998)">
<path d="M27.5195 0.580078L73.5595 11.1201V49.9201L27.5195 38.1701V0.580078Z" fill="#E8E8E8"/>
<path d="M27.5195 0.580078L73.5595 11.1201V49.9201L27.5195 38.1701V0.580078Z" fill="#FD5A1E"/>
<path fill-rule="evenodd" clip-rule="evenodd" d="M1.71953 41.3994L21.3795 46.1494V62.6494L1.51953 57.7594L1.71953 41.3994Z" fill="#E8E8E8"/>
<path fill-rule="evenodd" clip-rule="evenodd" d="M72.3396 11.3098L28.0696 1.36978V2.94978C28.0513 3.08669 27.984 3.21232 27.8801 3.3033C27.7761 3.39429 27.6427 3.44444 27.5046 3.44444C27.3665 3.44444 27.233 3.39429 27.1291 3.3033C27.0252 3.21232 26.9578 3.08669 26.9396 2.94978V1.77978L2.13958 20.2498L46.8596 31.3498L72.3396 11.3098ZM34.4496 36.2398C34.4996 36.3198 34.5196 36.4098 34.5196 36.4998V54.1298C34.5196 54.1798 34.5196 54.2298 34.4996 54.2798L34.4796 54.3598C34.4319 54.479 34.3523 54.5828 34.2496 54.6598L23.1096 63.0698L46.3796 68.8398V43.6398L46.2496 43.6298L44.0196 43.0698H44.0096C43.8723 43.0238 43.7576 42.9274 43.6889 42.8C43.6201 42.6727 43.6024 42.5239 43.6393 42.3839C43.6762 42.2439 43.7649 42.1233 43.8876 42.0463C44.0102 41.9694 44.1575 41.9421 44.2996 41.9698L46.3796 42.4998V32.3998L1.72958 21.3098V39.5098L12.7296 31.0098C12.8096 30.9598 12.8996 30.9098 12.9996 30.8998C13.0996 30.8798 13.1796 30.8798 13.2796 30.8998L33.9996 35.8698C34.1296 35.8998 34.2396 35.9698 34.3296 36.0698C34.3796 36.1098 34.4296 36.1698 34.4496 36.2398ZM1.16958 58.7898C0.849576 58.6998 0.689576 58.5198 0.659576 58.3298C0.615445 58.2501 0.591417 58.1608 0.589576 58.0698V58.0498C0.569437 57.9919 0.559292 57.931 0.559576 57.8698V40.7698C0.559576 40.6798 0.569576 40.6098 0.589576 40.5398V20.4698C0.57887 20.3508 0.595988 20.231 0.639576 20.1198C0.69584 19.9806 0.789234 19.8595 0.909576 19.7698L27.0696 0.279775C27.1636 0.211487 27.2713 0.164484 27.3852 0.142035C27.4992 0.119585 27.6167 0.122226 27.7296 0.149775L73.2696 10.3698C73.3978 10.3977 73.5171 10.4571 73.6166 10.5426C73.7161 10.6282 73.7927 10.7372 73.8396 10.8598C73.8696 10.9298 73.8896 11.0098 73.8896 11.0998V49.9698C73.872 50.0701 73.8346 50.166 73.7797 50.2519C73.7248 50.3377 73.6533 50.4118 73.5696 50.4698L47.4196 69.9698C47.3241 70.0389 47.2147 70.0863 47.0989 70.1088C46.9832 70.1312 46.864 70.1282 46.7496 70.0998L1.19958 58.7998H1.16958V58.7898ZM1.72958 57.7598L1.78958 57.7898L21.3896 62.6498V46.4398L13.7096 44.5298V45.3498C13.6913 45.4867 13.624 45.6123 13.5201 45.7033C13.4161 45.7943 13.2827 45.8444 13.1446 45.8444C13.0065 45.8444 12.873 45.7943 12.7691 45.7033C12.6652 45.6123 12.5978 45.4867 12.5796 45.3498V44.2498L1.72958 41.5498V57.7598ZM22.5296 62.0998L32.6996 54.3998L32.5996 54.3798C32.4623 54.3338 32.3476 54.2374 32.2789 54.11C32.2101 53.9827 32.1924 53.8339 32.2293 53.6939C32.2662 53.5539 32.3549 53.4333 32.4776 53.3563C32.6002 53.2794 32.7475 53.2521 32.8896 53.2798L33.3896 53.4098V37.7498L22.5196 46.2998V50.6998H22.6196L24.6796 51.2198C24.8134 51.2674 24.9245 51.3633 24.9913 51.4886C25.0581 51.614 25.0757 51.7597 25.0407 51.8973C25.0056 52.035 24.9205 52.1545 24.8019 52.2327C24.6833 52.3108 24.5399 52.3419 24.3996 52.3198L22.5196 51.8398V62.0998H22.5296ZM4.02958 54.9798C3.95784 55.0191 3.89543 55.0735 3.84657 55.1391C3.79771 55.2047 3.76355 55.2801 3.74642 55.3601C3.72928 55.4401 3.72958 55.5229 3.74728 55.6028C3.76498 55.6827 3.79967 55.7578 3.849 55.8231C3.89832 55.8884 3.96113 55.9423 4.03314 55.9811C4.10515 56.02 4.18468 56.0429 4.26633 56.0483C4.34797 56.0536 4.42982 56.0414 4.5063 56.0123C4.58279 55.9832 4.65211 55.938 4.70958 55.8798L6.26958 54.7198C6.34131 54.6804 6.40373 54.6261 6.45259 54.5604C6.50145 54.4948 6.5356 54.4194 6.55274 54.3394C6.56987 54.2594 6.56957 54.1766 6.55187 54.0968C6.53417 54.0169 6.49948 53.9417 6.45015 53.8764C6.40083 53.8112 6.33803 53.7573 6.26602 53.7184C6.194 53.6796 6.11447 53.6567 6.03283 53.6513C5.95118 53.6459 5.86933 53.6582 5.79285 53.6873C5.71637 53.7163 5.64704 53.7615 5.58958 53.8198L4.02958 54.9798ZM7.92958 52.0698C7.85784 52.1091 7.79543 52.1635 7.74657 52.2291C7.69771 52.2947 7.66355 52.3701 7.64642 52.4501C7.62928 52.5301 7.62958 52.6129 7.64728 52.6928C7.66498 52.7727 7.69967 52.8478 7.749 52.9131C7.79832 52.9784 7.86113 53.0323 7.93314 53.0711C8.00515 53.11 8.08468 53.1329 8.16633 53.1383C8.24797 53.1436 8.32982 53.1314 8.4063 53.1023C8.48279 53.0732 8.55211 53.028 8.60958 52.9698L10.1696 51.7998C10.2442 51.7626 10.3098 51.7095 10.3617 51.6442C10.4136 51.5789 10.4505 51.5031 10.4699 51.4219C10.4893 51.3408 10.4906 51.2564 10.4738 51.1748C10.457 51.0931 10.4225 51.0161 10.3727 50.9492C10.3229 50.8823 10.259 50.8271 10.1856 50.7876C10.1122 50.7481 10.0309 50.7252 9.94768 50.7205C9.86442 50.7157 9.78114 50.7294 9.70371 50.7603C9.62629 50.7913 9.5566 50.8389 9.49958 50.8998L7.93958 52.0698H7.92958ZM11.8396 49.1498C11.7678 49.1891 11.7054 49.2435 11.6566 49.3091C11.6077 49.3747 11.5735 49.4501 11.5564 49.5301C11.5393 49.6101 11.5396 49.6929 11.5573 49.7728C11.575 49.8527 11.6097 49.9278 11.659 49.9931C11.7083 50.0584 11.7711 50.1123 11.8431 50.1511C11.9151 50.19 11.9947 50.2129 12.0763 50.2183C12.158 50.2236 12.2398 50.2114 12.3163 50.1823C12.3928 50.1532 12.4621 50.108 12.5196 50.0498L13.2496 49.5098L14.1396 49.7298C14.2799 49.7519 14.4233 49.7208 14.5419 49.6427C14.6605 49.5645 14.7457 49.445 14.7807 49.3073C14.8157 49.1697 14.7981 49.024 14.7313 48.8986C14.6645 48.7733 14.5534 48.6774 14.4196 48.6298H14.4096L13.6096 48.4298C13.5482 48.3454 13.4649 48.2796 13.3688 48.2393C13.2726 48.199 13.1672 48.1859 13.0641 48.2014C12.9609 48.2168 12.864 48.2603 12.7839 48.327C12.7038 48.3937 12.6435 48.4812 12.6096 48.5798C12.3496 48.7598 12.0896 48.9598 11.8396 49.1498ZM17.4896 49.4098C17.3475 49.3821 17.2002 49.4094 17.0776 49.4863C16.9549 49.5633 16.8662 49.6839 16.8293 49.8239C16.7924 49.9639 16.8101 50.1127 16.8789 50.24C16.9476 50.3674 17.0623 50.4638 17.1996 50.5098H17.2096L19.2696 51.0298C19.4099 51.0519 19.5533 51.0208 19.6719 50.9427C19.7905 50.8645 19.8757 50.745 19.9107 50.6073C19.9457 50.4697 19.9281 50.324 19.8613 50.1986C19.7945 50.0733 19.6834 49.9774 19.5496 49.9298H19.5396L17.4896 49.4098ZM27.7596 51.9998C27.6175 51.9721 27.4702 51.9994 27.3476 52.0763C27.2249 52.1533 27.1362 52.2739 27.0993 52.4139C27.0624 52.5539 27.0801 52.7027 27.1489 52.83C27.2176 52.9574 27.3323 53.0538 27.4696 53.0998H27.4796L29.5396 53.6198C29.6799 53.6419 29.8233 53.6108 29.9419 53.5327C30.0605 53.4545 30.1456 53.335 30.1807 53.1973C30.2157 53.0597 30.1981 52.914 30.1313 52.7886C30.0645 52.6633 29.9534 52.5674 29.8196 52.5198L27.7596 51.9998ZM32.8096 36.7698L13.6796 32.1698V34.0398C13.6613 34.1767 13.594 34.3023 13.4901 34.3933C13.3861 34.4843 13.2527 34.5344 13.1146 34.5344C12.9765 34.5344 12.843 34.4843 12.7391 34.3933C12.6352 34.3023 12.5678 34.1767 12.5496 34.0398V32.5898L2.28958 40.5298L12.5796 43.0798C12.5796 42.8298 12.7396 42.6198 12.9796 42.5498C13.3396 42.4398 13.7096 42.7098 13.7096 43.0898V43.3698L21.8496 45.3898L32.8096 36.7598V36.7698ZM12.5696 39.6998C12.5878 39.8367 12.6552 39.9623 12.7591 40.0533C12.863 40.1443 12.9965 40.1944 13.1346 40.1944C13.2727 40.1944 13.4061 40.1443 13.51 40.0533C13.614 39.9623 13.6813 39.8367 13.6996 39.6998V37.4298C13.6996 37.2786 13.6395 37.1336 13.5326 37.0267C13.4257 36.9198 13.2808 36.8598 13.1296 36.8598C12.9784 36.8598 12.8334 36.9198 12.7265 37.0267C12.6196 37.1336 12.5596 37.2786 12.5596 37.4298V39.6998H12.5696ZM38.7296 40.5698C38.5875 40.5421 38.4402 40.5694 38.3176 40.6463C38.1949 40.7233 38.1062 40.8439 38.0693 40.9839C38.0324 41.1239 38.0501 41.2727 38.1189 41.4C38.1876 41.5274 38.3023 41.6238 38.4396 41.6698H38.4596L40.6796 42.2298C40.8217 42.2575 40.969 42.2301 41.0916 42.1532C41.2142 42.0763 41.303 41.9556 41.3399 41.8156C41.3768 41.6757 41.3591 41.5269 41.2903 41.3995C41.2215 41.2721 41.1069 41.1757 40.9696 41.1298H40.9596L38.7296 40.5698ZM49.8596 43.3698C49.7193 43.3477 49.5758 43.3787 49.4572 43.4569C49.3386 43.535 49.2535 43.6546 49.2185 43.7922C49.1834 43.9298 49.201 44.0756 49.2678 44.2009C49.3346 44.3262 49.4458 44.4221 49.5796 44.4698L51.8096 45.0298C51.9517 45.0575 52.0989 45.0301 52.2216 44.9532C52.3442 44.8763 52.433 44.7556 52.4699 44.6156C52.5068 44.4757 52.4891 44.3269 52.4203 44.1995C52.3515 44.0721 52.2369 43.9757 52.0996 43.9298H52.0896L49.8596 43.3698ZM55.4296 44.7698C55.2875 44.7421 55.1402 44.7694 55.0176 44.8463C54.8949 44.9233 54.8062 45.0439 54.7693 45.1839C54.7324 45.3239 54.7501 45.4727 54.8189 45.6C54.8876 45.7274 55.0023 45.8238 55.1396 45.8698H55.1496L57.3796 46.4298C57.5199 46.4519 57.6633 46.4208 57.7819 46.3427C57.9005 46.2645 57.9857 46.145 58.0207 46.0073C58.0557 45.8697 58.0381 45.724 57.9713 45.5986C57.9045 45.4733 57.7934 45.3774 57.6596 45.3298L55.4296 44.7698ZM60.9896 46.1698C60.8493 46.1477 60.7058 46.1787 60.5872 46.2569C60.4686 46.335 60.3835 46.4546 60.3485 46.5922C60.3134 46.7298 60.331 46.8756 60.3978 47.0009C60.4646 47.1262 60.5758 47.2221 60.7096 47.2698L62.9396 47.8298C63.0816 47.8575 63.229 47.8301 63.3516 47.7532C63.4742 47.6763 63.563 47.5556 63.5999 47.4156C63.6368 47.2757 63.6191 47.1269 63.5503 46.9995C63.4815 46.8721 63.3669 46.7757 63.2296 46.7298H63.2196L60.9896 46.1698ZM66.5596 47.5698C66.4175 47.5421 66.2702 47.5694 66.1476 47.6463C66.0249 47.7233 65.9362 47.8439 65.8993 47.9839C65.8624 48.1239 65.8801 48.2727 65.9489 48.4C66.0176 48.5274 66.1323 48.6238 66.2696 48.6698H66.2796L68.5096 49.2298C68.6516 49.2575 68.799 49.2301 68.9216 49.1532C69.0442 49.0763 69.133 48.9556 69.1699 48.8156C69.2068 48.6757 69.189 48.5269 69.1203 48.3995C69.0515 48.2721 68.9369 48.1757 68.7996 48.1298H68.7796L66.5596 47.5698ZM47.4996 68.4798L72.7596 49.5998V12.4198L47.5096 32.2998V68.4998L47.4996 68.4798ZM26.9996 31.6798C26.9996 31.8309 27.0596 31.9759 27.1665 32.0828C27.2734 32.1897 27.4184 32.2498 27.5696 32.2498C27.7207 32.2498 27.8657 32.1897 27.9726 32.0828C28.0795 31.9759 28.1396 31.8309 28.1396 31.6798V29.4198C28.1396 29.2686 28.0795 29.1236 27.9726 29.0167C27.8657 28.9098 27.7207 28.8498 27.5696 28.8498C27.4184 28.8498 27.2734 28.9098 27.1665 29.0167C27.0596 29.1236 26.9996 29.2686 26.9996 29.4198V31.6798ZM26.9996 25.0498C27.0178 25.1867 27.0852 25.3123 27.1891 25.4033C27.293 25.4943 27.4265 25.5444 27.5646 25.5444C27.7027 25.5444 27.8361 25.4943 27.9401 25.4033C28.044 25.3123 28.1113 25.1867 28.1296 25.0498V22.7898C28.1296 22.6386 28.0695 22.4936 27.9626 22.3867C27.8557 22.2798 27.7107 22.2198 27.5596 22.2198C27.4084 22.2198 27.2634 22.2798 27.1565 22.3867C27.0496 22.4936 26.9896 22.6386 26.9896 22.7898V25.0498H26.9996ZM26.9496 19.7498C26.9678 19.8867 27.0352 20.0123 27.1391 20.1033C27.243 20.1943 27.3765 20.2444 27.5146 20.2444C27.6527 20.2444 27.7861 20.1943 27.89 20.1033C27.994 20.0123 28.0613 19.8867 28.0796 19.7498V17.4998C28.0796 17.3486 28.0195 17.2036 27.9126 17.0967C27.8057 16.9898 27.6607 16.9298 27.5096 16.9298C27.3584 16.9298 27.2134 16.9898 27.1065 17.0967C26.9996 17.2036 26.9396 17.3486 26.9396 17.4998L26.9496 19.7598V19.7498ZM26.9596 14.2698C26.9596 14.4209 27.0196 14.5659 27.1265 14.6728C27.2334 14.7797 27.3784 14.8398 27.5296 14.8398C27.6807 14.8398 27.8257 14.7797 27.9326 14.6728C28.0395 14.5659 28.0996 14.4209 28.0996 14.2698V11.9998C28.0996 11.8486 28.0395 11.7036 27.9326 11.5967C27.8257 11.4898 27.6807 11.4298 27.5296 11.4298C27.3784 11.4298 27.2334 11.4898 27.1265 11.5967C27.0196 11.7036 26.9596 11.8486 26.9596 11.9998V14.2598V14.2698ZM26.9496 8.60977C26.9678 8.74669 27.0352 8.87231 27.1391 8.9633C27.243 9.05429 27.3765 9.10444 27.5146 9.10444C27.6527 9.10444 27.7861 9.05429 27.89 8.9633C27.994 8.87231 28.0613 8.74669 28.0796 8.60977V6.34978C28.0796 6.1986 28.0195 6.05362 27.9126 5.94672C27.8057 5.83983 27.6607 5.77978 27.5096 5.77978C27.3584 5.77978 27.2134 5.83983 27.1065 5.94672C26.9996 6.05362 26.9396 6.1986 26.9396 6.34978L26.9496 8.60977Z" fill="black"/>
</g>
<defs>
<clipPath id="clip0_646_3998">
<rect width="74" height="71" fill="white"/>
</clipPath>
</defs>
</svg>
