<svg width="64" height="64" viewBox="0 0 64 64" fill="none" xmlns="http://www.w3.org/2000/svg">
<g clip-path="url(#clip0_1030_168)">
<path d="M52.0005 33.5258L32.0005 53.3338L12.0005 33.5258C10.6813 32.2421 9.64219 30.6992 8.9486 28.9942C8.25502 27.2892 7.92198 25.459 7.97044 23.619C8.01891 21.7789 8.44785 19.9688 9.23023 18.3027C10.0126 16.6366 11.1315 15.1505 12.5164 13.938C13.9014 12.7256 15.5224 11.813 17.2773 11.2578C19.0323 10.7025 20.8832 10.5167 22.7135 10.7119C24.5438 10.9072 26.3138 11.4793 27.9121 12.3922C29.5105 13.3052 30.9025 14.5391 32.0005 16.0165C33.1032 14.5499 34.4968 13.3267 36.0941 12.4234C37.6913 11.5202 39.4578 10.9563 41.283 10.7672C43.1081 10.578 44.9527 10.7677 46.7012 11.3242C48.4497 11.8807 50.0645 12.7921 51.4446 14.0014C52.8247 15.2107 53.9403 16.6919 54.7216 18.3522C55.5029 20.0125 55.9331 21.8162 55.9853 23.6504C56.0375 25.4846 55.7105 27.3098 55.0248 29.0118C54.3392 30.7138 53.3096 32.256 52.0005 33.5418" stroke="white" stroke-width="1.6" stroke-linecap="round" stroke-linejoin="round"/>
</g>
<defs>
<clipPath id="clip0_1030_168">
<rect width="64" height="64" fill="white"/>
</clipPath>
</defs>
</svg>
