<svg width="77" height="70" viewBox="0 0 77 70" fill="none" xmlns="http://www.w3.org/2000/svg">
<path fill-rule="evenodd" clip-rule="evenodd" d="M21 63H49V70H21V63Z" fill="#E8E8E8"/>
<path fill-rule="evenodd" clip-rule="evenodd" d="M47.9603 63.9104H20.0103C19.6103 63.9104 19.2803 63.6904 19.2803 63.4104C19.2803 63.1304 19.6003 62.9004 20.0103 62.9004H47.9603C48.3603 62.9004 48.7003 63.1304 48.7003 63.4004C48.7003 63.6904 48.3703 63.9104 47.9603 63.9104Z" fill="black"/>
<path fill-rule="evenodd" clip-rule="evenodd" d="M20.2 70.0001C20.0028 70.0001 19.8136 69.9224 19.6732 69.784C19.5328 69.6455 19.4527 69.4573 19.45 69.2601V58.0901H15.34C13.6576 58.0927 12.0429 57.4276 10.8505 56.2408C9.65806 55.054 8.98533 53.4425 8.98004 51.7601V43.1901H0.750036C0.625184 43.1914 0.502017 43.1612 0.392002 43.1021C0.281987 43.0431 0.188701 42.9572 0.12083 42.8524C0.0529588 42.7476 0.0127089 42.6273 0.00382766 42.5028C-0.00505353 42.3782 0.0177228 42.2534 0.0700362 42.1401L5.99004 28.8801V26.0601C6.00127 20.7067 7.65781 15.4861 10.7352 11.1056C13.8126 6.72509 18.1622 3.39642 23.1946 1.57051C28.227 -0.25539 33.6991 -0.490268 38.8694 0.8977C44.0398 2.28567 48.6586 5.22939 52.1 9.33008C52.37 9.64008 52.33 10.1101 52.02 10.3801C51.9447 10.444 51.8574 10.4925 51.7632 10.5226C51.669 10.5527 51.5698 10.5639 51.4713 10.5555C51.3728 10.5472 51.2769 10.5194 51.1892 10.4739C51.1014 10.4283 51.0236 10.3658 50.96 10.2901C48.6502 7.54723 45.7715 5.33953 42.5235 3.81999C39.2755 2.30046 35.7359 1.50545 32.15 1.49008H31.85C25.3789 1.57897 19.2006 4.20208 14.6422 8.79604C10.0838 13.39 7.5087 19.5884 7.47004 26.0601V29.0401C7.47004 29.1401 7.45004 29.2501 7.41004 29.3401L1.90004 41.7001H9.73004C10.13 41.7001 10.47 42.0401 10.47 42.4501V51.7501C10.4713 52.3883 10.5984 53.02 10.8438 53.6092C11.0893 54.1983 11.4483 54.7333 11.9006 55.1837C12.3528 55.6341 12.8893 55.9909 13.4794 56.234C14.0696 56.477 14.7018 56.6014 15.34 56.6001H20.2C20.61 56.6001 20.95 56.9301 20.95 57.3401V68.5101H47.88C48.03 66.8101 46.83 54.7501 53.34 39.1801C53.4156 38.9958 53.5613 38.849 53.7451 38.7721C53.9289 38.6952 54.1357 38.6945 54.32 38.7701C54.5044 38.8457 54.6511 38.9914 54.728 39.1752C54.8049 39.3589 54.8056 39.5658 54.73 39.7501C48.23 55.2801 49.55 67.1701 49.38 69.2501C49.38 69.6701 49.04 70.0001 48.63 70.0001H20.2Z" fill="black"/>
<path fill-rule="evenodd" clip-rule="evenodd" d="M57.5 43.93C57.5 44.53 56.99 45 56.36 45H45.64C45.01 45 44.5 44.52 44.5 43.93V39H57.5V43.93Z" fill="#FD5A1E" stroke="black"/>
<path fill-rule="evenodd" clip-rule="evenodd" d="M61.9999 20.6806C61.9999 23.2406 61.0599 25.7106 59.3399 27.6506C55.8499 31.5906 56.4899 36.2506 56.4899 37.0006H45.5099C45.5099 36.0806 46.2699 31.9806 42.4399 27.3906C41.5053 26.2788 40.8135 24.9839 40.4088 23.589C40.0041 22.1941 39.8954 20.7299 40.0899 19.2906C40.4828 16.6869 41.8032 14.3129 43.808 12.6058C45.8128 10.8987 48.3669 9.97351 50.9999 10.0006C57.0699 10.0006 61.9999 14.8006 61.9999 20.6806Z" fill="#E8E8E8"/>
<path d="M44.0096 37V38.5H57.9996V36.92L57.9796 36.42C57.7521 33.7376 58.5489 31.0687 60.2096 28.95L60.4696 28.65C62.4248 26.4553 63.5066 23.6193 63.5096 20.68C63.4996 13.95 57.8796 8.5 50.9996 8.5C44.6896 8.5 39.3896 13.13 38.5996 19.09C38.1796 22.33 39.0596 25.51 41.0596 28.07L41.2896 28.35C43.5496 31.06 44.1696 33.42 44.0596 36.05L44.0196 36.67V37H44.0096ZM50.9996 10C57.0596 10 61.9996 14.8 61.9996 20.68C61.9996 23.12 61.1396 25.48 59.5696 27.38L59.3396 27.65C55.8496 31.59 56.4896 36.25 56.4896 37H51.4396V25.73C51.4388 25.596 51.465 25.4632 51.5165 25.3395C51.5681 25.2159 51.6439 25.1038 51.7396 25.01L56.7196 20.18C56.7894 20.1123 56.8336 20.0224 56.8445 19.9257C56.8555 19.8291 56.8325 19.7316 56.7796 19.65L56.7196 19.57C56.6355 19.4875 56.5224 19.4414 56.4046 19.4414C56.2868 19.4414 56.1737 19.4875 56.0896 19.57L51.6896 23.84C51.5036 24.0173 51.2566 24.1162 50.9996 24.1162C50.7427 24.1162 50.4956 24.0173 50.3096 23.84L45.9096 19.57C45.8255 19.4875 45.7124 19.4414 45.5946 19.4414C45.4768 19.4414 45.3637 19.4875 45.2796 19.57C45.2073 19.6383 45.1615 19.7301 45.1505 19.829C45.1395 19.9279 45.164 20.0275 45.2196 20.11L45.2796 20.18L50.2596 25.01C50.4496 25.2 50.5596 25.46 50.5596 25.73V37H45.4996L45.5096 36.73C45.5896 35.47 45.9496 31.79 42.6496 27.65L42.4296 27.39C41.495 26.2782 40.8032 24.9833 40.3985 23.5884C39.9938 22.1935 39.8852 20.7294 40.0796 19.29C40.4727 16.6846 41.7946 14.3093 43.8015 12.6019C45.8084 10.8946 48.3649 9.97051 50.9996 10Z" fill="black"/>
<path fill-rule="evenodd" clip-rule="evenodd" d="M66.48 21.6696H76.04C76.48 21.6696 76.84 21.4396 76.84 21.1596C76.84 20.8796 76.48 20.6596 76.04 20.6596H66.48C66.04 20.6596 65.68 20.8796 65.68 21.1596C65.68 21.4396 66.04 21.6596 66.48 21.6596V21.6696ZM66.22 13.1496L70.24 9.12964C70.51 8.85964 70.58 8.46964 70.38 8.26964C70.18 8.06964 69.8 8.13964 69.52 8.41964L65.5 12.4296C65.22 12.7096 65.16 13.0996 65.36 13.2896C65.56 13.4896 65.94 13.4296 66.22 13.1496ZM66.22 29.1696L70.24 33.1896C70.51 33.4596 70.58 33.8496 70.38 34.0496C70.18 34.2496 69.8 34.1796 69.52 33.8996L65.5 29.8996C65.22 29.6196 65.16 29.2296 65.36 29.0396C65.56 28.8396 65.94 28.8996 66.22 29.1796V29.1696Z" fill="black"/>
</svg>
