<svg width="64" height="64" viewBox="0 0 64 64" fill="none" xmlns="http://www.w3.org/2000/svg">
<g clip-path="url(#clip0_1030_816)">
<path d="M10.667 50.6663C10.667 52.0808 11.2289 53.4374 12.2291 54.4376C13.2293 55.4378 14.5858 55.9997 16.0003 55.9997C17.4148 55.9997 18.7714 55.4378 19.7716 54.4376C20.7718 53.4374 21.3337 52.0808 21.3337 50.6663C21.3337 49.2519 20.7718 47.8953 19.7716 46.8951C18.7714 45.8949 17.4148 45.333 16.0003 45.333C14.5858 45.333 13.2293 45.8949 12.2291 46.8951C11.2289 47.8953 10.667 49.2519 10.667 50.6663Z" stroke="white" stroke-width="1.6" stroke-linecap="round" stroke-linejoin="round"/>
<path d="M40 50.6663C40 52.0808 40.5619 53.4374 41.5621 54.4376C42.5623 55.4378 43.9188 55.9997 45.3333 55.9997C46.7478 55.9997 48.1044 55.4378 49.1046 54.4376C50.1048 53.4374 50.6667 52.0808 50.6667 50.6663C50.6667 49.2519 50.1048 47.8953 49.1046 46.8951C48.1044 45.8949 46.7478 45.333 45.3333 45.333C43.9188 45.333 42.5623 45.8949 41.5621 46.8951C40.5619 47.8953 40 49.2519 40 50.6663Z" stroke="white" stroke-width="1.6" stroke-linecap="round" stroke-linejoin="round"/>
<path d="M45.3337 45.3333H16.0003V8H10.667" stroke="white" stroke-width="1.6" stroke-linecap="round" stroke-linejoin="round"/>
<path d="M16 13.333L53.3333 15.9997L50.6667 34.6663H16" stroke="white" stroke-width="1.6" stroke-linecap="round" stroke-linejoin="round"/>
</g>
<defs>
<clipPath id="clip0_1030_816">
<rect width="64" height="64" fill="white"/>
</clipPath>
</defs>
</svg>
