<svg width="73" height="71" viewBox="0 0 73 71" fill="none" xmlns="http://www.w3.org/2000/svg">
<path d="M1 1H8.73828V49.9718V58.6558H27.8145H50.6125" stroke="white" stroke-width="0.75" stroke-linecap="round" stroke-linejoin="round"/>
<path d="M48.5073 49.9727H28.3736H27.3466H9.23633" stroke="white" stroke-width="0.75" stroke-linecap="round" stroke-linejoin="round"/>
<path d="M8.83008 16.3242L42.9456 19.446L59.4085 20.9509L66.2927 21.5814L62.2151 38.8984" stroke="white" stroke-width="0.75" stroke-linecap="round" stroke-linejoin="round"/>
<path d="M34.7905 37.0166H39.3664" stroke="white" stroke-width="0.75" stroke-linecap="round" stroke-linejoin="round"/>
<path d="M48.5078 23.8291V28.2219" stroke="white" stroke-width="0.75" stroke-linecap="round" stroke-linejoin="round"/>
<path d="M42.1115 30.866L38.7559 27.6426" stroke="white" stroke-width="0.75" stroke-linecap="round" stroke-linejoin="round"/>
<path d="M54.9136 30.866L58.2692 27.6426" stroke="white" stroke-width="0.75" stroke-linecap="round" stroke-linejoin="round"/>
<path d="M42.1115 43.1797L38.7559 46.4031" stroke="white" stroke-width="0.75" stroke-linecap="round" stroke-linejoin="round"/>
<path d="M63.2314 41.3184L46.1177 35.624L50.9071 49.9719L53.8051 58.6558L54.7305 61.442L60.4655 49.9617L71.9458 44.2266L63.2314 41.3184Z" stroke="white" stroke-width="0.75" stroke-linecap="round" stroke-linejoin="round"/>
<circle cx="14.0052" cy="65.9163" r="4.70929" stroke="white" stroke-width="0.75"/>
<circle cx="44.511" cy="65.9163" r="4.70929" stroke="white" stroke-width="0.75"/>
</svg>
