<svg width="44" height="44" viewBox="0 0 44 44" fill="none" xmlns="http://www.w3.org/2000/svg">
<g clip-path="url(#clip0_416_3352)">
<path d="M9.16675 12.8333C9.16675 14.7783 9.93936 16.6435 11.3146 18.0188C12.6899 19.3941 14.5552 20.1667 16.5001 20.1667C18.445 20.1667 20.3103 19.3941 21.6855 18.0188C23.0608 16.6435 23.8334 14.7783 23.8334 12.8333C23.8334 10.8884 23.0608 9.02315 21.6855 7.64788C20.3103 6.27262 18.445 5.5 16.5001 5.5C14.5552 5.5 12.6899 6.27262 11.3146 7.64788C9.93936 9.02315 9.16675 10.8884 9.16675 12.8333Z" stroke="#FF4500" stroke-width="2.75" stroke-linecap="round" stroke-linejoin="round"/>
<path d="M5.5 38.5V34.8333C5.5 32.8884 6.27262 31.0232 7.64788 29.6479C9.02315 28.2726 10.8884 27.5 12.8333 27.5H20.1667C22.1116 27.5 23.9769 28.2726 25.3521 29.6479C26.7274 31.0232 27.5 32.8884 27.5 34.8333V38.5" stroke="#FF4500" stroke-width="2.75" stroke-linecap="round" stroke-linejoin="round"/>
<path d="M29.3333 5.73828C30.9107 6.14217 32.3088 7.05957 33.3073 8.34585C34.3057 9.63213 34.8476 11.2141 34.8476 12.8424C34.8476 14.4708 34.3057 16.0528 33.3073 17.339C32.3088 18.6253 30.9107 19.5427 29.3333 19.9466" stroke="#FF4500" stroke-width="2.75" stroke-linecap="round" stroke-linejoin="round"/>
<path d="M38.5 38.5004V34.8337C38.4907 33.2152 37.9462 31.6452 36.9513 30.3685C35.9565 29.0917 34.5672 28.18 33 27.7754" stroke="#FF4500" stroke-width="2.75" stroke-linecap="round" stroke-linejoin="round"/>
</g>
<defs>
<clipPath id="clip0_416_3352">
<rect width="44" height="44" fill="white"/>
</clipPath>
</defs>
</svg>
