<svg width="130" height="41" viewBox="0 0 130 41" fill="none" xmlns="http://www.w3.org/2000/svg">
<path fill-rule="evenodd" clip-rule="evenodd" d="M40.5395 25.2746C38.4275 25.0266 36.3235 24.7466 34.2195 24.4266C33.4035 24.2986 33.1475 24.5386 33.1635 25.3626C33.1875 26.5746 33.1835 27.7846 33.1795 28.9946C33.1755 30.2046 33.1715 31.4146 33.1955 32.6266C33.2115 33.4506 32.9955 33.8666 32.1235 34.0506C26.3955 35.2826 20.8755 34.8346 15.7155 31.9386C7.13947 27.1306 5.81947 15.7146 13.1955 9.47463C18.1075 5.31463 23.9395 4.76263 30.0515 5.89863C32.2835 6.31463 34.2915 7.33063 36.3715 8.56263C36.3715 7.92652 36.3674 7.30737 36.3634 6.70025C36.3537 5.22291 36.3444 3.81677 36.3955 2.41063C36.4355 1.41063 36.1315 0.970627 35.0995 0.794627C31.4435 0.186627 27.7715 -0.141373 24.0675 0.0586266C17.5075 0.418627 11.5715 2.42663 6.53147 6.77063C-1.14853 13.4026 -2.20453 24.1146 4.15547 31.7226C7.32347 35.5146 11.4915 37.7546 16.2435 38.9466C17.4509 39.2471 18.6784 39.4792 19.9061 39.7114L19.9062 39.7114L19.9062 39.7114L19.9062 39.7114L19.9063 39.7114L19.9063 39.7115L19.9067 39.7115L19.9071 39.7116L19.9075 39.7117L19.9078 39.7117L19.9082 39.7118C20.4124 39.8072 20.9166 39.9025 21.4195 40.0026H30.8115C30.9968 39.7456 31.258 39.7521 31.515 39.7584C31.602 39.7606 31.6885 39.7627 31.7715 39.7546C34.7155 39.4906 37.6275 39.0186 40.5235 38.4426C41.2995 38.2906 41.5875 37.9786 41.5795 37.1626C41.5315 33.6186 41.5395 30.0666 41.5795 26.5226C41.5875 25.7226 41.3555 25.3626 40.5395 25.2666V25.2746ZM105.498 14.2851L105.498 14.2851C104.888 13.9578 104.24 13.6101 103.899 14.8189C103.827 15.0749 103.395 15.2989 103.083 15.4189C102.155 15.7709 101.211 16.1229 100.251 16.3629C93.7434 17.9807 87.092 18.282 80.4423 18.5832L80.4397 18.5833C79.8889 18.6083 79.3381 18.6332 78.7874 18.6589C71.1874 19.0189 63.5874 19.0429 55.9794 18.7789C49.0274 18.5389 42.0914 18.2829 35.1874 17.3869C33.0434 17.1069 30.8834 16.8029 28.8674 15.9309C28.8381 15.9183 28.8082 15.9057 28.7779 15.893C28.4443 15.7527 28.0707 15.5957 28.1074 15.1629C28.1364 14.8229 28.4532 14.6726 28.7444 14.5345C28.7751 14.5199 28.8056 14.5055 28.8354 14.4909C30.0861 13.8768 31.442 13.5922 32.7915 13.309L33.0674 13.2509C36.4279 12.5417 39.8293 12.1115 43.2311 11.6813L43.2311 11.6813C44.8178 11.4806 46.4047 11.2799 47.9874 11.0509C42.7794 11.1229 37.5954 11.4269 32.4594 12.3149C29.3394 12.8509 26.2034 13.4269 23.4194 15.0829C21.1794 16.4109 21.2194 17.9389 23.4994 19.2349C25.3234 20.2749 27.3394 20.8429 29.3714 21.3229C38.2034 23.4029 47.2194 24.0589 56.2514 24.3469C68.9394 24.7469 81.6274 24.4829 94.2194 22.6109C98.1714 22.0269 102.107 21.2909 105.803 19.7069L105.878 19.6748C107.054 19.1705 108.412 18.5879 108.443 17.1309C108.472 15.7162 107.275 15.1566 106.164 14.637C106.031 14.5749 105.9 14.5133 105.771 14.4509V14.4269C105.682 14.3838 105.59 14.3347 105.498 14.2851ZM115.309 9.11824L115.311 9.12217C118.871 17.4004 122.431 25.6771 125.972 33.9633H125.98C126.732 35.7313 127.652 37.3633 129.196 38.9633C128.126 38.9633 127.082 38.962 126.055 38.9606C123.549 38.9574 121.148 38.9543 118.748 38.9713C118.1 38.9793 117.9 38.7553 118.004 38.1393C118.108 37.5233 117.932 36.9313 117.692 36.3713C113.532 26.6833 109.372 17.0033 105.204 7.31531C105.129 7.1433 105.042 6.97952 104.925 6.75916L104.925 6.75821C104.879 6.67135 104.828 6.5757 104.772 6.46731C104.483 7.12906 104.197 7.77759 103.914 8.41757L103.912 8.42324L103.912 8.42383C103.263 9.89379 102.634 11.3187 102.044 12.7553C101.716 13.5473 101.252 13.9553 100.38 14.1633C98.1476 14.6833 95.9076 15.1473 93.4116 15.4033C93.786 14.5428 94.157 13.7017 94.5226 12.8727L94.5227 12.8725C95.2823 11.1504 96.019 9.48015 96.7156 7.7953C96.9651 7.19334 97.246 6.6025 97.5271 6.01137L97.5272 6.01118C98.2284 4.53625 98.9306 3.05947 99.1476 1.40331C99.2211 0.874302 99.5645 0.878374 99.9175 0.882561C99.9488 0.882933 99.9803 0.883305 100.012 0.883305C100.923 0.883305 101.836 0.884305 102.748 0.885305C105.487 0.888305 108.227 0.891308 110.964 0.867305C111.692 0.859305 111.932 1.25931 112.164 1.80331C113.212 4.24194 114.261 6.68016 115.309 9.11824ZM52.1235 15.4434C52.1235 16.3234 52.3395 16.6594 53.2755 16.6434L53.5923 16.6368H53.5923C55.4411 16.5982 57.3082 16.5591 59.1395 16.7634C60.4915 16.9154 60.6195 16.4114 60.5955 15.3154C60.5466 13.333 60.5585 11.3459 60.5703 9.36129V9.36125V9.36121V9.36079L60.5703 9.35934C60.574 8.74973 60.5776 8.14035 60.5795 7.53141C60.5795 7.47023 60.5775 7.40786 60.5755 7.34555L60.5755 7.34535C60.561 6.89445 60.5466 6.44633 61.2915 6.46741C62.8719 6.50864 64.4552 6.4866 66.0387 6.46456C69.0641 6.42244 72.0904 6.38031 75.0995 6.77941C75.8835 6.88341 76.0675 6.73141 76.0355 5.97941C75.9795 4.64341 75.9635 3.29141 76.0355 1.95541C76.0835 1.05941 75.7235 0.859415 74.9075 0.867415C72.1658 0.891413 69.4285 0.888415 66.689 0.885416C65.7755 0.884415 64.8618 0.883415 63.9475 0.883415H54.2915C51.8195 0.883415 51.8035 0.883415 51.9875 3.25941C52.2063 6.03785 52.1745 8.81629 52.1428 11.5947C52.1281 12.8803 52.1134 14.1658 52.1235 15.4514V15.4434ZM60.5634 32.5386C60.5394 33.3146 60.7554 33.6266 61.5794 33.5946V33.5866C63.7257 33.5122 65.8742 33.5618 68.0224 33.6114H68.0225H68.0226C71.6475 33.6952 75.2718 33.7789 78.8834 33.2666C78.9092 33.2666 78.935 33.2832 78.9867 33.3166C79.015 33.3349 79.0512 33.3582 79.0994 33.3866C78.894 33.879 78.6873 34.3721 78.4802 34.8661L78.4793 34.8681C77.9768 36.0668 77.4721 37.2707 76.9794 38.4826C76.7697 38.9875 76.3638 38.9871 75.9377 38.9866L75.8994 38.9866H52.5554C52.0274 38.9866 51.5714 38.9866 51.7154 38.2426C52.2307 35.545 52.1855 32.8291 52.1404 30.1122V30.1119V30.1116C52.1259 29.2432 52.1115 28.3746 52.1154 27.5066C52.1234 26.5066 52.3634 26.1546 53.4194 26.2346C55.4914 26.3866 57.5794 26.4426 59.6674 26.4666C60.4514 26.4746 60.6034 26.7946 60.5874 27.4826C60.5727 28.2524 60.5765 29.0239 60.5804 29.7963V29.7964V29.7965C60.5849 30.7097 60.5894 31.6241 60.5634 32.5386ZM87.112 29.1724L87.1116 29.1731C85.5729 32.5068 84.0198 35.8718 81.6354 38.9549C82.5894 38.9549 83.5183 38.9513 84.4298 38.9478H84.4299C86.5605 38.9396 88.596 38.9317 90.6354 38.9709C91.6914 38.9949 92.4594 39.0029 92.1234 37.5709C91.9667 36.8993 92.2485 36.2207 92.5144 35.5806C92.5335 35.5345 92.5526 35.4886 92.5714 35.4429C92.979 34.4389 93.3898 33.4359 93.8006 32.4328L93.8015 32.4306L93.8028 32.4273C94.5042 30.7149 95.2058 29.0021 95.8914 27.2829C96.0099 26.9843 96.1443 26.6903 96.2792 26.3952C96.5817 25.7337 96.8866 25.0667 97.0194 24.3309C96.5125 24.3955 96.0102 24.4597 95.5115 24.5235L95.5108 24.5236C93.5381 24.7759 91.6213 25.0211 89.6994 25.2509C89.1074 25.3229 88.7954 25.6189 88.5394 26.1309V26.1389C88.0495 27.1413 87.5814 28.1554 87.112 29.1724ZM91.2339 12.4908C85.7544 11.9628 80.2749 11.4349 74.7954 10.8989L74.7874 10.9069C74.7407 10.9017 74.694 10.8663 74.6189 10.8092C74.5783 10.7783 74.5293 10.7411 74.4674 10.6989C78.2079 10.6507 81.8848 10.793 85.5427 10.9346C86.7431 10.981 87.9415 11.0274 89.1394 11.0669C90.0914 11.0989 91.0434 11.1709 91.9954 11.2509C92.0458 11.255 92.1022 11.2552 92.1607 11.2553C92.4458 11.256 92.7804 11.2569 92.7074 11.7149C92.6514 12.0749 92.5154 12.4989 92.0114 12.5229C91.7554 12.5309 91.4914 12.5149 91.2354 12.4909L91.2339 12.4908Z" fill="#0F0F0E"/>
</svg>
