<svg width="802" height="692" viewBox="0 0 802 692" fill="none" xmlns="http://www.w3.org/2000/svg">
<g clip-path="url(#clip0_1044_2)">
<g opacity="0.15">
<g clip-path="url(#clip1_1044_2)">
<g opacity="0.8">
<path d="M482.851 1027.05C478.83 1024.77 475.57 1021.44 473.428 1017.39L130.221 369.082C127.209 363.401 126.662 356.903 128.68 350.781C130.698 344.659 135.031 339.648 140.882 336.674L808.905 -2.86074C816.45 -6.69727 825.337 -6.51695 832.66 -2.37892C836.681 -0.103114 839.941 3.23276 842.083 7.27417L1185.29 655.575C1188.3 661.257 1188.85 667.755 1186.83 673.877C1184.82 680.003 1180.48 685.01 1174.63 687.984L506.603 1027.52C499.057 1031.35 490.178 1031.18 482.844 1027.04L482.851 1027.05ZM831.66 -0.712536C824.921 -4.515 816.743 -4.67996 809.804 -1.14803L141.785 338.379C136.399 341.11 132.41 345.722 130.559 351.354C128.708 356.986 129.213 362.964 131.982 368.186L475.182 1016.5C477.152 1020.22 480.146 1023.29 483.848 1025.37C490.595 1029.18 498.765 1029.34 505.708 1025.82L1173.72 686.279C1179.11 683.54 1183.1 678.936 1184.95 673.296C1186.8 667.664 1186.3 661.687 1183.53 656.456L840.33 8.15494C838.36 4.43094 835.358 1.36087 831.664 -0.720057L831.66 -0.712536Z" fill="#505050"/>
<path d="M460.257 1019.16C456.24 1016.9 453.014 1013.55 450.928 1009.48L124.678 373.372C121.816 367.795 121.367 361.443 123.408 355.495C125.45 349.548 129.74 344.707 135.495 341.875L790.867 18.9606C798.166 15.3626 806.732 15.5907 813.774 19.5574C817.788 21.8293 821.024 25.1724 823.111 29.2432L1149.36 665.353C1155.27 676.87 1150.42 691.007 1138.55 696.853L483.168 1019.77C475.869 1023.37 467.303 1023.14 460.257 1019.16V1019.16ZM812.77 21.2313C806.304 17.5773 798.443 17.3721 791.735 20.6767L136.37 343.595C131.096 346.192 127.15 350.634 125.276 356.091C123.397 361.556 123.816 367.384 126.443 372.506L452.692 1008.62C454.608 1012.35 457.57 1015.42 461.253 1017.5C467.719 1021.16 475.58 1021.36 482.281 1018.06L1137.66 695.144C1148.55 689.771 1153.01 676.803 1147.59 666.234L821.339 30.1236C819.423 26.3892 816.464 23.3122 812.778 21.2352L812.77 21.2313Z" fill="#505050"/>
<path d="M437.66 1011.3C433.643 1009.04 430.445 1005.67 428.421 1001.58L119.135 377.663C113.527 366.348 118.45 352.629 130.097 347.075L772.819 40.7803C779.875 37.4132 788.121 37.6892 794.883 41.5034C798.9 43.7678 802.098 47.1292 804.126 51.218L1113.41 675.132C1116.13 680.616 1116.48 686.815 1114.41 692.591C1112.34 698.371 1108.09 703.031 1102.45 705.72L459.719 1012.03C452.667 1015.39 444.418 1015.12 437.656 1011.31L437.66 1011.3ZM793.886 43.1812C787.697 39.6872 780.137 39.4339 773.679 42.5113L130.957 348.806C120.282 353.887 115.783 366.461 120.914 376.824L430.201 1000.74C432.057 1004.49 434.985 1007.57 438.664 1009.64C444.853 1013.14 452.406 1013.39 458.867 1010.3L1101.59 704.02C1106.77 701.554 1110.65 697.282 1112.55 691.992C1114.45 686.702 1114.12 681.023 1111.64 676.002L802.349 52.087C800.489 48.342 797.569 45.2657 793.886 43.1812V43.1812Z" fill="#505050"/>
<path d="M415.065 1003.43C411.047 1001.17 407.885 997.797 405.916 993.671L113.588 381.959C111.021 376.58 110.759 370.535 112.859 364.933C114.959 359.332 119.167 354.842 124.708 352.295L754.788 62.6242C761.598 59.4957 769.527 59.8119 776 63.4697C780.013 65.7416 783.18 69.1063 785.148 73.2321L1077.48 684.955C1082.78 696.057 1077.8 709.373 1066.37 714.623L436.276 1004.28C429.467 1007.41 421.546 1007.1 415.065 1003.43V1003.43ZM775 65.1172C769.08 61.7792 761.832 61.4931 755.613 64.3471L125.541 354.022C120.479 356.353 116.631 360.451 114.714 365.57C112.796 370.689 113.035 376.216 115.383 381.128L407.711 992.859C409.513 996.622 412.397 999.709 416.069 1001.78C421.989 1005.12 429.233 1005.41 435.456 1002.55L1065.54 712.878C1075.98 708.073 1080.54 695.914 1075.69 685.771L783.362 74.0478C781.56 70.2849 778.671 67.2053 775.004 65.1286L775 65.1172Z" fill="#505050"/>
<path d="M392.465 995.576C388.452 993.304 385.317 989.917 383.407 985.773L108.046 386.249C105.62 380.971 105.457 375.071 107.587 369.649C109.714 364.214 113.883 359.905 119.32 357.497L736.746 84.454C743.305 81.5525 750.918 81.909 757.114 85.4069C761.132 87.6713 764.262 91.0657 766.172 95.2095L1041.54 694.737C1043.97 700.015 1044.13 705.915 1042 711.346C1039.87 716.78 1035.71 721.093 1030.27 723.493L412.837 996.54C406.278 999.442 398.662 999.074 392.461 995.583L392.465 995.576ZM756.118 87.0658C750.463 83.8724 743.52 83.5497 737.543 86.1916L120.117 359.235C115.16 361.427 111.362 365.36 109.43 370.308C107.485 375.26 107.638 380.637 109.844 385.449L385.221 984.981C386.956 988.758 389.81 991.848 393.473 993.913C399.12 997.103 406.064 997.426 412.048 994.788L1029.48 721.737C1034.43 719.54 1038.23 715.608 1040.17 710.664C1042.11 705.712 1041.96 700.335 1039.75 695.523L764.382 95.9948C762.647 92.2178 759.793 89.1275 756.13 87.0622L756.118 87.0658Z" fill="#505050"/>
<path d="M369.861 987.727C365.836 985.459 362.741 982.054 360.909 977.874L102.495 390.537C97.7914 379.855 102.924 367.363 113.924 362.697L718.711 106.27C725.012 103.592 732.312 104 738.232 107.338C742.257 109.606 745.352 113.012 747.187 117.184L1005.59 704.525C1007.87 709.702 1007.93 715.452 1005.77 720.708C1003.61 725.971 999.494 730.114 994.161 732.365L389.393 988.792C383.085 991.466 375.789 991.069 369.865 987.72L369.861 987.727ZM737.239 109.008C731.853 105.971 725.218 105.604 719.485 108.034L114.701 364.453C104.696 368.696 100.034 380.047 104.308 389.763L362.726 977.111C364.395 980.902 367.205 984 370.861 986.061C376.247 989.098 382.882 989.465 388.616 987.035L993.404 730.609C998.256 728.555 1002 724.788 1003.96 720.015C1005.92 715.233 1005.87 710.002 1003.79 705.306L745.382 117.962C743.713 114.171 740.895 111.07 737.239 109.008V109.008Z" fill="#505050"/>
<path d="M347.26 979.87C343.235 977.602 340.179 974.178 338.403 969.968L96.9509 394.827C94.8211 389.747 94.8526 384.157 97.0377 379.069C99.2229 373.981 103.314 370.015 108.534 367.899L700.672 128.093C706.82 125.605 713.629 126.032 719.36 129.264C723.393 131.536 726.449 134.96 728.213 139.173L969.666 714.315C974.066 724.795 968.865 736.868 958.083 741.242L365.945 981.049C359.797 983.537 352.988 983.11 347.248 979.874L347.26 979.87ZM718.368 130.934C713.17 128.003 706.999 127.613 701.429 129.867L109.284 369.67C104.543 371.59 100.846 375.19 98.8629 379.797C96.8756 384.411 96.8523 389.477 98.7866 394.084L340.227 969.229C341.833 973.046 344.601 976.15 348.249 978.207C353.446 981.139 359.629 981.525 365.191 979.267L957.337 739.464C967.121 735.501 971.828 724.557 967.842 715.054L726.389 139.913C724.791 136.1 722.016 132.992 718.36 130.931L718.368 130.934Z" fill="#505050"/>
<path d="M324.652 972.027C320.62 969.755 317.6 966.302 315.902 962.055L91.4082 399.117C89.4278 394.142 89.5573 388.698 91.7733 383.788C93.9935 378.871 98.0373 375.083 103.157 373.117L682.641 149.937C688.534 147.666 695.035 148.136 700.49 151.209C704.518 153.489 707.547 156.927 709.244 161.173L933.73 724.127C935.722 729.098 935.588 734.55 933.372 739.46C931.149 744.365 927.108 748.165 921.989 750.131L342.501 973.299C336.608 975.571 330.108 975.1 324.652 972.027V972.027ZM699.497 152.86C694.565 150.073 688.683 149.658 683.363 151.704L103.868 374.887C99.2314 376.668 95.5774 380.098 93.5746 384.541C91.5718 388.985 91.4505 393.906 93.2472 398.404L317.737 961.35C319.273 965.188 322.005 968.303 325.653 970.361C330.585 973.148 336.467 973.563 341.787 971.517L921.279 748.342C925.907 746.557 929.561 743.126 931.572 738.687C933.582 734.248 933.692 729.33 931.907 724.828L707.409 161.878C705.881 158.044 703.146 154.918 699.501 152.872L699.497 152.86Z" fill="#505050"/>
<path d="M302.044 964.185C298.057 961.936 294.989 958.373 293.396 954.151L85.8609 403.396C84.0223 398.522 84.2496 393.223 86.5006 388.485C88.7517 383.746 92.7527 380.128 97.7678 378.3L664.609 171.745C670.237 169.692 676.437 170.192 681.619 173.116C685.605 175.365 688.673 178.929 690.266 183.151L897.802 733.906C899.632 738.776 899.409 744.067 897.162 748.817C894.911 753.556 890.91 757.174 885.895 759.001L319.045 965.553C313.418 967.605 307.218 967.105 302.044 964.185V964.185ZM680.623 174.775C675.952 172.14 670.362 171.692 665.288 173.538L98.4387 380.108C93.9146 381.754 90.3153 385.011 88.2852 389.287C86.2591 393.556 86.0517 398.328 87.7066 402.725L295.25 953.484C296.685 957.29 299.453 960.5 303.04 962.526C307.711 965.161 313.3 965.61 318.374 963.764L885.22 757.201C889.736 755.551 893.343 752.298 895.373 748.022C897.399 743.754 897.607 738.981 895.952 734.584L688.416 183.829C686.981 180.023 684.217 176.805 680.626 174.787L680.623 174.775Z" fill="#505050"/>
<path d="M279.428 956.358C275.434 954.105 272.401 950.512 270.891 946.246L80.3187 407.686C78.6295 402.917 78.9506 397.771 81.2367 393.204C83.5227 388.637 87.4768 385.196 92.3833 383.514L646.579 193.571C651.957 191.727 657.844 192.26 662.757 195.028C666.751 197.28 669.784 200.874 671.294 205.14L861.866 743.7C865.351 753.551 859.941 764.396 849.802 767.872L295.606 957.814C290.233 959.651 284.333 959.122 279.432 956.35L279.428 956.358ZM661.757 196.694C657.347 194.211 652.051 193.73 647.219 195.382L93.0231 385.325C88.6111 386.837 85.0506 389.931 83.0049 394.037C80.9593 398.142 80.6658 402.765 82.183 407.054L272.76 945.606C274.112 949.437 276.834 952.662 280.428 954.692C284.838 957.175 290.135 957.656 294.966 956.003L849.162 766.061C858.272 762.943 863.139 753.192 860.006 744.344L669.425 205.78C668.073 201.949 665.351 198.724 661.757 196.694Z" fill="#505050"/>
<path d="M256.804 948.527C252.794 946.267 249.805 942.647 248.386 938.341L74.7716 411.965C71.5905 402.316 77.0763 391.893 86.9941 388.717L628.548 215.398C633.663 213.765 639.254 214.32 643.894 216.939C647.904 219.2 650.9 222.823 652.32 227.129L825.938 753.498C829.123 763.139 823.641 773.574 813.716 776.746L272.15 950.068C267.042 951.705 261.444 951.147 256.804 948.527V948.527ZM642.89 218.613C638.738 216.271 633.73 215.764 629.148 217.227L87.5985 390.539C78.7125 393.387 73.8006 402.732 76.6468 411.367L250.265 937.735C251.535 941.592 254.217 944.835 257.804 946.861C261.964 949.207 266.964 949.71 271.55 948.239L813.099 774.928C821.985 772.08 826.897 762.735 824.051 754.1L650.433 227.731C649.163 223.875 646.48 220.632 642.886 218.602L642.89 218.613Z" fill="#505050"/>
<path d="M234.184 940.707C230.155 938.427 227.209 934.782 225.877 930.424L69.2211 416.251C66.3466 406.816 71.9088 396.795 81.6132 393.923L610.524 237.228C615.379 235.788 620.665 236.379 625.036 238.843C629.069 241.115 632.018 244.772 633.343 249.126L789.998 763.299C792.873 772.734 787.311 782.755 777.606 785.627L248.703 942.326C243.849 943.766 238.555 943.171 234.184 940.707ZM624.028 240.505C620.126 238.3 615.411 237.779 611.074 239.06L82.1747 395.751C73.5093 398.319 68.5482 407.265 71.119 415.684L227.771 929.864C228.954 933.753 231.59 937.011 235.184 939.041C239.082 941.235 243.805 941.76 248.142 940.478L777.049 783.791C785.714 781.224 790.675 772.277 788.101 763.847L631.445 249.674C630.262 245.785 627.626 242.528 624.032 240.498L624.028 240.505Z" fill="#505050"/>
<path d="M211.559 932.894C207.507 930.602 204.609 926.924 203.383 922.515L63.6816 420.533C62.4412 416.059 63.0556 411.37 65.4308 407.327C67.806 403.284 71.6388 400.376 76.2356 399.121L592.493 259.054C597.156 257.785 602.014 258.388 606.181 260.738C610.233 263.029 613.138 266.712 614.365 271.121L754.066 773.103C756.634 782.325 750.999 791.935 741.516 794.508L225.247 934.578C220.588 935.84 215.726 935.244 211.559 932.894ZM605.181 262.404C601.471 260.316 597.157 259.778 593.003 260.904L76.7536 400.975C72.6704 402.079 69.2538 404.672 67.1421 408.265C65.0304 411.857 64.4785 416.032 65.5863 420.007L205.276 921.993C206.369 925.922 208.949 929.19 212.559 931.228C216.261 933.312 220.583 933.854 224.729 932.724L740.99 792.649C749.427 790.359 754.433 781.819 752.154 773.606L612.453 271.624C611.363 267.706 608.779 264.427 605.177 262.393L605.181 262.404Z" fill="#505050"/>
<path d="M188.93 925.089C184.856 922.785 181.994 919.058 180.878 914.59L58.1351 424.811C55.8779 415.795 61.5807 406.603 70.8547 404.326L574.466 280.872C578.856 279.799 583.425 280.409 587.327 282.615C591.402 284.918 594.264 288.645 595.384 293.106L718.13 782.896C720.387 791.912 714.677 801.1 705.403 803.377L201.792 926.831C197.398 927.911 192.824 927.29 188.923 925.085L188.93 925.089ZM586.327 284.281C582.867 282.329 578.826 281.777 574.929 282.737L71.3179 406.191C63.0974 408.209 58.042 416.35 60.0385 424.342L182.789 914.125C183.78 918.079 186.313 921.38 189.931 923.422C193.383 925.37 197.436 925.918 201.328 924.967L704.94 801.512C713.16 799.494 718.211 791.361 716.211 783.357L593.473 293.571C592.481 289.616 589.945 286.304 586.331 284.273L586.327 284.281Z" fill="#505050"/>
<path d="M166.294 917.3C162.242 915.009 159.356 911.144 158.372 906.686L52.5886 429.091C51.6512 424.82 52.465 420.433 54.8944 416.743C57.3278 413.046 61.0862 410.493 65.4737 409.534L556.439 302.711C560.568 301.812 564.848 302.447 568.481 304.497C572.529 306.777 575.419 310.652 576.41 315.115L682.186 792.706C684.141 801.52 678.354 810.286 669.301 812.263L178.336 919.086C174.207 919.985 169.934 919.354 166.294 917.3V917.3ZM567.488 306.167C564.279 304.352 560.499 303.789 556.859 304.582L65.894 411.406C62.0233 412.244 58.7078 414.505 56.5609 417.763C54.41 421.029 53.6822 424.895 54.5183 428.664L160.298 906.267C161.173 910.2 163.723 913.615 167.294 915.634C170.504 917.449 174.276 918.007 177.924 917.219L668.893 810.388C676.885 808.647 681.99 800.904 680.269 793.129L574.492 315.538C573.621 311.597 571.071 308.182 567.496 306.171L567.488 306.167Z" fill="#505050"/>
<path d="M143.646 909.514C139.559 907.214 136.725 903.29 135.867 898.762L47.046 433.362C46.2504 429.191 47.1734 424.965 49.6377 421.447C52.1021 417.929 55.8176 415.545 60.1043 414.736L538.423 324.526C542.284 323.797 546.272 324.446 549.647 326.355C553.73 328.662 556.568 332.579 557.429 337.099L646.254 802.511C647.894 811.107 642.036 819.463 633.196 821.136L154.877 911.347C151.009 912.072 147.021 911.423 143.646 909.514ZM548.643 328.029C545.671 326.354 542.164 325.777 538.773 326.419L60.4658 416.626C56.7031 417.337 53.4305 419.429 51.2641 422.524C49.0976 425.619 48.2837 429.335 48.9821 432.996L137.804 898.396C138.565 902.377 141.052 905.817 144.646 907.847C147.617 909.522 151.117 910.095 154.516 909.457L632.83 819.254C640.606 817.787 645.76 810.443 644.311 802.873L555.489 337.473C554.728 333.492 552.233 330.048 548.647 328.022L548.643 328.029Z" fill="#505050"/>
<path d="M121.001 901.74C116.873 899.409 114.094 895.437 113.363 890.839L41.4997 437.642C40.1705 429.251 46.1093 421.31 54.7313 419.947L520.396 346.364C523.984 345.794 527.692 346.454 530.809 348.222C534.938 350.553 537.716 354.525 538.448 359.123L610.307 812.327C611.636 820.718 605.697 828.659 597.083 830.026L131.422 903.602C127.826 904.168 124.13 903.504 121.001 901.74ZM529.825 349.877C527.088 348.331 523.846 347.755 520.703 348.245L55.0303 421.843C47.4831 423.034 42.2877 429.983 43.4499 437.34L115.313 890.537C115.952 894.561 118.388 898.043 121.997 900.081C124.734 901.627 127.969 902.199 131.123 901.705L596.8 828.119C604.347 826.928 609.542 819.979 608.376 812.629L536.509 359.421C535.87 355.397 533.431 351.923 529.821 349.885L529.825 349.877Z" fill="#505050"/>
<path d="M98.34 893.976C94.1729 891.626 91.4387 887.59 90.865 882.919L35.9565 441.913C34.938 433.728 40.9527 426.209 49.3614 425.15L502.388 368.183C505.758 367.761 509.081 368.407 511.999 370.054C516.174 372.409 518.9 376.441 519.486 381.108L574.386 822.129C575.404 830.313 569.39 837.833 560.985 838.884L107.958 895.851C104.588 896.273 101.265 895.627 98.34 893.976V893.976ZM510.998 371.721C508.457 370.284 505.554 369.717 502.625 370.086L49.5979 427.053C42.2673 427.971 37.0303 434.525 37.9172 441.665L92.8215 882.678C93.3274 886.749 95.7075 890.26 99.3403 892.31C101.881 893.746 104.777 894.309 107.718 893.937L560.741 836.978C568.071 836.06 573.308 829.506 572.422 822.366L517.517 381.353C517.011 377.281 514.631 373.77 510.991 371.717L510.998 371.721Z" fill="#505050"/>
<path d="M75.6797 886.23C71.5125 883.88 68.7782 879.681 68.3683 874.997L30.4145 446.183C29.7067 438.204 35.7973 431.107 43.9885 430.359L484.361 390.02C487.46 389.737 490.51 390.378 493.177 391.889C497.345 394.239 500.079 398.438 500.489 403.122L538.438 831.944C539.139 839.918 533.056 847.02 524.864 847.768L84.4918 888.107C81.3933 888.39 78.3474 887.741 75.6756 886.238L75.6797 886.23ZM492.189 393.552C489.875 392.24 487.232 391.681 484.535 391.929L44.1549 432.264C37.0486 432.913 31.766 439.08 32.3815 445.995L70.3235 874.813C70.6854 878.878 73.0626 882.522 76.6722 884.56C78.9904 885.864 81.6333 886.423 84.3182 886.179L524.699 845.844C531.797 845.191 537.083 839.036 536.472 832.112L498.53 403.294C498.168 399.229 495.799 395.59 492.181 393.548L492.189 393.552Z" fill="#505050"/>
<path d="M53.0016 878.497C48.7693 876.104 46.0987 871.842 45.8621 867.074L24.8748 450.447C24.4854 442.679 30.6519 436.004 38.6257 435.566L466.356 411.851C469.179 411.696 471.957 412.333 474.386 413.704C478.611 416.093 481.285 420.367 481.526 425.127L502.513 841.754C502.906 849.515 496.736 856.198 488.762 856.635L61.0198 880.354C58.1969 880.508 55.4235 879.864 52.9939 878.493L53.0016 878.497ZM473.378 415.366C471.287 414.187 468.889 413.628 466.448 413.766L38.7178 437.482C31.8317 437.869 26.504 443.629 26.8401 450.336L47.8273 866.962C48.0322 871.082 50.342 874.777 53.9978 876.838C56.0968 878.021 58.4868 878.576 60.9277 878.438L488.662 854.715C495.548 854.328 500.876 848.568 500.532 841.858L479.545 425.231C479.34 421.112 477.034 417.428 473.37 415.362L473.378 415.366Z" fill="#505050"/>
<path d="M30.3132 870.786C26.0732 868.389 23.407 863.937 23.3577 859.149L19.337 454.711C19.2618 447.159 25.5084 440.899 33.2647 440.772L448.345 433.677C450.901 433.636 453.398 434.264 455.585 435.502C459.825 437.899 462.487 442.358 462.541 447.138L466.566 851.569C466.641 859.121 460.398 865.374 452.638 865.508L37.5574 872.603C35.0018 872.644 32.5046 872.016 30.3132 870.786V870.786ZM454.585 437.168C452.705 436.106 450.552 435.567 448.363 435.603L33.2749 442.694C26.6054 442.808 21.2398 448.185 21.2964 454.682L25.333 859.11C25.3768 863.291 27.6078 867.023 31.3135 869.119C33.1933 870.181 35.346 870.721 37.5431 870.689L452.628 863.586C459.289 863.468 464.663 858.095 464.594 851.601L460.57 447.17C460.526 442.989 458.295 439.257 454.589 437.161L454.585 437.168Z" fill="#505050"/>
<path d="M7.60846 863.086C3.28372 860.646 0.701682 856.094 0.856923 851.218L13.7908 458.971C14.0341 451.629 20.3602 445.802 27.8954 445.975L430.338 455.496C432.615 455.553 434.855 456.166 436.804 457.263C441.129 459.703 443.723 464.252 443.552 469.139L430.622 861.378C430.379 868.72 424.06 874.551 416.521 874.366L14.0827 864.857C11.8058 864.8 9.56523 864.187 7.60846 863.086V863.086ZM435.8 458.937C434.132 457.992 432.212 457.475 430.262 457.432L27.8314 447.907C21.3862 447.752 15.975 452.742 15.7639 459.026L2.83815 851.258C2.69907 855.433 4.91076 859.328 8.61282 861.412C10.2811 862.357 12.1967 862.881 14.1467 862.925L416.585 872.453C423.03 872.609 428.441 867.619 428.652 861.335L441.59 469.099C441.721 464.92 439.51 461.026 435.812 458.933L435.8 458.937Z" fill="#505050"/>
</g>
</g>
</g>
</g>
<defs>
<clipPath id="clip0_1044_2">
<rect width="802" height="692" fill="white"/>
</clipPath>
<clipPath id="clip1_1044_2">
<rect width="1207.19" height="1136.01" fill="white" transform="matrix(0.476077 -0.879404 0.891269 0.453476 -160.299 777.664)"/>
</clipPath>
</defs>
</svg>
