<svg width="24" height="31" viewBox="0 0 24 31" fill="none" xmlns="http://www.w3.org/2000/svg">
<path d="M15.2031 1.32129V7.47208C15.2031 7.87991 15.3651 8.27102 15.6535 8.5594C15.9419 8.84777 16.333 9.00978 16.7408 9.00978H22.8916" stroke="white" stroke-width="2.05026" stroke-linecap="round" stroke-linejoin="round"/>
<path d="M19.8157 28.9999H4.43868C3.62303 28.9999 2.84079 28.6758 2.26404 28.0991C1.6873 27.5223 1.36328 26.7401 1.36328 25.9245V4.39669C1.36328 3.58104 1.6873 2.7988 2.26404 2.22205C2.84079 1.6453 3.62303 1.32129 4.43868 1.32129H15.2026L22.8911 9.00978V25.9245C22.8911 26.7401 22.567 27.5223 21.9903 28.0991C21.4135 28.6758 20.6313 28.9999 19.8157 28.9999Z" stroke="white" stroke-width="2.05026" stroke-linecap="round" stroke-linejoin="round"/>
<path d="M10.5898 18.2363H12.1275V24.3871H13.6652" stroke="white" stroke-width="2.05026" stroke-linecap="round" stroke-linejoin="round"/>
<path d="M12.1289 13.623H12.1492" stroke="white" stroke-width="2.05026" stroke-linecap="round" stroke-linejoin="round"/>
</svg>
