<svg width="153" height="41" viewBox="0 0 153 41" fill="none" xmlns="http://www.w3.org/2000/svg">
<path fill-rule="evenodd" clip-rule="evenodd" d="M33.3179 1.97926C36.2864 3.20346 38.9269 4.93175 41.1672 7.25213V7.23613C43.5276 9.68454 45.2079 12.517 46.04 15.8296C46.5041 17.6939 46.6481 19.5822 46.4801 21.4945C46.1761 24.8871 44.9519 27.9276 42.9355 30.664C41.0632 33.1924 38.7268 35.1768 35.9984 36.721C33.494 38.1373 30.8135 39.0734 27.989 39.5855C25.9407 39.9616 23.8764 40.0736 21.796 39.9616C18.8195 39.8095 15.947 39.1694 13.1946 38.0252C10.026 36.705 7.23359 34.8327 4.9212 32.2803C2.74484 29.8799 1.20858 27.1274 0.45646 23.9589C0.0163864 22.0946 -0.103634 20.2063 0.0883984 18.294C0.424454 14.9974 1.62465 12.0529 3.56898 9.39649C5.5213 6.73205 8.00171 4.66771 10.8982 3.09144C13.4186 1.72322 16.0991 0.827067 18.9235 0.36299C20.3638 0.12295 21.804 0.0189323 23.0042 0.00292969C26.7408 0.00292969 30.1014 0.643036 33.3179 1.97926ZM8.00171 26.9994C8.63382 27.9356 9.37794 28.7597 10.3141 29.3918L10.2981 29.3998C12.6345 30.9761 15.1229 31.1601 17.7233 30.1599C18.7075 29.7839 19.5716 29.2078 20.3878 28.5517C20.5238 28.4157 20.6598 28.2876 20.7958 28.1596C21.4788 27.527 22.039 26.791 22.5984 26.0561C22.6616 25.9731 22.7248 25.8901 22.7882 25.8072L22.9709 25.5662L22.9709 25.5661L22.9709 25.5661L22.9709 25.5661L22.9709 25.5661L22.9709 25.5661L22.971 25.5661L22.971 25.566L22.971 25.566L22.971 25.566L22.971 25.566L22.971 25.566L22.971 25.566L22.971 25.5659L22.971 25.5659L22.9711 25.5659L22.9711 25.5659L22.9711 25.5659L22.9711 25.5658L22.9711 25.5658L22.9711 25.5658L22.9711 25.5658L22.9711 25.5658C23.8385 24.4212 24.7091 23.2725 25.6286 22.1586C25.6538 22.1289 25.6776 22.0979 25.7014 22.0669L25.7015 22.0668C25.7611 21.9893 25.8207 21.9117 25.9007 21.8546C27.1729 20.3023 28.5411 18.8541 30.1414 17.6379C30.9575 17.0138 31.8297 16.4937 32.8138 16.1736C34.1341 15.7415 35.4063 15.8136 36.6145 16.5337C37.1746 16.8697 37.6706 17.3018 38.0787 17.8139C38.2547 18.0299 38.4308 18.0939 38.6948 18.0859C39.0578 18.0806 39.4244 18.0824 39.7898 18.0842L39.7907 18.0842C39.9727 18.0851 40.1543 18.0859 40.3351 18.0859C40.3611 18.0859 40.3871 18.0874 40.4131 18.0889C40.4911 18.0934 40.5691 18.0979 40.6471 18.0619L40.6472 18.0619C40.6551 18.0379 40.6631 18.0139 40.6631 17.9979C40.6631 17.9728 40.6588 17.9499 40.6546 17.928C40.6508 17.9081 40.6471 17.889 40.6471 17.8699C40.3751 16.4937 39.975 15.1654 39.2949 13.9252C38.3908 12.277 37.1186 11.0208 35.3583 10.3086C34.014 9.76455 32.6298 9.48451 31.1656 9.71654C29.5413 9.97259 28.069 10.5647 26.7328 11.5088C26.554 11.6359 26.3807 11.7658 26.208 11.8951C26.0872 11.9857 25.9666 12.076 25.8447 12.165C25.76 12.2443 25.6749 12.3235 25.5898 12.4027C25.1597 12.8027 24.7278 13.2044 24.3404 13.6452C23.6283 14.4533 22.9882 15.3095 22.4121 16.2136C21.86 17.0858 21.2839 17.9339 20.6838 18.774C20.676 18.7858 20.6681 18.7981 20.6601 18.8105C20.6192 18.874 20.5747 18.9432 20.5078 18.9901C20.3149 19.3227 20.0722 19.6222 19.8303 19.9206C19.7812 19.9811 19.7322 20.0416 19.6837 20.1023C18.7955 21.2145 17.8353 22.2546 16.6752 23.0948C15.827 23.7189 14.9069 24.1909 13.8587 24.375C12.8265 24.551 11.8023 24.503 10.8182 24.1189C8.38578 23.1668 7.36961 20.5023 8.5378 18.1579C9.00988 17.1978 9.77001 16.5417 10.7062 16.0776C12.2424 15.3175 13.8667 15.0534 15.579 15.2855C16.8192 15.4535 18.0194 15.7335 19.1716 16.2136C19.5747 16.3834 19.9591 16.5906 20.3413 16.7967L20.4918 16.8777C20.4918 16.8377 20.4958 16.7957 20.4998 16.7537C20.5038 16.7117 20.5078 16.6697 20.5078 16.6297C20.5158 16.0256 20.5218 15.4215 20.5278 14.8174C20.5338 14.2133 20.5398 13.6092 20.5478 13.0051V12.725C20.406 12.6001 20.2613 12.4766 20.1161 12.3527C19.9174 12.183 19.7178 12.0126 19.5236 11.8369C18.6435 11.0528 17.6673 10.4287 16.5471 10.0446C15.491 9.68454 14.4188 9.53251 13.3146 9.69254C12.4745 9.81256 11.6743 10.0766 10.9062 10.4127C8.88186 11.3008 7.47363 12.765 6.7215 14.8454C6.25742 16.1416 6.08139 17.4778 6.04939 18.8381C6.01738 19.9582 6.1054 21.0784 6.24942 22.1986C6.26015 22.2898 6.27021 22.3813 6.28027 22.4728C6.33022 22.9269 6.38027 23.382 6.51347 23.8149C6.85752 24.9431 7.3376 26.0153 8.00171 26.9994ZM38.2867 28.2716C39.751 26.5593 40.4311 24.511 40.7752 22.3346C40.8072 22.1426 40.7912 22.1346 40.5751 22.1266C40.4071 22.1206 40.2391 22.1151 40.071 22.1096C39.567 22.0931 39.0629 22.0766 38.5588 22.0466L38.4896 22.0425C38.3275 22.0326 38.2573 22.0283 38.2115 22.0597C38.1766 22.0837 38.156 22.1284 38.1195 22.2074L38.1195 22.2075C38.1041 22.2408 38.0859 22.2802 38.0627 22.3266C37.6146 23.2388 36.9745 23.9669 36.0784 24.463C34.9422 25.0951 33.71 25.2311 32.4458 25.1351C31.0775 25.0231 29.7813 24.655 28.5091 24.1669C27.629 23.8229 26.7808 23.4068 25.9407 22.9747L25.9409 22.9986C25.9488 24.1507 25.9567 25.295 25.9567 26.4393C25.9567 26.5113 25.9727 26.5833 25.9887 26.6554C26.0499 26.7242 26.1111 26.7939 26.1726 26.8638L26.1726 26.8638L26.1729 26.8642L26.1733 26.8647L26.1734 26.8648C26.3045 27.014 26.4368 27.1646 26.5728 27.3115C27.677 28.5037 28.9332 29.4958 30.4534 30.1119C31.6136 30.584 32.8138 30.784 34.062 30.624C35.7823 30.4 37.1746 29.5758 38.2867 28.2716ZM59.0547 24.9367C59.0228 24.9682 58.9595 24.9679 58.832 24.9673L58.7702 24.9671L58.7542 24.9751H55.2497L55.2296 24.975L55.2049 24.9747L55.1655 24.9738L55.1456 24.9733C55.0763 24.9715 55.007 24.9697 54.9376 24.9751C54.8096 24.9831 54.7776 24.9191 54.7776 24.8071V24.647V9.82856C54.7776 9.66644 54.7776 9.58644 54.8161 9.53552C54.8535 9.48593 54.9276 9.46393 55.0736 9.4205C55.6975 9.23254 56.3213 9.04659 56.9452 8.86063L56.9461 8.86037C57.5701 8.67435 58.1942 8.48833 58.8183 8.30031C58.8903 8.27631 58.9623 8.2523 59.0823 8.27631V12.9091C59.0823 14.4613 59.0823 16.0056 59.1383 17.5738C59.2263 17.4618 59.3143 17.3498 59.3944 17.2298C59.6135 16.921 59.8326 16.6126 60.0516 16.3044L60.052 16.3038L60.054 16.301L60.0555 16.2989C60.8907 15.1233 61.7238 13.9507 62.5469 12.7731C62.6829 12.581 62.8189 12.501 63.059 12.501H67.0996H67.3957C67.4144 12.607 67.3553 12.6693 67.3019 12.7257L67.3018 12.7257C67.2867 12.7417 67.272 12.7572 67.2597 12.7731L66.5382 13.7124C65.5087 15.0531 64.4825 16.3895 63.451 17.7259C63.419 17.7739 63.379 17.8299 63.339 17.8779C63.3151 17.9101 63.2942 17.937 63.2763 17.9601C63.2252 18.0259 63.1983 18.0605 63.196 18.0967C63.1934 18.137 63.2213 18.1793 63.2801 18.2685L63.2802 18.2687C63.293 18.2881 63.3073 18.3097 63.323 18.334C64.0029 19.3698 64.6848 20.4057 65.3667 21.4415C66.049 22.478 66.7314 23.5145 67.4117 24.551C67.4556 24.6213 67.4996 24.6892 67.5488 24.7653L67.5496 24.7665C67.5898 24.8287 67.6336 24.8962 67.6837 24.9751H66.9316C66.4755 24.9751 66.0194 24.9733 65.5634 24.9715C64.6512 24.968 63.7391 24.9644 62.8269 24.9751C62.5949 24.9751 62.4829 24.8951 62.3708 24.695C61.3467 22.8227 60.3145 20.9584 59.2823 19.0941C59.2707 19.0747 59.2604 19.0543 59.2499 19.0334C59.217 18.968 59.1812 18.8967 59.0903 18.8301V19.1501V24.479V24.639C59.0896 24.6686 59.0892 24.6955 59.0889 24.72V24.7203C59.0871 24.8435 59.0862 24.9056 59.0547 24.9367ZM113.597 18.2616C113.539 18.1797 113.51 18.1384 113.51 18.0978C113.511 18.0566 113.543 18.016 113.607 17.9343C113.627 17.9092 113.649 17.8801 113.675 17.8459C114.137 17.2452 114.601 16.6445 115.064 16.0434C115.884 14.9792 116.706 13.9138 117.524 12.8451C117.541 12.8223 117.559 12.8 117.577 12.7775C117.636 12.7051 117.695 12.6307 117.732 12.533C117.653 12.4967 117.579 12.5016 117.51 12.5061C117.488 12.5076 117.466 12.509 117.444 12.509H113.371C113.131 12.509 112.995 12.589 112.867 12.7891C111.843 14.3413 110.811 15.8856 109.771 17.4298C109.731 17.4938 109.691 17.5498 109.643 17.6139C109.603 17.6699 109.539 17.6779 109.475 17.6699C109.403 17.6569 109.4 17.607 109.397 17.5588V17.5587C109.397 17.5475 109.396 17.5364 109.395 17.5258V17.2698V8.62836V8.37232C109.395 8.2683 109.339 8.2523 109.251 8.27631C109.195 8.29231 109.131 8.31631 109.075 8.34032L106.458 9.25247C106.312 9.3021 106.167 9.35279 106.023 9.40339L106.022 9.40345L106.022 9.40358C105.771 9.49158 105.52 9.57928 105.266 9.66054C105.146 9.70054 105.066 9.75655 105.082 9.90858C105.087 9.96221 105.085 10.0194 105.084 10.0754V10.0756V10.0758V10.076V10.0762C105.083 10.1035 105.082 10.1305 105.082 10.1566V20.9104V24.631L105.082 24.689L105.082 24.7149C105.081 24.8537 105.08 24.9203 105.113 24.9515C105.144 24.9802 105.202 24.979 105.315 24.9767H105.315H105.315L105.315 24.9767C105.352 24.9759 105.394 24.9751 105.442 24.9751H108.475H109.203C109.355 24.9751 109.411 24.9191 109.395 24.775V24.551V19.0941C109.395 19.0649 109.389 19.032 109.383 18.9982L109.383 18.9981C109.365 18.8926 109.345 18.7784 109.491 18.742C109.628 18.7109 109.673 18.8255 109.712 18.9269C109.724 18.9556 109.734 18.9832 109.747 19.0061C110.803 20.9104 111.851 22.8067 112.899 24.719C112.995 24.8951 113.091 24.9751 113.307 24.9751C114.19 24.9659 115.075 24.9672 115.959 24.9685H115.96H115.96H115.96H115.96H115.96H115.96H115.96H115.961H115.961H115.961H115.961H115.961H115.961H115.961H115.962H115.962H115.962H115.962H115.962H115.962H115.962C116.625 24.9695 117.287 24.9705 117.948 24.9671C117.962 24.9671 117.977 24.969 117.992 24.971C118.047 24.9781 118.106 24.9859 118.156 24.9111C118.092 24.8151 118.02 24.711 117.948 24.607C117.536 24.0087 117.124 23.4111 116.713 22.8137L116.703 22.7992L116.702 22.7984C115.686 21.3238 114.67 19.8509 113.659 18.374H113.675C113.657 18.3474 113.641 18.3237 113.626 18.3023L113.597 18.2616ZM70.4044 12.6287C72.6608 11.8045 74.9332 11.8365 77.1175 12.8687H77.1255C79.3099 13.9089 80.5341 15.6612 80.7741 18.0856C80.8861 19.2698 80.7261 20.414 80.222 21.4941C79.5499 22.9424 78.4057 23.9105 76.9495 24.5266C75.8453 24.9907 74.6931 25.1828 73.5409 25.1748C71.9887 25.1828 70.5484 24.8867 69.2362 24.1266C67.4119 23.0704 66.4117 21.4781 66.2197 19.3818C66.0997 18.0696 66.2997 16.8214 66.9078 15.6532C67.676 14.1889 68.8681 13.1888 70.4044 12.6287ZM73.4849 22.1663C74.5491 22.1663 75.3332 21.6782 75.8293 20.734V20.726C76.1654 20.0859 76.2854 19.3978 76.2774 18.6857C76.2854 17.9255 76.1574 17.1974 75.8133 16.5173C75.3252 15.5732 74.5411 15.0771 73.4769 15.0771C72.4207 15.0851 71.6526 15.5812 71.1725 16.5173C70.9325 16.9894 70.7965 17.4935 70.7405 18.0216C70.6364 18.9577 70.7085 19.8779 71.1485 20.726C71.6366 21.6702 72.4207 22.1663 73.4849 22.1663ZM103.378 22.1026V17.2138C103.378 16.7497 103.338 16.2936 103.242 15.8376C102.946 14.4693 102.185 13.4532 100.937 12.8131C100.033 12.349 99.0569 12.1489 98.0488 12.1009C97.2566 12.0609 96.4725 12.0769 95.6884 12.1569C94.6482 12.261 93.632 12.461 92.6559 12.8451C92.4799 12.9091 92.4158 12.9971 92.4238 13.1811C92.4292 13.7412 92.4274 14.3013 92.4256 14.8614C92.4247 15.1414 92.4238 15.4215 92.4238 15.7015C92.4238 15.7154 92.4223 15.73 92.4208 15.7449L92.4208 15.7451C92.4152 15.7991 92.4092 15.8577 92.4718 15.9016C92.5039 15.9016 92.5359 15.8936 92.5599 15.8776C93.8401 15.2535 95.2083 15.0694 96.6085 15.0854C97.2086 15.0854 97.8087 15.1574 98.3528 15.4535C98.9929 15.7976 99.337 16.4697 99.257 17.1978C98.6686 17.0109 98.0563 17.0156 97.4511 17.0203L97.4506 17.0203C97.3564 17.021 97.2624 17.0218 97.1686 17.0218C96.7606 17.0218 96.3525 17.0458 95.9364 17.0778C94.9763 17.1658 94.0401 17.3338 93.152 17.7099C92.1998 18.1099 91.4317 18.718 91.0076 19.6942C90.7196 20.3663 90.6475 21.0704 90.7276 21.7906C90.8396 22.8867 91.3517 23.7349 92.2718 24.343C93.0239 24.8471 93.8801 25.0631 94.7682 25.1431C95.4003 25.1991 96.0324 25.1911 96.6565 25.0711C97.6007 24.8871 98.3688 24.407 99.0009 23.6869C99.0895 23.5851 99.178 23.4784 99.2706 23.3668C99.3453 23.2766 99.4228 23.1833 99.505 23.0868C99.5319 23.2866 99.5598 23.4797 99.5872 23.669C99.6333 23.9878 99.6779 24.2958 99.7131 24.607L99.7155 24.629C99.7529 24.9591 99.7529 24.9591 100.113 24.9591H103.57C103.586 24.7958 103.558 24.6547 103.531 24.5182L103.531 24.5181C103.518 24.454 103.505 24.3909 103.498 24.327C103.41 23.5828 103.386 22.8387 103.386 22.0946L103.378 22.1026ZM99.281 19.5982C99.209 20.5583 98.8249 21.3585 98.0408 21.9426C97.2806 22.5107 96.2005 22.5347 95.4403 22.0226C94.9123 21.6705 94.6802 21.1024 94.8322 20.5583C94.9202 20.2623 95.1043 20.0463 95.3603 19.8782C95.8084 19.5822 96.3205 19.4702 96.8486 19.4222C97.2246 19.3902 97.6007 19.3661 97.9528 19.3741H99.0569C99.289 19.3741 99.305 19.3902 99.281 19.5982ZM89.1912 25.058C89.0049 25.0846 88.8187 25.1112 88.6314 25.1268V25.1348C87.5512 25.2228 86.487 25.2068 85.4389 24.9187C84.1026 24.5507 83.2785 23.6945 82.9424 22.3503C82.7664 21.6462 82.7344 20.9341 82.7344 20.222V16.1573V15.8132L82.7331 15.7483V15.7482C82.7308 15.6269 82.7297 15.5685 82.7 15.5408C82.6725 15.5151 82.6205 15.5156 82.5204 15.5167C82.4982 15.5169 82.4736 15.5172 82.4464 15.5172H80.7101H80.486C80.414 15.5172 80.374 15.4852 80.374 15.4052V15.2771V12.7567C80.374 12.5167 80.382 12.5167 80.6221 12.5167H82.5504L82.5982 12.5168L82.6762 12.5176C82.8264 12.5193 82.8986 12.5201 82.9326 12.4845C82.964 12.4515 82.9627 12.3874 82.9602 12.2639V12.2634V12.2629C82.9594 12.2232 82.9585 12.1774 82.9585 12.1246V9.94825C82.9585 9.78822 82.9985 9.70821 83.1585 9.6522C83.9343 9.37332 84.7069 9.088 85.4803 8.80237L85.4818 8.80183C85.9284 8.63692 86.3752 8.47192 86.8231 8.30798L86.8401 8.30052C86.8906 8.27815 86.9424 8.25521 87.0071 8.28397C87.0432 8.36209 87.0386 8.44922 87.0341 8.53521V8.53527C87.0326 8.56377 87.0311 8.59215 87.0311 8.62003V12.1486V12.1806C87.0311 12.346 87.0311 12.428 87.0721 12.4687C87.1125 12.5087 87.1925 12.5087 87.3512 12.5087H89.5916H89.7836C89.917 12.5087 89.983 12.5087 90.0156 12.5417C90.0476 12.574 90.0476 12.638 90.0476 12.7647C90.0476 12.9911 90.0485 13.2184 90.0494 13.446V13.4466V13.4472V13.4477V13.4483V13.4489V13.4495V13.4501V13.4507V13.4513V13.4519V13.4525V13.4531V13.4537V13.4543V13.4549V13.4556V13.4562V13.4568C90.0512 13.9093 90.053 14.3629 90.0476 14.8131C90.0452 14.884 90.0532 14.9602 90.0612 15.0359C90.0793 15.2078 90.0971 15.3772 89.9916 15.4772C89.8951 15.5737 89.7219 15.5534 89.5523 15.5334C89.4829 15.5253 89.4142 15.5172 89.3515 15.5172H87.2712C87.0391 15.5172 87.0391 15.5252 87.0391 15.7412C87.0418 16.2665 87.0391 16.7927 87.0365 17.3192V17.3196V17.32V17.3205V17.3209V17.3214V17.3218V17.3223V17.3227V17.3232V17.3236V17.3241V17.3245V17.325V17.3254V17.3259V17.3263V17.3267V17.3272V17.3273V17.3274V17.3276V17.3277V17.3278V17.3279V17.3281V17.3282V17.3283V17.3284V17.3286V17.3287V17.3288V17.329V17.3291V17.3292V17.3293V17.3295C87.0311 18.3874 87.0258 19.4465 87.0631 20.502C87.0711 20.742 87.1191 20.9821 87.1751 21.2141C87.4392 22.2623 88.2793 22.4863 89.0555 22.3663C89.2475 22.3363 89.4395 22.2928 89.6315 22.2493L89.6316 22.2493C89.6956 22.2348 89.7596 22.2203 89.8236 22.2063C89.9676 22.1743 90.0556 22.1983 90.0636 22.3823C90.1158 23.1348 90.1749 23.8804 90.2344 24.6319L90.2345 24.6324L90.2345 24.633L90.2477 24.7987C90.2557 24.9427 90.2076 24.9747 90.0716 24.9747C89.774 24.9747 89.4824 25.0164 89.1912 25.058ZM91.1916 29.1998C90.9916 29.2158 90.7916 29.2078 90.5915 29.1998C90.4475 29.1998 90.3675 29.2398 90.3035 29.3758C89.9647 30.1396 89.6145 30.8984 89.2644 31.6566C88.7382 32.7966 88.2124 33.9355 87.7271 35.0888C87.7216 35.1014 87.7179 35.1148 87.7141 35.1283C87.701 35.1748 87.6876 35.2222 87.607 35.2408C87.5592 35.1291 87.5133 35.0155 87.4675 34.9018L87.467 34.9007L87.4666 34.8996L87.4662 34.8987C87.4205 34.7854 87.3747 34.672 87.327 34.5607C87.0109 33.8486 86.6949 33.1384 86.3788 32.4283C86.0628 31.7182 85.7467 31.0081 85.4307 30.296L85.3635 30.1471L85.3634 30.1468C85.2421 29.8784 85.1227 29.614 85.0146 29.3438C84.9666 29.2318 84.9026 29.1838 84.7746 29.1918C84.6468 29.1971 84.5227 29.1953 84.3973 29.1936L84.397 29.1936C84.334 29.1927 84.2707 29.1918 84.2065 29.1918C84.185 29.1918 84.165 29.1916 84.1462 29.1915L84.1141 29.1911H84.114C83.9987 29.1897 83.9392 29.189 83.9088 29.2184C83.8765 29.2496 83.877 29.3148 83.878 29.4493C83.8782 29.4755 83.8784 29.5042 83.8784 29.5358V36.0329C83.8784 36.4597 84.0891 36.6544 84.5105 36.617H84.5425C84.6385 36.617 84.6706 36.569 84.6706 36.481V36.321V30.616C84.6706 30.6002 84.669 30.584 84.6675 30.5677C84.6619 30.5093 84.6561 30.4482 84.7186 30.392C84.7797 30.6825 84.8993 30.9438 85.0215 31.2108L85.0386 31.2481C85.2747 31.7682 85.5107 32.2903 85.7467 32.8124C85.9828 33.3345 86.2188 33.8566 86.4548 34.3766C86.7589 35.0568 87.071 35.7369 87.383 36.409C87.471 36.609 87.551 36.641 87.7431 36.609C87.8647 36.5898 87.8942 36.4988 87.9216 36.414C87.9258 36.4009 87.93 36.388 87.9344 36.3755L87.9397 36.3614L87.9431 36.353C88.2908 35.5676 88.6469 34.7858 89.0035 34.003L89.0039 34.002L89.0041 34.0017C89.5664 32.7672 90.1299 31.5301 90.6635 30.272C90.6235 30.632 90.6075 30.9921 90.6075 31.3441V36.0729C90.6075 36.4303 90.7836 36.6063 91.1356 36.601C91.3223 36.601 91.4157 36.5103 91.4157 36.329V36.233V31.0001V29.3918C91.4157 29.2318 91.3757 29.1598 91.1996 29.1758L91.1916 29.1998ZM134.058 32.7198C134.073 32.7218 134.088 32.7238 134.103 32.7279V32.7519C135.031 32.9439 135.607 33.7281 135.479 34.7762C135.359 35.7524 134.599 36.4725 133.591 36.6085C133.213 36.6589 132.831 36.6548 132.451 36.6507L132.451 36.6507C132.348 36.6496 132.245 36.6485 132.142 36.6485H131.166C131.038 36.6485 130.974 36.6005 130.982 36.4645V36.2725V29.5514L130.982 29.4981L130.982 29.4722L130.982 29.4682C130.981 29.3358 130.98 29.27 131.013 29.2375C131.045 29.2055 131.11 29.206 131.238 29.2069L131.272 29.2072L131.318 29.2073C131.529 29.2073 131.74 29.2055 131.95 29.2038C132.372 29.2002 132.793 29.1966 133.215 29.2073C133.743 29.2233 134.231 29.3593 134.631 29.7354C135.407 30.4635 135.247 31.8317 134.311 32.4398C134.238 32.4835 134.162 32.5242 134.086 32.5655C134.036 32.5924 133.985 32.6195 133.935 32.6479C133.964 32.7076 134.012 32.7138 134.058 32.7198ZM131.934 29.9514C131.798 29.9514 131.79 30.0314 131.79 30.1355V31.1596C131.79 31.2717 131.791 31.3837 131.792 31.4957C131.794 31.7197 131.796 31.9438 131.79 32.1678C131.782 32.3278 131.83 32.3918 131.998 32.3918C132.081 32.3918 132.164 32.3936 132.248 32.3954C132.416 32.3989 132.585 32.4025 132.75 32.3918C133.014 32.3838 133.271 32.3518 133.519 32.2398C134.063 31.9998 134.311 31.5357 134.247 30.8796C134.199 30.3995 133.879 30.1115 133.287 29.9994C132.988 29.9407 132.685 29.9461 132.384 29.9514C132.234 29.9541 132.084 29.9568 131.934 29.9514ZM133.687 35.7764C134.095 35.6404 134.431 35.4083 134.559 34.9843H134.567C134.783 34.2722 134.607 33.456 133.599 33.232C133.184 33.1419 132.766 33.1465 132.349 33.151C132.211 33.1525 132.072 33.154 131.934 33.152C131.797 33.1444 131.798 33.2379 131.798 33.3295L131.798 33.344V34.5122C131.798 34.6432 131.799 34.7742 131.8 34.9049C131.802 35.1653 131.804 35.4246 131.798 35.6804C131.79 35.8324 131.846 35.8804 131.998 35.8804H132.942C133.191 35.8724 133.447 35.8564 133.687 35.7764ZM117.604 28.8237C117.526 28.7285 117.392 28.7431 117.259 28.7576C117.202 28.7639 117.145 28.7701 117.092 28.7677C116.836 28.7677 116.828 28.7677 116.828 29.0238V31.7682C116.828 31.7851 116.831 31.8034 116.833 31.822C116.842 31.8827 116.851 31.9475 116.772 31.9842C116.532 31.6242 116.22 31.3681 115.804 31.2721C114.684 31.0081 113.691 31.4322 113.147 32.4563C112.939 32.8564 112.843 33.2805 112.803 33.7205C112.755 34.3606 112.803 34.9847 113.091 35.5608C113.403 36.1929 113.891 36.601 114.612 36.697C115.508 36.8171 116.252 36.569 116.828 35.7929V36.1609C116.828 36.2253 116.827 36.2806 116.826 36.328V36.3281C116.823 36.4727 116.822 36.545 116.857 36.5811C116.893 36.6173 116.965 36.617 117.111 36.6164C117.158 36.6163 117.213 36.616 117.276 36.617C117.313 36.617 117.345 36.6174 117.375 36.6177C117.505 36.6191 117.571 36.6198 117.604 36.5872C117.638 36.5538 117.637 36.4855 117.636 36.3471C117.636 36.3221 117.636 36.2948 117.636 36.265V29.3038C117.636 29.2551 117.642 29.203 117.648 29.1508C117.663 29.0232 117.678 28.8952 117.604 28.8157V28.8237ZM116.748 34.8887C116.484 35.7529 115.668 36.233 114.812 36.0169C114.363 35.9049 114.059 35.6249 113.851 35.2168C113.611 34.7287 113.571 34.2086 113.619 33.6805C113.659 33.2805 113.755 32.8964 113.987 32.5523C114.363 31.9922 115.06 31.7362 115.732 31.9282C116.356 32.1043 116.796 32.6724 116.82 33.3525V33.8566C116.82 33.9109 116.82 33.9652 116.821 34.0195V34.0196C116.824 34.3093 116.827 34.599 116.74 34.8887H116.748ZM58.3423 30.9877L58.3417 30.9882C58.1619 31.1861 57.982 31.3839 57.8022 31.5838L57.8102 31.5998C57.6247 31.8063 57.4393 32.0105 57.2527 32.2161L57.2525 32.2164L57.2474 32.222C57.0815 32.4048 56.9146 32.5886 56.746 32.776C57.8902 34.0562 59.0184 35.3204 60.1946 36.6406H59.1464C59.0231 36.6406 58.9643 36.5644 58.9048 36.4873C58.8948 36.4743 58.8847 36.4613 58.8743 36.4486C58.2182 35.6964 57.5701 34.9363 56.922 34.1762C56.7743 34.0045 56.6285 33.8328 56.4828 33.6611L56.4821 33.6602C56.336 33.4882 56.1899 33.3161 56.0419 33.144L56.031 33.13C56.0034 33.0936 55.9748 33.056 55.8898 33.056V36.2485V36.4726C55.8898 36.5926 55.8498 36.6406 55.7218 36.6406C55.6682 36.6406 55.6154 36.6397 55.563 36.6388H55.563H55.5629H55.5629H55.5629H55.5628H55.5628H55.5628H55.5627H55.5627H55.5626H55.5626H55.5626H55.5625C55.4587 36.637 55.356 36.6353 55.2497 36.6406C55.1057 36.6486 55.0657 36.5766 55.0737 36.4486V36.2885V29.5434V29.4474C55.0777 29.3274 55.0797 29.2674 55.1107 29.2374C55.1417 29.2074 55.2018 29.2074 55.3218 29.2074C55.3732 29.2074 55.4288 29.2005 55.4847 29.1936C55.6199 29.177 55.7569 29.1601 55.8418 29.2394C55.9345 29.3205 55.9182 29.4602 55.9021 29.598L55.9021 29.5981C55.8959 29.6506 55.8898 29.7029 55.8898 29.7515V32.3039V32.6159C55.9781 32.6285 56.0117 32.5766 56.0415 32.5306L56.0477 32.5211C56.0536 32.5121 56.0596 32.5035 56.0659 32.4959C56.97 31.4718 57.8742 30.4396 58.7623 29.4074C58.8904 29.2554 59.0184 29.1834 59.2184 29.1994C59.3632 29.2097 59.5047 29.2067 59.6644 29.2032H59.6645H59.6645H59.6645H59.6646H59.6646H59.6646H59.6647H59.6647H59.6647H59.6648H59.6648H59.6648H59.6649H59.6649C59.7522 29.2014 59.8449 29.1994 59.9465 29.1994C59.7005 29.5001 59.4544 29.7672 59.2135 30.0287L59.2133 30.0289C59.1017 30.15 58.9912 30.27 58.8823 30.3916C58.7025 30.5914 58.5226 30.7893 58.3428 30.9871L58.3423 30.9877ZM102.842 32.2799C102.706 31.8799 102.474 31.5358 102.074 31.3678C101.354 31.0797 100.657 31.1197 100.009 31.5758C99.8013 31.7198 99.6493 31.9199 99.4812 32.1599C99.4353 32.0418 99.4378 31.9505 99.4402 31.8642V31.8641L99.441 31.8318L99.4412 31.8078V29.3194C99.4412 29.2693 99.4477 29.2153 99.4542 29.1611C99.4706 29.0249 99.4871 28.8875 99.4012 28.8073C99.3149 28.721 99.1748 28.7382 99.0404 28.7546C98.988 28.761 98.9363 28.7673 98.8891 28.7673C98.7691 28.7673 98.7091 28.7673 98.6781 28.7973C98.6471 28.8273 98.6451 28.8873 98.6411 29.0074V29.1034V36.2886V36.4806C98.6411 36.5846 98.6811 36.6326 98.7931 36.6326H99.2972C99.4012 36.6326 99.4572 36.6006 99.4492 36.4886V36.2646V33.5521C99.4492 33.032 99.6253 32.584 100.017 32.2319C100.801 31.5278 101.914 31.8719 102.146 32.896C102.202 33.1521 102.218 33.4161 102.218 33.6802V36.0726C102.219 36.1848 102.216 36.2744 102.214 36.346V36.3461C102.209 36.4825 102.207 36.5532 102.241 36.5898C102.278 36.6292 102.357 36.6291 102.521 36.6289C102.597 36.6289 102.692 36.6288 102.81 36.6326C102.97 36.6326 103.002 36.5686 103.002 36.4326V36.4294C103.002 35.2943 103.002 34.1592 102.986 33.032C102.986 32.776 102.93 32.528 102.85 32.2879L102.842 32.2799ZM79.9077 31.3298L80.0585 31.3285C80.111 31.3281 80.1654 31.3278 80.222 31.3278L80.23 31.3198C79.6952 31.8696 79.1823 32.3975 78.6697 32.9251L78.668 32.9268L78.6432 32.9524L77.7415 33.8803C78.1836 34.3263 78.6217 34.7723 79.0587 35.2173L79.0592 35.2179L79.0598 35.2184L79.0603 35.2189L79.0608 35.2194L79.0613 35.2199L79.0618 35.2204L79.0623 35.2209L79.0676 35.2264L79.0691 35.2279L79.0707 35.2295C79.5078 35.6746 79.9439 36.1186 80.382 36.5607L80.3798 36.563L80.376 36.5676C80.3727 36.5717 80.3699 36.5761 80.3673 36.5807C80.3628 36.5885 80.3591 36.5967 80.3558 36.6043C80.3538 36.6087 80.3519 36.6129 80.35 36.6167H79.3818C79.2766 36.6167 79.2192 36.5496 79.1616 36.4822C79.1447 36.4625 79.1279 36.4428 79.1098 36.4247C78.678 35.9716 78.2462 35.5113 77.8144 35.0511L77.8137 35.0504C77.5976 34.8201 77.3815 34.5898 77.1655 34.3603C77.1294 34.3243 77.0934 34.2863 77.0574 34.2483C77.0214 34.2103 76.9854 34.1723 76.9494 34.1363C76.8674 34.1679 76.8749 34.2292 76.8818 34.2852C76.8836 34.3002 76.8854 34.3148 76.8854 34.3283V36.3767C76.8814 36.5021 76.8794 36.5641 76.8473 36.5948C76.816 36.6247 76.756 36.6247 76.6374 36.6247C76.264 36.6354 76.0773 36.4514 76.0773 36.0726V29.1995V29.0715L76.0772 29.0257V29.0256C76.0769 28.8894 76.0767 28.8243 76.1091 28.7935C76.1388 28.7654 76.1958 28.7659 76.3049 28.767L76.3367 28.7672L76.3813 28.7674C76.7174 28.7621 76.8854 28.9248 76.8854 29.2555V33.3842C76.8854 33.4343 76.8891 33.4826 76.893 33.5326C76.8971 33.5864 76.9014 33.6421 76.9014 33.7042L76.9333 33.6767C77.0399 33.5844 77.1333 33.5036 77.2135 33.4162C77.8136 32.7841 78.4057 32.144 78.9978 31.5039C79.1098 31.3759 79.2298 31.3198 79.4058 31.3278C79.5665 31.333 79.7272 31.3315 79.9075 31.3298H79.9077ZM149.929 33.8882L150.242 33.566L150.3 33.5067C150.992 32.7947 151.684 32.0814 152.418 31.3278C152.305 31.3278 152.201 31.3288 152.103 31.3297H152.103C151.923 31.3315 151.762 31.333 151.602 31.3278C151.425 31.3198 151.305 31.3838 151.193 31.5038C150.577 32.168 149.961 32.8321 149.345 33.4882C149.273 33.5602 149.201 33.6322 149.097 33.7522C149.097 33.662 149.092 33.5922 149.088 33.5312C149.086 33.5098 149.085 33.4895 149.083 33.4698C149.082 33.446 149.081 33.4231 149.081 33.4002V29.3035C149.081 28.9514 148.905 28.7754 148.553 28.7754C148.372 28.7754 148.278 28.8661 148.273 29.0474V29.2395V36.0806C148.273 36.4593 148.46 36.6434 148.833 36.6327C148.952 36.6327 149.012 36.6327 149.042 36.6027C149.073 36.572 149.073 36.51 149.073 36.3847V34.3683C149.073 34.3538 149.071 34.3383 149.07 34.3223C149.063 34.2589 149.056 34.1874 149.145 34.1363C149.209 34.2083 149.273 34.2803 149.337 34.3443C149.664 34.6907 149.988 35.039 150.313 35.3874L150.317 35.3925L150.322 35.3976L150.324 35.3998L150.325 35.401C150.649 35.7482 150.972 36.0954 151.297 36.4407C151.316 36.4593 151.333 36.4797 151.351 36.5001C151.408 36.5673 151.465 36.6346 151.569 36.6407H152.538C152.54 36.6358 152.543 36.6302 152.545 36.6242L152.55 36.6127C152.554 36.6027 152.558 36.5927 152.562 36.5847C151.69 35.6965 150.817 34.8084 149.929 33.9042V33.8882ZM125.613 31.2805C126.133 31.4085 126.486 31.7286 126.662 32.2327H126.646C126.734 32.4887 126.782 32.7608 126.782 33.0328V36.3774C126.782 36.6254 126.774 36.6254 126.542 36.6254C126.486 36.6229 126.427 36.6291 126.368 36.6352C126.238 36.6487 126.109 36.6622 126.021 36.5854C125.936 36.5056 125.95 36.3834 125.964 36.2587C125.972 36.1958 125.979 36.1323 125.973 36.0733C125.971 36.0492 125.974 36.025 125.976 36.0011C125.982 35.9539 125.987 35.9078 125.949 35.8653C125.901 35.8514 125.882 35.8919 125.868 35.9237L125.868 35.9238C125.866 35.9286 125.864 35.9331 125.861 35.9373C125.317 36.7774 124.341 36.8894 123.573 36.6174C123.077 36.4414 122.765 36.0733 122.669 35.5372C122.509 34.6571 122.909 33.961 123.749 33.6489C124.008 33.5541 124.277 33.5142 124.549 33.474L124.549 33.4739C124.621 33.4633 124.693 33.4526 124.765 33.4409C124.933 33.4169 125.099 33.3949 125.265 33.3729L125.266 33.3728L125.396 33.3555L125.504 33.3411C125.591 33.3294 125.678 33.3174 125.765 33.3048C125.904 33.2835 125.973 33.1982 125.973 33.0488C125.965 32.8488 125.917 32.6567 125.837 32.4727C125.693 32.1367 125.429 31.9446 125.061 31.9126C124.501 31.8566 123.981 31.9926 123.501 32.2967C123.45 32.3267 123.4 32.3614 123.341 32.4031C123.29 32.4391 123.231 32.4805 123.157 32.5287V31.8166C123.157 31.7046 123.237 31.6566 123.317 31.6086C123.645 31.4245 123.989 31.3045 124.357 31.2485C124.781 31.1845 125.197 31.1765 125.613 31.2805ZM124.173 36.0173C124.909 36.2013 125.653 35.7933 125.901 35.0651L125.909 35.0571C126.005 34.7634 125.999 34.4698 125.993 34.1639V34.1638C125.991 34.0863 125.989 34.0081 125.989 33.929C125.827 33.9515 125.668 33.9732 125.51 33.9946L125.509 33.9947C125.164 34.0418 124.828 34.0875 124.493 34.137C124.333 34.161 124.181 34.209 124.037 34.265C123.629 34.433 123.453 34.7611 123.485 35.2252C123.517 35.6252 123.765 35.9133 124.173 36.0173ZM140.616 32.5606C140.504 31.9765 140.224 31.5044 139.624 31.3284C138.767 31.0724 137.935 31.2004 137.159 31.6325L137.15 31.6374L137.137 31.6445L137.137 31.6446C137.088 31.6715 137.039 31.6978 137.039 31.7605V32.5286L137.116 32.4741L137.117 32.4738C137.211 32.4069 137.281 32.3572 137.351 32.3126C137.831 32.0005 138.359 31.8565 138.935 31.9045C139.272 31.9365 139.536 32.0885 139.688 32.4006C139.8 32.6166 139.84 32.8567 139.864 33.0967C139.872 33.2247 139.824 33.2807 139.696 33.2967C139.376 33.3368 139.048 33.3848 138.727 33.4328C138.677 33.44 138.626 33.447 138.575 33.4539C138.232 33.501 137.887 33.5484 137.559 33.6808C137.007 33.8968 136.655 34.2809 136.551 34.873C136.415 35.6171 136.711 36.2892 137.335 36.5693C138.015 36.8813 139.111 36.8653 139.712 36.0012C139.744 35.9532 139.784 35.9052 139.824 35.8572C139.832 35.8572 139.842 35.8612 139.852 35.8652C139.858 35.8678 139.865 35.8704 139.871 35.8719C139.874 35.8727 139.877 35.8732 139.88 35.8732V36.1212C139.88 36.4679 140.05 36.6386 140.392 36.6333C140.541 36.6333 140.615 36.6333 140.652 36.5963C140.688 36.56 140.688 36.488 140.688 36.3452V33.1927C140.688 32.9847 140.672 32.7687 140.632 32.5686L140.616 32.5606ZM139.8 34.969C139.584 35.7532 138.815 36.2172 138.047 36.0252C137.639 35.9212 137.375 35.6251 137.351 35.2331C137.311 34.761 137.511 34.4169 137.927 34.2649C138.071 34.2089 138.223 34.1609 138.383 34.1449C138.674 34.1012 138.962 34.0635 139.26 34.0244L139.26 34.0244C139.454 33.9991 139.651 33.9732 139.856 33.9448L139.859 34.0274C139.875 34.3624 139.888 34.6663 139.8 34.977V34.969ZM73.0446 31.2321C73.8528 31.3361 74.3568 31.8962 74.4368 32.7444C74.4529 32.9044 74.4529 33.0564 74.4529 33.2164V36.337V36.497C74.4529 36.585 74.4128 36.633 74.3168 36.633H74.2528C73.8581 36.649 73.6607 36.4623 73.6607 36.0729V35.8409C73.5569 35.8733 73.5163 35.9426 73.479 36.006C73.4703 36.0208 73.4618 36.0353 73.4527 36.0489C72.8206 36.9051 71.6124 36.8811 70.9723 36.489C70.5802 36.249 70.3642 35.8969 70.3242 35.4328C70.3162 35.3528 70.3162 35.2728 70.3162 35.1848C70.3242 34.4567 70.6682 33.9526 71.3483 33.6805C71.6548 33.5552 71.9794 33.5086 72.3064 33.4617C72.355 33.4547 72.4038 33.4477 72.4525 33.4405C72.5046 33.433 72.5565 33.4254 72.6083 33.4177L72.7208 33.4009L72.721 33.4008C72.9648 33.3642 73.2066 33.3279 73.4527 33.3045C73.6207 33.2885 73.6767 33.2244 73.6447 33.0644C73.6327 33.0084 73.6267 32.9504 73.6207 32.8924C73.6147 32.8344 73.6087 32.7764 73.5967 32.7204C73.4687 32.1843 73.1406 31.9122 72.5885 31.8962C72.0444 31.8722 71.5564 32.0323 71.1003 32.3283L71.0891 32.3361C71.0834 32.3402 71.0778 32.3445 71.0721 32.349C71.0633 32.3559 71.0546 32.3632 71.0456 32.3706C70.9932 32.4141 70.9349 32.4626 70.8282 32.4803C70.8282 32.4334 70.8311 32.3884 70.8339 32.3449C70.8391 32.2624 70.844 32.1856 70.8282 32.1123C70.7562 31.7522 70.9483 31.5922 71.2523 31.4642C71.8284 31.2321 72.4285 31.1521 73.0446 31.2321ZM73.3087 35.5208C73.5887 35.1928 73.6607 34.7927 73.6607 34.3766L73.6527 34.3686V34.1206C73.6687 33.9526 73.5967 33.9286 73.4447 33.9526C73.2837 33.9818 73.1198 34.0022 72.9547 34.0227C72.8489 34.0358 72.7427 34.049 72.6366 34.0646C72.6071 34.0691 72.5777 34.0735 72.5484 34.0778L72.4843 34.0872C72.2234 34.1251 71.9643 34.1628 71.7164 34.2566C71.3003 34.4166 71.1163 34.7287 71.1483 35.2328C71.1723 35.6088 71.4203 35.9129 71.8124 36.0089C72.4125 36.1609 72.9166 35.9929 73.3087 35.5208ZM96.9926 32.7204C96.9126 31.8882 96.4245 31.3361 95.6164 31.2321C94.9363 31.1361 94.2802 31.2321 93.648 31.5362C93.44 31.6402 93.352 31.7682 93.376 32.0002C93.3863 32.098 93.3833 32.1991 93.3799 32.3162C93.378 32.3813 93.376 32.4512 93.376 32.5283C93.448 32.4803 93.504 32.4403 93.553 32.4053C93.602 32.3703 93.644 32.3403 93.688 32.3123C94.1441 32.0163 94.6402 31.8722 95.1843 31.8962C95.6724 31.9202 95.9604 32.1443 96.1205 32.6003C96.1627 32.721 96.1776 32.8461 96.1927 32.9724C96.1976 33.0137 96.2026 33.055 96.2085 33.0964C96.2325 33.2325 96.1685 33.2805 96.0324 33.2965C95.8644 33.3125 95.6964 33.3365 95.5364 33.3605C95.3732 33.3886 95.2081 33.4098 95.0427 33.431C94.7377 33.4702 94.4319 33.5095 94.1361 33.5925C93.216 33.8566 92.7999 34.4487 92.8719 35.3928C92.9119 35.8809 93.136 36.249 93.56 36.497C94.1761 36.8571 95.3763 36.9051 96.0084 36.0409C96.0174 36.0274 96.0259 36.0133 96.0345 35.9989L96.0346 35.9988C96.0719 35.9366 96.1125 35.8688 96.2165 35.8169V36.465C96.2165 36.569 96.2485 36.617 96.3605 36.617C96.4082 36.617 96.4568 36.6161 96.5057 36.6152C96.6044 36.6135 96.7043 36.6117 96.8006 36.617C96.9766 36.633 97.0166 36.553 97.0086 36.393V34.4407C97.0086 34.287 97.0109 34.1334 97.0131 33.9798C97.0194 33.5573 97.0257 33.1348 96.9846 32.7124L96.9926 32.7204ZM95.8004 35.5928C95.4083 36.0169 94.9203 36.1449 94.3682 36.0089C93.9761 35.9129 93.7281 35.6008 93.7041 35.2248C93.68 34.7447 93.8561 34.4327 94.2561 34.2646C94.5026 34.1609 94.7647 34.1254 95.0257 34.0902C95.0867 34.0819 95.1476 34.0737 95.2083 34.0646C95.3401 34.044 95.4741 34.0276 95.6091 34.0112L95.6092 34.0111C95.7363 33.9956 95.8644 33.98 95.9924 33.9606C96.1048 33.9445 96.1608 33.9365 96.1897 33.9608C96.2185 33.9849 96.2205 34.0409 96.2245 34.1526V34.3446C96.2245 34.8087 96.1365 35.2408 95.8084 35.5928H95.8004ZM62.3706 31.3118C62.8347 31.1758 63.3068 31.1598 63.7788 31.2398L63.7708 31.2478C64.675 31.3918 65.2751 31.9199 65.5711 32.7761C65.8112 33.4722 65.8272 34.2003 65.6271 34.9124C65.3391 35.9606 64.459 36.8247 62.9867 36.7447C61.5945 36.6647 60.6823 35.7526 60.5863 34.3523C60.5783 34.2403 60.5703 34.1203 60.5703 34.0083C60.5783 33.5442 60.6423 33.0881 60.8344 32.656C61.1384 31.9759 61.6505 31.5198 62.3706 31.3118ZM62.8907 36.0486C63.6988 36.1686 64.555 35.8726 64.843 34.8164L64.827 34.8244C64.907 34.5524 64.939 34.2643 64.939 33.9843C64.947 33.7602 64.915 33.5442 64.875 33.3281C64.763 32.7761 64.523 32.312 63.9949 32.0559C62.9787 31.5599 61.8105 32.0799 61.4985 33.1601C61.3624 33.6322 61.3544 34.1123 61.4425 34.5924C61.5945 35.3925 62.1226 35.9286 62.8907 36.0486ZM146.361 32.0158C146.169 31.6557 145.881 31.3997 145.489 31.2877C144.712 31.0716 143.832 31.2077 143.264 31.9838C143.233 32.0208 143.207 32.0579 143.179 32.0986L143.152 32.1358C143.128 32.1358 143.112 32.1358 143.088 32.1278V31.4797C143.088 31.3997 143.072 31.3357 142.968 31.3357H142.4C142.304 31.3357 142.28 31.3917 142.28 31.4797V31.6717V36.3045L142.28 36.3667C142.279 36.5034 142.279 36.5723 142.313 36.6068C142.348 36.6417 142.418 36.6414 142.559 36.6408L142.624 36.6406C142.928 36.6406 143.08 36.4832 143.08 36.1685V33.5521C143.08 33.024 143.264 32.5599 143.672 32.2158C144.448 31.5517 145.529 31.9038 145.761 32.8879C145.817 33.12 145.841 33.368 145.841 33.6081V36.0965C145.841 36.3779 145.841 36.5179 145.911 36.5866C145.98 36.6547 146.118 36.6528 146.393 36.6489L146.417 36.6486C146.577 36.6486 146.641 36.6006 146.633 36.4325C146.63 35.9841 146.629 35.5343 146.628 35.0843V35.0841V35.0839V35.0837V35.0835V35.0833C146.627 34.4096 146.626 33.7354 146.617 33.064C146.617 32.7039 146.521 32.3599 146.345 32.0398L146.361 32.0158ZM110.435 31.3124C110.827 31.4404 111.099 31.7125 111.275 32.0806L111.259 32.0726C111.403 32.3766 111.491 32.6887 111.491 33.0167C111.507 34.1529 111.507 35.2891 111.507 36.4253C111.507 36.5693 111.467 36.6253 111.307 36.6253C111.189 36.6214 111.094 36.6215 111.018 36.6216C110.854 36.6218 110.775 36.6218 110.738 36.5825C110.704 36.5459 110.706 36.4752 110.711 36.3387C110.713 36.2671 110.716 36.1775 110.715 36.0652V33.6648C110.715 33.3848 110.699 33.1047 110.627 32.8247C110.395 31.9125 109.442 31.5605 108.666 32.1046C108.178 32.4406 107.962 32.9367 107.962 33.5128V36.2252V36.4493C107.97 36.5693 107.93 36.6253 107.802 36.6253H107.298C107.186 36.6333 107.154 36.5773 107.154 36.4733V36.2812V31.6805V31.4885C107.146 31.3604 107.202 31.3204 107.322 31.3204C107.376 31.3204 107.428 31.3213 107.481 31.3222C107.585 31.324 107.688 31.3257 107.794 31.3204C107.946 31.3124 107.97 31.3844 107.97 31.5125V32.1446C108.062 32.114 108.098 32.0554 108.131 32.0008C108.141 31.984 108.151 31.9676 108.162 31.9525C108.77 31.1524 109.73 31.0724 110.435 31.3124ZM69.2601 36.0164C68.6761 36.1685 68.316 35.9364 68.228 35.3443C68.2252 35.3217 68.2213 35.2991 68.2176 35.2768C68.2107 35.2361 68.204 35.1965 68.204 35.1603V35.1575C68.204 34.1742 68.204 33.183 68.196 32.1998C68.196 32.0638 68.244 32.0158 68.38 32.0158H69.1081C69.1496 32.0158 69.1873 32.0163 69.2215 32.017C69.2421 32.0174 69.2615 32.0179 69.2797 32.0183C69.4144 32.0216 69.4846 32.0234 69.5208 31.9891C69.5603 31.9518 69.5593 31.8718 69.5573 31.7047C69.5568 31.6622 69.5562 31.6141 69.5562 31.5597C69.5562 31.3356 69.5562 31.3277 69.3322 31.3277H68.484C68.348 31.3277 68.28 31.3277 68.245 31.2937C68.21 31.2597 68.208 31.1916 68.204 31.0556V29.7754C68.1328 29.7975 68.0654 29.8188 68.0004 29.8394L68.0002 29.8394L68 29.8395C67.8532 29.886 67.7185 29.9286 67.5799 29.9674C67.4599 29.9994 67.4118 30.0714 67.4198 30.1915V30.8876C67.4198 30.917 67.4201 30.9445 67.4203 30.9701L67.4213 31.0401V31.0401C67.4237 31.1899 67.4249 31.263 67.3889 31.2987C67.3547 31.3326 67.2869 31.3328 67.1546 31.3331H67.1545C67.1018 31.3332 67.0389 31.3333 66.9638 31.3357C66.8714 31.337 66.7973 31.3347 66.7377 31.3328C66.6234 31.3292 66.5629 31.3273 66.5309 31.3565C66.495 31.3893 66.4948 31.4611 66.4943 31.6133C66.4941 31.6711 66.4939 31.7405 66.4917 31.8237V31.8877C66.4917 31.9838 66.5397 32.0238 66.6277 32.0238H67.1318C67.2745 32.0238 67.3465 32.0238 67.3828 32.0598C67.4198 32.0964 67.4198 32.1704 67.4198 32.3198V35.0323C67.4198 35.2243 67.4198 35.4083 67.4438 35.6004C67.5079 36.1685 67.8119 36.5525 68.308 36.6885C68.596 36.7686 68.8921 36.7606 69.1881 36.7125C69.5482 36.6565 69.5722 36.6165 69.5722 36.2405C69.5722 36.2332 69.5724 36.2258 69.5726 36.2184C69.573 36.2071 69.5737 36.1957 69.5743 36.184C69.5784 36.1115 69.5828 36.033 69.5322 35.9444C69.489 35.9588 69.4506 35.9732 69.4142 35.9869L69.4141 35.9869L69.414 35.987L69.414 35.987C69.3696 36.0037 69.3281 36.0193 69.2841 36.0324L69.2601 36.0164ZM121.373 31.2564C121.429 31.2404 121.477 31.2324 121.533 31.2324L121.541 31.2484C122.045 31.2084 122.109 31.2724 122.109 31.7765V32.1206C121.989 32.0806 121.909 32.0566 121.829 32.0326L121.829 32.0326C121.333 31.8965 120.876 32.0486 120.58 32.4726C120.388 32.7367 120.276 33.0327 120.228 33.3448C120.188 33.5928 120.172 33.8409 120.172 34.0969V36.4013C120.172 36.6413 120.164 36.6413 119.924 36.6413C119.556 36.6467 119.372 36.4653 119.372 36.0972V31.7445V31.4885C119.364 31.3604 119.428 31.3284 119.54 31.3284C119.853 31.3084 120.009 31.2984 120.087 31.3716C120.164 31.4447 120.164 31.6007 120.164 31.9125V32.3366C120.261 32.2969 120.285 32.2211 120.308 32.149C120.317 32.1193 120.326 32.0902 120.34 32.0646C120.572 31.6485 120.892 31.3524 121.373 31.2564ZM105.218 31.3201C105.143 31.3255 105.064 31.3237 104.987 31.3219L104.987 31.3219C104.949 31.321 104.911 31.3201 104.874 31.3201C104.634 31.3201 104.634 31.3201 104.626 31.5602V33.9606V36.1369C104.626 36.4677 104.794 36.6304 105.13 36.625C105.279 36.625 105.353 36.625 105.39 36.588C105.426 36.5517 105.426 36.4797 105.426 36.337V33.1844V31.5442C105.426 31.3841 105.386 31.3041 105.218 31.3201ZM104.514 29.4002C104.514 29.1041 104.762 28.8641 105.058 28.8801L105.066 28.8721C105.346 28.8881 105.57 29.1281 105.57 29.4082C105.57 29.7042 105.314 29.9442 105.018 29.9362C104.738 29.9282 104.514 29.6882 104.514 29.4002Z" fill="#0F0F0E"/>
</svg>
