<svg width="213" height="172" viewBox="0 0 213 172" fill="none" xmlns="http://www.w3.org/2000/svg">
<path d="M207.089 162.573C206.111 163.551 206.111 165.135 207.089 166.112C208.066 167.089 209.651 167.089 210.628 166.112C211.606 165.135 211.606 163.551 210.628 162.573C209.651 161.596 208.066 161.596 207.089 162.573Z" fill="#FCEAE4" fill-opacity="0.12"/>
<path d="M188.54 144.02C187.552 145.008 187.552 146.611 188.54 147.599C189.529 148.587 191.131 148.587 192.12 147.599C193.108 146.611 193.108 145.008 192.12 144.02C191.131 143.032 189.529 143.032 188.54 144.02Z" fill="#FCEAE4" fill-opacity="0.12"/>
<path d="M170.51 161.59C169.399 162.7 169.399 164.5 170.51 165.611C171.621 166.721 173.422 166.721 174.532 165.611C175.643 164.5 175.643 162.7 174.532 161.59C173.422 160.479 171.621 160.479 170.51 161.59Z" fill="#FCEAE4" fill-opacity="0.12"/>
<path d="M151.945 143.026C150.818 144.153 150.818 145.98 151.945 147.107C153.072 148.234 154.9 148.234 156.028 147.107C157.155 145.98 157.155 144.153 156.028 143.026C154.9 141.899 153.072 141.899 151.945 143.026Z" fill="#FCEAE4" fill-opacity="0.12"/>
<path d="M133.8 160.465C132.479 161.787 132.479 163.929 133.8 165.25C135.122 166.572 137.265 166.572 138.587 165.25C139.909 163.929 139.909 161.787 138.587 160.465C137.265 159.144 135.122 159.144 133.8 160.465Z" fill="#FCEAE4" fill-opacity="0.12"/>
<path d="M133.383 124.473C132.244 125.611 132.244 127.457 133.383 128.595C134.521 129.733 136.367 129.733 137.506 128.595C138.644 127.457 138.644 125.611 137.506 124.473C136.367 123.335 134.521 123.335 133.383 124.473Z" fill="#FCEAE4" fill-opacity="0.12"/>
<path d="M115.261 141.932C113.94 143.253 113.94 145.396 115.261 146.717C116.583 148.038 118.726 148.038 120.048 146.717C121.369 145.396 121.369 143.253 120.048 141.932C118.726 140.611 116.583 140.611 115.261 141.932Z" fill="#FCEAE4" fill-opacity="0.12"/>
<path d="M96.8906 159.139C95.2473 160.782 95.2473 163.446 96.8906 165.09C98.5343 166.733 101.199 166.733 102.843 165.09C104.487 163.446 104.487 160.782 102.843 159.139C101.199 157.495 98.5343 157.495 96.8906 159.139Z" fill="#FCEAE4" fill-opacity="0.12"/>
<path d="M96.7585 123.429C95.453 124.733 95.453 126.849 96.7585 128.153C98.0628 129.458 100.179 129.458 101.484 128.153C102.789 126.849 102.789 124.733 101.484 123.429C100.179 122.124 98.0628 122.124 96.7585 123.429Z" fill="#FCEAE4" fill-opacity="0.12"/>
<path d="M77.7137 139.983C75.7257 141.97 75.7257 145.193 77.7137 147.18C79.7017 149.168 82.9253 149.168 84.9133 147.18C86.9013 145.193 86.9013 141.97 84.9133 139.983C82.9253 137.995 79.7017 137.995 77.7137 139.983Z" fill="#FCEAE4" fill-opacity="0.12"/>
<path d="M58.3114 156.156C55.429 159.037 55.429 163.709 58.3114 166.59C61.1938 169.471 65.866 169.471 68.7484 166.59C71.6307 163.709 71.6307 159.037 68.7484 156.156C65.866 153.274 61.1938 153.274 58.3114 156.156Z" fill="#FCEAE4" fill-opacity="0.12"/>
<path d="M78.2279 104.906C76.9282 106.205 76.9282 108.311 78.2279 109.611C79.5265 110.91 81.6336 110.91 82.9334 109.611C84.2331 108.311 84.2331 106.205 82.9334 104.906C81.6336 103.607 79.5265 103.607 78.2279 104.906Z" fill="#FCEAE4" fill-opacity="0.12"/>
<path d="M58.4806 120.756C56.1089 123.126 56.1089 126.97 58.4806 129.34C60.851 131.711 64.6965 131.711 67.067 129.34C69.4386 126.97 69.4386 123.126 67.067 120.756C64.6965 118.385 60.851 118.385 58.4806 120.756Z" fill="#FCEAE4" fill-opacity="0.12"/>
<path d="M39.6803 137.531C36.7486 140.462 36.7486 145.215 39.6803 148.146C42.613 151.078 47.3666 151.078 50.2993 148.146C53.231 145.215 53.231 140.462 50.2993 137.531C47.3666 134.6 42.613 134.6 39.6803 137.531Z" fill="#FCEAE4" fill-opacity="0.12"/>
<path d="M21.1874 154.629C17.8722 157.943 17.8722 163.317 21.1874 166.631C24.5026 169.946 29.878 169.946 33.1933 166.631C36.5085 163.317 36.5085 157.943 33.1933 154.629C29.878 151.314 24.5026 151.314 21.1874 154.629Z" fill="#FCEAE4" fill-opacity="0.12"/>
<path d="M59.6265 86.3122C58.2936 87.6447 58.2936 89.805 59.6265 91.1374C60.9595 92.4698 63.1204 92.4698 64.4534 91.1374C65.7864 89.805 65.7864 87.6447 64.4534 86.3122C63.1204 84.9799 60.9595 84.9799 59.6265 86.3122Z" fill="#FCEAE4" fill-opacity="0.12"/>
<path d="M39.9903 102.273C37.6462 104.616 37.6462 108.415 39.9903 110.758C42.3333 113.1 46.133 113.1 48.4771 110.758C50.8201 108.415 50.8201 104.616 48.4771 102.273C46.133 99.9305 42.3333 99.9305 39.9903 102.273Z" fill="#FCEAE4" fill-opacity="0.12"/>
<path d="M21.4864 119.34C18.7426 122.083 18.7426 126.53 21.4864 129.272C24.229 132.015 28.6769 132.015 31.4207 129.272C34.1645 126.53 34.1645 122.083 31.4207 119.34C28.6769 116.598 24.229 116.598 21.4864 119.34Z" fill="#FCEAE4" fill-opacity="0.12"/>
<path d="M2.95594 136.408C-0.187527 139.55 -0.187527 144.644 2.95594 147.787C6.09826 150.929 11.1954 150.929 14.3377 147.787C17.4812 144.644 17.4812 139.55 14.3377 136.408C11.1954 133.265 6.09826 133.265 2.95594 136.408Z" fill="#FCEAE4" fill-opacity="0.12"/>
<path d="M58.9977 50.0978C57.7255 51.3687 57.7255 53.4304 58.9977 54.7013C60.2689 55.9733 62.3313 55.9733 63.6024 54.7013C64.8747 53.4304 64.8747 51.3687 63.6024 50.0978C62.3313 48.8258 60.2689 48.8258 58.9977 50.0978Z" fill="#FCEAE4" fill-opacity="0.12"/>
<path d="M40.9957 67.6886C39.6135 69.071 39.6135 71.3122 40.9957 72.6946C42.3791 74.077 44.6213 74.077 46.0035 72.6946C47.3869 71.3122 47.3869 69.071 46.0035 67.6886C44.6213 66.3062 42.3791 66.3062 40.9957 67.6886Z" fill="#FCEAE4" fill-opacity="0.12"/>
<path d="M22.4105 84.6855C20.5885 86.5065 20.5885 89.4588 22.4105 91.2797C24.2324 93.1008 27.1846 93.1008 29.0066 91.2797C30.8285 89.4588 30.8285 86.5065 29.0066 84.6855C27.1846 82.8644 24.2324 82.8644 22.4105 84.6855Z" fill="#FCEAE4" fill-opacity="0.12"/>
<path d="M3.82297 101.681C1.56242 103.941 1.56242 107.604 3.82297 109.864C6.08351 112.123 9.74802 112.123 12.0086 109.864C14.268 107.604 14.268 103.941 12.0086 101.681C9.74802 99.4218 6.08351 99.4218 3.82297 101.681Z" fill="#FCEAE4" fill-opacity="0.12"/>
<path d="M40.4429 31.5441C39.1603 32.8264 39.1603 34.9064 40.4429 36.1887C41.7266 37.471 43.8063 37.471 45.0888 36.1887C46.3714 34.9064 46.3714 32.8264 45.0888 31.5441C43.8063 30.2618 41.7266 30.2618 40.4429 31.5441Z" fill="#FCEAE4" fill-opacity="0.12"/>
<path d="M22.4524 49.1442C21.0633 50.5328 21.0633 52.7831 22.4524 54.1705C23.8404 55.5591 26.0917 55.5591 27.4797 54.1705C28.8688 52.7831 28.8688 50.5328 27.4797 49.1442C26.0917 47.7568 23.8404 47.7568 22.4524 49.1442Z" fill="#FCEAE4" fill-opacity="0.12"/>
<path d="M4.63736 66.9262C3.2437 68.3197 3.2437 70.579 4.63736 71.9725C6.03102 73.3659 8.29042 73.3659 9.68522 71.9725C11.0789 70.579 11.0789 68.3197 9.68522 66.9262C8.29042 65.5327 6.03102 65.5327 4.63736 66.9262Z" fill="#FCEAE4" fill-opacity="0.12"/>
<path d="M21.886 13.0018C20.5965 14.2898 20.5965 16.3778 21.886 17.6658C23.1743 18.9538 25.263 18.9538 26.5513 17.6658C27.8397 16.3778 27.8397 14.2898 26.5513 13.0018C25.263 11.7138 23.1743 11.7138 21.886 13.0018Z" fill="#FCEAE4" fill-opacity="0.12"/>
<path d="M4.13059 30.8315C2.86518 32.0978 2.86518 34.1504 4.13059 35.4155C5.39713 36.6818 7.45041 36.6818 8.71696 35.4155C9.98237 34.1504 9.98237 32.0978 8.71696 30.8315C7.45041 29.5664 5.39713 29.5664 4.13059 30.8315Z" fill="#FCEAE4" fill-opacity="0.12"/>
<path d="M3.39017 -5.48153C2.12935 -4.22096 2.12935 -2.17866 3.39017 -0.918085C4.65099 0.342487 6.69395 0.342487 7.95477 -0.918085C9.2156 -2.17866 9.2156 -4.22096 7.95477 -5.48153C6.69395 -6.7421 4.65099 -6.7421 3.39017 -5.48153Z" fill="#FCEAE4" fill-opacity="0.12"/>
</svg>
