<svg width="36" height="37" viewBox="0 0 36 37" fill="none" xmlns="http://www.w3.org/2000/svg">
<g clip-path="url(#clip0_1311_355)">
<path d="M13.5 17C13.5 18.1935 13.9741 19.3381 14.818 20.182C15.6619 21.0259 16.8065 21.5 18 21.5C19.1935 21.5 20.3381 21.0259 21.182 20.182C22.0259 19.3381 22.5 18.1935 22.5 17C22.5 15.8065 22.0259 14.6619 21.182 13.818C20.3381 12.9741 19.1935 12.5 18 12.5C16.8065 12.5 15.6619 12.9741 14.818 13.818C13.9741 14.6619 13.5 15.8065 13.5 17Z" stroke="white" stroke-width="2" stroke-linecap="round" stroke-linejoin="round"/>
<path d="M26.4855 25.4851L20.121 31.8496C19.5585 32.4115 18.7959 32.7272 18.0008 32.7272C17.2056 32.7272 16.443 32.4115 15.8805 31.8496L9.51451 25.4851C7.83634 23.8068 6.69351 21.6686 6.23054 19.3409C5.76756 17.0131 6.00524 14.6003 6.91351 12.4077C7.82178 10.215 9.35985 8.34087 11.3332 7.02232C13.3066 5.70377 15.6267 5 18 5C20.3734 5 22.6934 5.70377 24.6668 7.02232C26.6402 8.34087 28.1782 10.215 29.0865 12.4077C29.9948 14.6003 30.2324 17.0131 29.7695 19.3409C29.3065 21.6686 28.1637 23.8068 26.4855 25.4851Z" stroke="white" stroke-width="2" stroke-linecap="round" stroke-linejoin="round"/>
</g>
<defs>
<clipPath id="clip0_1311_355">
<rect width="36" height="36" fill="white" transform="translate(0 0.5)"/>
</clipPath>
</defs>
</svg>
