<svg width="139" height="17" viewBox="0 0 139 17" fill="none" xmlns="http://www.w3.org/2000/svg">
<g clip-path="url(#clip0_392_13)">
<path d="M17.7695 14.4725V16.5517C17.7695 16.7759 17.6087 16.9594 17.3876 16.9594H4.36197C1.94982 16.9797 0 14.8191 0 12.1488V0.428182C0 0.203961 0.16081 0.0205078 0.381923 0.0205078H2.49255C2.69356 0.0205078 2.87448 0.203961 2.87448 0.428182V11.8227C2.87448 13.0457 3.77903 14.0445 4.8846 14.0445H17.4077C17.6087 14.0649 17.7695 14.2483 17.7695 14.4725Z" fill="white"/>
<path d="M43.459 16.9793H40.8257C40.5644 16.9793 40.3232 16.7958 40.2227 16.5309L35.8808 4.89177C35.4587 3.77067 34.4737 3.03686 33.3682 3.01647C32.2224 3.01647 31.2173 3.75029 30.8153 4.91216L26.574 16.5105C26.4735 16.7755 26.2322 16.9589 25.9709 16.9589H23.4181C23.2573 16.9589 23.1366 16.7755 23.197 16.592L28.4233 3.68914C29.6494 0.67235 32.8857 -0.897194 35.921 0.570432C37.2276 1.20233 38.2126 2.42535 38.7754 3.87259L43.6801 16.6124C43.7404 16.7959 43.6399 16.9793 43.459 16.9793Z" fill="white"/>
<path d="M67.5603 0.387414L62.3339 13.2903C61.1078 16.3071 57.8715 17.8766 54.8362 16.409C53.5296 15.7771 52.5446 14.5541 51.9818 13.1068L47.0771 0.387414C47.0168 0.224345 47.1173 0.0205078 47.2982 0.0205078H49.9315C50.1928 0.0205078 50.434 0.203961 50.5345 0.468949L54.8764 12.108C55.2985 13.2291 56.2835 13.963 57.389 13.9833C58.5348 13.9833 59.5399 13.2495 59.9419 12.0877L64.1832 0.489333C64.2838 0.224345 64.525 0.0408915 64.7863 0.0408915H67.3391C67.5201 0.0205078 67.6407 0.203961 67.5603 0.387414Z" fill="white"/>
<path d="M90.2949 7.90887V9.09113C90.2949 13.4532 86.7973 17 82.4956 17H80.5659C76.2642 17 72.7666 13.4532 72.7666 9.09113V7.90887C72.7666 3.54676 76.2642 0 80.5659 0H82.4956C86.8174 0 90.2949 3.54676 90.2949 7.90887ZM87.4003 8.41847C87.4003 5.23861 85.0083 2.67026 82.0333 2.67026H81.0081C78.0532 2.67026 75.6411 5.23861 75.6411 8.41847V8.70384C75.6411 11.8837 78.0331 14.452 81.0081 14.452H82.0534C85.0083 14.452 87.4204 11.8837 87.4204 8.70384V8.41847H87.4003Z" fill="white"/>
<path d="M114.416 16.4903C114.577 16.6737 114.456 16.9591 114.235 16.9591H111.32C110.999 16.9591 110.697 16.8164 110.476 16.5718L106.999 12.8416C106.838 12.6581 106.617 12.5766 106.376 12.5358H100.265C100.064 12.5358 99.8829 12.7193 99.8829 12.9435V16.531C99.8829 16.7553 99.722 16.9387 99.5009 16.9387H97.3702C97.1692 16.9387 96.9883 16.7553 96.9883 16.531V12.6581C96.9883 10.9867 98.3351 9.62098 99.9834 9.62098H110.054C111.662 9.62098 111.984 7.19532 111.984 6.25767C111.984 4.28045 111.401 2.89436 110.175 2.89436H97.4506C97.1893 2.89436 96.9883 2.69052 96.9883 2.42554V0.387166C96.9883 0.162945 97.1491 -0.0205078 97.3702 -0.0205078H110.436C112.949 -0.0205078 114.798 2.44592 114.798 6.25767C114.798 7.86798 114.135 11.7817 111.099 12.4135C110.999 12.4543 110.959 12.5766 111.039 12.6581L114.416 16.4903Z" fill="white"/>
<path d="M139.02 9.09113C139.02 13.4532 135.522 17 131.221 17H129.291C124.989 17 121.492 13.4532 121.492 9.09113V7.90887C121.492 3.54676 124.989 0 129.291 0H130.899C131.16 0 131.381 0.224221 131.381 0.489209V2.16067C131.381 2.42566 131.16 2.64988 130.899 2.64988H129.713C126.758 2.64988 124.346 5.21823 124.346 8.39808V8.68345C124.346 11.8633 126.738 14.4317 129.713 14.4317H130.758C133.11 14.4317 135.1 12.801 135.824 10.5384H130.356C130.236 10.5384 130.135 10.3345 130.135 10.0695V8.05156C130.135 7.80695 130.236 7.60312 130.356 7.60312H138.658C138.839 7.60312 138.98 7.7458 138.98 7.92926L139.02 9.09113Z" fill="white"/>
</g>
<defs>
<clipPath id="clip0_392_13">
<rect width="139" height="17" fill="white"/>
</clipPath>
</defs>
</svg>
