<svg width="245" height="30" viewBox="0 0 245 30" fill="none" xmlns="http://www.w3.org/2000/svg">
<path d="M31.3203 25.5399V29.2089C31.3203 29.6046 31.0369 29.9284 30.6471 29.9284H7.68836C3.43673 29.9643 0 26.1514 0 21.4392V0.75571C0 0.360026 0.283442 0.0362854 0.673174 0.0362854H4.39335C4.74765 0.0362854 5.06652 0.360026 5.06652 0.75571V20.8636C5.06652 23.0219 6.66088 24.7845 8.60954 24.7845H30.6826C31.0369 24.8205 31.3203 25.1442 31.3203 25.5399Z" fill="black"/>
<path d="M76.5999 29.964H71.9586C71.498 29.964 71.0728 29.6403 70.8956 29.1726L63.2427 8.63307C62.4987 6.65466 60.7626 5.35969 58.8139 5.32372C56.7944 5.32372 55.0229 6.61869 54.3143 8.66905L46.8385 29.1367C46.6614 29.6043 46.2362 29.928 45.7756 29.928H41.276C40.9925 29.928 40.78 29.6043 40.8862 29.2806L50.0981 6.51077C52.2593 1.18703 57.9636 -1.58275 63.3136 1.00718C65.6165 2.12228 67.3526 4.28056 68.3447 6.83451L76.9896 29.3165C77.0959 29.6403 76.9188 29.964 76.5999 29.964Z" fill="black"/>
<path d="M119.081 0.683767L109.869 23.4536C107.708 28.7773 102.004 31.5471 96.6537 28.9571C94.3508 27.842 92.6147 25.6838 91.6227 23.1298L82.9777 0.683767C82.8714 0.395998 83.0485 0.0362854 83.3674 0.0362854H88.0088C88.4694 0.0362854 88.8945 0.360026 89.0717 0.827652L96.7246 21.3672C97.4686 23.3456 99.2047 24.6406 101.153 24.6766C103.173 24.6766 104.944 23.3816 105.653 21.3312L113.129 0.863624C113.306 0.395998 113.731 0.0722566 114.192 0.0722566H118.691C119.01 0.0362854 119.223 0.360026 119.081 0.683767Z" fill="black"/>
<path d="M159.152 13.9568V16.0432C159.152 23.741 152.988 30 145.406 30H142.004C134.422 30 128.257 23.741 128.257 16.0432V13.9568C128.257 6.25899 134.422 0 142.004 0H145.406C153.023 0 159.152 6.25899 159.152 13.9568ZM154.051 14.8561C154.051 9.2446 149.834 4.71223 144.591 4.71223H142.784C137.575 4.71223 133.324 9.2446 133.324 14.8561V15.3597C133.324 20.9712 137.54 25.5036 142.784 25.5036H144.626C149.834 25.5036 154.086 20.9712 154.086 15.3597V14.8561H154.051Z" fill="black"/>
<path d="M201.669 29.1007C201.952 29.4245 201.74 29.928 201.35 29.928H196.212C195.646 29.928 195.114 29.6763 194.724 29.2446L188.595 22.6619C188.311 22.3381 187.922 22.1942 187.497 22.1223H176.726C176.372 22.1223 176.053 22.446 176.053 22.8417V29.1727C176.053 29.5683 175.769 29.8921 175.379 29.8921H171.624C171.27 29.8921 170.951 29.5683 170.951 29.1727V22.3381C170.951 19.3885 173.325 16.9784 176.23 16.9784H193.98C196.815 16.9784 197.382 12.6978 197.382 11.0432C197.382 7.55395 196.354 5.1079 194.193 5.1079H171.766C171.305 5.1079 170.951 4.74819 170.951 4.28057V0.683444C170.951 0.287761 171.234 -0.0359802 171.624 -0.0359802H194.654C199.082 -0.0359802 202.342 4.31654 202.342 11.0432C202.342 13.8849 201.173 20.7914 195.823 21.9065C195.646 21.9784 195.575 22.1942 195.716 22.3381L201.669 29.1007Z" fill="black"/>
<path d="M245.035 16.0432C245.035 23.741 238.87 30 231.288 30H227.887C220.305 30 214.14 23.741 214.14 16.0432V13.9568C214.14 6.25899 220.305 0 227.887 0H230.721C231.182 0 231.572 0.395683 231.572 0.863309V3.81295C231.572 4.28058 231.182 4.67626 230.721 4.67626H228.631C223.423 4.67626 219.171 9.20863 219.171 14.8201V15.3237C219.171 20.9353 223.387 25.4676 228.631 25.4676H230.473C234.619 25.4676 238.126 22.5899 239.402 18.5971H229.765C229.552 18.5971 229.375 18.2374 229.375 17.7698V14.2086C229.375 13.777 229.552 13.4173 229.765 13.4173H244.398C244.716 13.4173 244.964 13.6691 244.964 13.9928L245.035 16.0432Z" fill="black"/>
</svg>
