<svg width="245" height="30" viewBox="0 0 245 30" fill="none" xmlns="http://www.w3.org/2000/svg">
<path d="M31.3203 25.5397V29.2088C31.3203 29.6045 31.0369 29.9282 30.6471 29.9282H7.68836C3.43673 29.9642 0 26.1512 0 21.439V0.755557C0 0.359874 0.283442 0.0361328 0.673174 0.0361328H4.39335C4.74765 0.0361328 5.06652 0.359874 5.06652 0.755557V20.8635C5.06652 23.0217 6.66088 24.7843 8.60954 24.7843H30.6826C31.0369 24.8203 31.3203 25.144 31.3203 25.5397Z" fill="#FD5A1E"/>
<path d="M76.5999 29.9638H71.9586C71.498 29.9638 71.0728 29.64 70.8956 29.1724L63.2427 8.63283C62.4987 6.65441 60.7626 5.35945 58.8139 5.32348C56.7944 5.32348 55.0229 6.61844 54.3143 8.6688L46.8385 29.1364C46.6614 29.6041 46.2362 29.9278 45.7756 29.9278H41.276C40.9925 29.9278 40.78 29.6041 40.8862 29.2803L50.0981 6.51053C52.2593 1.18679 57.9636 -1.583 63.3136 1.00693C65.6165 2.12204 67.3526 4.28031 68.3447 6.83427L76.9896 29.3163C77.0959 29.64 76.9188 29.9638 76.5999 29.9638Z" fill="#FD5A1E"/>
<path d="M119.082 0.683615L109.87 23.4534C107.708 28.7771 102.004 31.5469 96.6542 28.957C94.3513 27.8419 92.6152 25.6836 91.6231 23.1297L82.9782 0.683615C82.8719 0.395845 83.049 0.0361328 83.3679 0.0361328H88.0093C88.4699 0.0361328 88.895 0.359874 89.0722 0.8275L96.7251 21.3671C97.4691 23.3455 99.2052 24.6404 101.154 24.6764C103.173 24.6764 104.945 23.3815 105.654 21.3311L113.129 0.863471C113.306 0.395845 113.732 0.072104 114.192 0.072104H118.692C119.011 0.0361328 119.223 0.359874 119.082 0.683615Z" fill="#FD5A1E"/>
<path d="M159.153 13.9568V16.0432C159.153 23.741 152.988 30 145.406 30H142.005C134.423 30 128.258 23.741 128.258 16.0432V13.9568C128.258 6.25899 134.423 0 142.005 0H145.406C153.024 0 159.153 6.25899 159.153 13.9568ZM154.051 14.8561C154.051 9.2446 149.835 4.71223 144.591 4.71223H142.784C137.576 4.71223 133.324 9.2446 133.324 14.8561V15.3597C133.324 20.9712 137.541 25.5036 142.784 25.5036H144.627C149.835 25.5036 154.086 20.9712 154.086 15.3597V14.8561H154.051Z" fill="#FD5A1E"/>
<path d="M201.669 29.1006C201.953 29.4243 201.74 29.9279 201.35 29.9279H196.213C195.646 29.9279 195.115 29.6761 194.725 29.2444L188.595 22.6617C188.312 22.338 187.922 22.1941 187.497 22.1221H176.726C176.372 22.1221 176.053 22.4459 176.053 22.8416V29.1725C176.053 29.5682 175.77 29.8919 175.38 29.8919H171.624C171.27 29.8919 170.951 29.5682 170.951 29.1725V22.338C170.951 19.3883 173.325 16.9783 176.23 16.9783H193.981C196.815 16.9783 197.382 12.6977 197.382 11.043C197.382 7.5538 196.355 5.10775 194.193 5.10775H171.766C171.305 5.10775 170.951 4.74804 170.951 4.28041V0.683292C170.951 0.287608 171.235 -0.0361328 171.624 -0.0361328H194.654C199.083 -0.0361328 202.342 4.31639 202.342 11.043C202.342 13.8847 201.173 20.7912 195.823 21.9063C195.646 21.9783 195.575 22.1941 195.717 22.338L201.669 29.1006Z" fill="#FD5A1E"/>
<path d="M245.036 16.0432C245.036 23.741 238.871 30 231.289 30H227.888C220.305 30 214.141 23.741 214.141 16.0432V13.9568C214.141 6.25899 220.305 0 227.888 0H230.722C231.183 0 231.572 0.395683 231.572 0.863309V3.81295C231.572 4.28058 231.183 4.67626 230.722 4.67626H228.632C223.423 4.67626 219.172 9.20863 219.172 14.8201V15.3237C219.172 20.9353 223.388 25.4676 228.632 25.4676H230.474C234.619 25.4676 238.127 22.5899 239.402 18.5971H229.765C229.553 18.5971 229.376 18.2374 229.376 17.7698V14.2086C229.376 13.777 229.553 13.4173 229.765 13.4173H244.398C244.717 13.4173 244.965 13.6691 244.965 13.9928L245.036 16.0432Z" fill="#FD5A1E"/>
</svg>
