<svg width="36" height="37" viewBox="0 0 36 37" fill="none" xmlns="http://www.w3.org/2000/svg">
<g clip-path="url(#clip0_1311_351)">
<path d="M4.5 11C4.5 10.2044 4.81607 9.44129 5.37868 8.87868C5.94129 8.31607 6.70435 8 7.5 8H28.5C29.2956 8 30.0587 8.31607 30.6213 8.87868C31.1839 9.44129 31.5 10.2044 31.5 11V26C31.5 26.7957 31.1839 27.5587 30.6213 28.1213C30.0587 28.6839 29.2956 29 28.5 29H7.5C6.70435 29 5.94129 28.6839 5.37868 28.1213C4.81607 27.5587 4.5 26.7957 4.5 26V11Z" stroke="white" stroke-width="2" stroke-linecap="round" stroke-linejoin="round"/>
<path d="M4.5 11L18 20L31.5 11" stroke="white" stroke-width="2" stroke-linecap="round" stroke-linejoin="round"/>
</g>
<defs>
<clipPath id="clip0_1311_351">
<rect width="36" height="36" fill="white" transform="translate(0 0.5)"/>
</clipPath>
</defs>
</svg>
