<svg width="14" height="14" viewBox="0 0 14 14" fill="none" xmlns="http://www.w3.org/2000/svg">
<path d="M6.73779 7.74609C7.63526 7.74609 8.36279 7.01856 8.36279 6.12109C8.36279 5.22363 7.63526 4.49609 6.73779 4.49609C5.84033 4.49609 5.11279 5.22363 5.11279 6.12109C5.11279 7.01856 5.84033 7.74609 6.73779 7.74609Z" stroke="white" stroke-linecap="round" stroke-linejoin="round"/>
<path d="M9.80233 9.18644L7.50404 11.4847C7.3009 11.6877 7.02552 11.8017 6.73839 11.8017C6.45126 11.8017 6.17588 11.6877 5.97275 11.4847L3.67391 9.18644C3.06791 8.58041 2.65522 7.80828 2.48803 6.9677C2.32085 6.12713 2.40668 5.25585 2.73466 4.46405C3.06265 3.67225 3.61806 2.99549 4.33067 2.51935C5.04328 2.0432 5.88108 1.78906 6.73812 1.78906C7.59516 1.78906 8.43296 2.0432 9.14557 2.51935C9.85818 2.99549 10.4136 3.67225 10.7416 4.46405C11.0696 5.25585 11.1554 6.12713 10.9882 6.9677C10.821 7.80828 10.4083 8.58041 9.80233 9.18644V9.18644Z" stroke="white" stroke-linecap="round" stroke-linejoin="round"/>
</svg>
