<svg width="69" height="70" viewBox="0 0 69 70" fill="none" xmlns="http://www.w3.org/2000/svg">
<path d="M36.0938 67.8125H4.375C3.71875 67.8125 3.17188 66.3906 3.17188 64.8594V5.25C3.17188 3.5 3.71875 2.29688 4.375 2.29688H36.0938C36.75 2.29688 37.2969 3.71875 37.2969 5.25V64.6406C37.2969 66.5 36.75 67.8125 36.0938 67.8125Z" stroke="white" stroke-width="0.75"/>
<path d="M14.1094 28.2187L9.29688 33.0313L14.1094 37.8437M26.25 37.7344L31.0625 32.9219L26.25 28.2187M23.625 27.3438L16.7344 38.6094" stroke="white" stroke-width="0.75"/>
<path d="M39.0469 20.7813L39.7031 23.4063C39.7031 23.625 39.9219 23.7344 40.0312 23.7344C41.6719 24.0625 43.3125 24.7188 44.7344 25.7031C44.8438 25.8125 45.0625 25.8125 45.2813 25.7031L47.5781 24.2813L50.0938 26.7969L48.6719 29.0938C48.5625 29.2031 48.5625 29.4219 48.6719 29.6406C49.6563 31.0625 50.3125 32.7031 50.6406 34.3438C50.6406 34.5625 50.8594 34.6719 50.9688 34.6719L53.5938 35.6563V38.9375L50.9688 39.4844C50.75 39.4844 50.6406 39.7031 50.6406 39.8125C50.3125 41.4531 49.6563 43.0938 48.6719 44.5156C48.5625 44.625 48.5625 44.8438 48.6719 45.0625L49.875 47.5781L47.3594 50.0938L45.2813 48.4531C45.1719 48.3438 44.9531 48.3438 44.7344 48.4531C43.3125 49.4375 41.6719 50.0938 40.0312 50.4219C39.8125 50.4219 39.7031 50.6406 39.7031 50.75L39.0469 53.375H37.2969V54.3594H39.375C39.5938 54.3594 39.8125 54.25 39.8125 54.0313L40.4688 51.4063C42.1094 51.0781 43.5312 50.4219 44.9531 49.5469L47.25 50.9688C47.4688 51.0781 47.6875 51.0781 47.7969 50.8594L50.75 47.9063C50.8594 47.7969 50.9688 47.4688 50.8594 47.3594L49.4375 45.0625C50.3125 43.6406 50.9688 42.1094 51.2969 40.5781L53.9219 39.9219C54.1406 39.9219 54.25 39.7031 54.25 39.4844V35.2188C54.25 35 54.1406 34.7813 53.9219 34.7813L51.2969 33.7969C50.9688 32.1563 50.3125 30.7344 49.4375 29.3125L50.8594 27.0156C50.9688 26.7969 50.9688 26.5781 50.75 26.4688L47.7969 23.5156C47.6875 23.4063 47.3594 23.2969 47.25 23.4063L44.9531 24.8281C43.5312 23.9531 42 23.2969 40.4688 22.9688L39.8125 20.3438C39.8125 20.125 39.5938 20.0156 39.375 20.0156H37.2969V21H39.0469V20.7813Z" fill="white"/>
<path d="M45.3906 36.9687C45.3906 41.4531 41.7812 45.1719 37.1875 45.1719V46.1562C42.2188 46.1562 46.2656 42.1094 46.2656 37.0781C46.2656 32.0469 42.2188 28 37.1875 28V28.7656C41.7812 28.7656 45.3906 32.4844 45.3906 36.9687Z" fill="white"/>
<path d="M59.3906 12.0312L59.7187 13.3437C59.7187 13.4531 59.8281 13.4531 59.8281 13.4531C60.5938 13.5625 61.4687 13.8906 62.125 14.4375C62.125 14.4375 62.2344 14.4375 62.3438 14.4375L63.4375 13.7813L64.6406 14.9844L63.9844 16.0781C63.9844 16.0781 63.9844 16.1875 63.9844 16.2969C64.4219 16.9531 64.75 17.8281 64.9688 18.5938C64.9688 18.7031 65.0781 18.7031 65.0781 18.7031L66.3906 19.1406V20.7813L65.0781 21C64.9688 21 64.9688 21.1094 64.9688 21.1094C64.8594 21.875 64.5312 22.75 63.9844 23.4063C63.9844 23.4063 63.9844 23.5156 63.9844 23.625L64.5312 24.8281L63.3281 26.0313L62.3438 25.2656C62.3438 25.2656 62.2344 25.2656 62.125 25.2656C61.4687 25.7031 60.5938 26.0313 59.8281 26.25C59.7188 26.25 59.7187 26.3594 59.7187 26.3594L59.3906 27.6719H58.5156V28.1094H59.5C59.6094 28.1094 59.7187 28.1094 59.7187 28L60.0469 26.6875C60.8125 26.5781 61.5781 26.25 62.2344 25.8125L63.3281 26.4688C63.4375 26.4688 63.5469 26.4688 63.5469 26.4688L64.9688 25.0469C64.9688 25.0469 65.0781 24.8281 64.9688 24.8281L64.5312 24.0625C64.9688 23.4063 65.2969 22.6406 65.4062 21.875L66.7188 21.5469C66.8281 21.5469 66.8281 21.4375 66.8281 21.3281V19.25C66.8281 19.1406 66.8281 19.0313 66.7188 19.0313L65.4062 18.5938C65.2969 17.8281 64.9688 17.0625 64.5312 16.4063L65.1875 15.3125C65.1875 15.2031 65.1875 15.0938 65.1875 15.0938L63.7656 13.6719C63.7656 13.6719 63.5469 13.5625 63.5469 13.6719L62.4531 14.3281C61.7969 13.8906 61.0312 13.5625 60.2656 13.4531L59.9375 12.1406C59.9375 12.0313 59.8281 12.0312 59.7187 12.0312H58.7344V12.4687L59.3906 12.0312Z" fill="white"/>
<path d="M62.5625 20.0156C62.5625 22.2031 60.8125 24.0625 58.5156 24.0625V24.5C61.0312 24.5 63 22.5312 63 20.0156C63 17.5 61.0312 15.5312 58.5156 15.5312V15.8594C60.8125 15.9688 62.5625 17.8281 62.5625 20.0156Z" fill="white"/>
<path d="M19.4687 66.0625C20.6165 66.0625 21.5469 65.1321 21.5469 63.9844C21.5469 62.8367 20.6165 61.9062 19.4687 61.9062C18.321 61.9062 17.3906 62.8367 17.3906 63.9844C17.3906 65.1321 18.321 66.0625 19.4687 66.0625Z" stroke="white" stroke-width="0.75"/>
<path d="M24.5 6.01562H15.5312C14.9844 6.01562 14.5469 5.57812 14.5469 5.03125C14.5469 4.48437 14.9844 4.04688 15.5312 4.04688H24.5C25.0469 4.04688 25.4844 4.48437 25.4844 5.03125C25.4844 5.57812 25.0469 6.01562 24.5 6.01562Z" stroke="white" stroke-width="0.75"/>
<path d="M57.75 12.1406H58.625V11.7031H57.6406C57.5313 11.7031 57.4219 11.7031 57.4219 11.8125L57.0938 13.125C56.3281 13.2344 55.5625 13.5625 54.9063 14L53.8125 13.3438H53.5937L52.1719 14.7656C52.0625 14.7656 52.0625 14.875 52.1719 14.9844L52.8281 16.0781C52.3906 16.7344 52.0625 17.5 51.9531 18.2656L50.6406 18.7031C50.5312 18.7031 50.5312 18.8125 50.5312 18.9219V21C50.5312 21.1094 50.5312 21.2188 50.6406 21.2188L51.9531 21.5469C52.0625 22.3125 52.3906 23.0781 52.8281 23.7344L52.1719 24.8281V25.0469L53.5937 26.4688C53.5937 26.5781 53.7031 26.5781 53.8125 26.4688L54.9063 25.8125C55.5625 26.25 56.3281 26.5781 57.0938 26.6875L57.4219 28C57.4219 28.1094 57.5313 28.1094 57.6406 28.1094H58.625V27.6719H57.75L57.4219 26.3594C57.4219 26.3594 57.4219 26.25 57.3125 26.25C56.5469 26.1406 55.6719 25.8125 55.0156 25.2656C54.9062 25.2656 54.7969 25.2656 54.7969 25.2656L53.8125 26.0312L52.6094 24.8281L53.1562 23.625C53.1562 23.5156 53.1562 23.4062 53.1562 23.4062C52.7187 22.75 52.3906 21.875 52.1719 21.1094C52.1719 21.1094 52.1719 21 52.0625 21L50.75 20.7812V19.1406L52.0625 18.7031C52.0625 18.7031 52.1719 18.7031 52.1719 18.5938C52.2813 17.8281 52.6094 16.9531 53.1562 16.2969C53.1562 16.1875 53.1562 16.0781 53.1562 16.0781L52.5 14.9844L53.7031 13.7813L54.7969 14.4375C54.9062 14.4375 55.0156 14.4375 55.0156 14.4375C55.6719 14 56.5469 13.6719 57.3125 13.4531C57.3125 13.4531 57.4219 13.4531 57.4219 13.3438L57.75 12.1406Z" fill="white"/>
<path d="M58.7344 15.9688V15.6406C56.2188 15.6406 54.25 17.6094 54.25 20.125C54.25 22.6406 56.2188 24.6094 58.7344 24.6094V24.0625C56.4375 24.0625 54.6875 22.2031 54.6875 20.0156C54.6875 17.8281 56.4375 15.9688 58.7344 15.9688Z" fill="white"/>
</svg>
