<svg width="137" height="41" viewBox="0 0 137 41" fill="none" xmlns="http://www.w3.org/2000/svg">
<path fill-rule="evenodd" clip-rule="evenodd" d="M27.898 20.0253V0.442606C27.898 0.391611 27.8985 0.346535 27.8991 0.306702C27.9011 0.153894 27.9021 0.0782226 27.8647 0.0413977C27.8281 0.00527137 27.7546 0.00653206 27.609 0.00902954C27.5654 0.00977697 27.5154 0.0106352 27.458 0.0106352H11.53C7.80195 0.0026357 4.07395 0.0026357 0.345951 0.0026357C0.316939 0.0026357 0.290364 0.00243682 0.266021 0.00225465C0.135888 0.00128082 0.0695558 0.000784434 0.0358838 0.0336995C0.000875431 0.067921 0.00117155 0.138259 0.00177554 0.281726L0.00195129 0.346613V0.418608V39.56C0.00195129 39.6108 0.00134552 39.6557 0.000809021 39.6955C-0.0012479 39.8482 -0.00228656 39.9252 0.0357365 39.9638C0.0745206 40.0031 0.153946 40.0023 0.314386 40.0007C0.350082 40.0004 0.389789 40 0.433951 40H27.434C27.485 40 27.5304 40.0005 27.5707 40.001C27.7329 40.003 27.8139 40.004 27.854 39.964C27.894 39.9239 27.893 39.8429 27.891 39.6808L27.891 39.6805C27.8905 39.6402 27.89 39.5949 27.89 39.544V20.0253H27.898ZM23.418 35.9762H4.46595C4.40356 35.9762 4.34972 35.9773 4.30328 35.9782C4.15989 35.9811 4.087 35.9825 4.05051 35.9468C4.01277 35.9098 4.01398 35.8331 4.01643 35.6771C4.01714 35.6318 4.01795 35.5798 4.01795 35.5203V4.49834V4.39434C4.01795 4.22346 4.01795 4.13554 4.06189 4.09031C4.10846 4.04237 4.20438 4.04237 4.40195 4.04237H4.40195H23.498C23.6833 4.04237 23.7773 4.04237 23.825 4.08935C23.874 4.13766 23.874 4.23563 23.874 4.43432V4.43434V20.0333V35.5283C23.874 35.5861 23.8747 35.6365 23.8754 35.6806V35.6807V35.6808V35.6808C23.8778 35.8338 23.879 35.9097 23.8417 35.9465C23.8051 35.9826 23.7313 35.9812 23.5851 35.9783C23.5375 35.9773 23.4822 35.9762 23.418 35.9762ZM84.4517 17.5625V17.5626C84.4535 17.6186 84.4553 17.6758 84.4499 17.7295C84.4259 17.9294 84.5219 17.9614 84.6979 17.9614C85.0121 17.9561 85.3299 17.9579 85.6464 17.9597H85.6466H85.6467H85.6468H85.647H85.6471H85.6472H85.6474H85.6475H85.6477H85.6478H85.6479H85.6481H85.6482H85.6483H85.6485H85.6486H85.6488C85.807 17.9606 85.9649 17.9614 86.1219 17.9614L86.177 17.9617C86.3882 17.9632 86.4013 17.9633 86.3939 17.6895V17.5135V8.0661C86.5066 8.1365 86.5511 8.21308 86.5928 8.28496L86.5931 8.28535L86.5935 8.28607L86.6099 8.31409C87.6979 10.05 88.8339 11.7619 90.0019 13.4497C90.5008 14.1681 91.0036 14.8864 91.5065 15.6047L91.5099 15.6095C92.0139 16.3295 92.5179 17.0495 93.0179 17.7695C93.1139 17.9134 93.2259 17.9694 93.3939 17.9694C93.6283 17.9588 93.8662 17.9623 94.1053 17.9659L94.1056 17.9659C94.2255 17.9677 94.3457 17.9694 94.4659 17.9694L94.5064 17.9696L94.5449 17.9699L94.6037 17.9708C94.7409 17.9729 94.8082 17.974 94.8405 17.9409C94.8716 17.909 94.8703 17.8456 94.8677 17.721C94.8669 17.6801 94.8659 17.6326 94.8659 17.5775V4.43434V4.25836C94.8899 4.08237 94.8019 4.03437 94.6419 4.03437H93.2899C93.2544 4.03437 93.2222 4.03408 93.193 4.03381C93.0533 4.03255 92.9827 4.03191 92.9474 4.06687C92.9113 4.10256 92.912 4.17535 92.9133 4.32245C92.9136 4.35363 92.9139 4.38814 92.9139 4.42634V13.4337C92.9139 13.4606 92.915 13.4875 92.9161 13.5149C92.9201 13.618 92.9245 13.7284 92.8739 13.8737L92.8485 13.8373L92.817 13.7926L92.8157 13.7908L92.8156 13.7907L92.8156 13.7906C92.7814 13.7424 92.7596 13.7117 92.7379 13.6737C91.6579 11.9378 90.5299 10.242 89.3619 8.57007C88.8624 7.85082 88.3569 7.13358 87.8514 6.41633L87.8499 6.41421L87.8484 6.412C87.3429 5.69478 86.8374 4.97757 86.3379 4.25836C86.2259 4.09037 86.1059 4.02637 85.8979 4.03437C85.6526 4.04504 85.4073 4.04148 85.1619 4.03793C85.0393 4.03615 84.9166 4.03437 84.7939 4.03437L84.7304 4.03419C84.5895 4.03359 84.519 4.03329 84.4839 4.06837C84.4488 4.10345 84.4491 4.17392 84.4498 4.31485L84.4499 4.37835V17.4815C84.4499 17.5074 84.4508 17.5341 84.4517 17.5612V17.5614V17.5615V17.5617V17.5619V17.5621V17.5623V17.5625ZM45.322 4.02817C45.6153 4.02994 45.9087 4.03172 46.202 4.02639C46.37 4.02639 46.45 4.07439 46.426 4.25037V4.42636V17.5695C46.426 17.8308 46.2927 17.9615 46.026 17.9615C45.9033 17.9615 45.7807 17.9606 45.658 17.9597C45.4127 17.9579 45.1673 17.9561 44.922 17.9615C44.77 17.9695 44.682 17.9135 44.602 17.7935C42.418 14.7057 40.242 11.6099 38.226 8.4021C38.1796 8.32093 38.129 8.24397 38.0712 8.15598L38.0712 8.15591L38.071 8.15566C38.0491 8.12234 38.0262 8.08743 38.002 8.05012C37.9515 8.18902 37.9558 8.29803 37.9599 8.40073C37.9609 8.42815 37.962 8.45512 37.962 8.48209V17.5615C37.9611 17.6102 37.961 17.653 37.9609 17.6905V17.6909V17.6909C37.9606 17.8246 37.9604 17.8916 37.9268 17.9247C37.893 17.958 37.8253 17.9569 37.6894 17.9548L37.6235 17.9539C37.6018 17.9536 37.5786 17.9535 37.554 17.9535H36.274C36.01 17.9535 36.01 17.9455 36.01 17.6735V17.5695V4.42636C36.01 4.36441 36.0083 4.31202 36.0069 4.26772C36.0033 4.1589 36.0014 4.09892 36.0302 4.06596C36.0657 4.02548 36.1476 4.02572 36.3302 4.02625L36.402 4.02639C36.5223 4.02639 36.6426 4.02818 36.7625 4.02996L36.7626 4.02996C37.0017 4.03351 37.2396 4.03704 37.474 4.02639C37.666 4.01839 37.778 4.08239 37.89 4.23438C38.3413 4.88136 38.7946 5.52436 39.248 6.16736L39.248 6.1674L39.248 6.16745L39.2481 6.1675L39.2481 6.16755L39.2481 6.16759L39.2482 6.16764L39.2482 6.16769L39.2482 6.16773L39.2483 6.16778L39.2483 6.16783L39.2483 6.16788L39.2484 6.16792L39.2484 6.16797L39.2485 6.16815L39.2489 6.16874L39.25 6.17026L39.2501 6.1704C39.7041 6.81431 40.158 7.45821 40.61 8.10612C41.882 9.938 43.122 11.7859 44.306 13.6817C44.346 13.7377 44.386 13.7857 44.482 13.8417V13.5058V4.42636C44.482 4.36765 44.4807 4.31749 44.4796 4.27463V4.27443V4.27426V4.27411V4.27408C44.4766 4.15626 44.475 4.09383 44.5054 4.061C44.5396 4.02399 44.6145 4.02459 44.7737 4.02585C44.8062 4.0261 44.8422 4.02639 44.882 4.02639C45.0287 4.02639 45.1753 4.02728 45.322 4.02817ZM82.2504 14.6021C82.7624 13.4581 82.9784 12.2502 83.0184 11.0103C83.0344 10.4423 83.0024 9.87438 82.9064 9.30642C82.6344 7.72253 82.0024 6.31462 80.8024 5.20269C79.4744 3.97078 77.8984 3.49881 76.1064 3.82679C74.5944 4.10677 73.4424 4.95471 72.5624 6.19463C71.7784 7.30655 71.3704 8.56247 71.2504 9.90638C71.0984 11.7143 71.3544 13.4581 72.1944 15.082C72.8504 16.346 73.7944 17.3059 75.1464 17.8339C75.9304 18.1378 76.7384 18.2178 77.5784 18.1138C78.4504 18.0018 79.2744 17.7779 80.0184 17.2979C81.0504 16.6339 81.7624 15.698 82.2504 14.5941V14.6021ZM79.8984 14.0581C79.7224 14.4741 79.5064 14.8741 79.2104 15.218C78.0424 16.5619 75.9944 16.5059 74.8984 15.09C74.3944 14.4341 74.1144 13.6821 73.9624 12.8822C73.6664 11.3703 73.6504 9.86638 74.0744 8.37048C74.2344 7.79452 74.4984 7.26656 74.8664 6.79459C75.9384 5.42668 78.2744 5.37068 79.3944 6.86658C79.8984 7.53854 80.1704 8.30649 80.3224 9.11444C80.4264 9.6744 80.4744 10.2424 80.4744 10.9463C80.4504 11.9222 80.3224 13.0182 79.8984 14.0581ZM57.866 22.6968C60.114 21.1849 63.066 21.5528 64.882 23.5607H64.866C65.962 24.7766 66.53 26.2245 66.706 27.8324C66.754 28.2324 66.786 28.6324 66.762 29.0803C66.722 30.4642 66.45 31.8401 65.77 33.1121C65.202 34.176 64.426 35.0319 63.346 35.5919C62.634 35.9519 61.882 36.1119 61.09 36.1759C59.818 36.2719 58.682 35.9199 57.658 35.1679C56.786 34.528 56.162 33.68 55.746 32.6881C54.842 30.5442 54.682 28.3524 55.386 26.1205C55.834 24.7126 56.626 23.5367 57.866 22.6968ZM62.562 33.64C63.178 33.1521 63.546 32.4881 63.786 31.7602L63.778 31.7522C64.29 30.2083 64.362 28.6324 64.058 27.0405C63.906 26.2725 63.634 25.5366 63.146 24.9046C62.074 23.5207 60.026 23.4007 58.794 24.6486C58.346 25.0966 58.074 25.6486 57.882 26.2405C57.602 27.0805 57.514 27.9524 57.514 28.8323C57.514 29.6803 57.594 30.5202 57.818 31.3362C58.034 32.1361 58.354 32.8881 58.97 33.472C59.946 34.4 61.514 34.472 62.562 33.64ZM119.978 24.4411V22.3052C119.978 22.1133 119.922 22.0653 119.738 22.0733C119.364 22.0786 118.99 22.0768 118.618 22.075C118.434 22.0741 118.249 22.0733 118.066 22.0733C117.751 22.0733 117.594 22.2279 117.594 22.5372V27.0969C117.594 27.2436 117.594 27.3135 117.559 27.3468C117.527 27.3771 117.467 27.377 117.351 27.3769L117.33 27.3769H112.914C112.642 27.3769 112.634 27.3769 112.634 27.1129V26.9369V22.3052C112.634 22.0413 112.634 22.0333 112.362 22.0333H110.506C110.322 22.0333 110.242 22.0813 110.266 22.2732C110.271 22.3108 110.269 22.3519 110.268 22.3917V22.3919V22.3921C110.267 22.4116 110.266 22.4309 110.266 22.4492V35.5524V35.8003C110.258 35.9443 110.322 35.9843 110.458 35.9843H112.45C112.594 35.9843 112.642 35.9283 112.634 35.7923V35.5444V29.5928C112.634 29.5738 112.634 29.5559 112.634 29.539L112.633 29.5047L112.633 29.5034C112.632 29.3939 112.631 29.3346 112.66 29.3025C112.695 29.2646 112.771 29.2647 112.937 29.2648L112.962 29.2648H117.306C117.449 29.2648 117.521 29.2648 117.557 29.3008C117.594 29.3374 117.594 29.4114 117.594 29.5608V33.2325V35.6884C117.594 35.9683 117.594 35.9763 117.89 35.9763H119.602C119.652 35.9763 119.696 35.9773 119.734 35.9782C119.846 35.9808 119.907 35.9822 119.94 35.9526C119.979 35.9173 119.979 35.838 119.978 35.6642L119.978 35.5924V29.0408V24.4491V24.4411ZM86.2663 30.5606C86.8823 31.8325 87.4903 33.1044 88.0983 34.3763L88.1063 34.3923C88.3143 34.8402 88.5302 35.2881 88.7462 35.7359L88.7463 35.7363C88.7516 35.7468 88.7573 35.7571 88.7631 35.7675C88.7924 35.8206 88.8237 35.8773 88.8103 35.9842C88.5377 35.9842 88.266 35.9833 87.9949 35.9824C87.4545 35.9807 86.9164 35.9789 86.3783 35.9842C86.1921 35.9842 86.1489 35.8789 86.0954 35.7485L86.0903 35.7363C85.5226 34.401 84.9549 33.0737 84.3871 31.7464L84.3863 31.7445L84.3857 31.7431C84.2659 31.4636 84.1461 31.1841 84.0263 30.8966C83.9703 30.7686 83.9063 30.7046 83.7623 30.7126C83.5303 30.7286 83.3063 30.7286 83.0823 30.7126C82.8903 30.6966 82.8743 30.7926 82.8743 30.9446V34.6883C82.8743 34.8086 82.8734 34.928 82.8726 35.0471C82.8708 35.2844 82.869 35.5206 82.8743 35.7603C82.8823 35.9282 82.8183 35.9842 82.6503 35.9842H80.6583C80.5223 35.9842 80.4583 35.9362 80.4663 35.8002V35.5843V22.4411L80.4663 22.4096L80.466 22.3693L80.4655 22.3265L80.4655 22.3255V22.3254C80.4638 22.1841 80.4629 22.1123 80.4984 22.0761C80.535 22.0387 80.6104 22.0394 80.7635 22.0406C80.7945 22.0409 80.8287 22.0412 80.8663 22.0412H84.1783C84.7543 22.0412 85.3383 22.0972 85.8983 22.2651C87.2743 22.6731 88.1223 23.5691 88.3943 24.993C88.6983 26.5609 88.3783 27.9768 87.3223 29.2087C87.0583 29.5207 86.7463 29.7766 86.4103 30.0006C86.2023 30.1393 86.1543 30.3259 86.2663 30.5606ZM83.8583 28.9127C84.8903 28.7767 85.6023 28.2248 85.9623 27.2408L85.9703 27.2488C86.1463 26.7768 86.1143 26.2889 86.0823 25.8089C86.0183 24.729 85.1543 23.929 84.0983 23.913C83.897 23.9082 83.6985 23.9121 83.4995 23.9159C83.3664 23.9185 83.233 23.921 83.0983 23.921C82.8343 23.929 82.8343 23.929 82.8343 24.201V28.7207L82.8342 28.7325L82.8337 28.7457L82.8322 28.7725C82.8281 28.8376 82.8239 28.9056 82.8743 28.9687C82.9676 28.964 83.0621 28.9607 83.1575 28.9574C83.3894 28.9493 83.6259 28.9411 83.8583 28.9127ZM77.9779 29.5927H76.0899C75.8499 29.5927 75.8499 29.5927 75.8419 29.8567V30.0726V33.6004C75.8419 33.8964 75.8419 33.8964 75.5619 34.0004C74.9219 34.2404 74.2659 34.2884 73.6019 34.1604C72.4419 33.9364 71.6179 33.2324 71.0099 32.2565C70.5139 31.4565 70.2499 30.5766 70.1779 29.6407C70.0659 28.3528 70.2099 27.1048 70.8339 25.9449C71.5859 24.545 72.7779 23.8411 74.3539 23.8091C75.2739 23.7931 76.1299 24.065 76.9619 24.529C77.0677 24.3023 77.1717 24.0827 77.274 23.8669L77.2751 23.8646L77.2752 23.8644L77.2753 23.8642L77.2754 23.864C77.3891 23.624 77.5006 23.3885 77.6099 23.1531C77.7379 22.8811 77.7379 22.8811 77.4739 22.7211C76.2499 21.9612 74.9139 21.6892 73.4899 21.8652C71.3139 22.1372 69.6259 23.1931 68.5939 25.113C67.1299 27.8168 67.2339 30.5686 68.7539 33.2244C69.7059 34.8803 71.2259 35.8243 73.1139 36.1202C74.8099 36.3842 76.4419 36.0482 78.0259 35.4483C78.1859 35.3843 78.2339 35.3043 78.2339 35.1363V29.8647C78.2339 29.6087 78.2339 29.6007 77.9859 29.6007L77.9779 29.5927ZM42.954 29.5927H44.698L44.69 29.6007C44.978 29.6007 44.978 29.6087 44.978 29.8647V35.1363C44.978 35.2803 44.962 35.3683 44.802 35.4323C43.346 35.9923 41.842 36.3442 40.282 36.1762C37.674 35.8963 35.85 34.4964 34.906 32.0645C34.042 29.8167 34.066 27.5448 35.178 25.377C36.226 23.3211 37.938 22.1532 40.242 21.8652C41.674 21.6892 43.002 21.9692 44.226 22.7291C44.2606 22.7501 44.2912 22.7669 44.3176 22.7815C44.4624 22.861 44.4826 22.8721 44.354 23.1291C44.1983 23.4462 44.0502 23.7672 43.8992 24.0947L43.899 24.0951C43.8329 24.2384 43.7662 24.383 43.698 24.529C43.178 24.241 42.658 24.0251 42.098 23.9131C40.81 23.6571 39.618 23.8571 38.578 24.697C37.818 25.321 37.362 26.1449 37.122 27.0889C36.754 28.5128 36.778 29.9287 37.29 31.3206C37.666 32.3365 38.274 33.1844 39.226 33.7444C40.186 34.3044 41.194 34.3604 42.242 34.0244C42.578 33.9124 42.578 33.9044 42.578 33.5524V29.9527C42.578 29.9256 42.5779 29.9005 42.5777 29.8774L42.5777 29.8765C42.5768 29.7413 42.5763 29.6704 42.6115 29.6333C42.6504 29.5922 42.7327 29.5923 42.9061 29.5926L42.954 29.5927ZM55.8422 17.9614H58.3062C58.283 17.8841 58.2617 17.818 58.2422 17.7576C58.2214 17.6932 58.2027 17.6353 58.1862 17.5774C57.8541 16.5213 57.5201 15.4651 57.186 14.4089C56.852 13.3532 56.5181 12.2975 56.1862 11.2419C55.8222 10.0859 55.4562 8.92804 55.0902 7.77013C54.7242 6.6122 54.3582 5.45426 53.9942 4.29832C53.9142 4.03433 53.9142 4.03434 53.6262 4.03434H52.4502C52.3529 4.03551 52.2732 4.03428 52.2072 4.03326H52.2072H52.2071C52.0474 4.03079 51.9686 4.02957 51.9177 4.0667C51.868 4.10295 51.845 4.17575 51.7996 4.3196C51.7796 4.38303 51.7552 4.46028 51.7222 4.5543C50.9702 6.71819 50.2202 8.88408 49.4702 11.05C48.7202 13.2158 47.9702 15.3816 47.2182 17.5454C47.2078 17.5787 47.1936 17.6114 47.1793 17.6444L47.1793 17.6445C47.1386 17.7385 47.0968 17.835 47.1382 17.9534H48.9542C49.1222 17.9534 49.1622 17.8814 49.2102 17.7374C49.5461 16.6499 49.898 15.5703 50.2499 14.4907L50.2499 14.4906L50.2499 14.4905L50.25 14.4904L50.25 14.4903L50.25 14.4902L50.2501 14.4901L50.2501 14.49L50.2501 14.4899L50.2502 14.4897L50.2502 14.4896C50.262 14.452 50.272 14.4187 50.2809 14.389L50.281 14.3889C50.3186 14.2641 50.3361 14.206 50.3752 14.1796C50.4093 14.1565 50.4598 14.1577 50.5543 14.1599C50.5882 14.1607 50.6277 14.1617 50.6742 14.1617H54.2342C54.5606 14.1617 54.5633 14.1732 54.6059 14.3535C54.6134 14.3854 54.6222 14.4224 54.6342 14.4656C54.7902 15.0136 54.9482 15.5596 55.1062 16.1055C55.2642 16.6515 55.4222 17.1975 55.5782 17.7454C55.6182 17.8974 55.6742 17.9614 55.8342 17.9534L55.8422 17.9614ZM51.4413 10.966L51.4414 10.9659C51.8512 9.62286 52.2586 8.28752 52.6102 6.92214C52.9935 8.28763 53.3724 9.65312 53.7568 11.0387C53.8858 11.5039 54.0155 11.9713 54.1462 12.4418H50.9942C51.1417 11.9479 51.2915 11.4569 51.441 10.967L51.4412 10.9664L51.4412 10.9663L51.4413 10.9661L51.4413 10.966ZM97.7137 17.6416C97.6177 17.9616 97.6097 17.9616 97.2817 17.9616L97.2897 17.9456H95.5537C95.6221 17.7443 95.6868 17.552 95.7497 17.3654L95.752 17.3584L95.7534 17.3543L95.7537 17.3534L95.757 17.3435C95.824 17.1447 95.8889 16.9522 95.9537 16.7616C97.3425 12.7234 98.7392 8.69304 100.136 4.66274L100.136 4.66197L100.137 4.66082L100.137 4.65838L100.139 4.65519L100.14 4.65219L100.141 4.64807L100.143 4.64265L100.146 4.63445C100.163 4.58123 100.176 4.52349 100.189 4.46528C100.225 4.30474 100.262 4.14068 100.386 4.05849C100.498 3.97958 100.655 3.99598 100.813 4.01256C100.879 4.01951 100.946 4.02649 101.01 4.02649C101.13 4.02649 101.25 4.02917 101.37 4.03184C101.609 4.03717 101.847 4.04247 102.082 4.02649C102.298 4.01849 102.37 4.10648 102.426 4.29047C102.696 5.16245 102.973 6.03117 103.25 6.90079C103.407 7.39538 103.565 7.89026 103.722 8.3862C104.529 10.9372 105.345 13.4881 106.161 16.0391L106.161 16.0394L106.161 16.0396L106.161 16.0399L106.161 16.0402L106.161 16.0405L106.161 16.0408L106.162 16.0411L106.162 16.0414L106.162 16.0417L106.307 16.4953L106.308 16.4958C106.459 16.9654 106.608 17.4315 106.754 17.8976C106.721 17.9633 106.666 17.9588 106.621 17.9551C106.612 17.9543 106.602 17.9536 106.594 17.9536C106.275 17.957 105.955 17.956 105.635 17.955H105.635H105.635H105.635H105.635H105.635H105.634H105.634H105.634H105.634H105.634H105.634H105.634H105.634H105.634H105.633H105.633C105.206 17.9537 104.779 17.9524 104.354 17.9616C104.13 17.9616 104.074 17.8736 104.026 17.6896C103.874 17.1536 103.72 16.6197 103.566 16.0857C103.412 15.5517 103.258 15.0178 103.106 14.4818C103.01 14.1698 103.01 14.1698 102.706 14.1698H99.1057C98.8177 14.1698 98.8097 14.1698 98.7217 14.4578C98.5563 14.9815 98.3909 15.5032 98.2256 16.0249L98.2253 16.0259L98.2245 16.0283L98.2244 16.0285L98.2237 16.0309L98.2236 16.0311L98.2177 16.0498C98.0497 16.5797 97.8817 17.1096 97.7137 17.6416ZM101.772 9.45268L101.771 9.45014L101.77 9.44543L101.767 9.43622C101.534 8.59404 101.3 7.75417 101.066 6.9143C100.703 8.31583 100.281 9.69911 99.8589 11.0848C99.7219 11.534 99.5848 11.9835 99.4497 12.4339H102.602C102.322 11.4345 102.046 10.442 101.772 9.45268ZM99.6096 34.2963L96.8736 25.7289C96.5056 24.577 96.1376 23.4251 95.7776 22.2731C95.7216 22.0812 95.6336 22.0092 95.4336 22.0172C95.1348 22.0278 94.8324 22.0243 94.5313 22.0207H94.5312H94.5311H94.5311H94.531H94.5309H94.5309H94.5308C94.3806 22.0189 94.2306 22.0172 94.0816 22.0172C93.8914 22.0172 93.7974 22.0172 93.7354 22.0617C93.6749 22.1052 93.6449 22.1912 93.5856 22.3611L93.585 22.363C93.1292 23.6743 92.6734 24.9856 92.2336 26.2969C92.1739 26.4712 92.1106 26.6442 92.0474 26.8169C91.8988 27.2229 91.7506 27.6279 91.6496 28.0488C91.6256 28.0888 91.6016 28.1287 91.5856 28.1687L88.9696 35.7282L88.9659 35.7379C88.9426 35.7995 88.9164 35.8686 88.9696 35.9522H90.8736C90.8896 35.9522 90.9056 35.9282 90.9216 35.9122C91.0256 35.7282 91.0976 35.5363 91.1616 35.3363C91.4653 34.3612 91.7771 33.394 92.0888 32.4269L92.0896 32.4245C92.1696 32.1605 92.1776 32.1605 92.4576 32.1605H96.0576C96.2114 32.1605 96.2894 32.1605 96.3395 32.1979C96.391 32.2363 96.413 32.3143 96.4576 32.4725L96.619 33.0355C96.8614 33.8819 97.1048 34.7318 97.3536 35.5763C97.3719 35.6392 97.3856 35.692 97.3971 35.7362C97.4256 35.8456 97.4405 35.9028 97.4775 35.9323C97.5182 35.9648 97.5856 35.9638 97.7271 35.9616C97.769 35.961 97.8174 35.9602 97.8736 35.9602H99.7296C99.7591 35.9602 99.7897 35.9625 99.8207 35.9647C99.9073 35.971 99.997 35.9775 100.074 35.9362C100.105 35.8866 100.088 35.8417 100.071 35.798C100.066 35.7854 100.061 35.7728 100.058 35.7602C99.9056 35.2723 99.7536 34.7923 99.5936 34.3043L99.6096 34.2963ZM95.7696 30.4566H92.9216C92.9021 30.4566 92.8825 30.4477 92.8594 30.4371C92.8524 30.4339 92.8451 30.4305 92.8374 30.4272L92.8265 30.4228C92.8211 30.4206 92.8155 30.4186 92.8096 30.4166C92.8925 30.1466 92.9758 29.8767 93.059 29.6069L93.0597 29.6046C93.5385 28.0528 94.0169 26.5025 94.4256 24.929C94.7136 25.9769 95.0016 27.0248 95.2976 28.0808L95.2977 28.081L95.2977 28.0812L95.2978 28.0814L95.2979 28.0816L95.2979 28.0819L95.298 28.0821L95.2981 28.0823L95.2981 28.0825C95.498 28.8019 95.6978 29.5213 95.9056 30.2326C95.9456 30.3686 95.9696 30.4646 95.7696 30.4566ZM104.674 22.0255C105.21 22.0255 105.738 22.0895 106.258 22.2334L106.25 22.2254C107.57 22.5934 108.442 23.4174 108.778 24.7613C109.17 26.3452 108.946 27.8091 107.882 29.081C107.018 30.1209 105.882 30.6569 104.53 30.7049H103.602C103.456 30.7049 103.383 30.7049 103.345 30.7419C103.306 30.7802 103.306 30.8581 103.306 31.0169V35.5526C103.305 35.613 103.305 35.6644 103.306 35.7081C103.306 35.8275 103.307 35.8895 103.276 35.9214C103.243 35.9559 103.173 35.9551 103.028 35.9534C102.992 35.953 102.951 35.9525 102.906 35.9525H101.338C101.277 35.9525 101.225 35.9537 101.18 35.9546H101.18H101.18H101.18L101.179 35.9546C101.046 35.9575 100.978 35.959 100.944 35.9257C100.908 35.891 100.91 35.8185 100.912 35.6704V35.6701V35.6698C100.913 35.6248 100.914 35.5727 100.914 35.5126V28.961V22.4814V22.2334C100.906 22.0895 100.954 22.0095 101.114 22.0255H101.258H104.674ZM103.722 28.937L103.744 28.9359C103.891 28.9285 104.032 28.9215 104.172 28.921C105.387 28.936 106.634 27.8963 106.578 26.3772V25.9532C106.602 24.9533 105.882 24.0893 104.89 23.9293C104.607 23.8813 104.321 23.8902 104.035 23.8991C103.893 23.9036 103.751 23.908 103.61 23.9053C103.314 23.8973 103.314 23.9053 103.314 24.1933V26.4332V28.569C103.315 28.6275 103.315 28.6773 103.314 28.7195C103.314 28.8343 103.313 28.8936 103.343 28.9227C103.374 28.9538 103.44 28.9504 103.575 28.9435C103.617 28.9414 103.666 28.9389 103.722 28.937ZM104.172 28.921L104.17 28.921H104.186L104.172 28.921ZM54.0502 34.1042H53.8022H49.8502C49.6995 34.1042 49.6235 34.1042 49.5852 34.0662C49.5462 34.0276 49.5462 33.9496 49.5462 33.7922V30.1285C49.5462 29.7818 49.7196 29.6085 50.0662 29.6085H53.0902C53.4589 29.6085 53.4586 29.5964 53.4523 29.3565C53.4513 29.3206 53.4502 29.2795 53.4502 29.2325V28.0246C53.4502 27.7366 53.4502 27.7286 53.1622 27.7286H49.8182L49.7751 27.7287C49.6603 27.7291 49.6028 27.7293 49.5742 27.7006C49.5456 27.672 49.5458 27.6146 49.5461 27.4998L49.5462 27.4567V24.9608C49.5462 24.8667 49.5426 24.7733 49.539 24.68C49.5295 24.4325 49.5201 24.1868 49.5782 23.9369C49.797 23.9049 50.0193 23.9085 50.2405 23.912C50.3509 23.9138 50.461 23.9156 50.5702 23.9129H53.2742C53.4022 23.9129 53.5062 23.9129 53.5062 23.7369V22.025H53.1462H47.5222C47.4792 22.025 47.4412 22.0245 47.4075 22.0241C47.2771 22.0224 47.2123 22.0216 47.1806 22.0535C47.1494 22.0851 47.1505 22.1487 47.1528 22.275L47.1537 22.3366L47.154 22.3676L47.1542 22.409V35.5841V35.7281C47.1382 35.9041 47.1862 36.0001 47.3862 35.9761H47.5302H53.8662H54.0822C54.1942 35.9761 54.2582 35.9441 54.2582 35.8161V34.2882C54.2582 34.1442 54.1942 34.0962 54.0662 34.1042H54.0502ZM135.52 33.9208L135.521 33.9213C135.536 33.9765 135.551 34.0316 135.57 34.0807V34.0887C135.682 34.3927 135.802 34.7047 135.922 35.0166C136.018 35.2646 136.01 35.2726 135.786 35.4006C134.73 36.0086 133.594 36.3046 132.378 36.2166C129.826 36.0246 127.994 34.7607 126.906 32.4408C126.402 31.3689 126.178 30.241 126.178 28.841C126.202 27.0332 126.762 25.2733 128.122 23.8254C129.178 22.6975 130.498 22.0815 132.018 21.8815C133.314 21.7135 134.522 21.9775 135.65 22.6095C135.714 22.6415 135.778 22.6815 135.834 22.7215C135.854 22.7346 135.873 22.7466 135.891 22.7578L135.913 22.772C136.024 22.8418 136.075 22.8739 136.085 22.9161C136.094 22.952 136.074 22.9953 136.037 23.0753L136.037 23.0756C136.021 23.1118 136 23.1555 135.978 23.2094C135.858 23.4924 135.729 23.7754 135.601 24.0546L135.601 24.055C135.566 24.1308 135.532 24.2062 135.498 24.2813C135.433 24.4275 135.401 24.4995 135.35 24.5161C135.302 24.5322 135.236 24.4962 135.106 24.4253C134.618 24.1614 134.106 23.9854 133.57 23.8814C131.922 23.5614 130.218 24.3373 129.362 26.0412C128.786 27.1852 128.634 28.4091 128.754 29.673C128.842 30.6409 129.13 31.5529 129.674 32.3688C130.898 34.2007 132.978 34.6727 134.866 33.8007C134.916 33.7769 134.966 33.7423 135.016 33.708C135.133 33.6271 135.249 33.547 135.362 33.6087C135.447 33.654 135.483 33.7873 135.52 33.9208ZM57.1863 5.90629H60.1783C60.223 5.90629 60.2627 5.90583 60.2979 5.90542L60.298 5.90542H60.298C60.4413 5.90376 60.5111 5.90294 60.5444 5.93741C60.576 5.97015 60.5747 6.03474 60.5721 6.1607C60.5712 6.20221 60.5703 6.25038 60.5703 6.30627V17.5215V17.8095C60.5703 17.9135 60.6023 17.9615 60.7143 17.9615H62.7783C62.8823 17.9615 62.9383 17.9295 62.9303 17.8175V17.5695V8.27414V6.24227C62.9303 6.20727 62.9299 6.17594 62.9296 6.1479V6.14762V6.14736C62.9283 6.02801 62.9276 5.96835 62.9571 5.93838C62.9866 5.90843 63.0462 5.90814 63.1654 5.90755H63.1655C63.1993 5.90739 63.2381 5.9072 63.2822 5.90629H64.4183H66.3783C66.5303 5.90629 66.5863 5.8583 66.5863 5.70631V4.21041C66.5863 4.05842 66.5222 4.02642 66.3942 4.03442H66.2182H57.2822H57.1063C56.9463 4.01842 56.9062 4.09841 56.9062 4.2424V5.63431C56.9062 5.89829 56.9063 5.89829 57.1863 5.89829V5.90629ZM107.466 17.5937V10.9701H107.482V4.44253V4.19454C107.482 4.08255 107.514 4.01855 107.642 4.01855H109.706C109.802 4.01855 109.85 4.06655 109.85 4.17054V4.45853V15.6018V15.8178C109.85 15.9525 109.85 16.0185 109.883 16.0508C109.915 16.0818 109.977 16.0818 110.098 16.0818H110.842H114.258C114.546 16.0818 114.546 16.0898 114.546 16.3777V17.6976C114.546 17.9635 114.539 17.9635 114.324 17.9619L114.266 17.9616H111.594H107.818C107.772 17.9616 107.731 17.9624 107.696 17.9631C107.585 17.9653 107.526 17.9664 107.496 17.9378C107.463 17.9066 107.464 17.84 107.465 17.7007V17.7004C107.466 17.6687 107.466 17.6333 107.466 17.5937ZM124.41 22.0256H122.626C122.584 22.0256 122.548 22.0251 122.515 22.0247C122.387 22.0229 122.32 22.0221 122.285 22.055C122.248 22.0906 122.248 22.1657 122.249 22.3221C122.249 22.3488 122.25 22.3779 122.25 22.4096V28.9611V32.0969V35.6887C122.25 35.9446 122.25 35.9526 122.498 35.9526H124.386C124.626 35.9526 124.626 35.9527 124.634 35.6887V35.5447V22.4495V22.2336C124.658 22.0496 124.562 22.0176 124.402 22.0176L124.41 22.0256ZM69.7699 17.809C69.7779 17.921 69.7219 17.953 69.6179 17.953V17.961H67.5539C67.4579 17.961 67.4019 17.937 67.4019 17.825V17.537V4.42588C67.4019 4.2019 67.3899 4.10191 67.4339 4.05791C67.4779 4.01391 67.5779 4.02591 67.8019 4.02591H69.4019C69.7802 4.02591 69.78 4.03182 69.7725 4.25721C69.7713 4.29396 69.7699 4.33654 69.7699 4.38588V10.9774V17.561V17.809Z" fill="#0F0F0E"/>
</svg>
