<svg width="154" height="41" viewBox="0 0 154 41" fill="none" xmlns="http://www.w3.org/2000/svg">
<path fill-rule="evenodd" clip-rule="evenodd" d="M4.16661 14.7561C4.30661 14.5414 4.41861 14.5228 4.66127 14.5788C5.81858 14.8588 6.95723 14.2988 7.28389 13.2348C7.43322 12.7495 7.56388 12.5068 8.15187 12.4508C9.08519 12.3575 9.60784 11.4802 9.58918 10.3695C9.58918 10.1548 9.57984 10.0148 9.29985 9.98685C9.04964 9.96182 9.02302 10.0784 8.98689 10.2367L8.98687 10.2368C8.98258 10.2556 8.97815 10.275 8.97319 10.2948C8.73053 11.2282 8.22654 11.6575 7.26522 11.7601C7.23279 11.7634 7.20148 11.7678 7.17052 11.7721H7.17051H7.1705H7.17049H7.17049H7.17048C7.11236 11.7802 7.05544 11.7881 6.99456 11.7881C6.86389 11.7881 6.8359 11.8441 6.79856 11.9748C6.48124 13.2161 5.49192 13.9254 4.23194 13.8134C4.04528 13.7948 3.96128 13.8321 3.86795 13.9908C3.63462 14.3921 3.27996 14.6348 2.8133 14.7001C2.01999 14.8028 1.30133 14.2894 1.096 13.5148C0.909339 12.7681 1.32 12.0308 2.10398 11.7415C2.13189 11.731 2.1611 11.7228 2.19021 11.7147L2.19023 11.7147C2.3169 11.6792 2.44172 11.6442 2.44931 11.4242C2.47731 10.6215 2.9533 10.0988 3.63462 9.74418C4.24128 9.42686 4.90393 9.32419 5.58525 9.34286C5.80925 9.34286 5.96791 9.29619 6.10791 9.10953C6.4719 8.66154 6.93856 8.39088 7.53588 8.36288C7.56189 8.36288 7.59132 8.36802 7.6218 8.37335L7.62181 8.37335C7.73352 8.39288 7.85921 8.41485 7.88121 8.19488C7.90474 7.98307 7.78981 7.94929 7.65834 7.91065C7.63339 7.90332 7.60785 7.89582 7.58255 7.88689C6.90123 7.65356 6.36924 7.2429 6.11724 6.56158C6.02391 6.31891 5.94924 6.23492 5.66925 6.23492C4.17594 6.21625 3.15863 5.37627 3.10263 3.96696C3.10263 3.78963 3.0093 3.71496 2.88797 3.6403C2.58931 3.46297 2.38398 3.20164 2.29065 2.86565C2.13198 2.26832 2.34665 1.699 2.85064 1.33501C3.34529 0.980349 3.93328 0.989682 4.51194 1.35368C4.52882 1.36422 4.5451 1.37477 4.56103 1.38509C4.68603 1.46608 4.78925 1.53295 4.98793 1.47501C6.6959 0.999015 8.23587 2.07233 8.40387 3.84563C8.42253 4.05096 8.48786 4.09762 8.67453 4.10696C9.51451 4.18162 10.0838 4.62961 10.4292 5.37627C10.5687 5.6785 10.6374 6.00646 10.7047 6.32811L10.7048 6.32813L10.7048 6.32815L10.7048 6.32817L10.7048 6.32819L10.7048 6.32821L10.7048 6.32824L10.7048 6.32826L10.7048 6.32828L10.7048 6.32834L10.7048 6.32836C10.7186 6.39401 10.7323 6.45939 10.7465 6.52424C11.0265 7.83089 11.6518 8.8762 12.9771 9.36152C14.4424 9.90285 15.7584 9.14686 16.0104 7.62556C16.0477 7.37356 16.1411 7.3269 16.3837 7.3269C18.1197 7.30823 19.109 6.04825 18.717 4.35895C18.6797 4.18162 18.689 4.08829 18.8383 3.96696C19.1277 3.73363 19.3143 3.43497 19.4357 3.08031C19.8183 1.979 19.2957 0.784353 18.2223 0.261696C17.093 -0.288961 15.7864 0.0563662 15.1331 1.10168C15.0024 1.30701 14.8904 1.36301 14.6477 1.33501C13.5464 1.19501 12.5105 1.867 12.1465 2.92165C11.9505 3.48164 11.9878 4.03229 12.1838 4.58295C12.1911 4.60497 12.2014 4.627 12.2114 4.64867C12.2525 4.73719 12.2909 4.81979 12.1185 4.87228C11.7545 4.97494 11.5118 5.23627 11.2785 5.54426V5.54425C11.2785 5.46959 11.2785 5.39493 11.2598 5.31093C11.1198 4.10696 10.5225 3.49097 9.31852 3.34164C9.13185 3.32297 9.12252 3.23897 9.12252 3.09898C9.10385 1.03635 7.07856 -0.232962 5.13726 0.663021C4.9506 0.74702 4.8386 0.709687 4.68927 0.597689C4.12928 0.18703 3.48529 -0.00896594 2.77597 0.168364C1.85199 0.411026 1.264 1.01768 1.10534 1.951C0.956005 2.84698 1.376 3.51897 2.10398 4.02296C2.12955 4.04066 2.15719 4.05546 2.18464 4.07015C2.28742 4.12519 2.38741 4.17873 2.36531 4.37762C2.17865 5.92692 3.36396 7.1589 4.91326 7.0469C4.94039 7.0469 4.97078 7.04038 5.00184 7.03372L5.00185 7.03372C5.08834 7.01517 5.18006 6.9955 5.22126 7.11223C5.35192 7.51356 5.66925 7.73756 6.03324 7.93355L6.01848 7.94052C5.53689 8.16766 5.45243 8.20749 5.23992 8.53087C5.13726 8.68954 5.04393 8.69887 4.8666 8.67087C3.01863 8.37221 1.87999 9.20286 1.62799 11.0695C1.60379 11.2389 1.5168 11.2758 1.41528 11.3189L1.41522 11.3189C1.39933 11.3257 1.38308 11.3326 1.36666 11.3402C0.480014 11.7321 -0.0519758 12.5815 0.00402316 13.4774C0.0786884 14.4761 0.834674 15.4001 1.80532 15.6707C2.69197 15.9227 3.58796 15.5867 4.15728 14.7468L4.16661 14.7561ZM12.7065 5.31093C12.9398 5.18027 12.9771 5.06827 12.9398 4.80694C12.6785 3.24831 13.5931 2.12833 15.1891 2.07233C15.3976 2.07233 15.4719 1.96056 15.5586 1.83023C15.569 1.8147 15.5795 1.7989 15.5904 1.783C16.1691 0.933683 17.121 0.784353 17.9424 1.40034C18.325 1.68967 18.4743 2.08166 18.4743 2.60432C18.4743 2.83765 18.4463 3.13631 18.269 3.3603C17.9984 3.68696 17.9517 4.04162 17.9144 4.44295C17.8024 5.64693 16.8877 6.52424 15.6931 6.63624C15.4784 6.65491 15.4504 6.72957 15.4411 6.91624C15.3851 7.90555 14.6104 8.6242 13.6118 8.63354C12.6691 8.64287 11.8011 7.90555 11.7358 6.97224C11.6798 6.20692 12.0811 5.66559 12.7251 5.31093H12.7065ZM59.3911 32.9001C58.2898 30.3334 57.1511 27.7948 55.9378 25.2749C54.1459 21.5416 52.3072 17.827 50.0393 14.3457C50.0188 14.3138 49.9894 14.2825 49.9592 14.2504C49.8658 14.1508 49.7652 14.0436 49.8993 13.8884C49.954 13.8262 50.0002 13.7534 50.0465 13.6802L50.0465 13.6801C50.174 13.4789 50.3031 13.2749 50.6179 13.2818C51.3273 13.3004 52.0366 13.3658 52.7366 13.4778C54.0245 13.6924 55.2565 14.1124 56.4605 14.6164C56.6752 14.7004 56.7592 14.6911 56.7872 14.4577L56.8007 14.3641C56.8989 13.6852 56.9982 12.9986 57.1231 12.3204C57.1698 12.0405 57.0485 11.9938 56.8245 11.9658C56.3018 11.9005 55.7792 11.7791 55.2938 11.5645L55.2671 11.5525C55.0043 11.435 54.728 11.3114 54.5565 11.0045C56.1618 10.5471 57.7485 10.2578 59.3818 10.2392C59.6151 10.2392 59.6991 10.1832 59.6898 9.94049C59.6773 9.71044 59.6815 9.47623 59.6856 9.24341V9.24333V9.24325V9.24317V9.24309V9.24301V9.24293V9.24285V9.24277V9.24269V9.24261V9.24253V9.24244V9.24236V9.24228V9.2422V9.24212V9.24204V9.24196V9.24188C59.6877 9.12574 59.6898 9.00995 59.6898 8.89518V6.89788C59.0924 7.23388 58.5231 7.47654 57.9351 7.6632C57.5151 7.79387 57.0951 7.9152 56.6472 7.89653C56.4698 7.89653 56.2645 7.87787 56.1898 7.67254C56.1152 7.46721 56.2552 7.32721 56.3858 7.20588C56.6565 6.94455 56.9738 6.73922 57.2911 6.55256C57.5618 6.39389 57.8325 6.23523 58.1218 6.06723C57.8857 5.87141 57.6531 5.68003 57.4232 5.4909L57.4225 5.4903C56.9077 5.06668 56.4065 4.65433 55.9098 4.2286C55.7138 4.06061 55.6298 4.06994 55.4805 4.2846L55.3324 4.50602C54.8144 5.28093 54.3005 6.04976 53.6699 6.74855C53.3432 7.11255 52.9979 7.46721 52.5406 7.68187C52.0552 7.90587 51.7472 7.68187 51.8032 7.14988C51.8406 6.75789 51.9712 6.40323 52.1206 6.03923C52.4659 5.18992 52.9232 4.40593 53.4646 3.62195C52.3726 3.51928 51.3273 3.41662 50.2819 3.30462C50.0845 3.27994 50.0756 3.37128 50.0635 3.49554C50.0619 3.51226 50.0602 3.52957 50.0579 3.54728C49.722 6.12323 48.5366 8.18586 46.3247 9.62317C46.138 9.7445 46.026 9.72583 45.8674 9.56717C45.6322 9.33197 45.3869 9.10686 45.1416 8.88175C44.9781 8.73167 44.8146 8.58159 44.654 8.42852C44.0499 7.86254 43.4144 7.32906 42.7784 6.79523C41.5476 5.76213 40.3153 4.72772 39.3061 3.45395C39.2233 3.3462 39.1109 3.26053 39.0019 3.17734L38.9608 3.14596C37.7102 2.10064 36.2822 1.87665 34.7422 2.33397C33.4729 2.71663 32.7356 3.64995 32.3903 4.89126C32.2036 5.55391 31.9143 6.13257 31.4476 6.62722C31.1941 6.89926 30.957 7.18767 30.7065 7.49248L30.7064 7.49256L30.7063 7.49264L30.7063 7.49268C30.5787 7.64794 30.4475 7.80744 30.309 7.9712C30.6135 7.95005 30.8989 7.93081 31.1817 7.91176L31.1819 7.91175C31.5229 7.88876 31.86 7.86604 32.2223 7.84053C32.0543 8.11588 31.8979 8.37722 31.7416 8.63857L31.7415 8.6387L31.7415 8.63879C31.5852 8.90003 31.4289 9.16127 31.261 9.4365L31.3703 9.41901L31.3703 9.419C31.4846 9.40057 31.5641 9.38774 31.6436 9.3805C32.6516 9.21251 33.6596 9.08184 34.6862 9.18451C35.4329 9.25917 35.9835 9.58583 36.1889 10.3512C36.2075 10.4258 36.2292 10.5005 36.2508 10.5751C36.2833 10.6871 36.3158 10.7991 36.3382 10.9111C36.4061 11.2151 36.4628 11.5214 36.5196 11.8279L36.5196 11.828C36.6267 12.4061 36.7339 12.9852 36.9169 13.5524C37.1315 14.2057 37.4208 14.8311 37.7288 15.4937C33.7587 14.9133 29.8037 14.9621 25.7955 15.0116H25.7955C25.3563 15.017 24.9164 15.0225 24.4758 15.0271C25.6424 13.8231 27.0424 13.2164 28.5823 12.7031C28.4143 12.6094 28.2529 12.519 28.0947 12.4304C27.7963 12.2632 27.5093 12.1025 27.2104 11.9378C27.3815 11.8414 27.5494 11.747 27.7174 11.6526C28.0534 11.4639 28.3894 11.2751 28.7503 11.0698C28.6485 11.0338 28.5472 10.9983 28.4463 10.963C27.4743 10.6228 26.5492 10.2991 25.7544 9.70717C25.6797 9.65117 25.5957 9.61383 25.5117 9.6045C25.2131 9.56717 25.2504 9.4085 25.3437 9.20317C25.5864 8.65252 25.9224 8.17653 26.3517 7.7472C27.3784 6.72989 28.6477 6.1139 29.9637 5.56324C30 5.54769 30.0391 5.53645 30.0786 5.52514C30.1812 5.49572 30.2857 5.46576 30.3463 5.35791C30.1205 5.26237 29.8987 5.17087 29.6753 5.07871L29.6753 5.07869L29.675 5.0786C29.4184 4.97273 29.1597 4.866 28.8903 4.75126L29.2308 4.56258L29.231 4.56251L29.232 4.56195C29.6296 4.34151 30.0158 4.12739 30.4303 3.90194C29.6837 3.65928 29.0117 3.44462 28.3397 3.23929C28.1344 3.17395 27.9757 3.08062 27.8264 2.92196C27.285 2.32464 26.6037 2.04464 25.7917 2.06331C24.6251 2.09131 23.7664 2.6513 23.0758 3.54728C22.5916 4.17672 22.226 4.88291 21.8645 5.5814L21.8641 5.58203L21.864 5.58227L21.8639 5.58238L21.8639 5.58249L21.8636 5.58299L21.8633 5.58363L21.8632 5.58387L21.8628 5.58451L21.8626 5.58489L21.8625 5.58513L21.8624 5.58524L21.8624 5.58535L21.8623 5.58546L21.8621 5.58596L21.8619 5.5862L21.8619 5.58631C21.8061 5.69403 21.7505 5.80155 21.6945 5.90857C21.3678 6.54322 20.9292 7.06588 20.3318 7.45787C18.1945 8.85785 16.2439 10.4818 14.4799 12.3204C14.284 12.5258 14.172 12.4884 13.9853 12.3298C12.5853 11.1351 11.316 9.8285 10.3267 8.26053C10.2367 8.30553 10.1954 8.39039 10.154 8.47546L10.154 8.47547L10.154 8.47548C10.1353 8.51389 10.1166 8.55235 10.0934 8.58719C9.86003 8.94185 9.8787 9.20317 10.224 9.53917C11.0243 10.3257 11.7995 11.1424 12.5753 11.9597L12.5754 11.9598C12.8582 12.2577 13.1411 12.5558 13.4253 12.8524C13.4465 12.8736 13.472 12.8943 13.4981 12.9155C13.5871 12.9877 13.6833 13.0658 13.64 13.1884C13.5746 13.3751 13.3786 13.4218 13.192 13.4404C11.8107 13.6271 10.4294 13.7858 9.02938 13.7484C9.01327 13.7484 8.99716 13.7478 8.98116 13.7473C8.88594 13.7438 8.79465 13.7406 8.73072 13.8604C8.65577 14.0103 8.57014 14.1602 8.47821 14.3211C8.42133 14.4207 8.36205 14.5245 8.3014 14.6351C8.85557 14.5838 9.39971 14.5249 9.94118 14.4664C10.877 14.3652 11.8048 14.2649 12.7626 14.2057C12.6557 14.3427 12.5536 14.4714 12.4554 14.595L12.4553 14.5951L12.4553 14.5951L12.4553 14.5951L12.4553 14.5952L12.4553 14.5952L12.4553 14.5952L12.4552 14.5952L12.4552 14.5952C12.2792 14.8169 12.1157 15.0227 11.96 15.2324C11.848 15.3911 11.708 15.4657 11.5213 15.4937C11.3388 15.5208 11.1563 15.5467 10.974 15.5726C10.4014 15.6541 9.83135 15.7351 9.27205 15.8484C8.37606 16.0257 7.48941 16.2497 6.70543 16.763C6.21077 17.0897 5.92144 17.519 6.06144 18.135C6.1921 18.723 6.04277 19.171 5.51078 19.479C5.29612 19.6003 5.27745 19.7496 5.42678 19.955C5.53634 20.1107 5.63521 20.2735 5.7344 20.4368C5.79575 20.5378 5.85723 20.6391 5.92144 20.739C6.04277 20.9256 6.02411 21.103 5.90277 21.2803C5.88178 21.3083 5.86136 21.3369 5.84094 21.3654C5.77969 21.4512 5.71844 21.5369 5.64145 21.6069C5.42678 21.8029 5.40812 21.9896 5.53878 22.2509C5.67377 22.5047 5.79627 22.7679 5.91892 23.0314L5.91893 23.0314L5.91897 23.0315L5.91899 23.0315C6.00832 23.2234 6.09772 23.4155 6.1921 23.6042C6.42543 24.0709 6.60276 24.5376 6.62143 25.0695C6.64009 25.4989 6.78009 25.9002 7.05075 26.2455C7.12837 26.3431 7.20584 26.441 7.28337 26.539C7.82111 27.2186 8.3616 27.9017 8.97338 28.5135C9.18805 28.7281 9.16938 28.8028 8.88939 28.9055L8.73427 28.964C7.30251 29.5048 5.87581 30.0436 4.35347 30.2868C3.69082 30.3988 3.26149 30.7628 3.09349 31.4628C2.6455 33.3574 2.83217 35.168 3.68148 36.9133C3.99881 37.5573 4.42814 38.1173 5.05346 38.5C5.22145 38.6026 5.38012 38.64 5.59478 38.612C6.68676 38.444 7.70407 38.6493 8.46939 39.4799C8.86139 39.9093 9.27205 40.0399 9.80404 39.9933C9.88919 39.9838 9.97541 39.9765 10.062 39.9691C10.2316 39.9547 10.4025 39.9402 10.5694 39.9093L10.5985 39.9035C11.3452 39.7561 12.1085 39.6053 12.7626 39.1999C13.2969 38.8639 13.7914 38.4642 14.2828 38.0669L14.4053 37.968L14.734 37.7052C15.9662 36.7201 17.1903 35.7414 18.4932 34.8414C19.0345 34.468 19.4825 34.3374 20.1545 34.664C21.3771 35.2707 22.6745 35.4387 24.0558 35.0374C25.6051 34.58 27.201 34.3467 28.8343 34.4027C30.2623 34.4494 31.6996 34.468 33.1369 34.4774L33.2154 34.4774L33.3302 34.4777H33.3305C33.978 34.4792 34.6361 34.4808 35.2556 34.328C38.3355 33.572 40.9861 31.9947 43.4594 30.0721C44.0474 29.6148 44.4207 29.0921 44.2807 28.2988C44.1221 27.4215 44.3554 26.6842 45.102 26.1429C45.2514 26.0309 45.2607 25.8909 45.2234 25.7042C45.0834 24.9015 45.0367 24.0896 45.0834 23.2776C45.0834 23.2636 45.0818 23.2454 45.0801 23.2252C45.0714 23.1245 45.0585 22.9743 45.214 23.0442C45.3628 23.1144 45.5201 23.1728 45.6777 23.2313C46.0439 23.3672 46.4118 23.5038 46.6793 23.7909C47.6967 24.8735 48.7326 25.9375 49.834 26.9268C49.9646 27.0482 50.0486 27.1788 50.0766 27.3468L50.2115 28.1705L50.2118 28.1723L50.2119 28.173L50.212 28.1735L50.2121 28.1737L50.2121 28.174L50.2122 28.1742L50.2122 28.1747L50.2123 28.1749C50.5312 30.1221 50.851 32.0746 51.1779 34.02C51.4299 35.5693 51.6912 37.1186 51.9526 38.668C52.0179 39.0413 52.1672 39.3773 52.5686 39.4893C52.9419 39.5919 53.2126 39.3866 53.4459 39.1253C53.5092 39.0565 53.5725 38.9881 53.6357 38.9199C53.8985 38.636 54.1589 38.3547 54.4072 38.0613C54.7712 37.6226 55.2285 37.464 55.7792 37.5293C56.0685 37.5666 56.3765 37.576 56.6658 37.576C57.4125 37.576 57.6271 37.296 57.4125 36.5773C57.2803 36.1213 57.1247 35.6747 56.969 35.2275C56.9047 35.0431 56.8405 34.8586 56.7778 34.6734C56.5651 34.0412 56.3487 33.4053 56.1262 32.7515C55.9972 32.3724 55.8661 31.9873 55.7325 31.5934C57.1045 32.5174 58.4298 33.3761 59.8671 34.1507C59.7364 33.6654 59.5778 33.2641 59.4098 32.8627L59.3911 32.9001ZM55.9938 12.5911C56.2552 12.6378 56.3018 12.7498 56.2552 12.9738C56.2259 13.1085 56.2039 13.2433 56.1801 13.3895C56.166 13.4763 56.1512 13.5671 56.1338 13.6644C54.6032 12.9644 53.0259 12.6191 51.3553 12.5444C51.3956 12.4234 51.4709 12.3791 51.5388 12.3391L51.5388 12.3391C51.5494 12.3329 51.5598 12.3267 51.5699 12.3204C51.7192 12.2318 51.8709 12.1478 52.0226 12.0638C52.1742 11.9798 52.3259 11.8958 52.4752 11.8071C53.0819 11.4618 53.6232 11.2378 54.2579 11.8725C54.6965 12.3111 55.3592 12.4698 55.9845 12.5818L55.9938 12.5911ZM46.9967 10.2298C49.022 8.80185 50.2819 6.85122 50.8046 4.43393C50.8513 4.21927 50.9073 4.1166 51.1499 4.19127C51.2681 4.22386 51.3916 4.23334 51.5173 4.24298C51.6796 4.25543 51.8456 4.26816 52.0086 4.33127C51.5979 5.16192 51.2153 6.0019 51.0379 6.90722L51.0305 6.94495C50.939 7.40974 50.8429 7.89803 51.2246 8.29786C51.6166 8.70852 52.1206 8.78318 52.6806 8.52185C53.2686 8.25119 53.7259 7.81253 54.1365 7.32721C54.6405 6.72055 55.1259 6.10457 55.5925 5.47925C55.7325 5.30192 55.8165 5.29258 55.9752 5.44191C56.0555 5.51891 56.1587 5.58871 56.2601 5.65733C56.4414 5.78001 56.6172 5.89893 56.6472 6.04857C56.6768 6.21481 56.5026 6.31684 56.319 6.42435C56.214 6.48584 56.1059 6.54912 56.0312 6.62722L55.9996 6.6601C55.7957 6.87246 55.5959 7.08052 55.4805 7.36454C55.2285 7.9432 55.4525 8.40986 56.0685 8.58719C56.5164 8.71515 56.9505 8.6101 57.3769 8.50694C57.4481 8.48972 57.519 8.47255 57.5898 8.45652C57.8959 8.3914 58.1974 8.30355 58.5008 8.21518L58.5008 8.21517L58.5009 8.21514C58.6322 8.17688 58.7639 8.13852 58.8964 8.10186C58.8964 8.23732 58.9124 8.37703 58.9282 8.51489L58.9282 8.51495V8.51499V8.51504V8.51508V8.51513V8.51517C58.9591 8.78566 58.9892 9.04902 58.8964 9.25917C58.7788 9.50749 58.4965 9.49959 58.216 9.49175C58.0959 9.48839 57.9761 9.48504 57.8698 9.50184C55.6018 9.84716 53.3992 10.3885 51.3739 11.5085C50.5806 11.9471 49.8619 12.4978 49.274 13.2351C48.5646 12.2924 47.79 11.4618 46.9967 10.6591C46.8287 10.4912 46.7727 10.4072 47.0153 10.2392L46.9967 10.2298ZM44.3367 23.0349C44.2434 24.1829 43.8981 25.2469 43.3287 26.2455C43.2447 26.3949 43.1234 26.4415 42.9647 26.4789C42.0034 26.6842 41.0701 26.9735 40.2021 27.4402C39.9035 27.5988 39.6328 27.7855 39.3995 28.0282C39.6141 28.1868 39.8101 28.1588 40.0248 28.0468C40.8461 27.6268 41.7048 27.3935 42.6381 27.5895C43.1234 27.6922 43.1887 27.8322 43.0301 28.2895C42.8994 28.6441 42.7127 28.9521 42.4514 29.2321C40.5101 31.2481 38.1302 32.4894 35.4422 33.1801C34.8449 33.3294 34.2662 33.432 33.6596 33.4041C31.6436 33.3294 29.6277 33.2641 27.621 33.4041C27.4517 33.4157 27.2821 33.4266 27.1125 33.4375L27.1123 33.4375C26.0576 33.5055 25.0008 33.5735 23.9718 33.8147C23.8402 33.8457 23.7098 33.881 23.5797 33.9163C23.0824 34.0513 22.5892 34.1851 22.0491 34.0667C21.3865 33.9267 20.7238 33.7867 20.1452 33.4601C19.5105 33.1147 19.0439 33.3387 18.5679 33.7027C18.4026 33.8291 18.2499 33.9733 18.0981 34.1167L18.098 34.1167L18.098 34.1167L18.0979 34.1168L18.0979 34.1168L18.0979 34.1168L18.0979 34.1168L18.0979 34.1169L18.0978 34.1169L18.0978 34.1169L18.0978 34.1169L18.0978 34.117L18.0977 34.117L18.0977 34.117L18.0977 34.117L18.0977 34.117L18.0977 34.1171L18.0976 34.1171L18.0976 34.1171L18.0976 34.1171L18.0976 34.1172C17.9581 34.2489 17.8193 34.3799 17.6719 34.496C17.6027 34.5514 17.5348 34.6105 17.4667 34.6699C17.1213 34.9706 16.7709 35.2757 16.2252 35.112C16.1972 35.1027 16.1319 35.1494 16.1039 35.1867C15.7819 35.6227 15.3539 35.9286 14.9237 36.2359L14.9237 36.2359C14.7553 36.3562 14.5867 36.4767 14.4239 36.6053C14.1533 36.82 13.892 37.044 13.5653 37.324C13.5921 37.195 13.6176 37.0699 13.6424 36.9477L13.6424 36.9477L13.6425 36.9477L13.6425 36.9475C13.7131 36.6011 13.7787 36.2787 13.8546 35.9613C13.8977 35.7687 13.9382 35.5752 13.9788 35.3814C14.0698 34.9459 14.1612 34.5087 14.284 34.076C14.4239 33.572 14.256 33.2081 13.892 32.8814C13.276 32.3214 12.548 31.9667 11.764 31.7334C11.3735 31.6179 10.9796 31.5176 10.5859 31.4174C10.0575 31.283 9.52952 31.1486 9.01072 30.9774C8.91738 30.9494 8.84272 30.9494 8.74939 30.9774C8.50708 31.0622 8.26084 31.1392 7.9826 31.2261L7.98208 31.2263C7.83178 31.2733 7.67214 31.3231 7.49874 31.3788C7.78072 31.4379 8.03611 31.4904 8.28541 31.5416L8.28571 31.5416L8.28576 31.5417L8.28593 31.5417L8.2872 31.542C8.54887 31.5957 8.80391 31.6481 9.07605 31.7054L8.99554 31.7587L8.99457 31.7593C8.3917 32.1583 7.83828 32.5245 7.29342 32.8907C7.30275 32.9094 7.31208 32.9281 7.32141 32.9561C7.49944 32.9061 7.67746 32.8567 7.85536 32.8073L7.85791 32.8066C8.44397 32.6439 9.02874 32.4815 9.60804 32.3027C9.97203 32.1907 10.308 32.1721 10.6627 32.3027C10.9427 32.4054 11.232 32.4801 11.5213 32.5361C12.604 32.7601 13.2106 33.4134 13.1546 34.692C13.108 35.924 12.716 37.044 12.0627 38.0706C11.725 38.5988 11.1143 38.7253 10.536 38.8452C10.4909 38.8545 10.4459 38.8638 10.4014 38.8733C10.084 38.9386 9.75737 38.9293 9.44004 38.9106C9.20671 38.8919 9.02938 38.7986 8.88005 38.6213C8.11473 37.7533 7.13475 37.3426 5.98677 37.4266C5.54811 37.4546 5.26812 37.3146 5.02546 37.0067C4.05481 35.7747 3.56015 34.412 3.95214 32.8347C4.02369 32.5486 4.10496 32.2656 4.18641 31.9821L4.18643 31.9821C4.2431 31.7848 4.29986 31.5872 4.35347 31.3881C4.3908 31.2294 4.4748 31.1548 4.63347 31.1268C6.3881 30.7721 8.03074 30.1188 9.6827 29.4468C11.2973 28.7935 12.8653 28.8028 14.3773 29.7735C15.1426 30.2681 15.8426 30.8281 16.4959 31.4534C16.6452 31.6028 16.7292 31.6868 16.9252 31.4534C17.5226 30.7534 18.7265 30.7441 19.5199 31.4068C20.1172 31.9107 20.4158 32.5921 20.6585 33.3107C20.676 33.302 20.6935 33.2973 20.7101 33.2929C20.7288 33.2879 20.7463 33.2833 20.7612 33.2734C21.4165 32.8396 21.4146 32.8348 21.1347 32.1037L21.1252 32.0787C20.4905 30.4548 18.9412 29.8015 17.6532 30.0534C16.9532 30.1934 16.2999 30.0068 15.7213 29.5681C14.9279 28.9708 14.0693 28.4668 13.1266 28.1402C12.4827 27.9162 11.848 27.8788 11.1947 28.0842C10.4107 28.3268 9.75737 28.1682 9.23471 27.4962C9.02005 27.2255 8.76805 26.9735 8.49739 26.7588C8.00274 26.3482 7.75074 25.8162 7.62008 25.0882C8.06888 25.6995 8.646 26.0285 9.21313 26.3519C9.33004 26.4185 9.44652 26.4849 9.56137 26.5535C10.5227 27.1322 11.568 27.3468 12.6693 27.2908C12.7368 27.2877 12.8044 27.2843 12.8719 27.2808C13.4109 27.2531 13.9491 27.2255 14.4799 27.3748C14.8159 27.4682 15.1053 27.6362 15.2733 27.9348C15.4973 28.3361 15.8519 28.4948 16.2812 28.5508C18.1105 28.7935 19.9398 28.7561 21.7691 28.5881C22.6185 28.5135 23.4584 28.3921 24.2891 28.2055C24.0278 27.6362 23.8224 27.5428 23.2718 27.5988C23.0138 27.6266 22.7558 27.6561 22.4978 27.6856L22.4976 27.6856L22.4975 27.6856L22.4973 27.6857L22.4971 27.6857L22.497 27.6857L22.4968 27.6857L22.4966 27.6857L22.4964 27.6857L22.4963 27.6858L22.4961 27.6858L22.4959 27.6858L22.4958 27.6858L22.4956 27.6858L22.4954 27.6858L22.4952 27.6859L22.4951 27.6859L22.4949 27.6859L22.4947 27.6859L22.4946 27.6859C20.9333 27.8643 19.3701 28.0429 17.7932 27.8508C17.3732 27.7948 16.9532 27.7295 16.5612 27.5428C16.0759 27.3095 15.9826 26.9548 16.2812 26.5068C16.5239 26.1429 16.8786 25.9469 17.3172 25.9095C17.9705 25.8442 18.5959 26.0215 19.2212 26.1989L19.2579 26.209C19.5171 26.2804 19.7832 26.3537 20.0238 26.4695C20.5745 26.7308 21.0598 26.6282 21.5545 26.2455L21.4799 26.2171C20.0587 25.6761 18.6534 25.141 17.1399 24.9575C16.7946 24.9202 16.4306 24.9669 16.1879 25.2749C15.6559 25.9282 14.9186 26.1149 14.144 26.2362C13.164 26.3855 12.184 26.3015 11.2133 26.1335C10.442 26.0036 9.80486 25.57 9.17289 25.1398L9.17282 25.1398C9.07837 25.0755 8.98404 25.0113 8.88939 24.9482C8.14273 24.4536 7.47075 23.8656 6.96675 23.1189C6.66809 22.6803 6.63076 22.4189 6.78942 21.8963C7.55474 22.7456 8.46939 23.3522 9.53337 23.7162C10.1494 23.9309 10.7747 24.0709 11.4187 24.1082C11.9227 24.1362 12.352 23.9776 12.7533 23.6976C12.884 23.6042 12.9213 23.5389 12.8 23.3896C12.5946 23.1282 12.3893 22.9789 12.0067 22.9976C10.56 23.0816 9.27204 22.5869 8.11473 21.7469C7.8254 21.5323 7.57341 21.2709 7.34941 20.991C6.99475 20.543 6.86409 20.067 7.17208 19.535C7.74908 20.0237 8.41494 20.3594 9.08348 20.6965C9.33414 20.8228 9.58517 20.9494 9.83203 21.0843C9.9627 21.159 10.0747 21.1403 10.196 21.0843C10.3178 21.0349 10.4431 20.9913 10.5682 20.9478L10.5683 20.9478C10.7978 20.868 11.0266 20.7884 11.232 20.6736C12.352 20.0483 13.5 20.0763 14.6666 20.4776C15.3853 20.7203 16.0853 21.0096 16.7572 21.3736C17.1492 21.5883 17.5132 21.6629 17.9052 21.4203C17.9835 21.3746 18.0664 21.3426 18.1635 21.3051L18.1636 21.3051L18.1638 21.305C18.2054 21.289 18.2496 21.2719 18.2972 21.2523C17.3826 20.6176 16.4119 20.1603 15.4039 19.759C14.6293 19.451 13.8266 19.1897 12.9866 19.115C12.3987 19.059 11.848 19.199 11.344 19.4603C10.5507 19.8803 9.81337 19.7776 9.05738 19.3857C8.57206 19.1337 8.09607 18.8817 7.72274 18.471C7.23742 17.9483 7.31208 17.5284 7.94674 17.2204C8.57404 16.9109 9.26131 16.7963 9.94809 16.6818H9.94811L9.9487 16.6817C10.0281 16.6685 10.1074 16.6552 10.1867 16.6417C10.332 16.6148 10.4805 16.5972 10.641 16.5782C10.7587 16.5642 10.883 16.5495 11.0173 16.5297C10.6814 17.071 10.3827 17.5564 10.0934 18.0323L10.0772 18.0572C9.99661 18.1805 9.91272 18.3089 10.14 18.3963C10.1852 18.413 10.228 18.4417 10.2701 18.4701C10.3935 18.5531 10.512 18.6328 10.672 18.3963C11.8013 16.763 13.0426 15.2044 14.3866 13.7391C16.2439 11.7138 18.2692 9.87516 20.5745 8.38186C21.4985 7.7752 22.1985 7.02855 22.6558 6.02057C23.0478 5.15258 23.5051 4.3126 24.2051 3.64061C24.8771 2.98729 25.6611 2.72596 26.5757 3.02462C26.7437 3.08062 26.9304 3.15529 27.0517 3.27662C27.4997 3.74328 28.0597 4.00461 28.7783 4.12594C28.4984 4.3188 28.2516 4.48677 28.0048 4.65475C27.8814 4.73877 27.758 4.82279 27.6304 4.90992C27.8124 4.98359 27.9843 5.05525 28.1537 5.12583L28.1538 5.12587L28.1541 5.126L28.1542 5.12605C28.3494 5.2074 28.5412 5.28733 28.741 5.36725C26.7717 6.10457 25.2971 7.34588 24.4198 9.25917C24.3638 9.37117 24.3171 9.44584 24.1771 9.45517C23.0665 9.58583 22.2825 10.2392 21.8251 11.1911C21.3118 12.2551 20.5278 12.9644 19.5665 13.5991C18.2061 14.5101 16.8654 15.4448 15.524 16.3801C14.8039 16.8821 14.0837 17.3843 13.36 17.883C13.3151 17.9144 13.2724 17.948 13.2256 17.9847C13.1751 18.0244 13.1198 18.0679 13.052 18.1163C13.556 18.2377 13.9386 18.2657 14.3866 17.967C15.6388 17.1024 16.9063 16.2568 18.1743 15.4108L18.1744 15.4108C18.8911 14.9326 19.608 14.4544 20.3225 13.9724C21.1812 13.3938 21.9278 12.7218 22.3571 11.7511C22.4414 11.5489 22.5789 11.3695 22.7148 11.1923L22.7148 11.1923L22.7585 11.1351C23.4958 10.1458 24.6531 9.89383 25.6984 10.5471C26.1837 10.8458 26.6691 11.1071 27.3224 11.2658C27.0825 11.4151 26.8669 11.5522 26.6514 11.6893L26.6511 11.6894L26.6508 11.6896L26.6504 11.6899C26.4889 11.7926 26.3275 11.8953 26.1557 12.0031C26.2788 12.0791 26.3977 12.1537 26.5177 12.2291C26.7073 12.3481 26.8999 12.469 27.117 12.6004C23.7851 13.6458 22.3851 16.2404 21.5638 19.3017C21.9307 19.4255 22.1103 19.4862 22.2255 19.4252C22.336 19.3667 22.3873 19.1965 22.4878 18.863C22.7678 17.967 23.0758 17.0804 23.5518 16.2684C23.6544 16.091 23.7664 16.0257 23.9718 16.0164L24.6665 16.0031H24.6665H24.6665H24.6665H24.6665H24.6665H24.6666H24.6666H24.6666H24.6666H24.6666H24.6667H24.6667H24.6667H24.6667H24.6667H24.6667H24.6668H24.6668H24.6668C27.4204 15.9501 30.1674 15.8973 32.9223 16.035C34.6862 16.119 36.4502 16.2124 38.1862 16.6324C38.3635 16.679 38.4848 16.7444 38.5782 16.903C39.2502 17.9763 40.0061 18.9937 40.8181 19.955C40.9674 20.1323 40.9675 20.263 40.8741 20.459C40.7028 20.7948 40.5466 21.1356 40.3796 21.4999L40.3795 21.5001L40.3794 21.5002C40.319 21.632 40.2572 21.7668 40.1928 21.9056C39.4564 20.8802 38.7572 19.9107 38.0581 18.9413L38.0555 18.9377C37.8035 18.5923 37.5515 18.2563 37.1875 18.0043C36.3382 17.4257 35.4329 17.6683 35.0129 18.5923C34.8169 19.0217 34.7236 19.4696 34.7049 19.9736C34.7369 19.9635 34.7688 19.9537 34.8005 19.9439L34.8007 19.9439L34.8009 19.9438C35.1483 19.837 35.4687 19.7385 35.5542 19.311C35.5916 19.1337 35.7036 18.9843 35.8435 18.863C36.0115 18.7137 36.1982 18.5737 36.4315 18.7323C36.6649 18.8817 36.8142 19.087 36.7302 19.3857C36.6918 19.5237 36.6504 19.6602 36.6089 19.7964C36.5496 19.9916 36.4904 20.1864 36.4409 20.3843C36.3496 20.7284 36.5753 20.7555 36.7761 20.7796C36.8422 20.7875 36.9057 20.7951 36.9542 20.8136C37.1394 20.892 37.1343 20.7583 37.1298 20.6408C37.1284 20.6043 37.1271 20.5695 37.1315 20.543C37.1969 20.2163 37.2715 19.8896 37.4395 19.6003C37.6012 19.6958 37.6876 19.8377 37.7718 19.9756C37.7945 20.0129 37.817 20.0499 37.8408 20.0856C38.2298 20.6755 38.5699 21.2948 38.9103 21.9147C39.3131 22.6483 39.7165 23.3829 40.2021 24.0709C40.7901 24.9015 41.4434 24.9949 42.2088 24.3322C42.6311 23.9692 42.9828 23.5415 43.3339 23.1144L43.3342 23.1141L43.3351 23.1131C43.4259 23.0026 43.5167 22.8922 43.6087 22.7829C43.6272 22.7616 43.6446 22.7394 43.6618 22.7175C43.7573 22.5956 43.8459 22.4826 44.0754 22.5776C44.3461 22.6896 44.3647 22.8483 44.3461 23.0816L44.3367 23.0349ZM53.1006 38.2573C52.7459 38.36 52.6246 38.1173 52.5779 37.856C52.4688 37.3037 52.3747 36.7465 52.2809 36.1915C52.2463 35.9868 52.2118 35.7824 52.1766 35.5787C51.8952 33.9506 51.6178 32.3263 51.3367 30.6813L51.336 30.6771L51.3358 30.6759C51.1789 29.7577 51.021 28.833 50.8606 27.8975C51.0281 28.035 51.1888 28.1678 51.3456 28.2973L51.3469 28.2984C51.679 28.5727 51.9935 28.8324 52.3166 29.0921C52.4099 29.1668 52.4379 29.2601 52.4566 29.3628L52.7041 30.4892L52.7044 30.4903C53.1629 32.5762 53.6204 34.6574 54.0712 36.7453C54.1739 37.2306 53.5859 38.136 53.1006 38.276V38.2573ZM56.4978 36.0267C56.7125 36.68 56.5445 36.8853 55.8632 36.8573C55.2192 36.8293 54.9765 36.6427 54.8179 36.036C54.3232 34.0574 53.8285 32.0694 53.3432 30.0908C53.3375 30.0619 53.3388 30.0331 53.3407 29.9932C53.3419 29.9686 53.3432 29.9398 53.3432 29.9041C53.6057 30.0985 53.8605 30.2853 54.1104 30.4685L54.1106 30.4686L54.1118 30.4695L54.1126 30.4701L54.1139 30.4711C54.3427 30.6388 54.5673 30.8034 54.7899 30.9681C54.8721 31.0279 54.9004 31.1176 54.9276 31.2037L54.9319 31.2172C54.9372 31.234 54.9426 31.2506 54.9485 31.2668C55.2052 32.06 55.4641 32.8533 55.7231 33.6466C55.9821 34.4399 56.2411 35.2333 56.4978 36.0267ZM57.1418 31.6401C50.1793 26.9642 44.4487 21.1683 40.6781 13.5991C40.4979 13.2459 40.34 12.8815 40.1828 12.5189L40.1827 12.5187C40.1364 12.4119 40.0902 12.3053 40.0435 12.1991C39.8381 11.7418 39.5675 11.5271 39.3341 11.6205C39.0822 11.7231 39.0168 12.0965 39.2035 12.5631C39.6048 13.5804 40.1181 14.5511 40.6595 15.4937C41.9754 17.771 43.4874 19.927 45.1207 21.9896C45.1674 22.0456 45.214 22.1109 45.2327 22.2229L45.02 22.1276C44.6313 21.9537 44.238 21.7776 43.8514 21.5883C43.6741 21.5043 43.5714 21.5136 43.4501 21.6909C42.9927 22.3536 42.4048 22.9043 41.7888 23.4176C41.4621 23.6882 41.3128 23.6602 41.0794 23.3056C40.8275 22.9229 40.7061 22.5589 40.9768 22.1016C41.1868 21.7399 41.3603 21.3601 41.5338 20.9802L41.5339 20.9801C41.638 20.7522 41.7421 20.5243 41.8541 20.3003C41.9661 20.0856 41.9568 19.9456 41.7794 19.7403C40.1928 17.883 38.7088 15.9604 37.8595 13.6271C37.6197 12.9692 37.4893 12.2869 37.3588 11.6044L37.3588 11.6043C37.2912 11.2508 37.2236 10.8974 37.1409 10.5471C36.7862 9.05384 36.0302 8.42852 34.4809 8.35386C33.9022 8.32586 33.3329 8.40052 32.7076 8.49385C32.9582 8.14433 33.1902 7.81344 33.4298 7.47155L33.4301 7.47111L33.4305 7.47061L33.4323 7.46808C33.531 7.32725 33.631 7.18454 33.7343 7.03788C33.1183 7.11255 32.5583 7.17788 31.9983 7.24321C31.9983 7.23306 31.9971 7.22291 31.9959 7.21365C31.994 7.19736 31.9923 7.18383 31.9983 7.17788C32.6143 6.51522 32.9689 5.73124 33.3236 4.90992C34.1729 2.90329 36.5062 2.3713 38.2235 3.72461C38.2458 3.74288 38.2682 3.76071 38.2903 3.77838C38.3699 3.84197 38.4471 3.90357 38.5128 3.97661C39.7863 5.47278 41.2726 6.74065 42.7587 8.00848L42.7588 8.00851C43.2658 8.44105 43.7728 8.87358 44.2714 9.31517C47.566 12.2271 50.1606 15.6337 52.1206 19.563C52.3182 19.9582 52.5161 20.3532 52.7139 20.7481L52.714 20.7482L52.714 20.7484L52.7141 20.7485L52.7142 20.7487L52.7142 20.7488L52.7143 20.7489L52.7144 20.7491L52.7145 20.7492L52.7145 20.7494L52.7146 20.7495L52.7147 20.7497L52.7147 20.7498L52.7148 20.7499L52.7149 20.7501L52.7149 20.7502L52.715 20.7504L52.7151 20.7505L52.7151 20.7507L52.7151 20.7507C53.7035 22.7235 54.6908 24.6941 55.6392 26.6842C55.6582 26.7223 55.6725 26.7629 55.6892 26.8109C55.7053 26.8568 55.7238 26.9096 55.7512 26.9735C55.1352 26.6935 54.6312 26.3482 54.1459 25.9749C51.4393 23.9029 49.0966 21.4856 47.286 18.583C47.1434 18.3491 46.9484 18.3384 46.7417 18.327C46.6102 18.3198 46.474 18.3123 46.3434 18.247C46.4048 18.5159 46.5295 18.7152 46.6498 18.9075C46.6756 18.9488 46.7013 18.9897 46.726 19.031C49.106 22.8389 52.2512 25.8815 56.0685 28.2335C56.3672 28.4201 56.5725 28.6348 56.7218 28.9521C57.0437 29.6545 57.3767 30.3495 57.716 31.0579C57.9178 31.4791 58.1218 31.9051 58.3271 32.3401C57.8791 32.1441 57.5058 31.9014 57.1418 31.6588V31.6401ZM117.779 14.1217C118.395 14.0844 118.759 13.7297 118.787 13.1137C118.8 12.8406 118.795 12.5675 118.791 12.2917C118.789 12.1527 118.787 12.0131 118.787 11.8724C118.787 11.1071 118.414 10.7338 117.639 10.7338H83.1812C82.2292 10.7338 81.6318 11.3217 81.6412 12.2831C81.6499 13.2769 81.6597 14.2717 81.6694 15.2669L81.6695 15.2764L81.6696 15.286L81.6697 15.2956L81.6698 15.3053L81.6699 15.3151L81.67 15.3248L81.67 15.3346L81.6701 15.3445L81.6702 15.3545L81.6703 15.3645L81.6704 15.3747L81.6705 15.3848L81.6706 15.395L81.6707 15.4052L81.6708 15.4153L81.6709 15.4256L81.671 15.4359L81.6711 15.4463L81.6711 15.4568L81.6712 15.458C81.6919 17.5859 81.7127 19.7151 81.7252 21.8402C81.7314 22.6676 81.7293 23.491 81.7273 24.3315V24.3326V24.3338V24.335V24.3362V24.3375V24.3387V24.34V24.3413V24.3426V24.3439V24.3452V24.3466V24.3479V24.3493V24.3507V24.3521V24.3535V24.355V24.3565L81.7273 24.3615C81.7262 24.7911 81.7252 25.2253 81.7252 25.6668C81.7059 25.6347 81.6881 25.6056 81.6716 25.5785C81.616 25.4873 81.5745 25.4193 81.5385 25.3402L81.5379 25.3391C80.6795 23.7995 79.821 22.2599 78.9719 20.7202C77.3106 17.743 75.6586 14.7657 74.0067 11.7791C73.568 10.9951 72.9427 10.4631 72.0467 10.3791C70.8987 10.2671 69.7507 10.3044 68.6028 10.3604C67.8841 10.3978 67.3801 11.0324 67.3614 11.7604V12.5724V31.5374C67.3614 32.5267 67.9401 33.096 68.9201 33.096H70.4694C71.4867 33.096 72.056 32.5267 72.056 31.5187C72.042 29.8154 72.0257 28.1121 72.0094 26.4088L72.0092 26.3921C71.9929 24.6944 71.9766 22.9966 71.9627 21.2989V17.7616C72.392 18.5363 72.784 19.2363 73.176 19.9363C74.2586 21.8821 75.3436 23.8257 76.4285 25.7693C77.5135 27.713 78.5985 29.6567 79.6812 31.6027C80.2505 32.6293 81.0719 33.1427 82.2572 33.1053C82.9945 33.0773 83.7318 33.068 84.4691 33.1053C85.5798 33.1707 86.1398 32.34 86.1304 31.4347C86.1129 27.9114 86.1137 24.388 86.1144 20.8647V20.8524C86.1148 18.7426 86.1153 16.6328 86.1118 14.523C86.1118 14.159 86.2144 14.0937 86.5504 14.0937C93.406 14.0999 100.262 14.0978 107.114 14.0958H107.115H107.115H107.115H107.116H107.116H107.116H107.116H107.117H107.117H107.117H107.118H107.118H107.118H107.119H107.119H107.119H107.119H107.12H107.12H107.122H107.124H107.126H107.128H107.13H107.132H107.135H107.137H107.139H107.141H107.143H107.145H107.147H107.149H107.151H107.153H107.155H107.157H107.16C110.573 14.0947 113.985 14.0937 117.397 14.0937H117.788L117.779 14.1217ZM149.614 17.4902C151.733 18.9462 152.713 21.0648 153.002 23.5568L152.993 23.5475L152.996 23.579L153.009 23.6875C153.061 24.1542 153.114 24.6208 153.012 25.0874C152.89 25.6661 152.545 25.9927 151.966 26.0674C151.789 26.0954 151.602 26.1047 151.425 26.1047H146.423C145.852 26.1047 145.28 26.1058 144.708 26.1068H144.707H144.706H144.705H144.704H144.703H144.702H144.701H144.7H144.699H144.698H144.697H144.696H144.694C143.54 26.1089 142.385 26.111 141.233 26.1047C140.963 26.1047 140.879 26.1607 140.935 26.4501C141.261 28.102 142.176 29.2687 143.847 29.642C145.517 30.0153 147.001 29.642 148.074 28.186C148.364 27.794 148.737 27.6074 149.232 27.6074H151.593C152.246 27.6167 152.573 28.046 152.414 28.69C152.078 30.0247 151.304 31.07 150.165 31.8166C147.458 33.5899 144.537 33.9726 141.504 32.7873C139.18 31.882 137.705 30.09 136.94 27.7474C136.053 25.0128 136.259 22.3435 137.78 19.8702C139.227 17.5182 141.411 16.3236 144.155 16.1556C146.105 16.0343 147.972 16.3609 149.614 17.4902ZM144.743 22.8288H147.953C148.432 22.8288 148.594 22.5924 148.438 22.1195C147.832 20.2435 145.741 19.1422 143.744 19.6835C142.344 20.0662 141.401 20.9342 141.019 22.3528C140.957 22.5931 140.927 22.7121 140.973 22.771C141.019 22.8288 141.138 22.8288 141.373 22.8288H144.743ZM95.7436 16.1374C93.4663 16.1654 91.4596 16.9027 89.8917 18.592C87.9877 20.6453 87.3531 23.0999 87.6517 25.8439C88.053 29.5305 90.6477 32.9091 94.8476 33.3664C97.2929 33.6371 99.5702 33.1331 101.567 31.6304C102.585 30.8651 103.294 29.8665 103.574 28.6065C103.705 28.0372 103.359 27.6172 102.771 27.6078H100.335C99.8688 27.6078 99.5048 27.7852 99.2435 28.1585C98.5622 29.1292 97.6195 29.6051 96.4529 29.7451C94.3436 29.9878 92.4583 28.6158 92.0943 26.5252C92.0476 26.2265 92.0756 26.0959 92.4396 26.1052C93.7274 26.1192 95.0153 26.1175 96.3031 26.1157H96.3036C96.7329 26.1151 97.1622 26.1145 97.5915 26.1145H102.547C102.743 26.1145 102.939 26.1145 103.126 26.0772C103.742 25.9932 104.143 25.6012 104.171 24.9759C104.255 22.4373 103.583 20.1507 101.754 18.3214C100.102 16.6787 98.0209 16.1187 95.7436 16.1467V16.1374ZM97.0883 22.8365H97.0882C96.6983 22.8376 96.3091 22.8386 95.9209 22.8386H92.4023C92.141 22.8386 92.085 22.7919 92.1316 22.5213C92.4956 20.6266 94.4556 19.2733 96.4156 19.5907C98.0115 19.852 99.1408 20.6826 99.6262 22.2693C99.6402 22.3113 99.6471 22.3556 99.6541 22.3999C99.6611 22.4443 99.6682 22.4886 99.6822 22.5306C99.7662 22.7733 99.6822 22.8386 99.4395 22.8293V22.8386C98.6552 22.8324 97.8709 22.8345 97.0894 22.8365H97.0893H97.0892H97.0892H97.0891H97.089H97.089H97.0889H97.0888H97.0888H97.0887H97.0886H97.0886H97.0885H97.0884H97.0884H97.0883ZM113.003 22.7764C113.944 23.0128 114.886 23.2493 115.819 23.5106L115.81 23.5199C117.144 23.8933 118.302 24.5746 119.03 25.8159C120.364 28.0932 119.478 31.0051 117.032 32.3304C115.241 33.3011 113.299 33.5624 111.293 33.3944C109.566 33.2544 107.961 32.7411 106.57 31.6678C105.777 31.0518 105.151 30.3145 104.899 29.3158C104.89 29.3065 104.89 29.2878 104.89 29.2785C104.591 28.0465 104.927 27.6172 106.169 27.6172H106.831C106.965 27.6172 107.099 27.6161 107.233 27.6151C107.5 27.613 107.768 27.611 108.035 27.6172C108.418 27.6265 108.773 27.7572 108.931 28.1212C109.37 29.1385 110.219 29.5771 111.227 29.8105C112.142 30.0158 113.057 29.9785 113.943 29.6891C114.606 29.4745 115.101 29.0732 115.175 28.3078C115.222 27.7852 114.97 27.4492 114.531 27.2159C114.032 26.9562 113.49 26.8248 112.946 26.6929C112.727 26.6398 112.508 26.5867 112.291 26.5252C111.838 26.3966 111.38 26.2868 110.922 26.1771C110.053 25.9685 109.185 25.7603 108.353 25.4239C107.083 24.9106 106.019 24.1359 105.487 22.8199C104.722 20.9253 105.422 18.6947 107.186 17.4627C108.521 16.5294 110.042 16.2027 111.638 16.1374C113.393 16.0627 115.091 16.3147 116.65 17.164C117.658 17.7054 118.488 18.4427 118.918 19.544C119.058 19.8987 119.142 20.2533 119.132 20.636C119.123 21.0653 118.843 21.4013 118.423 21.4013C117.639 21.42 116.846 21.42 116.062 21.4013C115.735 21.392 115.427 21.2893 115.287 20.972C114.793 19.8987 113.85 19.544 112.786 19.4227C112.114 19.348 111.442 19.3573 110.789 19.572C110.191 19.768 109.743 20.1133 109.65 20.7946C109.575 21.308 109.771 21.672 110.21 21.924C110.639 22.176 111.115 22.2973 111.591 22.4186C112.061 22.5399 112.532 22.6582 113.003 22.7764ZM127.795 16.6932H127.794C127.252 16.6891 126.708 16.6849 126.16 16.6974C125.871 16.6974 125.796 16.6321 125.796 16.3427C125.815 14.8494 125.806 13.3468 125.796 11.8535C125.796 11.0228 125.274 10.5095 124.443 10.5095H122.894C121.886 10.5095 121.4 10.9948 121.4 12.0028V15.8387C121.4 15.9189 121.409 16.0064 121.418 16.0943C121.44 16.3031 121.462 16.5138 121.363 16.6321C121.253 16.7677 121.041 16.7424 120.827 16.7171C120.732 16.7058 120.637 16.6945 120.551 16.6974C119.926 16.7161 119.58 17.052 119.543 17.6774C119.537 17.8199 119.539 17.9666 119.541 18.112V18.1122V18.1124V18.1125V18.1127V18.1129V18.1131V18.1133V18.1135V18.1136V18.1138V18.114V18.1142V18.1143V18.1145V18.1147L119.541 18.1157C119.542 18.1879 119.543 18.2598 119.543 18.3307C119.478 19.46 119.711 19.9453 121.055 19.852C121.372 19.8333 121.4 19.9547 121.4 20.216C121.394 21.1182 121.396 22.0204 121.398 22.9226C121.399 23.3737 121.4 23.8248 121.4 24.2759H121.419C121.419 24.69 121.415 25.1041 121.411 25.5179V25.5184C121.402 26.3447 121.394 27.1697 121.419 27.9905C121.494 30.2958 122.838 32.1251 124.919 32.8251C125.997 33.1845 127.103 33.1407 128.201 33.0971C128.386 33.0898 128.57 33.0825 128.755 33.0771C129.166 33.0677 129.483 32.6571 129.511 32.2184C129.525 31.9108 129.523 31.6032 129.521 31.2917C129.521 31.1873 129.52 31.0825 129.52 30.9771C129.52 30.0158 129.203 29.6985 128.26 29.6891C126.73 29.6705 125.815 28.7838 125.806 27.2625C125.796 26.0771 125.796 24.8893 125.796 23.7016C125.796 22.514 125.796 21.3265 125.787 20.1413C125.787 19.908 125.843 19.8333 126.086 19.8333C126.935 19.852 127.794 19.8427 128.643 19.8333C129.259 19.8333 129.623 19.4693 129.642 18.844C129.648 18.5951 129.646 18.3462 129.644 18.0974C129.643 17.9729 129.642 17.8485 129.642 17.724C129.632 17.0334 129.278 16.6787 128.587 16.6787L128.606 16.6974C128.335 16.6974 128.065 16.6953 127.795 16.6932ZM133.646 10.5095C134.551 10.5095 135.092 11.0415 135.092 11.9468H135.101V19.4133V31.6398C135.101 32.2278 134.943 32.7971 134.364 32.9651C133.356 33.2637 132.292 33.2637 131.284 32.9651C130.724 32.8064 130.566 32.2558 130.566 31.6771V23.6319V21.812V12.0588C130.566 10.9948 131.06 10.5095 132.134 10.5095H133.646ZM144.948 14.0004H138.48C137.761 14.0004 137.528 13.7764 137.528 13.0577C137.528 12.973 137.526 12.8894 137.524 12.8064C137.52 12.6426 137.516 12.4815 137.528 12.3204C137.565 11.8444 137.845 11.5551 138.312 11.5084C140.72 11.2751 143.118 11.0418 145.517 10.8084C146.488 10.7104 147.456 10.6148 148.424 10.5191C149.393 10.4235 150.361 10.3278 151.332 10.2298C152.032 10.1645 152.554 10.5471 152.601 11.2471C152.629 11.8071 152.629 12.3764 152.601 12.9457C152.573 13.5991 152.116 14.0004 151.416 14.0004H144.948ZM4.99726 2.85631C4.7826 2.71632 4.6426 2.73498 4.47461 2.92165C4.3242 3.10213 4.44041 3.19173 4.54006 3.26855C4.56408 3.28707 4.58714 3.30484 4.60527 3.32297C5.60392 4.40562 6.71456 5.36693 7.90921 6.23492C7.93064 6.24921 7.95147 6.27018 7.97278 6.29164C8.03496 6.35427 8.10122 6.421 8.19854 6.33758C8.28685 6.25558 8.3581 6.16079 8.43248 6.06185C8.46815 6.0144 8.50453 5.96599 8.54386 5.91759C8.47853 5.84292 8.43186 5.78693 8.3852 5.73093C7.35855 4.65761 6.23857 3.68696 4.99726 2.85631ZM3.41996 12.2828C4.27861 11.4522 5.23992 10.7335 6.31324 10.1922H6.30391C6.4999 10.0895 6.74256 10.2388 6.7239 10.4535C6.71027 10.4671 6.69539 10.4845 6.67927 10.5033L6.67924 10.5034L6.67922 10.5034L6.67919 10.5034L6.67917 10.5034L6.67914 10.5035L6.67912 10.5035L6.6791 10.5035C6.65111 10.5362 6.61938 10.5733 6.5839 10.6028C5.71592 11.4148 4.77327 12.1241 3.75595 12.7308C3.54129 12.8521 3.44796 12.7588 3.31729 12.6188C3.18265 12.4692 3.27582 12.3975 3.36137 12.3317L3.36138 12.3317C3.38257 12.3154 3.40329 12.2995 3.41996 12.2828ZM36.2165 27.3639L36.2164 27.3639L36.2164 27.364C36.0608 27.5354 35.9058 27.7063 35.7687 27.8875C34.5834 29.4648 32.9967 30.4354 31.1394 31.0047C30.9154 31.0701 30.7754 31.0514 30.6354 30.8461C30.331 30.3996 30.0183 29.9586 29.7063 29.5186L29.7062 29.5185L29.7062 29.5184L29.7061 29.5184L29.706 29.5183L29.706 29.5182L29.7059 29.5181L29.7058 29.518L29.7058 29.5179L29.7057 29.5178C29.444 29.1487 29.1828 28.7804 28.9275 28.4101C28.6008 27.9341 28.5355 27.9061 27.9755 28.0461C27.3739 28.1984 26.8097 28.4563 26.2472 28.7134C26.1203 28.7714 25.9934 28.8294 25.8662 28.8861C25.797 28.916 25.7272 28.9456 25.6573 28.9753L25.6572 28.9754C25.3121 29.1219 24.9617 29.2708 24.6435 29.4648C23.5422 30.1461 22.4222 30.1181 21.2836 29.6328C20.9009 29.4648 20.6023 29.5954 20.257 29.8101C21.1716 30.2861 22.0863 30.6034 23.0289 30.8741C23.5329 31.0141 23.9902 30.9487 24.4382 30.6781C24.8209 30.4447 25.2222 30.2394 25.6329 30.0434C25.7818 29.9726 25.9288 29.8974 26.0757 29.8221C26.4905 29.6098 26.9046 29.3977 27.3595 29.2874C27.5741 29.2314 27.7795 29.2314 27.9568 29.3621C28.5541 29.8008 29.0581 30.3328 29.3381 31.0421C29.4874 31.4247 29.4128 31.5461 29.0115 31.6394C27.9568 31.8727 26.9022 31.9754 25.8195 31.8914C25.5658 31.8739 25.3121 31.84 25.0506 31.8051L24.9982 31.7981C25.3622 32.3954 25.8382 32.638 26.5288 32.6007C27.2021 32.5607 27.8753 32.5683 28.5486 32.5759H28.5488C28.8181 32.579 29.0874 32.582 29.3568 32.582C29.7394 32.582 30.1034 32.5074 30.4581 32.386C31.8098 31.9058 33.1361 31.3663 34.4693 30.824L34.6673 30.7434C34.966 30.6221 35.246 30.5941 35.5633 30.6594C36.142 30.7901 36.7206 30.9114 37.3086 31.0141C37.4039 31.0309 37.4984 31.057 37.5925 31.0829C37.8118 31.1435 38.0292 31.2035 38.2513 31.1447C39.3526 30.8461 40.2859 30.2768 40.9672 29.3434C40.9772 29.3295 40.9906 29.3151 41.0043 29.3003C41.0547 29.2462 41.1093 29.1875 41.0139 29.1288C40.986 29.1112 40.9586 29.0915 40.9311 29.0717C40.7841 28.9662 40.6368 28.8604 40.4166 29.0728C40.0059 29.4741 39.5299 29.7821 38.9979 29.9968C37.962 30.4074 36.9633 30.3887 36.002 29.7634C35.9854 29.7524 35.9666 29.7431 35.9481 29.734C35.8732 29.6972 35.8038 29.663 35.9087 29.5208C36.2155 29.1213 36.5115 28.7147 36.808 28.3075L36.8086 28.3067C36.9898 28.0578 37.1712 27.8086 37.3553 27.5608C37.766 27.0008 38.3166 26.6742 39.0166 26.6088C39.1458 26.5968 39.275 26.577 39.4039 26.5573C39.6754 26.5158 39.9455 26.4745 40.2112 26.5062C40.8459 26.5808 41.1912 26.2728 41.4526 25.7782C41.4526 25.7688 41.4526 25.7595 41.4712 25.7035C40.5379 25.6662 39.6419 25.7128 38.7459 25.7875C37.878 25.8528 37.206 26.2355 36.6646 26.9075L36.6273 26.8888C36.4988 27.0528 36.3577 27.2083 36.2169 27.3634L36.2168 27.3636L36.2167 27.3636L36.2167 27.3637L36.2166 27.3637L36.2166 27.3638L36.2165 27.3638L36.2165 27.3639ZM27.5927 23.3057C27.6207 23.3803 27.658 23.4643 27.7047 23.5577H27.7233C26.1927 24.0617 24.6714 24.547 23.0754 24.7243C22.1328 24.827 21.2555 24.603 20.4061 24.239C20.3343 24.2077 20.2619 24.1765 20.1892 24.1451C19.8277 23.9891 19.4585 23.8297 19.1088 23.651C18.2782 23.231 17.4569 23.3057 16.6635 23.7257C16.3741 23.878 16.0902 24.0442 15.8058 24.2106L15.8056 24.2107C15.5673 24.3501 15.3287 24.4898 15.0862 24.6216C14.3116 25.0416 13.4996 25.303 12.6036 25.2283C12.3423 25.2003 12.0903 25.163 11.857 24.9576C11.9117 24.9234 11.964 24.8929 12.0138 24.8639L12.0138 24.8639L12.0138 24.8639L12.0139 24.8639C12.0997 24.8138 12.1781 24.7681 12.249 24.715C12.4916 24.5376 12.7249 24.407 13.0516 24.5376C13.2785 24.6284 13.5231 24.5161 13.7424 24.4155L13.7609 24.407C14.2369 24.1923 14.6662 23.9123 15.0489 23.5577C15.3662 23.2683 15.3662 23.063 15.0676 22.7737C14.3116 22.027 13.4249 21.775 12.417 22.1764C12.109 22.2977 11.9036 22.2417 11.7076 22.0084C12.5663 21.1124 13.6116 20.9257 14.7129 21.4764C14.792 21.5159 14.8716 21.5554 14.9516 21.5951C15.1924 21.7147 15.436 21.8356 15.6742 21.9617C16.1596 22.2137 16.6542 22.3444 17.2049 22.2697C17.653 22.2057 18.0923 22.3299 18.5137 22.4491L18.5137 22.4491L18.5395 22.4564C18.8288 22.5404 19.0435 22.4844 19.2115 22.2417C19.8835 21.2804 20.8728 20.9444 21.9834 20.8791C22.6274 20.8417 23.2714 20.851 23.9061 20.991C23.7381 21.467 23.4767 21.663 23.0008 21.663C22.3568 21.6724 21.7128 21.7004 21.0875 21.8964C20.8261 21.9804 20.5835 22.0924 20.4435 22.3537C20.2288 22.7643 20.3688 23.175 20.8448 23.4083C21.6381 23.8003 22.4874 23.931 23.3648 23.8003C24.5594 23.623 25.7447 23.3617 26.902 22.9977C27.294 22.8763 27.4713 22.9603 27.5927 23.3057ZM28.2555 25.7319C28.8341 25.7785 29.2448 26.0212 29.5341 26.5159C29.9075 27.1412 30.3368 27.2812 31.0461 27.0759C31.4033 26.9703 31.7322 26.8083 32.0636 26.6451L32.0639 26.645L32.0641 26.6448L32.0644 26.6447C32.1138 26.6204 32.1632 26.5961 32.2127 26.5719C33.3608 26.0069 34.5001 25.4331 35.7259 24.8156L35.8153 24.7706C35.414 25.6946 34.938 26.4132 34.2007 26.9452C34.0528 27.0517 33.9055 27.1588 33.7582 27.2659C33.0411 27.787 32.326 28.3067 31.5594 28.7558C31.3728 28.8678 31.2888 28.9425 31.4381 29.1572C31.4505 29.1748 31.4622 29.1921 31.4734 29.2087C31.5629 29.3416 31.6237 29.432 31.8394 29.3158L32.0373 29.2086C33.1946 28.5821 34.3539 27.9545 35.4047 27.1599C35.8713 26.8052 36.3007 26.4225 36.5527 25.8812C36.8513 25.2372 37.0753 24.5652 37.2433 23.8839C37.2477 23.8679 37.2528 23.8523 37.2577 23.8371C37.2843 23.7552 37.3069 23.6856 37.1967 23.6226L37.1666 23.6069C36.9454 23.4913 36.7447 23.3864 36.45 23.5293C34.9007 24.2479 33.3421 24.9479 31.7741 25.6385C30.8781 26.0305 30.2621 25.8532 29.7955 24.9852C29.5621 24.5466 29.3381 24.5279 28.8901 24.5839C26.9395 24.8546 25.0542 25.3212 23.2529 26.1425C23.195 26.1702 23.1351 26.1945 23.075 26.2189C22.9121 26.2849 22.7478 26.3515 22.6183 26.4879C22.6798 26.5156 22.7393 26.5402 22.7971 26.5642L22.7972 26.5642C22.9147 26.6129 23.0252 26.6586 23.1316 26.7212C23.4209 26.8985 23.6542 26.8705 23.9622 26.7025C25.2969 25.9745 26.7249 25.6106 28.2742 25.7319H28.2555ZM27.5742 21.6626C26.5755 21.5506 25.6609 21.8213 24.8116 22.3346V22.3439C24.5696 22.4918 24.4438 22.5687 24.3092 22.5901C24.1634 22.6132 24.0073 22.5713 23.6822 22.4839C24.2516 21.7373 24.9422 21.168 25.8102 20.888C27.1915 20.44 28.6382 20.328 30.0475 20.6546C31.4568 20.9813 32.7541 20.7573 34.0327 20.1973C34.0607 20.188 34.091 20.1763 34.1213 20.1647L34.1214 20.1647L34.1216 20.1646L34.1216 20.1646L34.1217 20.1646C34.1519 20.1529 34.1821 20.1413 34.21 20.132C34.4554 20.8499 34.453 20.8511 33.8325 21.1694L33.7807 21.196C32.3341 21.9333 30.8128 22.0826 29.2261 21.8586C28.6755 21.7746 28.1248 21.7186 27.5742 21.6626ZM31.1954 22.9693L30.402 22.9273L29.6088 22.8853C29.5906 22.8853 29.5713 22.8838 29.5515 22.8824C29.4702 22.8764 29.3814 22.8698 29.3288 22.9599C29.2261 23.1373 29.5808 23.7626 29.7955 23.7999C30.5608 23.9493 31.3354 24.0053 32.1101 23.9586C33.1367 23.8933 34.0887 23.6039 34.8447 22.8666C35.162 22.5586 35.5354 22.4373 35.9647 22.4186C36.5713 22.3906 37.1313 22.5493 37.7006 22.8013C37.702 22.7823 37.7032 22.764 37.7042 22.7462L37.7057 22.7218C37.7112 22.6275 37.7159 22.5482 37.738 22.4746C37.822 22.12 37.682 21.924 37.318 21.8586C37.1714 21.8285 37.0262 21.7864 36.8814 21.7442L36.8814 21.7442C36.6667 21.6818 36.4527 21.6196 36.2353 21.5973C35.4514 21.504 34.63 21.4293 33.9954 22.0266C33.1927 22.7826 32.2501 23.0346 31.1954 22.9693ZM20.9757 17.1271C20.4717 17.8924 19.7997 18.4991 19.0904 19.0591H19.0811C18.9411 19.1711 18.8757 19.1151 18.7731 19.0217C18.6424 18.9004 18.6891 18.8164 18.8011 18.7138C19.1371 18.3964 19.4357 18.0418 19.7064 17.6591C20.0237 17.2111 20.2944 16.7538 20.4437 16.2218C20.5184 15.9418 20.7144 15.8018 20.9944 15.8578C21.209 15.8951 21.3117 16.0538 21.3117 16.2778C21.293 16.5951 21.1437 16.8658 20.9757 17.1271ZM25.9502 4.90961C26.2675 4.90961 26.5289 4.63895 26.5195 4.30295C26.5195 3.98563 26.2769 3.7523 25.9502 3.74296C25.6235 3.74296 25.3529 3.99496 25.3529 4.31229C25.3529 4.62028 25.6422 4.90027 25.9502 4.90027V4.90961ZM25.2036 11.6298C25.2036 11.9471 24.9703 12.2085 24.6529 12.2085H24.6623C24.3449 12.2178 24.0929 11.9845 24.0743 11.6671C24.0556 11.3405 24.3263 11.0605 24.6436 11.0605C24.9516 11.0605 25.2036 11.3125 25.2036 11.6298ZM35.3033 4.76071C34.9152 4.76431 34.6204 5.0339 34.6019 5.414C34.5926 5.80599 34.9005 6.13265 35.2925 6.13265C35.6752 6.13265 35.9739 5.82466 35.9739 5.45133C35.9739 5.05983 35.6946 4.77073 35.3033 4.76071ZM35.3033 4.76071L35.3019 4.76068H35.3112L35.3033 4.76071ZM16.7477 2.82831C16.0851 4.08829 15.2451 5.19894 14.1998 6.16025V6.15092C14.0224 6.30958 13.9291 6.29092 13.7518 6.16025C13.5741 6.03668 13.6521 5.93867 13.7266 5.84507C13.7422 5.82556 13.7576 5.80624 13.7704 5.78693C14.5358 4.63895 15.3851 3.54697 16.337 2.54832C16.3506 2.53478 16.3637 2.51723 16.3774 2.49899C16.4296 2.42924 16.4893 2.34947 16.6077 2.44565C16.6288 2.46207 16.6534 2.47612 16.6784 2.49033C16.7526 2.53271 16.8294 2.5765 16.8224 2.68832C16.8084 2.71165 16.7967 2.73498 16.785 2.75832C16.7734 2.78165 16.7617 2.80498 16.7477 2.82831Z" fill="#0F0F0E"/>
</svg>
