<svg width="158" height="41" viewBox="0 0 158 41" fill="none" xmlns="http://www.w3.org/2000/svg">
<path fill-rule="evenodd" clip-rule="evenodd" d="M18.9038 19.8806V24.9766V24.9846V31.4726C18.9065 32.388 18.9083 33.3043 18.9101 34.2209C18.9136 36.0519 18.9172 37.884 18.9278 39.7126C18.9278 39.9606 18.8318 40.0006 18.6158 40.0006H11.1518C10.9358 40.0006 10.8398 39.9606 10.8398 39.7126C10.8558 36.9686 10.8638 34.2166 10.8638 31.4726V24.9846V19.8886V15.6966V13.6406V12.0006V8.63264V4.11264C10.8604 3.58135 10.8614 3.04858 10.8624 2.5156V2.51546V2.51532C10.8637 1.80447 10.865 1.09325 10.8558 0.384644C10.8478 0.104644 10.9198 0.00064383 11.2158 0.00064383C12.8475 0.00597619 14.4757 0.00420003 16.105 0.00242258C16.9201 0.00153337 17.7355 0.00064383 18.5518 0.00064383C18.8078 -0.00735617 18.9118 0.0566438 18.9118 0.336644C18.9038 1.59264 18.9038 2.84864 18.9038 4.10464V8.62464V11.9926V13.6326V15.6886V19.8806ZM62.0958 14.873V17.337L62.0798 17.345V22.761V26.289V33.761C62.0825 34.4221 62.0843 35.0832 62.086 35.7444C62.0896 37.0672 62.0931 38.3901 62.1038 39.713C62.1038 39.961 62.0078 40.001 61.7918 40.001C59.2958 39.993 56.8078 39.993 54.3198 40.001C54.0318 40.001 53.9838 39.897 53.9838 39.641V35.169C53.9812 35.1302 53.9778 35.0906 53.9744 35.0507L53.9744 35.0506C53.9671 34.967 53.9598 34.8822 53.9598 34.801C53.9678 26.529 53.9758 18.257 53.9758 9.98498V9.77698C53.9678 6.61698 53.9678 3.46498 53.9678 0.304977C53.9678 0.0729766 54.0478 0.000976562 54.2798 0.000976562H61.7838C62.0398 0.000976562 62.1038 0.0969765 62.1038 0.336977C62.0958 1.72898 62.0958 3.12898 62.0958 4.52098V9.44898V13.065V14.873ZM51.2718 0.400977V0.360977C51.3038 0.0969765 51.1998 0.00897656 50.9278 0.00897656C48.4638 0.0169766 45.9998 0.0169766 43.5438 0.00897656C43.2878 0.00897656 43.2238 0.104977 43.2238 0.344977C43.2318 2.31204 43.2318 4.2791 43.2318 6.25415V6.25698V9.95298V13.241V15.705V21.289V28.761V35.329C43.2318 36.793 43.2318 38.257 43.2078 39.721C43.2078 40.0004 43.3425 39.9975 43.5143 39.9938L43.5465 39.9932L43.5758 39.993H51.2558C51.3859 39.931 51.3721 39.8211 51.3592 39.7189C51.3555 39.6891 51.3518 39.66 51.3518 39.633C51.344 35.3704 51.3489 31.1069 51.3539 26.8432C51.3641 18.0314 51.3742 9.21838 51.2718 0.408977V0.400977ZM128.536 19.0892C127.28 18.3772 125.936 17.9292 124.568 17.5052C124.494 17.4824 124.421 17.4597 124.348 17.437C123.443 17.1574 122.536 16.8768 121.752 16.3292C120.448 15.4172 120.584 13.6812 122.008 12.9772C122.656 12.6572 123.36 12.5932 124.072 12.6812C125.752 12.8892 127.192 13.6492 128.528 14.6172C128.912 14.8972 129.048 14.8252 129.256 14.4572C129.565 13.9293 129.896 13.4156 130.226 12.9019L130.226 12.9018L130.226 12.9017L130.226 12.9015L130.227 12.9014L130.227 12.9013L130.227 12.9012L130.227 12.9011L130.227 12.9009L130.227 12.9008C130.392 12.6442 130.557 12.3876 130.72 12.1292L130.727 12.1172C131.408 11.0491 131.42 11.0305 130.336 10.2972C127.496 8.36124 124.376 7.64924 121.032 8.52924C118.384 9.22524 116.752 11.0092 116.216 13.7372C115.704 16.3532 116.736 18.3452 118.728 19.9452C120.184 21.1132 121.864 21.8092 123.616 22.3852L123.733 22.4239C124.711 22.7468 125.698 23.0729 126.56 23.6652C127.344 24.2012 127.616 25.0812 127.256 25.8892C126.952 26.5692 126.376 26.9292 125.704 27.1452C124.424 27.5612 123.16 27.3692 121.912 26.9772C120.432 26.5132 119.208 25.6252 118.016 24.5852L117.662 25.1461C117.019 26.1644 116.393 27.1577 115.744 28.1452C115.576 28.4012 115.648 28.5212 115.856 28.7052C117.72 30.3052 119.864 31.3132 122.288 31.6972C124.544 32.0572 126.712 31.8412 128.696 30.5692C132.648 28.0332 133.624 21.9772 128.52 19.0892H128.536ZM89.2153 8.41746H89.2154V8.43346C89.5674 8.42546 89.7034 8.48146 89.7034 8.88146C89.6954 16.3135 89.6954 23.7535 89.7034 31.1855C89.7034 31.5455 89.5994 31.6175 89.2634 31.6175C88.1674 31.5935 87.0714 31.5855 85.9754 31.6175C85.5914 31.6255 85.3834 31.4975 85.1834 31.1775C82.6506 27.1656 80.1065 23.1538 77.5654 19.1468L77.5635 19.1438L77.559 19.1366L77.5569 19.1332L77.5563 19.1324L76.1594 16.9295C76.0714 16.7855 75.9754 16.6415 75.8794 16.4975L75.7834 16.5215V18.2095C75.7834 19.2737 75.7824 20.338 75.7814 21.4022C75.7784 24.594 75.7754 27.7857 75.7994 30.9775C75.7994 31.5375 75.6394 31.6335 75.1274 31.6175C73.9834 31.5775 72.8314 31.5855 71.6874 31.6175C71.2314 31.6335 71.1514 31.4815 71.1514 31.0575C71.1674 23.7135 71.1674 16.3615 71.1514 9.01746C71.1514 8.56946 71.2314 8.40946 71.7194 8.42546C72.9194 8.46546 74.1194 8.44946 75.3194 8.42546C75.6954 8.41746 75.9114 8.52946 76.1194 8.85746C78.5101 12.6545 80.912 16.4403 83.3158 20.229L83.3193 20.2346L84.7194 22.4415C84.7711 22.5261 84.8283 22.608 84.9041 22.7163L84.9043 22.7166C84.9574 22.7926 85.0196 22.8815 85.0954 22.9935V22.3455C85.0954 21.4577 85.0957 20.5697 85.096 19.6814V19.6809V19.6803V19.6797V19.6791V19.6786V19.678V19.6774V19.674C85.0973 16.1142 85.0986 12.5513 85.0794 8.99346C85.0714 8.51346 85.2074 8.40146 85.6634 8.41746C86.8473 8.44946 88.0313 8.43346 89.2153 8.41746ZM145.995 27.5093C147.559 27.5093 149.123 27.5093 150.687 27.4973V27.5053C151.167 27.4973 151.279 27.6253 151.263 28.0893C151.231 29.1133 151.247 30.1373 151.263 31.1613C151.271 31.4813 151.223 31.6173 150.847 31.6173C146.095 31.6013 141.343 31.6013 136.591 31.6173C136.159 31.6173 136.159 31.4333 136.159 31.1133V19.9853C136.159 19.07 136.16 18.1542 136.16 17.2381V17.2374V17.2366V17.2359V17.2351V17.2344V17.2336V17.2329V17.2321C136.162 14.4752 136.163 11.716 136.151 8.96129C136.151 8.56929 136.223 8.42529 136.663 8.42529C141.359 8.44129 146.063 8.44129 150.759 8.42529C151.143 8.41729 151.279 8.50529 151.263 8.91329C151.231 9.95329 151.231 11.0013 151.263 12.0413C151.279 12.4493 151.159 12.5293 150.767 12.5293C149.195 12.5213 147.623 12.5213 146.051 12.5213C144.479 12.5213 142.907 12.5213 141.335 12.5133C140.895 12.5133 140.783 12.6253 140.791 13.0653C140.815 14.5453 140.815 16.0333 140.791 17.5133C140.791 17.8893 140.911 17.9773 141.271 17.9773C142.603 17.9693 143.938 17.9693 145.272 17.9693C146.606 17.9693 147.939 17.9693 149.271 17.9613C149.671 17.9613 149.815 18.0413 149.799 18.4733C149.767 19.4813 149.767 20.4893 149.799 21.4973C149.815 21.9373 149.735 22.0813 149.239 22.0813C147.765 22.068 146.293 22.067 144.822 22.066H144.821H144.821H144.821H144.82H144.82H144.82H144.82H144.819H144.819H144.819H144.818C143.641 22.0652 142.464 22.0644 141.287 22.0573C140.903 22.0573 140.775 22.1293 140.783 22.5453C140.807 24.0253 140.807 25.5133 140.783 26.9933C140.775 27.4093 140.879 27.5213 141.303 27.5213C142.867 27.5093 144.431 27.5093 145.995 27.5093H145.995ZM105.471 14.185C106.567 12.393 107.663 10.601 108.759 8.81699H108.751C108.769 8.78966 108.786 8.76181 108.803 8.73418L108.803 8.73402C108.898 8.57569 108.989 8.42499 109.247 8.42499H114.487C114.506 8.61522 114.411 8.73956 114.323 8.85576C114.296 8.89105 114.27 8.92559 114.247 8.96099C111.663 13.001 109.079 17.041 106.479 21.073C106.295 21.353 106.215 21.625 106.215 21.961C106.223 23.4768 106.223 24.9946 106.223 26.5135V26.5178C106.223 28.0355 106.223 29.5543 106.231 31.073C106.231 31.457 106.175 31.625 105.727 31.609C104.487 31.577 103.247 31.577 102.015 31.609C101.599 31.617 101.535 31.489 101.535 31.105C101.545 29.2908 101.546 27.4794 101.547 25.6675V25.6673V25.6671V25.6669V25.6667V25.6665V25.6663V25.6661V25.6659C101.548 24.4582 101.548 23.2502 101.551 22.041C101.551 21.705 101.471 21.433 101.295 21.153C98.6964 17.1225 96.1133 13.084 93.5303 9.04554L93.5299 9.04484L93.5297 9.04449L93.5292 9.04379L93.529 9.04344L93.5285 9.04274L93.5283 9.04239L93.5278 9.04169L93.5276 9.04134L93.5274 9.04099C93.4605 8.93585 93.3964 8.82786 93.3216 8.70167L93.3213 8.70118C93.2709 8.61625 93.2157 8.52308 93.1514 8.41699C93.7634 8.41699 94.3654 8.41881 94.9607 8.42061C96.132 8.42414 97.2777 8.4276 98.4234 8.41699C98.6953 8.41699 98.788 8.57068 98.8905 8.74055C98.9025 8.76055 98.9147 8.78077 98.9274 8.80099C99.5182 9.76225 100.108 10.7235 100.697 11.6843C101.648 13.2343 102.598 14.7832 103.551 16.329C103.599 16.411 103.649 16.4907 103.703 16.5781L103.704 16.5786L103.704 16.5789C103.75 16.6533 103.8 16.7332 103.855 16.825C104.407 15.921 104.935 15.057 105.471 14.185ZM156.952 8.41718C156.784 8.40918 156.704 8.48918 156.648 8.64118C156.567 8.84935 156.478 9.05497 156.381 9.2783C156.306 9.44976 156.228 9.63166 156.144 9.83318C156.08 9.68125 156.019 9.53927 155.96 9.40377L155.96 9.40204L155.96 9.40172C155.837 9.11707 155.727 8.86095 155.624 8.60118C155.56 8.43318 155.44 8.40918 155.288 8.42518C155.119 8.44052 155.12 8.5661 155.12 8.68217L155.12 8.69718V10.1212C155.12 10.2492 155.128 10.3852 155.304 10.3772C155.473 10.3772 155.473 10.2449 155.472 10.1212L155.472 10.1052V9.30518C155.68 9.56518 155.799 9.82517 155.917 10.0852L155.917 10.0853L155.944 10.1452C155.951 10.1608 155.958 10.178 155.965 10.1956C155.996 10.277 156.031 10.3678 156.136 10.3612C156.241 10.3612 156.278 10.2642 156.313 10.1757C156.318 10.1626 156.323 10.1496 156.328 10.1372L156.329 10.1343L156.33 10.132L156.331 10.1308C156.45 9.86091 156.569 9.59111 156.68 9.32918H156.776V10.1132C156.776 10.2412 156.776 10.3772 156.96 10.3692C157.125 10.3692 157.123 10.2467 157.121 10.1348C157.12 10.1221 157.12 10.1095 157.12 10.0972V8.72118C157.12 8.71161 157.12 8.70181 157.121 8.69187L157.122 8.66232C157.128 8.54676 157.135 8.42281 156.944 8.40918L156.952 8.41718ZM154.281 8.41488C154.364 8.4131 154.448 8.41129 154.528 8.41664L154.52 8.44064C154.546 8.44226 154.574 8.44092 154.604 8.43956C154.718 8.4342 154.84 8.42848 154.84 8.60064C154.847 8.76835 154.713 8.75295 154.61 8.74103C154.595 8.73931 154.581 8.73765 154.568 8.73664C154.328 8.71264 154.32 8.84864 154.32 9.02464V10.1286L154.32 10.1555C154.321 10.2691 154.322 10.3926 154.152 10.3926C153.975 10.4003 153.976 10.2679 153.976 10.1511L153.976 10.1366C153.976 10.0486 153.978 9.96064 153.979 9.87264C153.983 9.69664 153.987 9.52064 153.976 9.34464C153.973 9.28688 153.977 9.22333 153.982 9.15948C154.001 8.91378 154.02 8.66349 153.576 8.72064C153.496 8.72864 153.464 8.65664 153.464 8.57664C153.472 8.47264 153.528 8.41664 153.632 8.41664H154.16C154.2 8.41664 154.24 8.41576 154.281 8.41488ZM40.4958 24.897V19.809V15.705V13.649V12.009V8.64098V4.12098C40.4958 2.90498 40.4958 1.68898 40.5118 0.472977C40.5118 0.120977 40.4318 0.000976562 40.0638 0.00897656C39.1041 0.0261144 38.1485 0.022856 37.1911 0.0195917C36.8077 0.0182846 36.4241 0.0169766 36.0398 0.0169766H32.7998C32.6078 0.0169766 32.4398 0.0169766 32.4558 0.280977C32.4693 0.541622 32.4474 0.802268 32.4257 1.0615V1.06156V1.06163V1.0617C32.4087 1.26388 32.3918 1.46519 32.3918 1.66498C32.3758 14.321 32.3758 26.977 32.3758 39.633C32.3758 39.6593 32.3723 39.6877 32.3688 39.7166C32.3561 39.8194 32.3425 39.9306 32.4798 39.993H40.1438L40.1759 39.9932L40.2041 39.9937C40.386 39.9972 40.535 40 40.5278 39.697C40.5171 37.8671 40.5136 36.0371 40.51 34.2072C40.5083 33.2931 40.5065 32.3791 40.5038 31.465V24.897H40.4958ZM7.81581 0.000976562C5.31981 0.0169766 2.83181 0.0169766 0.343812 0.000976562C0.0878125 0.000976562 0.0078125 0.0969766 0.0078125 0.344977C0.0078125 3.96098 0.0078125 7.56898 0.0158125 11.185V13.977C0.0158125 14.025 0.0138125 14.073 0.0118125 14.121C0.0098125 14.169 0.0078125 14.217 0.0078125 14.265C0.0078125 22.129 0.0078125 30.001 -0.000187499 37.865C-0.000187499 37.9385 0.00670645 38.0086 0.0137065 38.0797L0.0137082 38.0797C0.0173718 38.117 0.0210642 38.1545 0.0238125 38.193V39.705C0.0238125 39.905 0.0718125 40.001 0.295813 40.001H7.87181C8.09581 40.001 8.15181 39.913 8.14381 39.713C8.12781 39.321 8.12781 38.921 8.12781 38.529V30.969V24.321V14.545V11.753V7.32098C8.12781 4.99298 8.12781 2.66498 8.13581 0.336977C8.13581 0.0889766 8.05581 0.00897656 7.80781 0.00897656L7.81581 0.000976562ZM29.7358 13.977C29.7438 15.873 29.7518 17.777 29.7518 19.681H29.7358V35.985C29.7358 36.065 29.7298 36.147 29.7238 36.229C29.7178 36.311 29.7118 36.393 29.7118 36.473C29.7152 36.929 29.7143 37.3864 29.7133 37.8441C29.712 38.4543 29.7107 39.065 29.7198 39.673C29.7278 39.929 29.6558 40.001 29.3998 40.001H21.8478C21.8338 40.001 21.8188 40.0022 21.8035 40.0034C21.7402 40.0086 21.6705 40.0143 21.6318 39.937C21.6238 39.089 21.6238 38.233 21.6238 37.385V30.153V22.681V16.769V13.729V10.361V6.74498C21.6238 4.60898 21.6238 2.47298 21.6158 0.336977C21.6158 0.0889766 21.6958 0.00897656 21.9438 0.00897656H29.4158C29.6718 0.00897656 29.7438 0.0969766 29.7438 0.344977C29.7358 3.96011 29.7358 7.56726 29.7358 11.1824V11.185V13.977Z" fill="#0F0F0E"/>
</svg>
