<svg width="68" height="68" viewBox="0 0 68 68" fill="none" xmlns="http://www.w3.org/2000/svg">
<g clip-path="url(#clip0_700_320)">
<path d="M22.667 59.5H45.3337" stroke="white" stroke-width="2.83333" stroke-linecap="round" stroke-linejoin="round"/>
<path d="M34 48.167V59.5003" stroke="white" stroke-width="2.83333" stroke-linecap="round" stroke-linejoin="round"/>
<path d="M19.833 11.333H48.1663" stroke="white" stroke-width="2.83333" stroke-linecap="round" stroke-linejoin="round"/>
<path d="M48.1663 11.333V33.9997C48.1663 37.7569 46.6738 41.3603 44.017 44.017C41.3603 46.6738 37.7569 48.1663 33.9997 48.1663C30.2424 48.1663 26.6391 46.6738 23.9823 44.017C21.3256 41.3603 19.833 37.7569 19.833 33.9997V11.333" stroke="white" stroke-width="2.83333" stroke-linecap="round" stroke-linejoin="round"/>
<path d="M8.5 25.4997C8.5 27.0026 9.09702 28.4439 10.1597 29.5066C11.2224 30.5693 12.6638 31.1663 14.1667 31.1663C15.6696 31.1663 17.1109 30.5693 18.1736 29.5066C19.2363 28.4439 19.8333 27.0026 19.8333 25.4997C19.8333 23.9968 19.2363 22.5554 18.1736 21.4927C17.1109 20.43 15.6696 19.833 14.1667 19.833C12.6638 19.833 11.2224 20.43 10.1597 21.4927C9.09702 22.5554 8.5 23.9968 8.5 25.4997Z" stroke="white" stroke-width="2.83333" stroke-linecap="round" stroke-linejoin="round"/>
<path d="M48.167 25.4997C48.167 27.0026 48.764 28.4439 49.8267 29.5066C50.8894 30.5693 52.3308 31.1663 53.8337 31.1663C55.3366 31.1663 56.7779 30.5693 57.8406 29.5066C58.9033 28.4439 59.5003 27.0026 59.5003 25.4997C59.5003 23.9968 58.9033 22.5554 57.8406 21.4927C56.7779 20.43 55.3366 19.833 53.8337 19.833C52.3308 19.833 50.8894 20.43 49.8267 21.4927C48.764 22.5554 48.167 23.9968 48.167 25.4997Z" stroke="white" stroke-width="2.83333" stroke-linecap="round" stroke-linejoin="round"/>
</g>
<defs>
<clipPath id="clip0_700_320">
<rect width="68" height="68" fill="white"/>
</clipPath>
</defs>
</svg>
