<svg width="68" height="68" viewBox="0 0 68 68" fill="none" xmlns="http://www.w3.org/2000/svg">
<g clip-path="url(#clip0_700_309)">
<path d="M31.167 34.0003C31.167 34.7518 31.4655 35.4724 31.9969 36.0038C32.5282 36.5351 33.2489 36.8337 34.0003 36.8337C34.7518 36.8337 35.4724 36.5351 36.0038 36.0038C36.5351 35.4724 36.8337 34.7518 36.8337 34.0003C36.8337 33.2489 36.5351 32.5282 36.0038 31.9969C35.4724 31.4655 34.7518 31.167 34.0003 31.167C33.2489 31.167 32.5282 31.4655 31.9969 31.9969C31.4655 32.5282 31.167 33.2489 31.167 34.0003Z" stroke="white" stroke-width="2.83333" stroke-linecap="round" stroke-linejoin="round"/>
<path d="M33.9997 19.833C31.1978 19.833 28.4588 20.6639 26.1291 22.2205C23.7994 23.7772 21.9836 25.9897 20.9114 28.5783C19.8391 31.1669 19.5586 34.0154 20.1052 36.7635C20.6518 39.5115 22.0011 42.0358 23.9823 44.017C25.9636 45.9983 28.4878 47.3475 31.2359 47.8941C33.984 48.4408 36.8324 48.1602 39.421 47.088C42.0096 46.0157 44.2222 44.1999 45.7788 41.8703C47.3355 39.5406 48.1663 36.8016 48.1663 33.9997" stroke="white" stroke-width="2.83333" stroke-linecap="round" stroke-linejoin="round"/>
<path d="M36.8332 8.65607C31.5804 8.06677 26.2743 9.12436 21.6488 11.6826C17.0233 14.2407 13.3072 18.1731 11.0143 22.9357C8.72143 27.6982 7.96521 33.0556 8.85025 38.2668C9.73529 43.4779 12.2178 48.2852 15.9545 52.0238C19.6912 55.7623 24.4972 58.2473 29.7079 59.1349C34.9186 60.0226 40.2764 59.2691 45.0401 56.9786C49.8038 54.6882 53.7381 50.9739 56.2986 46.3498C58.8591 41.7256 59.9194 36.42 59.3327 31.1669" stroke="white" stroke-width="2.83333" stroke-linecap="round" stroke-linejoin="round"/>
<path d="M42.5 17V25.5H51L59.5 17H51V8.5L42.5 17Z" stroke="white" stroke-width="2.83333" stroke-linecap="round" stroke-linejoin="round"/>
<path d="M42.5 25.5L34 34" stroke="white" stroke-width="2.83333" stroke-linecap="round" stroke-linejoin="round"/>
</g>
<defs>
<clipPath id="clip0_700_309">
<rect width="68" height="68" fill="white"/>
</clipPath>
</defs>
</svg>
