<svg width="54" height="77" viewBox="0 0 54 77" fill="none" xmlns="http://www.w3.org/2000/svg">
<path fill-rule="evenodd" clip-rule="evenodd" d="M27.4198 59.557V67.197L24.5098 69.327L30.3798 74.967L36.6898 61.977L33.6798 62.757V56.457L27.4198 59.557Z" fill="#FF7643"/>
<path fill-rule="evenodd" clip-rule="evenodd" d="M13.0565 54.133C20.0534 58.0115 9.7678 46.1017 21.0371 27.1946C32.3151 8.29232 48.4438 12.7963 41.0587 8.35975C33.6824 3.928 22.9615 7.09781 13.066 23.3821C6.05942 34.8879 6.0595 50.2546 13.0565 54.133Z" fill="#DEE0FF"/>
<path fill-rule="evenodd" clip-rule="evenodd" d="M17.9899 57.256L18.1799 57.446C20.0528 59.0235 22.4424 59.8533 24.8899 59.776C25.2399 59.776 25.5999 59.726 25.9599 59.706L25.9899 66.786L22.8899 68.576C22.7907 68.6355 22.7071 68.7177 22.6459 68.8158C22.5847 68.914 22.5477 69.0252 22.5379 69.1405C22.5282 69.2557 22.5459 69.3716 22.5897 69.4786C22.6335 69.5856 22.7021 69.6807 22.7899 69.756L29.9299 75.946C30.2799 76.246 30.8499 76.146 31.0599 75.716L38.1499 61.316C38.2173 61.1757 38.238 61.0175 38.2092 60.8646C38.1803 60.7116 38.1033 60.5719 37.9894 60.4658C37.8755 60.3597 37.7306 60.2928 37.576 60.2749C37.4214 60.2569 37.2651 60.2889 37.1299 60.366L34.7599 61.736L34.7399 56.716C44.9799 50.4361 53.2399 35.876 53.1999 24.016C53.1899 18.016 51.0999 13.516 47.3299 11.326L47.2699 11.306L40.7499 7.50605C36.9499 5.28605 31.9399 5.74605 26.6599 8.80605C26.5073 8.90981 26.3997 9.06748 26.3587 9.24736C26.3177 9.42723 26.3463 9.61596 26.4388 9.77559C26.5313 9.93523 26.6808 10.0539 26.8572 10.1078C27.0337 10.1617 27.224 10.1468 27.3899 10.066C32.1899 7.27605 36.6799 6.81605 40.0199 8.76605L42.0899 9.96605C39.0199 9.96605 35.9199 11.116 33.2499 12.636C23.3499 18.336 15.3999 31.576 14.2899 42.996C13.9499 46.576 14.2199 51.036 15.8099 54.276L15.8199 54.306L14.1399 53.326C10.8399 51.396 9.02987 47.326 9.01987 41.866C8.98987 33.466 13.3099 23.366 20.0199 16.096C20.0913 16.027 20.1478 15.9442 20.1861 15.8526C20.2243 15.761 20.2435 15.6625 20.2424 15.5632C20.2413 15.4639 20.22 15.3659 20.1797 15.2752C20.1395 15.1844 20.0811 15.1028 20.0082 15.0354C19.9353 14.968 19.8495 14.9161 19.7559 14.883C19.6623 14.8499 19.5629 14.8362 19.4638 14.8429C19.3648 14.8495 19.2681 14.8762 19.1797 14.9215C19.0914 14.9667 19.0131 15.0295 18.9499 15.106C11.9899 22.626 7.52987 33.126 7.54987 41.866C7.56987 47.866 9.64987 52.386 13.3999 54.586L17.9999 57.256H17.9899ZM35.7799 62.826L30.1699 74.2261L24.5099 69.326L27.0799 67.846C27.1929 67.782 27.2868 67.6889 27.3519 67.5763C27.4169 67.4638 27.4507 67.336 27.4499 67.206L27.4199 59.556C29.1399 59.2761 31.3599 58.556 33.2799 57.556L33.3099 62.996C33.3097 63.1247 33.3436 63.2512 33.4081 63.3626C33.4726 63.4739 33.5654 63.5663 33.6771 63.6302C33.7887 63.6942 33.9153 63.7275 34.044 63.7267C34.1727 63.726 34.2989 63.6913 34.4099 63.626L35.7799 62.826ZM51.7399 24.016C51.7699 37.666 39.7799 56.516 26.5899 58.196C22.6899 58.706 19.3299 57.586 17.3699 54.096C15.6699 51.026 15.3999 46.576 15.7499 43.046C16.8099 32.166 24.4799 19.396 33.9499 13.916L33.9899 13.896C37.8699 11.676 42.6699 10.366 46.5499 12.566L46.6099 12.596H46.6199C49.9199 14.516 51.7399 18.566 51.7499 24.016H51.7399Z" fill="black"/>
<path fill-rule="evenodd" clip-rule="evenodd" d="M23.7203 10.7566C22.8766 11.3959 22.0624 12.0733 21.2803 12.7866C21.2041 12.8494 21.1414 12.9271 21.0961 13.0148C21.0507 13.1026 21.0237 13.1987 21.0166 13.2972C21.0094 13.3957 21.0224 13.4946 21.0546 13.588C21.0868 13.6814 21.1377 13.7673 21.204 13.8404C21.2704 13.9136 21.351 13.9725 21.4408 14.0136C21.5306 14.0547 21.6278 14.0772 21.7266 14.0796C21.8253 14.0821 21.9235 14.0645 22.0153 14.0278C22.107 13.9912 22.1904 13.9364 22.2603 13.8666C23.0203 13.1666 23.8003 12.5166 24.5903 11.9266C24.6728 11.8717 24.7432 11.8006 24.7973 11.7176C24.8515 11.6346 24.8881 11.5415 24.9051 11.4439C24.922 11.3463 24.919 11.2462 24.896 11.1499C24.8731 11.0535 24.8308 10.9628 24.7717 10.8833C24.7125 10.8038 24.6379 10.7371 24.5522 10.6874C24.4665 10.6377 24.3716 10.606 24.2732 10.5941C24.1748 10.5823 24.0751 10.5906 23.98 10.6185C23.885 10.6464 23.7966 10.6934 23.7203 10.7566Z" fill="black"/>
<path fill-rule="evenodd" clip-rule="evenodd" d="M35.6499 34.0863C34.9899 33.7063 34.1399 33.7663 33.3099 34.2463C32.9499 34.4463 32.6099 34.5063 32.4199 34.4063C32.2399 34.2963 32.1199 33.9863 32.1199 33.5763C32.1199 32.3763 32.9899 30.8763 34.0199 30.2763C34.3899 30.0763 34.7199 30.0063 34.9099 30.1163C35.0999 30.2263 35.2099 30.5363 35.2099 30.9563C35.2099 31.1499 35.2868 31.3356 35.4237 31.4725C35.5606 31.6094 35.7463 31.6863 35.9399 31.6863C36.1335 31.6863 36.3192 31.6094 36.4561 31.4725C36.593 31.3356 36.6699 31.1499 36.6699 30.9563C36.6699 29.9963 36.2899 29.2263 35.6399 28.8563C35.2799 28.6463 34.8399 28.5863 34.3999 28.6363V27.2163C34.3999 27.0227 34.323 26.837 34.1861 26.7001C34.0492 26.5632 33.8635 26.4863 33.6699 26.4863C33.4763 26.4863 33.2906 26.5632 33.1537 26.7001C33.0168 26.837 32.9399 27.0227 32.9399 27.2163V29.2663C32.2719 29.7751 31.7228 30.4234 31.3308 31.166C30.9387 31.9086 30.7132 32.7277 30.6699 33.5663C30.6699 34.5263 31.0499 35.2863 31.6999 35.6663C32.3599 36.0363 33.2099 35.9863 34.0499 35.4963C34.4099 35.2963 34.7399 35.2363 34.9299 35.3363C35.1099 35.4463 35.2299 35.7563 35.2299 36.1763C35.2299 37.3563 34.3699 38.8563 33.3299 39.4563C32.9699 39.6663 32.6299 39.7263 32.4499 39.6163C32.2499 39.5163 32.1499 39.2063 32.1499 38.7963C32.1499 38.3963 31.8199 38.0663 31.4099 38.0663C31.0099 38.0663 30.6799 38.3963 30.6799 38.7963C30.6799 39.7463 31.0599 40.5063 31.7099 40.8863C32.0099 41.0463 32.3199 41.1263 32.6699 41.1263C32.7599 41.1263 32.8499 41.0963 32.9399 41.0863V42.5363C32.9399 42.7299 33.0168 42.9156 33.1537 43.0525C33.2906 43.1894 33.4763 43.2663 33.6699 43.2663C33.8635 43.2663 34.0492 43.1894 34.1861 43.0525C34.323 42.9156 34.3999 42.7299 34.3999 42.5363V40.4863C35.0749 39.9803 35.63 39.3318 36.0258 38.5868C36.4216 37.8419 36.6484 37.0189 36.6899 36.1763C36.6899 35.2163 36.2999 34.4563 35.6499 34.0763V34.0863Z" fill="black"/>
</svg>
