<svg width="44" height="44" viewBox="0 0 44 44" fill="none" xmlns="http://www.w3.org/2000/svg">
<g clip-path="url(#clip0_416_3342)">
<path d="M5.5 22C5.5 24.1668 5.92678 26.3124 6.75599 28.3143C7.58519 30.3161 8.80057 32.1351 10.3327 33.6673C11.8649 35.1994 13.6839 36.4148 15.6857 37.244C17.6876 38.0732 19.8332 38.5 22 38.5C24.1668 38.5 26.3124 38.0732 28.3143 37.244C30.3161 36.4148 32.1351 35.1994 33.6673 33.6673C35.1994 32.1351 36.4148 30.3161 37.244 28.3143C38.0732 26.3124 38.5 24.1668 38.5 22C38.5 19.8332 38.0732 17.6876 37.244 15.6857C36.4148 13.6839 35.1994 11.8649 33.6673 10.3327C32.1351 8.80057 30.3161 7.58519 28.3143 6.75599C26.3124 5.92679 24.1668 5.5 22 5.5C19.8332 5.5 17.6876 5.92679 15.6857 6.75599C13.6839 7.58519 11.8649 8.80057 10.3327 10.3327C8.80057 11.8649 7.58519 13.6839 6.75599 15.6857C5.92678 17.6876 5.5 19.8332 5.5 22Z" stroke="#FF4500" stroke-width="2.75" stroke-linecap="round" stroke-linejoin="round"/>
<path d="M27.1333 16.4995C26.8012 15.9234 26.3187 15.4484 25.7374 15.1255C25.1561 14.8025 24.4979 14.6438 23.8333 14.6661H20.1667C19.1942 14.6661 18.2616 15.0524 17.5739 15.7401C16.8863 16.4277 16.5 17.3603 16.5 18.3328C16.5 19.3053 16.8863 20.2379 17.5739 20.9255C18.2616 21.6132 19.1942 21.9995 20.1667 21.9995H23.8333C24.8058 21.9995 25.7384 22.3858 26.4261 23.0734C27.1137 23.761 27.5 24.6937 27.5 25.6661C27.5 26.6386 27.1137 27.5712 26.4261 28.2589C25.7384 28.9465 24.8058 29.3328 23.8333 29.3328H20.1667C19.5021 29.3552 18.8439 29.1964 18.2626 28.8735C17.6813 28.5505 17.1988 28.0756 16.8667 27.4995" stroke="#FF4500" stroke-width="2.75" stroke-linecap="round" stroke-linejoin="round"/>
<path d="M22 12.834V31.1673" stroke="#FF4500" stroke-width="2.75" stroke-linecap="round" stroke-linejoin="round"/>
</g>
<defs>
<clipPath id="clip0_416_3342">
<rect width="44" height="44" fill="white"/>
</clipPath>
</defs>
</svg>
