<svg width="213" height="172" viewBox="0 0 213 172" fill="none" xmlns="http://www.w3.org/2000/svg">
<path d="M5.91121 9.42653C6.88861 8.44942 6.88861 6.86521 5.91121 5.8881C4.93381 4.911 3.34912 4.911 2.37172 5.8881C1.39432 6.86521 1.39432 8.44942 2.37172 9.42653C3.34912 10.4036 4.93381 10.4036 5.91121 9.42653Z" fill="#FCEAE4" fill-opacity="0.17"/>
<path d="M24.4597 27.9799C25.4482 26.9918 25.4482 25.3895 24.4597 24.4012C23.4712 23.4131 21.8686 23.4131 20.88 24.4012C19.8915 25.3895 19.8915 26.9918 20.88 27.9799C21.8686 28.9681 23.4712 28.9681 24.4597 27.9799Z" fill="#FCEAE4" fill-opacity="0.17"/>
<path d="M42.4899 10.4103C43.6006 9.3 43.6006 7.49976 42.4899 6.38941C41.3792 5.27905 39.5785 5.27905 38.4678 6.38941C37.3571 7.49976 37.3571 9.3 38.4678 10.4103C39.5785 11.5207 41.3792 11.5207 42.4899 10.4103Z" fill="#FCEAE4" fill-opacity="0.17"/>
<path d="M61.0549 28.9743C62.1822 27.8474 62.1822 26.0202 61.0549 24.8931C59.9275 23.7661 58.0997 23.7661 56.9724 24.8931C55.8451 26.0202 55.8451 27.8474 56.9724 28.9743C58.0997 30.1014 59.9275 30.1014 61.0549 28.9743Z" fill="#FCEAE4" fill-opacity="0.17"/>
<path d="M79.1995 11.5347C80.5212 10.2134 80.5212 8.0711 79.1995 6.74977C77.8778 5.42846 75.7348 5.42846 74.4131 6.74977C73.0915 8.0711 73.0915 10.2134 74.4131 11.5347C75.7348 12.856 77.8778 12.856 79.1995 11.5347Z" fill="#FCEAE4" fill-opacity="0.17"/>
<path d="M79.6171 47.5268C80.7555 46.3887 80.7555 44.5434 79.6171 43.4054C78.4787 42.2672 76.6328 42.2672 75.4944 43.4054C74.356 44.5434 74.356 46.3887 75.4944 47.5268C76.6328 48.6649 78.4787 48.6649 79.6171 47.5268Z" fill="#FCEAE4" fill-opacity="0.17"/>
<path d="M97.7386 30.0678C99.0603 28.7466 99.0603 26.6043 97.7386 25.2829C96.4168 23.9617 94.274 23.9617 92.9522 25.2829C91.6305 26.6043 91.6305 28.7466 92.9522 30.0678C94.274 31.3892 96.4168 31.3892 97.7386 30.0678Z" fill="#FCEAE4" fill-opacity="0.17"/>
<path d="M116.109 12.8613C117.753 11.2179 117.753 8.55355 116.109 6.91022C114.466 5.26691 111.801 5.26691 110.157 6.91022C108.513 8.55355 108.513 11.2179 110.157 12.8613C111.801 14.5046 114.466 14.5046 116.109 12.8613Z" fill="#FCEAE4" fill-opacity="0.17"/>
<path d="M116.241 48.5712C117.547 47.2667 117.547 45.1514 116.241 43.8467C114.937 42.542 112.821 42.542 111.516 43.8467C110.211 45.1514 110.211 47.2667 111.516 48.5712C112.821 49.8759 114.937 49.8759 116.241 48.5712Z" fill="#FCEAE4" fill-opacity="0.17"/>
<path d="M135.286 32.0172C137.274 30.0297 137.274 26.8073 135.286 24.8198C133.298 22.8322 130.075 22.8322 128.087 24.8198C126.099 26.8073 126.099 30.0297 128.087 32.0172C130.075 34.0048 133.298 34.0048 135.286 32.0172Z" fill="#FCEAE4" fill-opacity="0.17"/>
<path d="M154.689 15.8444C157.571 12.963 157.571 8.2914 154.689 5.41004C151.806 2.52868 147.134 2.52868 144.252 5.41004C141.369 8.2914 141.369 12.963 144.252 15.8444C147.134 18.7257 151.806 18.7257 154.689 15.8444Z" fill="#FCEAE4" fill-opacity="0.17"/>
<path d="M134.772 67.0939C136.072 65.7948 136.072 63.6885 134.772 62.3894C133.473 61.0902 131.366 61.0902 130.067 62.3894C128.767 63.6885 128.767 65.7948 130.067 67.0939C131.366 68.393 133.473 68.393 134.772 67.0939Z" fill="#FCEAE4" fill-opacity="0.17"/>
<path d="M154.519 51.2445C156.891 48.8739 156.891 45.0303 154.519 42.6598C152.149 40.2892 148.304 40.2892 145.933 42.6598C143.561 45.0303 143.561 48.8739 145.933 51.2445C148.304 53.615 152.149 53.615 154.519 51.2445Z" fill="#FCEAE4" fill-opacity="0.17"/>
<path d="M173.32 34.4691C176.251 31.5378 176.251 26.7851 173.32 23.8538C170.387 20.9224 165.633 20.9224 162.701 23.8538C159.769 26.7851 159.769 31.5378 162.701 34.4691C165.633 37.4004 170.387 37.4004 173.32 34.4691Z" fill="#FCEAE4" fill-opacity="0.17"/>
<path d="M191.813 17.3711C195.128 14.0567 195.128 8.68301 191.813 5.36861C188.497 2.05421 183.122 2.05421 179.807 5.36861C176.492 8.68301 176.492 14.0567 179.807 17.3711C183.122 20.6855 188.497 20.6855 191.813 17.3711Z" fill="#FCEAE4" fill-opacity="0.17"/>
<path d="M153.373 85.6878C154.706 84.3553 154.706 82.195 153.373 80.8626C152.041 79.5302 149.88 79.5302 148.547 80.8626C147.214 82.195 147.214 84.3553 148.547 85.6878C149.88 87.0201 152.041 87.0201 153.373 85.6878Z" fill="#FCEAE4" fill-opacity="0.17"/>
<path d="M173.01 69.7266C175.354 67.3839 175.354 63.5854 173.01 61.2425C170.667 58.8996 166.867 58.8996 164.523 61.2425C162.18 63.5854 162.18 67.3839 164.523 69.7266C166.867 72.0695 170.667 72.0695 173.01 69.7266Z" fill="#FCEAE4" fill-opacity="0.17"/>
<path d="M191.514 52.6596C194.257 49.9169 194.257 45.4704 191.514 42.7278C188.771 39.9853 184.323 39.9853 181.579 42.7278C178.836 45.4704 178.836 49.9169 181.579 52.6596C184.323 55.4021 188.771 55.4021 191.514 52.6596Z" fill="#FCEAE4" fill-opacity="0.17"/>
<path d="M210.044 35.5924C213.188 32.4502 213.188 27.3555 210.044 24.2132C206.902 21.0708 201.805 21.0708 198.662 24.2132C195.519 27.3555 195.519 32.4502 198.662 35.5924C201.805 38.7347 206.902 38.7347 210.044 35.5924Z" fill="#FCEAE4" fill-opacity="0.17"/>
<path d="M154.002 121.902C155.275 120.631 155.275 118.57 154.002 117.299C152.731 116.027 150.669 116.027 149.398 117.299C148.125 118.57 148.125 120.631 149.398 121.902C150.669 123.174 152.731 123.174 154.002 121.902Z" fill="#FCEAE4" fill-opacity="0.17"/>
<path d="M172.004 104.311C173.387 102.929 173.387 100.688 172.004 99.3054C170.621 97.923 168.379 97.923 166.997 99.3054C165.613 100.688 165.613 102.929 166.997 104.311C168.379 105.694 170.621 105.694 172.004 104.311Z" fill="#FCEAE4" fill-opacity="0.17"/>
<path d="M190.59 87.3145C192.411 85.4935 192.411 82.5412 190.59 80.7203C188.768 78.8992 185.815 78.8992 183.993 80.7203C182.171 82.5412 182.171 85.4935 183.993 87.3145C185.815 89.1356 188.768 89.1356 190.59 87.3145Z" fill="#FCEAE4" fill-opacity="0.17"/>
<path d="M209.177 70.3187C211.438 68.0591 211.438 64.3957 209.177 62.1361C206.916 59.8765 203.252 59.8765 200.991 62.1361C198.732 64.3957 198.732 68.0591 200.991 70.3187C203.252 72.5782 206.916 72.5782 209.177 70.3187Z" fill="#FCEAE4" fill-opacity="0.17"/>
<path d="M172.557 140.456C173.84 139.174 173.84 137.094 172.557 135.811C171.273 134.529 169.194 134.529 167.911 135.811C166.629 137.094 166.629 139.174 167.911 140.456C169.194 141.738 171.273 141.738 172.557 140.456Z" fill="#FCEAE4" fill-opacity="0.17"/>
<path d="M190.548 122.856C191.937 121.467 191.937 119.217 190.548 117.83C189.16 116.441 186.908 116.441 185.52 117.83C184.131 119.217 184.131 121.467 185.52 122.856C186.908 124.243 189.16 124.243 190.548 122.856Z" fill="#FCEAE4" fill-opacity="0.17"/>
<path d="M208.363 105.074C209.756 103.68 209.756 101.421 208.363 100.028C206.969 98.6341 204.71 98.6341 203.315 100.028C201.921 101.421 201.921 103.68 203.315 105.074C204.71 106.467 206.969 106.467 208.363 105.074Z" fill="#FCEAE4" fill-opacity="0.17"/>
<path d="M191.114 158.998C192.403 157.71 192.403 155.622 191.114 154.334C189.826 153.046 187.737 153.046 186.449 154.334C185.16 155.622 185.16 157.71 186.449 158.998C187.737 160.286 189.826 160.286 191.114 158.998Z" fill="#FCEAE4" fill-opacity="0.17"/>
<path d="M208.869 141.168C210.135 139.902 210.135 137.85 208.869 136.584C207.603 135.318 205.55 135.318 204.283 136.584C203.018 137.85 203.018 139.902 204.283 141.168C205.55 142.434 207.603 142.434 208.869 141.168Z" fill="#FCEAE4" fill-opacity="0.17"/>
<path d="M209.61 177.482C210.871 176.221 210.871 174.179 209.61 172.918C208.349 171.658 206.306 171.658 205.045 172.918C203.784 174.179 203.784 176.221 205.045 177.482C206.306 178.742 208.349 178.742 209.61 177.482Z" fill="#FCEAE4" fill-opacity="0.17"/>
</svg>
