<svg width="14" height="14" viewBox="0 0 14 14" fill="none" xmlns="http://www.w3.org/2000/svg">
<path d="M5.65479 7.74739L11.6131 1.78906" stroke="white" stroke-linecap="round" stroke-linejoin="round"/>
<path d="M11.6128 1.78906L8.09194 11.5391C8.06817 11.5909 8.03002 11.6349 7.98201 11.6657C7.934 11.6965 7.87815 11.7129 7.8211 11.7129C7.76406 11.7129 7.70821 11.6965 7.6602 11.6657C7.61219 11.6349 7.57404 11.5909 7.55027 11.5391L5.65444 7.7474L1.86277 5.85156C1.81091 5.8278 1.76696 5.78964 1.73615 5.74163C1.70534 5.69362 1.68896 5.63778 1.68896 5.58073C1.68896 5.52368 1.70534 5.46784 1.73615 5.41983C1.76696 5.37182 1.81091 5.33366 1.86277 5.3099L11.6128 1.78906Z" stroke="white" stroke-linecap="round" stroke-linejoin="round"/>
</svg>
