<svg width="357" height="293" viewBox="0 0 357 293" fill="none" xmlns="http://www.w3.org/2000/svg">
<g clip-path="url(#clip0_766_2162)">
<path fill-rule="evenodd" clip-rule="evenodd" d="M178.475 18.1185L167.434 9.14907L178.475 0.179688L189.517 9.14907L178.475 18.1185ZM178.475 51.0062L169.888 44.03L178.475 37.0538L187.063 44.03L178.475 51.0062ZM178.475 84.8906L171.115 78.911L178.475 72.9314L185.836 78.911L178.475 84.8906ZM177.862 118.775L172.341 114.29L177.862 109.806L183.383 114.29L177.862 118.775ZM178.475 153.656L173.568 149.669L178.475 145.683L183.383 149.669L178.475 153.656ZM156.393 34.064L146.579 26.0913L156.393 18.1185L166.207 26.0913L156.393 34.064ZM157.006 67.9484L149.032 61.4705L157.006 54.9926L164.981 61.4705L157.006 67.9484ZM156.393 101.833L150.259 96.8498L156.393 91.8668L162.527 96.8498L156.393 101.833ZM156.393 135.717L151.486 131.731L156.393 127.744L161.3 131.731L156.393 135.717ZM157.006 170.598L152.713 167.11L157.006 163.622L161.3 167.11L157.006 170.598ZM135.537 51.0062L126.95 44.03L135.537 37.0538L144.125 44.03L135.537 51.0062ZM135.537 84.8906L128.177 78.911L135.537 72.9314L142.898 78.911L135.537 84.8906ZM134.924 118.775L129.403 114.29L134.924 109.806L140.445 114.29L134.924 118.775ZM135.537 153.656L130.63 149.669L135.537 145.683L140.445 149.669L135.537 153.656ZM135.537 187.54L131.857 184.55L135.537 181.561L139.218 184.55L135.537 187.54ZM114.068 67.9484L106.094 61.4705L114.068 54.9926L122.042 61.4705L114.068 67.9484ZM113.455 101.833L107.321 96.8498L113.455 91.8668L119.589 96.8498L113.455 101.833ZM113.455 135.717L108.548 131.731L113.455 127.744L118.362 131.731L113.455 135.717ZM114.068 170.598L109.774 167.11L114.068 163.622L118.362 167.11L114.068 170.598ZM113.455 205.479L109.774 202.489L113.455 199.499L117.135 202.489L113.455 205.479ZM91.3724 84.8906L84.0116 78.911L91.3724 72.9314L98.7332 78.911L91.3724 84.8906ZM91.9858 118.775L86.4652 114.29L91.9858 109.806L97.5064 114.29L91.9858 118.775ZM91.3724 153.656L86.4652 149.669L91.3724 145.683L96.2796 149.669L91.3724 153.656ZM91.3724 187.54L87.692 184.55L91.3724 181.561L95.0528 184.55L91.3724 187.54ZM91.9858 222.421L88.9188 219.93L91.9858 217.438L95.0528 219.93L91.9858 222.421ZM70.5167 101.833L64.3827 96.8498L70.5167 91.8668L76.6507 96.8498L70.5167 101.833ZM70.5167 135.717L65.6095 131.731L70.5167 127.744L75.4239 131.731L70.5167 135.717ZM69.9033 170.598L65.6095 167.11L69.9033 163.622L74.1971 167.11L69.9033 170.598ZM70.5167 205.479L66.8363 202.489L70.5167 199.499L74.1971 202.489L70.5167 205.479ZM70.5167 239.363L68.0631 237.37L70.5167 235.377L72.9703 237.37L70.5167 239.363ZM49.0476 118.775L43.527 114.29L49.0476 109.806L54.5683 114.29L49.0476 118.775ZM48.4342 153.656L43.527 149.669L48.4342 145.683L53.3414 149.669L48.4342 153.656ZM48.4342 187.54L44.7538 184.55L48.4342 181.561L52.1146 184.55L48.4342 187.54ZM49.0476 222.421L45.9806 219.93L49.0476 217.438L52.1146 219.93L49.0476 222.421ZM48.4342 257.302L45.9806 255.309L48.4342 253.316L50.8878 255.309L48.4342 257.302ZM26.3518 135.717L21.4445 131.731L26.3518 127.744L31.259 131.731L26.3518 135.717ZM26.9652 170.598L22.6713 167.11L26.9652 163.622L31.259 167.11L26.9652 170.598ZM26.3518 205.479L22.6713 202.489L26.3518 199.499L30.0322 202.489L26.3518 205.479ZM26.3518 239.363L23.8981 237.37L26.3518 235.377L28.8054 237.37L26.3518 239.363ZM26.3518 275.241L23.8981 273.248L26.3518 271.255L28.8054 273.248L26.3518 275.241ZM5.49608 153.656L0.588867 149.669L5.49608 145.683L10.4033 149.669L5.49608 153.656ZM5.49608 187.54L1.81567 184.55L5.49608 181.561L9.1765 184.55L5.49608 187.54ZM4.88268 222.421L1.81567 219.93L4.88268 217.438L7.94969 219.93L4.88268 222.421ZM5.49608 257.302L3.04248 255.309L5.49608 253.316L7.94969 255.309L5.49608 257.302ZM4.88268 292.183L3.04248 290.688L4.88268 289.193L6.72289 290.688L4.88268 292.183ZM200.558 34.064L190.744 26.0913L200.558 18.1185L210.372 26.0913L200.558 34.064ZM199.945 67.9484L191.97 61.4705L199.945 54.9926L207.919 61.4705L199.945 67.9484ZM200.558 101.833L194.424 96.8498L200.558 91.8668L206.692 96.8498L200.558 101.833ZM200.558 135.717L195.651 131.731L200.558 127.744L205.465 131.731L200.558 135.717ZM199.945 170.598L195.651 167.11L199.945 163.622L204.238 167.11L199.945 170.598ZM221.414 51.0062L212.826 44.03L221.414 37.0538L230.001 44.03L221.414 51.0062ZM221.414 84.8906L214.053 78.911L221.414 72.9314L228.774 78.911L221.414 84.8906ZM222.027 118.775L216.506 114.29L222.027 109.806L227.548 114.29L222.027 118.775ZM221.414 153.656L216.506 149.669L221.414 145.683L226.321 149.669L221.414 153.656ZM221.414 187.54L217.733 184.55L221.414 181.561L225.094 184.55L221.414 187.54ZM242.883 67.9484L234.908 61.4705L242.883 54.9926L250.857 61.4705L242.883 67.9484ZM243.496 101.833L237.362 96.8498L243.496 91.8668L249.63 96.8498L243.496 101.833ZM243.496 135.717L238.589 131.731L243.496 127.744L248.403 131.731L243.496 135.717ZM242.883 170.598L238.589 167.11L242.883 163.622L247.177 167.11L242.883 170.598ZM243.496 205.479L239.816 202.489L243.496 199.499L247.177 202.489L243.496 205.479ZM265.579 84.8906L258.218 78.911L265.579 72.9314L272.939 78.911L265.579 84.8906ZM264.965 118.775L259.445 114.29L264.965 109.806L270.486 114.29L264.965 118.775ZM265.579 153.656L260.671 149.669L265.579 145.683L270.486 149.669L265.579 153.656ZM265.579 187.54L261.898 184.55L265.579 181.561L269.259 184.55L265.579 187.54ZM264.965 222.421L261.898 219.93L264.965 217.438L268.032 219.93L264.965 222.421ZM286.434 101.833L280.3 96.8498L286.434 91.8668L292.568 96.8498L286.434 101.833ZM286.434 135.717L281.527 131.731L286.434 127.744L291.341 131.731L286.434 135.717ZM287.048 170.598L282.754 167.11L287.048 163.622L291.341 167.11L287.048 170.598ZM286.434 205.479L282.754 202.489L286.434 199.499L290.115 202.489L286.434 205.479ZM286.434 239.363L283.981 237.37L286.434 235.377L288.888 237.37L286.434 239.363ZM307.903 118.775L302.383 114.29L307.903 109.806L313.424 114.29L307.903 118.775ZM308.517 153.656L303.61 149.669L308.517 145.683L313.424 149.669L308.517 153.656ZM308.517 187.54L304.836 184.55L308.517 181.561L312.197 184.55L308.517 187.54ZM307.903 222.421L304.836 219.93L307.903 217.438L310.97 219.93L307.903 222.421ZM308.517 257.302L306.063 255.309L308.517 253.316L310.97 255.309L308.517 257.302ZM330.599 135.717L325.692 131.731L330.599 127.744L335.506 131.731L330.599 135.717ZM329.986 170.598L325.692 167.11L329.986 163.622L334.28 167.11L329.986 170.598ZM330.599 205.479L326.919 202.489L330.599 199.499L334.28 202.489L330.599 205.479ZM330.599 239.363L328.146 237.37L330.599 235.377L333.053 237.37L330.599 239.363ZM330.599 275.241L328.146 273.248L330.599 271.255L333.053 273.248L330.599 275.241ZM351.455 153.656L346.548 149.669L351.455 145.683L356.362 149.669L351.455 153.656ZM351.455 187.54L347.774 184.55L351.455 181.561L355.135 184.55L351.455 187.54ZM352.068 222.421L349.001 219.93L352.068 217.438L355.135 219.93L352.068 222.421ZM351.455 257.302L349.001 255.309L351.455 253.316L353.909 255.309L351.455 257.302ZM352.068 292.183L350.228 290.688L352.068 289.193L353.909 290.688L352.068 292.183Z" fill="black"/>
</g>
<defs>
<clipPath id="clip0_766_2162">
<rect width="357" height="293" fill="white"/>
</clipPath>
</defs>
</svg>
