<svg width="72" height="72" viewBox="0 0 72 72" fill="none" xmlns="http://www.w3.org/2000/svg">
<path d="M1.5 1.5H70.5V11.8232H1.5V1.5ZM7.1616 64.7061H64.8384V70.5H7.1616V64.7061Z" stroke="black"/>
<path d="M65.3384 71H6.6616M1 12.3232H71M1 1H71V64.2061H1V1Z" stroke="white" stroke-width="0.75"/>
<path d="M22.6278 27.7016L12.2104 38.051L22.6278 48.3891M48.875 48.3891L59.2923 38.051L48.875 27.7016M43.1115 25.9805L28.3913 50.1102" stroke="white" stroke-width="0.75"/>
<path d="M7.41992 7.79296C8.04528 7.79296 8.55224 7.286 8.55224 6.66064C8.55224 6.03528 8.04528 5.52832 7.41992 5.52832C6.79455 5.52832 6.2876 6.03528 6.2876 6.66064C6.2876 7.286 6.79455 7.79296 7.41992 7.79296Z" fill="white"/>
<path d="M14.2139 7.79296C14.8392 7.79296 15.3462 7.286 15.3462 6.66064C15.3462 6.03528 14.8392 5.52832 14.2139 5.52832C13.5885 5.52832 13.0815 6.03528 13.0815 6.66064C13.0815 7.286 13.5885 7.79296 14.2139 7.79296Z" fill="white"/>
<path d="M10.8169 7.79296C11.4423 7.79296 11.9492 7.286 11.9492 6.66064C11.9492 6.03528 11.4423 5.52832 10.8169 5.52832C10.1915 5.52832 9.68457 6.03528 9.68457 6.66064C9.68457 7.286 10.1915 7.79296 10.8169 7.79296Z" fill="white"/>
</svg>
