<svg width="68" height="68" viewBox="0 0 68 68" fill="none" xmlns="http://www.w3.org/2000/svg">
<g clip-path="url(#clip0_700_328)">
<path d="M31.167 51.0113H18.8618C11.5745 51 5.66699 45.3135 5.66699 38.2982C5.66699 31.2857 11.5745 25.5992 18.8618 25.5992C19.9753 20.6068 23.9448 16.5325 29.2743 14.909C34.601 13.2883 40.483 14.3622 44.699 17.7423C48.915 21.114 50.8247 26.2622 49.714 31.2545H52.519C54.6152 31.2584 56.6552 31.9324 58.3409 33.1783C60.0267 34.4241 61.2699 36.1764 61.8888 38.1792" stroke="white" stroke-width="2.83333" stroke-linecap="round" stroke-linejoin="round"/>
<path d="M56.667 59.5003L62.3337 53.8337L56.667 48.167" stroke="white" stroke-width="2.83333" stroke-linecap="round" stroke-linejoin="round"/>
<path d="M48.1667 48.167L42.5 53.8337L48.1667 59.5003" stroke="white" stroke-width="2.83333" stroke-linecap="round" stroke-linejoin="round"/>
</g>
<defs>
<clipPath id="clip0_700_328">
<rect width="68" height="68" fill="white"/>
</clipPath>
</defs>
</svg>
