<svg width="714" height="722" viewBox="0 0 714 722" fill="none" xmlns="http://www.w3.org/2000/svg">
<g style="mix-blend-mode:soft-light">
<path fill-rule="evenodd" clip-rule="evenodd" d="M356.951 44.6465L334.868 22.5444L356.951 0.442383L379.033 22.5444L356.951 44.6465ZM356.951 125.687L339.776 108.497L356.951 91.3063L374.126 108.497L356.951 125.687ZM356.951 209.184L342.229 194.449L356.951 179.714L371.673 194.449L356.951 209.184ZM355.724 292.68L344.683 281.629L355.724 270.578L366.765 281.629L355.724 292.68ZM356.951 378.633L347.137 368.81L356.951 358.987L366.765 368.81L356.951 378.633ZM312.786 83.939L293.157 64.2927L312.786 44.6465L332.415 64.2927L312.786 83.939ZM314.013 167.436L298.064 151.473L314.013 135.51L329.961 151.473L314.013 167.436ZM312.786 250.932L300.518 238.653L312.786 226.374L325.054 238.653L312.786 250.932ZM312.786 334.429L302.972 324.606L312.786 314.782L322.6 324.606L312.786 334.429ZM314.013 420.381L305.425 411.786L314.013 403.191L322.6 411.786L314.013 420.381ZM271.075 125.687L253.899 108.497L271.075 91.3063L288.25 108.497L271.075 125.687ZM271.075 209.184L256.353 194.449L271.075 179.714L285.796 194.449L271.075 209.184ZM269.848 292.68L258.807 281.629L269.848 270.578L280.889 281.629L269.848 292.68ZM271.075 378.633L261.26 368.81L271.075 358.987L280.889 368.81L271.075 378.633ZM271.075 462.129L263.714 454.762L271.075 447.395L278.435 454.762L271.075 462.129ZM228.137 167.436L212.188 151.473L228.137 135.51L244.085 151.473L228.137 167.436ZM226.91 250.932L214.642 238.653L226.91 226.374L239.178 238.653L226.91 250.932ZM226.91 334.429L217.095 324.606L226.91 314.782L236.724 324.606L226.91 334.429ZM228.137 420.381L219.549 411.786L228.137 403.191L236.724 411.786L228.137 420.381ZM226.91 506.333L219.549 498.966L226.91 491.599L234.271 498.966L226.91 506.333ZM182.745 209.184L168.023 194.449L182.745 179.714L197.466 194.449L182.745 209.184ZM183.972 292.68L172.93 281.629L183.972 270.578L195.013 281.629L183.972 292.68ZM182.745 378.633L172.93 368.81L182.745 358.987L192.559 368.81L182.745 378.633ZM182.745 462.129L175.384 454.762L182.745 447.395L190.106 454.762L182.745 462.129ZM183.972 548.082L177.838 541.942L183.972 535.803L190.106 541.942L183.972 548.082ZM141.033 250.932L128.765 238.653L141.033 226.374L153.301 238.653L141.033 250.932ZM141.033 334.429L131.219 324.606L141.033 314.782L150.848 324.606L141.033 334.429ZM139.807 420.381L131.219 411.786L139.807 403.191L148.394 411.786L139.807 420.381ZM141.033 506.333L133.673 498.966L141.033 491.599L148.394 498.966L141.033 506.333ZM141.033 589.83L136.126 584.919L141.033 580.007L145.941 584.919L141.033 589.83ZM98.0953 292.68L87.054 281.629L98.0953 270.578L109.137 281.629L98.0953 292.68ZM96.8685 378.633L87.054 368.81L96.8685 358.987L106.683 368.81L96.8685 378.633ZM96.8685 462.129L89.5076 454.762L96.8685 447.395L104.229 454.762L96.8685 462.129ZM98.0953 548.082L91.9613 541.942L98.0953 535.803L104.229 541.942L98.0953 548.082ZM96.8685 634.034L91.9613 629.123L96.8685 624.211L101.776 629.123L96.8685 634.034ZM52.7035 334.429L42.8891 324.606L52.7035 314.782L62.5179 324.606L52.7035 334.429ZM53.9303 420.381L45.3427 411.786L53.9303 403.191L62.5179 411.786L53.9303 420.381ZM52.7035 506.333L45.3427 498.966L52.7035 491.599L60.0643 498.966L52.7035 506.333ZM52.7035 589.83L47.7963 584.919L52.7035 580.007L57.6107 584.919L52.7035 589.83ZM52.7035 678.238L47.7963 673.327L52.7035 668.415L57.6107 673.327L52.7035 678.238ZM10.9922 378.633L1.17773 368.81L10.9922 358.987L20.8066 368.81L10.9922 378.633ZM10.9922 462.129L3.63134 454.762L10.9922 447.395L18.353 454.762L10.9922 462.129ZM9.76536 548.082L3.63134 541.942L9.76536 535.803L15.8994 541.942L9.76536 548.082ZM10.9922 634.034L6.08495 629.123L10.9922 624.211L15.8994 629.123L10.9922 634.034ZM9.76536 719.987L6.08495 716.303L9.76536 712.619L13.4458 716.303L9.76536 719.987ZM401.116 83.939L381.487 64.2927L401.116 44.6465L420.745 64.2927L401.116 83.939ZM399.889 167.436L383.941 151.473L399.889 135.51L415.838 151.473L399.889 167.436ZM401.116 250.932L388.848 238.653L401.116 226.374L413.384 238.653L401.116 250.932ZM401.116 334.429L391.301 324.606L401.116 314.782L410.93 324.606L401.116 334.429ZM399.889 420.381L391.301 411.786L399.889 403.191L408.477 411.786L399.889 420.381ZM442.827 125.687L425.652 108.497L442.827 91.3063L460.003 108.497L442.827 125.687ZM442.827 209.184L428.106 194.449L442.827 179.714L457.549 194.449L442.827 209.184ZM444.054 292.68L433.013 281.629L444.054 270.578L455.095 281.629L444.054 292.68ZM442.827 378.633L433.013 368.81L442.827 358.987L452.642 368.81L442.827 378.633ZM442.827 462.129L435.466 454.762L442.827 447.395L450.188 454.762L442.827 462.129ZM485.765 167.436L469.817 151.473L485.765 135.51L501.714 151.473L485.765 167.436ZM486.992 250.932L474.724 238.653L486.992 226.374L499.26 238.653L486.992 250.932ZM486.992 334.429L477.178 324.606L486.992 314.782L496.807 324.606L486.992 334.429ZM485.765 420.381L477.178 411.786L485.765 403.191L494.353 411.786L485.765 420.381ZM486.992 506.333L479.631 498.966L486.992 491.599L494.353 498.966L486.992 506.333ZM531.157 209.184L516.436 194.449L531.157 179.714L545.879 194.449L531.157 209.184ZM529.93 292.68L518.889 281.629L529.93 270.578L540.972 281.629L529.93 292.68ZM531.157 378.633L521.343 368.81L531.157 358.987L540.972 368.81L531.157 378.633ZM531.157 462.129L523.796 454.762L531.157 447.395L538.518 454.762L531.157 462.129ZM529.93 548.082L523.796 541.942L529.93 535.803L536.064 541.942L529.93 548.082ZM572.869 250.932L560.6 238.653L572.869 226.374L585.137 238.653L572.869 250.932ZM572.869 334.429L563.054 324.606L572.869 314.782L582.683 324.606L572.869 334.429ZM574.095 420.381L565.508 411.786L574.095 403.191L582.683 411.786L574.095 420.381ZM572.869 506.333L565.508 498.966L572.869 491.599L580.229 498.966L572.869 506.333ZM572.869 589.83L567.961 584.919L572.869 580.007L577.776 584.919L572.869 589.83ZM615.807 292.68L604.765 281.629L615.807 270.578L626.848 281.629L615.807 292.68ZM617.033 378.633L607.219 368.81L617.033 358.987L626.848 368.81L617.033 378.633ZM617.033 462.129L609.673 454.762L617.033 447.395L624.394 454.762L617.033 462.129ZM615.807 548.082L609.673 541.942L615.807 535.803L621.941 541.942L615.807 548.082ZM617.033 634.034L612.126 629.123L617.033 624.211L621.941 629.123L617.033 634.034ZM661.198 334.429L651.384 324.606L661.198 314.782L671.013 324.606L661.198 334.429ZM659.972 420.381L651.384 411.786L659.972 403.191L668.559 411.786L659.972 420.381ZM661.198 506.333L653.838 498.966L661.198 491.599L668.559 498.966L661.198 506.333ZM661.198 589.83L656.291 584.919L661.198 580.007L666.106 584.919L661.198 589.83ZM661.198 678.238L656.291 673.327L661.198 668.415L666.106 673.327L661.198 678.238ZM702.91 378.633L693.095 368.81L702.91 358.987L712.724 368.81L702.91 378.633ZM702.91 462.129L695.549 454.762L702.91 447.395L710.271 454.762L702.91 462.129ZM704.137 548.082L698.003 541.942L704.137 535.803L710.271 541.942L704.137 548.082ZM702.91 634.034L698.003 629.123L702.91 624.211L707.817 629.123L702.91 634.034ZM704.137 719.987L700.456 716.303L704.137 712.619L707.817 716.303L704.137 719.987Z" fill="#DEE0FF"/>
</g>
</svg>
