<svg width="70" height="70" viewBox="0 0 70 70" fill="none" xmlns="http://www.w3.org/2000/svg">
<mask id="mask0_1064_4079" style="mask-type:luminance" maskUnits="userSpaceOnUse" x="0" y="0" width="70" height="70">
<path d="M70 0H0V70H70V0Z" fill="white"/>
</mask>
<g mask="url(#mask0_1064_4079)">
<path d="M35.0013 61.2497C45.4717 61.2497 53.9596 52.7617 53.9596 42.2913C53.9596 31.8209 45.4717 23.333 35.0013 23.333C24.5309 23.333 16.043 31.8209 16.043 42.2913C16.043 52.7617 24.5309 61.2497 35.0013 61.2497Z" stroke="#0F0F0E" stroke-width="2" stroke-linecap="round" stroke-linejoin="round"/>
<path d="M61.25 30.6247L64.1667 27.708" stroke="#0F0F0E" stroke-width="2" stroke-linecap="round" stroke-linejoin="round"/>
<path d="M61.25 53.958L64.1667 56.8747" stroke="#0F0F0E" stroke-width="2" stroke-linecap="round" stroke-linejoin="round"/>
<path d="M64.168 42.292H67.0846" stroke="#0F0F0E" stroke-width="2" stroke-linecap="round" stroke-linejoin="round"/>
<path d="M8.7526 53.958L5.83594 56.8747" stroke="#0F0F0E" stroke-width="2" stroke-linecap="round" stroke-linejoin="round"/>
<path d="M8.7526 30.6247L5.83594 27.708" stroke="#0F0F0E" stroke-width="2" stroke-linecap="round" stroke-linejoin="round"/>
<path d="M5.83464 42.292H2.91797" stroke="#0F0F0E" stroke-width="2" stroke-linecap="round" stroke-linejoin="round"/>
<path d="M31.625 23.6505L41.1847 9.99399C41.4536 9.60982 41.8112 9.29617 42.2272 9.07961C42.6431 8.86306 43.1051 8.75 43.5741 8.75H53.9535C54.487 8.74997 55.0104 8.8963 55.4666 9.17306C55.9227 9.44984 56.2943 9.84643 56.5406 10.3197C56.7871 10.793 56.8989 11.3247 56.8641 11.8572C56.8292 12.3896 56.649 12.9022 56.343 13.3393L46.5719 27.2983" stroke="#0F0F0E" stroke-width="2" stroke-linecap="round" stroke-linejoin="round"/>
<path d="M35.0028 18.8287L28.8185 9.99399C28.5496 9.60982 28.192 9.29617 27.7759 9.07961C27.36 8.86306 26.898 8.75 26.429 8.75H16.0496C15.5161 8.74997 14.9927 8.8963 14.5366 9.17306C14.0804 9.44984 13.7089 9.84643 13.4625 10.3197C13.2161 10.793 13.1042 11.3247 13.139 11.8572C13.1739 12.3896 13.3541 12.9022 13.6601 13.3393L23.4312 27.2983" stroke="#0F0F0E" stroke-width="2" stroke-linecap="round" stroke-linejoin="round"/>
</g>
</svg>
