<svg width="70" height="70" viewBox="0 0 70 70" fill="none" xmlns="http://www.w3.org/2000/svg">
<mask id="mask0_1064_4177" style="mask-type:luminance" maskUnits="userSpaceOnUse" x="0" y="0" width="70" height="70">
<path d="M70 0H0V70H70V0Z" fill="white"/>
</mask>
<g mask="url(#mask0_1064_4177)">
<path d="M49.5833 15.5083C52.2813 15.0212 55.1075 14.7383 58.205 14.6333C59.8617 14.5779 61.25 15.8904 61.25 17.5471V52.0717C61.25 53.6525 59.9871 54.9592 58.4092 54.9825C49.3908 55.1196 42.6008 56.7821 35 61.2504C27.3992 56.7821 20.6092 55.1196 11.5908 54.9854C10.0129 54.9621 8.75 53.6525 8.75 52.0717V17.5471C8.75 15.9166 10.0888 14.5779 11.7163 14.6304C20.6733 14.9191 27.4342 16.605 35 20.8429" stroke="black" stroke-width="2" stroke-linecap="round" stroke-linejoin="round"/>
<path d="M49.5833 44.4442V8.78503C49.5833 6.65878 47.3492 5.1742 45.4504 6.12795C40.3288 8.69461 36.0121 13.9125 35 19.285V61.25C36.155 55.1279 41.5946 49.2071 47.6321 47.18C48.8046 46.7863 49.5833 45.6809 49.5833 44.4442Z" stroke="black" stroke-width="2" stroke-linecap="round" stroke-linejoin="round"/>
</g>
</svg>
